<?xml version="1.0" encoding="utf-8"?>
<!-- Generator: Adobe Illustrator 22.0.1, SVG Export Plug-In . SVG Version: 6.00 Build 0)  -->
<svg version="1.1" id="C8" xmlns="http://www.w3.org/2000/svg" xmlns:xlink="http://www.w3.org/1999/xlink" x="0px" y="0px"
	 viewBox="0 0 3844.17 3886.94" enable-background="new 0 0 3844.17 3886.94" xml:space="preserve">
<g>
	<g>
		<path opacity="0.7" fill="#956EFF" d="M2181.79,1704.26c-25.18-13.26-48.37-4.96-61.29,3.65s-21.87,28.82-27.5,36.78
			s-19.88,0-19.88,0c-6.02-7.67-17.65-23.06-21.51-28.18c-0.97-2.44-2.15-4.4-3.39-5.67c-29.49-30.15-119.27,69.91-126.23,79.52
			c-4.32,5.97-6.21,17.32-4.32,27.68c-12.16,4.07-21.13,6.84-21.13,6.84c-3.57,0.94-3.57,0.94-3.57,0.94s-49.66-0.01-78.23,30.9
			c-46.98,50.82,16.92,137.98,16.92,137.98s-29.35-5.99-57.83,4.41c-28.48,10.4-66.8,21.14-78.83,23.1c0,0,9.7,8.71,11.59,11.32
			l-0.95,0.37c-2.81,1.94-12.28,3.85-17.59,4.03c-5.31,0.18-20.64-0.01-20.46,15.62c0.18,15.63,11.67,27.83,11.14,39.53
			c-0.53,11.7-8.39,50.59,0.76,52.62c8.92,1.99,16.81-24.89,18.68-40.85c1.11-9.45,17.03-32.26,24.57-42.61
			c0.7,2.07,1.21,4.08,1.47,5.96c0,0,95.17-21.1,127.29-20.65s45.96-10.53,51.36-26.98c2.36-7.18,1.26-8.84,1.26-8.84
			c9.43,12.74,14.42,16.54,14.42,16.54s-5.58-1.99-19.46,1.99c-13.88,3.98-20.05,13.42-33.96,20.38
			c-13.92,6.96-43.23,19.5-43.23,19.5s2.3,1.41,5.43,3.71l-8.88,3.35c-2.82,1.91-12.31,3.75-17.62,3.89
			c-5.31,0.14-20.64-0.17-20.58,15.46c0.06,15.63,11.46,27.92,10.83,39.62c-0.63,11.7-8.78,50.52,0.35,52.63
			c8.9,2.06,17-24.76,19-40.71c1.55-12.41,28.86-47.67,28.86-47.67l1.45-0.58c-0.08,3.73-0.45,6.46-0.45,6.46
			s19.88-7.95,34.79-14.91c14.91-6.96,93.43-18.39,110.39-22.86c16.96-4.47,19.82-27.83,14.85-40.25
			c-2.87-7.17-19.9-48.41-33.79-81.99c7.5-4.34,17.88-10.27,27.86-15.94c-2.71,5.92-5.28,11.99-5.13,15.75
			c0.33,8.28,32.8,15.24,38.76,10.27c4.59-3.82,0.94-29.78-1.59-44.13c3.78-1.85,21.89-10.86,32.6-19.03
			c22.87,9.91,58.25,25.1,70.83,29.71c19.17,7.03,33.55-1.28,36.42-9.9c1.36-4.08,2.94-34.71,4.22-65.84l-32.22-18.28
			c-2.85,23.22-5.54,46.42-5.54,46.42s-18.53-14.38-24.92-19.81c-4.77-4.06-20.93-15.05-28.82-20.37v-20.2l0-0.01
			c5.6-7.28,14.28-15.88,22.31-15.88c9.61,0,9.94,8.95,31.14,16.23c21.2,7.29,55.36-22.84,66.26-39.76
			C2211.28,1755.96,2206.97,1717.53,2181.79,1704.26z"/>
		<path opacity="0.7" fill="#7834D1" d="M1969.98,1816.08c0,0,44.01-28.61,52.96-37.44c8.95-8.83,14.87-16.22,14.87-16.22
			s-66.4,43.94-72.66,46.2L1969.98,1816.08z"/>
		<path opacity="0.7" fill="#7834D1" d="M1897.47,1825.81c0,0,23.54,0.58,44.07,52.56c0,0-7.12-44.22-34.76-55.51L1897.47,1825.81z"
			/>
		<path opacity="0.8" fill="#7834D1" d="M1840.73,2099.82c0,0,21.29-13.45,39.91-18.03c18.62-4.58,88.88-11.39,103.49-21
			c14.61-9.61,18.28-22.61,18.28-22.61s2.52,17.86-9.98,26.94c-12.5,9.08-32.72,8.28-57.54,13.08s-48.54,7.96-71.2,18.11
			c-5.46,2.45-23.41,9.96-23.41,9.96L1840.73,2099.82z"/>
		<path opacity="0.8" fill="#7834D1" d="M1700.97,2035.77c0,0,16.14,16.93,19.62,29.56l2.21-3.04c0,0-4.82-19.81-16.03-28.78
			C1706.78,2033.51,1704.47,2034.93,1700.97,2035.77z"/>
		<path opacity="0.8" fill="#7834D1" d="M1840.73,2099.82c0,0,0.34-11.32-5.53-17.74c-5.87-6.41-7.88-8.25-7.88-8.25l-5.67,2.14
			c0,0,16.65,16.6,17.64,24.43l0,0L1840.73,2099.82"/>
		<path opacity="0.7" fill="#7834D1" d="M1999.07,1920.16c0.95-2.64,1.52-5.01,1.1-6.22c-1.27-3.73-58.62-63.33-58.62-63.33
			s49.68,61.75,51.18,65.85c0.5,1.36-0.02,3.99-0.92,6.91l-29.1,12.88l4.3,11.21l26.47-15.16c0,0,3.62-6.65,5.59-12.13
			L1999.07,1920.16L1999.07,1920.16z"/>
		<path opacity="0.7" fill="#7834D1" d="M2026.36,1907.28l28.83-12.24c0,0-14.86,11.48-28.55,17.25L2026.36,1907.28z"/>
		<path opacity="0.7" fill="#7834D1" d="M2161.91,1842.41c-1.13,24.59-2.98,51.32-5.88,60.5c-5.83,18.48-28.23,19.2-28.23,19.2
			s10.04,5.96,24.45,1.79c14.41-4.17,13.72-12.02,15.17-24.04c0.65-5.38,1.75-28.89,2.76-53.24L2161.91,1842.41z"/>
		<path opacity="0.7" fill="#7834D1" d="M2059.01,1893.19c0,0,16.33-33.48,19.96-58.07l3.78,2.56c0,0-4.25,42.14-13.91,59.76
			L2059.01,1893.19z"/>
	</g>
	<g opacity="0.7">
		<path fill="#7834D1" d="M1845.15,1936.56c-1.21-2.59-1.92-4.07-1.92-4.07C1843.71,1933.69,1844.36,1935.06,1845.15,1936.56z"/>
		<path fill="#7834D1" d="M1904.23,2011.97l-1.44-1.72c0,0-38.98-45.83-49.89-66.6c6.37,13.78,29.39,59.28,32.28,84.73
			c-2.23,18.07-43.58,10.85-68.91,13.62c-13.47,1.47-93.7,20.19-93.7,20.19l1.46,5.96c0,0,81.77-15.31,92.24-17.47
			c10.47-2.16,37.07-3.16,44.11-3.16s12.39-1.45,12.39-1.45s8.28-7.27,14.18-10.86c5.9-3.58,11.24-4.82,11.24-4.82
			C1902.66,2024.06,1904.84,2014.74,1904.23,2011.97z"/>
	</g>
</g>
</svg>
