<?xml version="1.0" encoding="utf-8"?>
<!-- Generator: Adobe Illustrator 22.0.1, SVG Export Plug-In . SVG Version: 6.00 Build 0)  -->
<svg version="1.1" id="C8" xmlns="http://www.w3.org/2000/svg" xmlns:xlink="http://www.w3.org/1999/xlink" x="0px" y="0px"
	 viewBox="0 0 3844.17 3886.94" enable-background="new 0 0 3844.17 3886.94" xml:space="preserve">
<g>
	<path opacity="0.69" fill="#956EFF" d="M2179.1,1707.13c-15.2-17.95-29.41-25.35-47.68-21.39c-17.03,3.7-21.93,9.5-30.79,16.81
		c-8.86,7.31-21.26,25.79-20.38,40.96c0.6,10.37,5.25,14.89,2.45,21.92c-5.89,14.8-21.15,19.97-27.81,19.52
		c-6.66-0.45-37.64-16.99-61.43-22.22c-36.96-8.13-203.99,69.3-207.51,70.61c-3.52,1.31-29.43-5.98-31.76-6.01
		c-2.33-0.02-4.13-0.06-5.07,2.61c-1.38,3.88,11.54,5.49,12.19,8.24c0.66,2.75-25.23,4.38-28.28,9.54c-2.36,4-0.63,7.7,1.16,9.83
		c1.79,2.13,12.23,17.53,22.55,16.46c10.32-1.07,32.87-20.98,35.13-22.22c2.26-1.24,137.37-31.62,142.91-29.71
		c-21.76,13.19-54.09,31.77-54.91,31.77c0,0-99.47,8.13-127.1,13.52c-27.63,5.39-137.1,33.44-147.73,38.55
		c-16.85,8.09-14.15,37.59-16.17,68.33c-2.02,30.74-16.85,72.52-16.85,72.52s2.44,0,5.97,0.26c-0.35,2.68-1.72,10.12-5.97,11.37
		c0,0-28.82-1.75-35.21-3.54c-10.09-2.82-37.91-10.61-41.7-6.57c-3.79,4.04-5.05,7.83-4.04,12.38c1.01,4.55,3.29,25.27,13.39,31.34
		s41.95-0.25,48.78,1.26c6.82,1.52,35.89,17.69,45.74,10.61c9.86-7.08,6.32-14.41,8.59-24.77c2.27-10.36,4.32-14.57,4.32-14.57
		l-0.02-0.03c2.19,2.75,3.54,4.74,3.54,4.74s6.12-22.24,12.13-37.15c5.81-14.41,17.25-32.86,18.62-47.01
		c1.27-13.2,2.86-29.38,2.86-29.38l174.39-3.98c0,0-44.48,37.73-64.7,61.32c-20.22,23.59-28.64,35.05-39.43,43.81
		c-10.78,8.76-108.42,71.02-108.42,71.02c0.06,0,0.22,0.13,0.46,0.37l-0.46-0.37c0,0-17.94,14.41-28.56,11.88
		c-10.61-2.53-29.32-14.15-37.91-19.21s-11.63-17.16-20.22-14.9c-8.59,2.26-9.1,19.45,4.55,38.15
		c13.65,18.7,26.79,37.91,31.34,52.57c4.55,14.66,25.27,12.13,33.36,0c5.76-8.64,19.48-21.13,27.43-27.42
		c-0.45,3.69-0.13,6.74,2.5,5.85c5.95-2.02,57.17-26.28,71.99-31.67c14.83-5.39,45.83-18.87,56.61-35.72
		c10.78-16.85,45.83-31.68,55.26-37.07c9.44-5.39,82.89-44.48,97.05-55.94c14.15-11.46,66.21-53.58,66.21-53.58l-0.02-0.17
		c0.01,0.11,0.02,0.17,0.02,0.17l36-23.35c0.76,2.38,1.41,4.31,1.91,5.66c4.55,12.13,17.69,25.78,27.8,29.32
		c10.11,3.54,21.73,1.52,27.29-3.54c5.49-4.99,55.01-46.67,55.2-47.66c4.68-3.4,24.78-20.58,36.83-42.89
		c13.65-25.27-8.85-37.08-13.69-41.37c-7.53-6.67-13.58-15.35-14.69-18.86s-5.48-15.13,5.97-20.33
		c7.74-3.51,36.81-11.08,47.95-31.44C2192.2,1746.03,2194.3,1725.08,2179.1,1707.13z"/>
	<path opacity="0.69" fill="#7834D1" d="M1971.06,1820.54c0,0-0.8,2.7,1.1,6.31c1.9,3.6,4.39,7.64,4.39,7.64s0.78-0.16,0.76-1.16
		c-0.02-1-0.67-2.42-1.05-3.18c-0.55-1.11-3.9-6.82-4.24-8.05s-0.71-2.23,0.14-3.11
		C1972.16,1818.99,1971.43,1819.22,1971.06,1820.54z"/>
	<path opacity="0.7" fill="#7834D1" d="M1611.86,2064.53c0,0,12-37.41,14.93-44.88c2.94-7.47,12.54-23.22,13.08-29.36
		c0.53-6.14,2.94-41.4,3.74-40.85c0.8,0.55,196.73-17.78,196.73-17.78l-16.95,20.1l-174.39,3.98c0,0-2.69,26.89-3.04,30.92
		c-0.35,4.03-3.16,11.79-4.03,13.92c-0.86,2.12-11.88,25.39-13.53,29.45s-4.79,12.01-7.71,21.52c-2.92,9.5-5.29,17.73-5.29,17.73
		L1611.86,2064.53z"/>
	<path opacity="0.7" fill="#7834D1" d="M2033.88,1904.03c1.13-0.21,66.99-28.63,66.99-28.63l-60.21,39.65L2033.88,1904.03z"/>
	<path opacity="0.7" fill="#7834D1" d="M2019.52,1960.32c0,0,25.9,11.36,44.51-1.25s95.68-78.46,95.75-94.19
		c0,0-0.23,24.48-46.91,63.08s-49.69,47.95-70.24,46.31C2027.81,1973.08,2019.52,1960.32,2019.52,1960.32z"/>
	<path opacity="0.7" fill="#7834D1" d="M1577.98,2047.04c0,0,22.68,4.19,33.88,17.49l-2.37,6.93c0,0-19.79-19.81-31.8-22.6
		L1577.98,2047.04z"/>
	<path opacity="0.7" fill="#7834D1" d="M2184.19,1714.31c0,0,9.46,23.96-9.86,50.58c-15.4,21.23-44.67,35.04-44.67,35.04
		s41.51-13.24,51.4-33.55C2190.95,1746.08,2193.41,1728.96,2184.19,1714.31z"/>
	<g>
		<path opacity="0.7" fill="#7834D1" d="M2006.48,1937.51c0,0-1.83-6.53-4.43-15.61l0,0l0,0c-5.66-19.75-14.94-51.56-16.91-54.55
			c-2.87-4.37-20.17-6.38-25.16-8.84c-5-2.45-15.04-6.04-16.46-17.35c0,0-0.99,5.75,0,9.41c1.02,3.78,6.74,11.42,18.63,13.61
			c13.05,2.41,18.49,5.39,19.59,8.99c0.75,2.46,10.42,32.62,16.52,51.45c-5.47,3.94-16.4,11.81-29.57,21.31
			c-10.72-22.58-36.2-45.03-45-52.36c19.99,17.04,32.7,44.55,37.88,57.5c-34.65,25-79.75,57.61-84.91,61.71
			c-8.5,6.74-104.93,66.12-112.67,70.92s-20.55,18.95-26.69,28.02c-6.14,9.07-39.23,21.62-44.04,23.49
			c-4.66,1.81-66.36,29.25-70.02,30.88c-2.12-19.03-23.14-31.76-22.6-31.35c7.82,5.91,17.27,36.62,17.27,36.62l3.24-2.67
			c-0.34,0.93-0.55,2.16-0.43,3.78c0.37,4.93,2.62,2.36,8.27,0c5.65-2.36,75.23-31.75,98.36-44.14
			c23.38-12.52,22.01-19.24,27.07-24.25c7.1-7.02,13.85-13.31,23.34-18.12c16.91-8.58,101.3-55.54,115.18-63.87
			c13.89-8.32,53-41.4,66.87-52.62c11.2-9.06,34.73-24.33,43.37-29.87c0.01,0.01,0.01,0.03,0.01,0.03
			C2003.37,1939.52,2006.48,1937.51,2006.48,1937.51z"/>
		<path opacity="0.7" fill="#7834D1" d="M1922.35,1892.47c-1.11-0.91-1.74-1.4-1.74-1.4
			C1921.2,1891.53,1921.77,1892,1922.35,1892.47z"/>
		<path opacity="0.7" fill="#7834D1" d="M1923.68,1893.57c-0.44-0.37-0.89-0.74-1.33-1.1
			C1922.73,1892.79,1923.19,1893.16,1923.68,1893.57z"/>
	</g>
	<path opacity="0.7" fill="#7834D1" d="M1765.71,1865.32c1.28-0.18,19.21-17.78,23.55-18.87s75.72-16.71,97.28-19.71
		c21.56-3,48.23-4.64,48.23-4.64s-84.44,13.98-142.91,29.71l-17.19,13.07L1765.71,1865.32z"/>
</g>
</svg>
