<?xml version="1.0" encoding="utf-8"?>
<!-- Generator: Adobe Illustrator 22.0.1, SVG Export Plug-In . SVG Version: 6.00 Build 0)  -->
<svg version="1.1" id="C8" xmlns="http://www.w3.org/2000/svg" xmlns:xlink="http://www.w3.org/1999/xlink" x="0px" y="0px"
	 viewBox="0 0 3844.17 3886.94" enable-background="new 0 0 3844.17 3886.94" xml:space="preserve">
<g>
	<path opacity="0.69" fill="#956EFF" d="M2183.53,1693.35c-25.45-13.21-48.89-4.94-61.95,3.64c-13.06,8.58-22.1,28.71-27.79,36.63
		c-5.69,7.92-20.09,0-20.09,0c-7.09-8.9-18.8-28.07-26.12-34.65c-31.48-28.32-120.55,69.63-127.58,79.2
		c-4.54,6.17-7.35,24.19-0.27,37.42c-7.97,2.3-12.92,6.69-20.45,7.05c-8.09,0.38-26.73,2.1-34.94,4.71
		c-16.31,5.18-34.62,7.25-59.22,49.51c-31.22,53.62-45.8,113.52-45.8,113.52s-63.05-3.24-102.73,8.14
		c-39.68,11.39-78.95,16.78-78.95,16.78s-20.83,3.9-19.69,5.89c-3.45,0.94-11.16-2.73-16.25-4.08c-5.18-1.38-19.94-6.02-24.39,8.92
		c-4.45,14.94,3.06,29.91-0.92,40.9c-3.98,10.99-23.06,45.74-14.82,50.35c8.03,4.49,23.61-18.81,30.14-33.47
		c4.43-9.95,31.13-28.21,38.3-33.4c0.55,2.43,0.95,4.85,1.14,7.23c0,0,58.81-1.05,100.61-1.48c18.27-0.19,31.65,0.18,31.65,0.18
		c-31.65-0.18-70.11,5.5-70.11,5.5c1.32,2.01,1.37,3.11,1.71,5.17c-4.27-0.68-6.19-0.81-9.64-2.36c-4.89-2.18-18.7-9.11-25.53,4.92
		c-6.84,14.03-1.89,30-7.62,40.22c-5.73,10.21-30.26,41.47-22.88,47.32c7.19,5.71,26.38-14.8,35.23-28.23
		c4.02-6.1,14.58-13.73,26.73-20.39c-0.49,1.99-0.92,4.61-1.09,4.61c-1,0,119.71-16.08,161.67-20.56
		c43.23-4.62,55.98-14.05,65.15-28.98c9.03-14.71,99.48-123.68,99.48-123.68c4.89-2.96,20.56-11.8,35.76-20.32
		c-2.38,5.24-4.42,10.4-4.28,13.72c0.33,8.25,33.15,15.18,39.18,10.23c4.5-3.7,1.16-28.17-1.38-42.68l0,0c0,0,11.6-5.48,22.57-12.01
		c19.32,8.3,72.32,30.97,88.64,36.86c20.09,7.26,35.16-1.32,38.17-10.23c1.39-4.1,2.98-34.07,4.31-65.26l-34.09-18.13
		c-2.81,22.76-5.38,44.46-5.38,44.46s-19.42-14.85-26.12-20.46c-6.15-5.15-30.35-21.14-34.27-23.73v-28.76l0-0.01
		c5.66-7.25,14.44-15.82,22.55-15.82c9.72,0,10.05,8.91,31.48,16.17c2.23,0.76,4.6,1.1,7.08,1.1c0.22,0,0.44-0.01,0.66-0.01
		c1.12-0.03,2.26-0.11,3.42-0.27c0.18-0.03,0.36-0.06,0.54-0.09c0.35-0.05,0.69-0.11,1.04-0.18c17.23-3.4,37.46-21.48,40.53-24.3
		c5.84-5.58,10.67-11.22,13.7-15.86C2213.34,1744.85,2208.98,1706.56,2183.53,1693.35z"/>
	<g opacity="0.7">
		<path fill="#7834D1" d="M1588.08,2124.87c-0.21,0-0.34,0.01-0.34,0.01S1587.87,2125.19,1588.08,2124.87z"/>
		<path fill="#7834D1" d="M1998.53,1903.32c0.12-0.88,0.11-1.63-0.09-2.17c-1.47-3.87-75.34-79.2-75.34-79.2
			s67.43,76.53,66.31,82.27c-0.2,1.02-0.64,5.04-1.23,6.58c-12.97,6.04-33.55,15.61-33.74,15.61c-0.28,0-91.87,129.19-119.17,146.71
			c-24.17,15.52-203.48,32.97-203.48,32.97c-0.27,2.07-1.39,6.72-1.58,7.01c8.23-0.17,148.7-19.86,181.84-23.39
			c33.72-3.59,40.51-20.54,50.53-34.12c10.02-13.58,93.34-115.84,93.34-115.84l35.76-20.32
			C1991.67,1919.44,1997.77,1908.76,1998.53,1903.32L1998.53,1903.32L1998.53,1903.32z"/>
	</g>
	<path opacity="0.7" fill="#7834D1" d="M1570.52,2051.19c0,0,76.5-3.58,90.35-3.59c13.85,0,93.68,0.49,104.09-0.34
		c19.13-1.53,28.8-6.94,42.68-19.35c11.44-10.23,67.35-106.31,67.35-106.31s-48.3,96.63-53.85,107.44
		c-10.25,19.97-32.68,27.84-46.29,27.57c-12.88-0.26-69.99,1.14-82.56,0c-12.57-1.14-27.47,0-46.97,0
		c-19.79,0-73.66,1.82-73.66,1.82L1570.52,2051.19z"/>
	<path opacity="0.7" fill="#7834D1" d="M1627.39,2065.48c0,0,4.98,6.81,4.67,40.03c0,0,6.38-28.8,2.66-38.31L1627.39,2065.48z"/>
	<path opacity="0.7" fill="#7834D1" d="M1558.22,2020.53c0,0,7.05,5.13,9.78,14.25c2.73,9.11,2.27,14.98,2.27,14.98l-3.65,2.67
		c0,0-4.3-28.33-10.8-31.56L1558.22,2020.53z"/>
	<path opacity="0.7" fill="#7834D1" d="M1967.78,1804.44c0,0,44.01-28.61,52.96-37.44c8.95-8.83,14.87-16.22,14.87-16.22
		s-66.4,43.94-72.66,46.2L1967.78,1804.44z"/>
	<path opacity="0.7" fill="#7834D1" d="M2047.76,1888.83c0,0,25.49-23.69,31.27-56.5l5.02,3.32c0,0-4.03,42.93-18.14,60.47
		L2047.76,1888.83z"/>
	<path opacity="0.7" fill="#7834D1" d="M2170.51,1846c-1.13,24.59-2.98,51.32-5.88,60.5c-5.83,18.48-28.23,19.2-28.23,19.2
		s10.04,5.96,24.45,1.79c14.41-4.17,13.72-12.02,15.17-24.04c0.65-5.38,1.75-28.89,2.76-53.24L2170.51,1846z"/>
	<polygon opacity="0.7" fill="#7834D1" points="2023.96,1894.44 2047.76,1888.83 2025.19,1900.84 	"/>
</g>
</svg>
