<?xml version="1.0" encoding="utf-8"?>
<!-- Generator: Adobe Illustrator 22.0.1, SVG Export Plug-In . SVG Version: 6.00 Build 0)  -->
<svg version="1.1" id="C8" xmlns="http://www.w3.org/2000/svg" xmlns:xlink="http://www.w3.org/1999/xlink" x="0px" y="0px"
	 viewBox="0 0 3844.17 3886.94" enable-background="new 0 0 3844.17 3886.94" xml:space="preserve">
<g>
	<path opacity="0.69" fill="#956EFF" d="M2180.7,1863.07c0,0-49.49-20.65-49.49-20.65l-56.72-30.36c-0.22,0.11-0.56,0.15-0.98,0.11
		l0.98-0.11c0,0,2.08-16.35,9.37-19.13c7.28-2.78,12.38,2.8,23.55,1.58c11.01-1.2,19.52-10.2,29.82-25.21
		c9.36-13.65,13.56-32.53,13.02-40.93c-1.15-17.88-4.46-28.89-25.62-40.68c-21.16-11.79-43.24-7.47-61.54,12.29
		c-16.24,17.53-17.55,55.06-19.81,59.31c-2.25,4.25,0,0-3.12,4.86c-3.12,4.86-16.3,4.86-16.3,4.86c-1.15-0.58-15.28-7.86-38.35-6.71
		c0.14-0.08,0.21-0.13,0.2-0.13c-0.37-0.1-20.12-12.24-36.77-4.6c-16.61,7.61-19.76,33.72-19.77,33.86
		c-24.4,22.99-48.03,52.94-55.85,59.46c-12.49,10.41-69.87,13.16-85.97,18.43c-16.1,5.27-52.1,23.89-86.09,53.03
		c-34,29.14-71.46,56.2-74.93,58.97c-3.47,2.78-167.45,70.48-170.5,73.02c-3.12,2.6-1.56,6.02,0.52,6.07c0,0-56.2,35.39-61.92,40.07
		c-5.72,4.68-4.16,27.58-3.12,35.9s24.98-5.72,31.22-9.89c3.96-2.64,36.53-18.23,59.87-29.3c14.83-2.59,182.2-69.4,184.87-69.4
		c2.78,0,122.11-56.2,123.49-55.5c1.39,0.69,2.78,13.18-6.94,29.14c-9.71,15.96-38.16,56.2-38.16,56.2s-33.3,4.86-74.93,20.81
		c-41.63,15.96-85.34,40.93-90.19,51.34c-3.12,1.73-13.18,2.78-18.73,2.43c-5.55-0.35-21.51-2.08-22.89,14.22
		c-1.39,16.3,9.37,30.18,7.63,42.32c-1.73,12.14-12.84,47.18-3.12,48.57c9.71,1.39,15.26-23.24,22.2-34.34
		c5.7-9.12,30.22-27.48,38.78-33.74c5.72-1.99,101.72-39.49,127.38-40.85c26.36-1.39,48.57-6.24,58.97-18.04
		c10.41-11.79,119.33-133.9,119.33-133.9s17.85-12.11,40.51-25.38c20.82-12.19,55.93-27.35,80.91-44
		c11.44-7.63,16.82-12.66,29.09-17.47c12.27-4.81,30.87-7.31,40.54-4.77c9.67,2.55,37.65,10.01,44.84,12.52
		c14.92,5.2,64.52,15.96,70.42,3.12s4.49-23.07,4.49-23.07l-39.57-23.25L2180.7,1863.07z M1607.35,2167.08l3.22-2.53
		c-1.41,1.22-2.74,2.21-3.82,2.96C1607.12,2167.24,1607.35,2167.08,1607.35,2167.08z"/>
	<polygon opacity="0.69" fill="#7834D1" points="1790.73,1972.29 1784.72,1963.65 1675.06,2019.72 1481.3,2097.17 1484.67,2097.17 
		1673.89,2026.99 	"/>
	<path opacity="0.69" fill="#7834D1" d="M1456.32,2060.4c0,0,31.15-11.89,41.36,2.94c10.21,14.83-16.38,33.83-16.38,33.83
		s19.58-22.2,11.58-32.81C1484.83,2053.7,1456.32,2060.4,1456.32,2060.4z"/>
	<path opacity="0.69" fill="#7834D1" d="M2064.2,1877.99c-18.64,3.33-122.94,70.06-132.51,74.23c-4.15,1.81-12.98,7.97-21.98,14.95
		c-4.99-51.5-60.35-81.63-60.35-81.63c44.49,38.81,52.8,70.26,53.27,87.27c-9.14,7.47-17.19,14.83-19.02,18.08
		c-4.05,7.2-78.77,90.96-88.78,104.09c-10.01,13.13-25.82,21.92-37.43,23.82c-10.34,1.69-33.93,4.5-51.54,9.15
		c-12.25,3.23-99.15,36.42-104.17,33.4c-5.02-3.02-21.18-31.58-21.18-31.58l15.67,45.57l7.92-6.03c0,0,0,0,0,0l0,0
		c0,0,81.44-30.8,102.16-35.51c5.39-1.22,13.86-3.53,22.12-4.8c9.47-1.47,18.73-1.87,24.02-2.5c10.81-1.3,30.83-8.18,34.83-12.71
		s101.58-113.52,113.75-127.17c12.17-13.65,45.48-34.97,95.42-59.45c30.53-13.95,46.55-31.81,67.8-38.86
		c22.63-7.51,43.4-1.75,43.4-1.75S2082.84,1874.67,2064.2,1877.99z"/>
	<path opacity="0.69" fill="#7834D1" d="M2067.91,1808.42c0.2-0.2,4.6-16.41,10.21-20.02c5.6-3.6,16.27,1.26,23.48,2.28
		c7.21,1.02,15.37,1.35,19.17-2.06c0,0-6.31,5.72-13.37,5.9c-7.06,0.19-6.77,0.19-10.33-0.67s-10.13-2.99-14.14-0.46
		s-6.48,8.92-8.45,18.68L2067.91,1808.42z"/>
	<polygon opacity="0.7" fill="#7834D1" points="2180.7,1863.07 2220.62,1885.87 2220.86,1877.41 2181.29,1854.16 	"/>
</g>
</svg>
