<?xml version="1.0" encoding="utf-8"?>
<!-- Generator: Adobe Illustrator 22.0.1, SVG Export Plug-In . SVG Version: 6.00 Build 0)  -->
<svg version="1.1" id="C8" xmlns="http://www.w3.org/2000/svg" xmlns:xlink="http://www.w3.org/1999/xlink" x="0px" y="0px"
	 viewBox="0 0 3844.17 3886.94" enable-background="new 0 0 3844.17 3886.94" xml:space="preserve">
<g>
	<path opacity="0.69" fill="#956EFF" d="M2252,2307.49c-8.76-8.84-41.35-24.86-57.92-34.25c-5.72-3.24-8.9-8.22-10.75-13.32
		l3.94,0.43c0,0,20.62-57.45,31.67-79.55c11.05-22.1,37.56-64.82,32.41-78.81c-4.07-11.04-60.33-46.32-99.12-67.26
		c4.93-26.38,8.84-56.57,5.78-72.5c-4.27-22.22-16.44-68.76-22.01-88.77c16.25-11.24,34.49-35.84,46.32-52.1
		c17.68-24.31,22.65-70.16-6.63-91.7c-29.28-21.54-59.42-17.62-79.86-1.05c-20.44,16.57-32.83,54.64-37.52,70.96
		c-0.07,0.26-0.18,0.42-0.25,0.67l2.23-8.07c0,0-77.04,21.83-96.19,43.19c-19.15,21.36-33.48,61.38-40.51,77.34
		c0,0-18.41,44.19-32.41,62.61c-13.99,18.41-23.57,31.67-31.67,71.44c-8.1,39.77,16.94,96.49,28.73,123
		c11.78,26.52,35.35,66.29,35.35,66.29v173.09c0,0,3.13,0.44,7.98,0.81l-0.98,0.5c1.66,2.01,14.36,53.38,24.86,64.98
		c10.5,11.6,48.61,22.65,51.38,14.91c2.76-7.73,0.55-24.31-7.73-41.98c-4.77-10.17-11.9-28.72-17.11-42.67
		c5.24-1.05,7.9-1.71,7.9-1.71s16.2-159.1,14.73-179.72c-1.47-20.62-13.99-110.48-13.99-110.48s69.97,5.16,96.49,5.89
		c0.18,0,0.38,0.01,0.57,0.02c0.08,8.07,3.02,13.35,6.82,9.93c2.09-1.88,3.62-5.8,4.81-9.64c1.27,0.03,2.54,0.06,3.84,0.09
		c-1.17,11.91-3.95,31.24,3.5,36.62c9.94,7.18,32.04-17.12,39.49-25.41c2.05-2.28,2.16-5.97,1.46-10.35
		c7.91,0.14,13.17,0.22,13.17,0.22s-19.15,42.72-25.04,62.61c-5.89,19.89-9.58,69.97-9.58,69.97l7.78,0.84
		c-1.71,8.73-17.19,19.23-13.04,33.04c4.15,13.81,31.22,12.71,44.48,13.81s30.94,14.36,51.37,21.54
		C2237.16,2330.13,2260.76,2316.32,2252,2307.49z M2031.48,1995.9c1.82,0,42.72-33.57,61.94-51.52c4.65,6.8,9.9,16.28,12.84,27.77
		c2.37,9.25,3.8,27.39,4.65,46.11C2077.7,2006.78,2029.58,1995.9,2031.48,1995.9z"/>
	<polyline opacity="0.7" fill="#7834D1" points="2133.91,2254.56 2183.33,2259.92 2187.73,2268.48 2132.17,2258.88 2133.54,2256.74 
			"/>
	<path opacity="0.7" fill="#7834D1" d="M2239.48,2090.34c-16.32-13.95-72.26-46.72-72.26-46.72c-0.42-0.24-15.36-8.52-15.36-8.52
		s-6.93,21.02-7.49,43.11c-0.55,22.1,2.84,43.08,2.84,43.08l13.17,0.22c0,0-3.77-6.21-4.36-21.26c-0.38-9.73,4.57-30.38,8.01-43.87
		c10.57,5.67,51.55,27.9,63.38,37.49c13.63,11.05,9.58,22.28,4.79,35.35c-4.79,13.07-27.07,60.77-33.15,73.84
		c-6.08,13.07-23.2,57.66-23.2,57.66h11.04c0,0,51.6-114.29,59.1-133.53C2254.85,2104.48,2253.51,2102.33,2239.48,2090.34z"/>
	<polygon opacity="0.7" fill="#7834D1" points="2018.42,2006.4 2113.99,2038.44 2110.55,2018.62 2031.11,1996.26 2093.05,1944.74 
		2004.61,2003.08 	"/>
	<path opacity="0.7" fill="#7834D1" d="M2135.62,1873.83c0,0-14.45,10.5-31.58,0c-17.12-10.5-22.65,0.01-27.62,0
		c0,0,19.06,0.78,24.86,4.67s25.69,8.03,28.45,5.82c0,0,18.78,64.91,20.99,76.51s1.13,74.28,1.13,74.28s9.32-48.46,6.62-65.72
		C2155.77,1952.13,2135.62,1873.83,2135.62,1873.83z"/>
	<path opacity="0.7" fill="#7834D1" d="M1930.57,2410.44c0.98-0.5,30.87,1.57,51.39-4.76l2.87,7.64c0,0-41.1,6.7-52.05,3.54
		L1930.57,2410.44z"/>
	<path opacity="0.7" fill="#7834D1" d="M1990.24,2114.14l-6.62-1.4l0.83,69.88c0,0,1.93-3.32,9.39,17.4
		c7.46,20.72,4.96,33.7,4.97,44.18c0.01,9.43-5.8,14.1-5.8,14.1c0,1-0.3,5.64-0.81,12.6c0.04-0.59,0.81-12.6,0.81-12.6
		c-22.37,2.21-45.04-14.63-44.75-14.09c9.94,18.23,43.92,26.75,43.93,26.79c-2.55,35.28-10.23,130.92-10.23,130.92l-0.36,4.12
		l7.9-1.71l1.32-13.16c4.78-26.62,13.27-154.44,13.41-166.56C2004.37,2212.5,1990.24,2114.14,1990.24,2114.14z"/>
	<path opacity="0.7" fill="#7834D1" d="M2004.23,1869.16c0,0-6.62,80.81-14.72,112.52c-8.1,31.71-17.68,44.97-15.47,46.44
		c2.21,1.47,2.95,76.35,2.95,76.35s8.34-66.04,7.48-77.82c-0.85-11.78,15.33-39.34,19.76-81.91
		C2008.66,1902.18,2004.23,1869.16,2004.23,1869.16z"/>
</g>
</svg>
