<?xml version="1.0" encoding="utf-8"?>
<!-- Generator: Adobe Illustrator 22.0.1, SVG Export Plug-In . SVG Version: 6.00 Build 0)  -->
<svg version="1.1" id="A2" xmlns="http://www.w3.org/2000/svg" xmlns:xlink="http://www.w3.org/1999/xlink" x="0px" y="0px"
	 viewBox="0 0 3844.2 3886.9" enable-background="new 0 0 3844.2 3886.9" xml:space="preserve">
<g>
	<g>
		<g>
			<g enable-background="new    ">
				<g>
					<path fill="#DFDFDF" d="M2064.4,2687.7c-109.3,61.4-284.1,59.6-390.4-3.9c-106.3-63.5-103.8-164.8,5.5-226.1
						s284.1-59.6,390.4,3.9C2176.2,2525.1,2173.8,2626.3,2064.4,2687.7z M1941.2,2614c39.3-22.1,40.2-58.5,2-81.3
						c-38.2-22.8-101.1-23.5-140.4-1.4c-39.3,22.1-40.2,58.5-2,81.3C1839,2635.4,1901.9,2636,1941.2,2614"/>
				</g>
				<g enable-background="new    ">
					<g>
						<defs>
							<path id="SVGID_1_" d="M2146.6,2589.9c8.3-45.5-17.2-92.9-76.6-128.4c-106.3-63.5-281.1-65.3-390.4-3.9
								c-62.9,35.3-90.5,83.9-82.2,130.8l-97.2-553.7c-11.2-63.8,26.2-129.8,111.8-177.8c148.7-83.4,386.3-81,530.8,5.4
								c80.8,48.3,115.4,112.6,104.1,174.6C2213.4,2221.2,2180,2405.5,2146.6,2589.9z"/>
						</defs>
						<clipPath id="SVGID_2_">
							<use xlink:href="#SVGID_1_"  overflow="visible"/>
						</clipPath>
						<g clip-path="url(#SVGID_2_)" enable-background="new    ">
							<path fill="#CECECE" d="M2146.6,2589.9l100.3-553.2c0.1-0.4,0.1-0.8,0.2-1.2L2146.7,2589
								C2146.7,2589.3,2146.6,2589.6,2146.6,2589.9"/>
							<path fill="#CFCFCF" d="M2146.7,2589l100.4-553.5c0.1-0.7,0.2-1.5,0.4-2.2L2147,2587.4
								C2146.9,2587.9,2146.8,2588.5,2146.7,2589"/>
							<path fill="#CFCFCF" d="M2147,2587.4l100.5-554.1c0.1-0.8,0.2-1.5,0.3-2.3l-100.5,554.7
								C2147.2,2586.3,2147.1,2586.8,2147,2587.4"/>
							<path fill="#D0D0D0" d="M2147.2,2585.7l100.5-554.7c0.1-0.8,0.2-1.5,0.3-2.3L2147.4,2584
								C2147.4,2584.6,2147.3,2585.1,2147.2,2585.7"/>
							<path fill="#D0D0D0" d="M2147.4,2584l100.6-555.3c0.1-0.8,0.2-1.5,0.2-2.3l-100.7,555.9
								C2147.6,2582.9,2147.5,2583.4,2147.4,2584"/>
							<path fill="#D1D1D1" d="M2147.6,2582.3l100.7-555.9c0.1-0.8,0.1-1.5,0.2-2.3l-100.7,556.5
								C2147.7,2581.2,2147.7,2581.8,2147.6,2582.3"/>
							<path fill="#D1D1D1" d="M2147.8,2580.6l100.7-556.5c0.1-0.8,0.1-1.5,0.2-2.3l-100.8,557.1
								C2147.9,2579.5,2147.8,2580.1,2147.8,2580.6"/>
							<path fill="#D2D2D2" d="M2147.9,2578.9l100.8-557.1c0.1-0.8,0.1-1.5,0.1-2.3L2148,2577.2
								C2148,2577.8,2147.9,2578.4,2147.9,2578.9"/>
							<path fill="#D2D2D2" d="M2148,2577.2l100.8-557.7c0-0.8,0.1-1.5,0.1-2.3L2148,2575.5C2148,2576.1,2148,2576.7,2148,2577.2"/>
							<path fill="#D3D3D3" d="M2148.1,2575.5l100.9-558.3c0-0.8,0-1.6,0-2.4l-100.9,559C2148.1,2574.4,2148.1,2575,2148.1,2575.5"
								/>
							<path fill="#D3D3D3" d="M2148.1,2573.8l100.9-559c0-0.8,0-1.6,0-2.4L2148.1,2572C2148.1,2572.6,2148.1,2573.2,2148.1,2573.8"
								/>
							<path fill="#D4D4D4" d="M2148.1,2572l100.9-559.6c0-0.8,0-1.6-0.1-2.4L2148,2570.2C2148.1,2570.8,2148.1,2571.4,2148.1,2572"
								/>
							<path fill="#D4D4D4" d="M2148,2570.2l100.8-560.3c0-0.8-0.1-1.6-0.1-2.4L2148,2568.4C2148,2569,2148,2569.6,2148,2570.2"/>
							<path fill="#D4D4D4" d="M2148,2568.4l100.8-560.9c0-0.8-0.1-1.6-0.1-2.4l-100.8,561.5
								C2147.9,2567.3,2147.9,2567.9,2148,2568.4"/>
							<path fill="#D5D5D5" d="M2147.9,2566.7l100.8-561.5c-0.1-0.8-0.1-1.6-0.2-2.4l-100.7,562.2
								C2147.8,2565.5,2147.8,2566.1,2147.9,2566.7"/>
							<path fill="#D5D5D5" d="M2147.7,2564.9l100.7-562.2c-0.1-0.8-0.1-1.6-0.2-2.4l-100.7,562.8
								C2147.6,2563.7,2147.7,2564.3,2147.7,2564.9"/>
							<path fill="#D6D6D6" d="M2147.5,2563.1l100.7-562.8c-0.1-0.9-0.2-1.7-0.3-2.6l-100.6,563.5
								C2147.4,2561.8,2147.5,2562.5,2147.5,2563.1"/>
							<path fill="#D6D6D6" d="M2147.3,2561.2l100.6-563.5c-0.1-0.9-0.2-1.7-0.4-2.6l-100.5,564.2
								C2147.1,2559.9,2147.2,2560.6,2147.3,2561.2"/>
							<path fill="#D7D7D7" d="M2147.1,2559.3l100.5-564.2c-0.1-0.9-0.3-1.7-0.4-2.6l-100.4,564.9
								C2146.9,2558,2147,2558.7,2147.1,2559.3"/>
							<path fill="#D7D7D7" d="M2146.8,2557.4l100.4-564.9c-0.1-0.9-0.3-1.7-0.5-2.6l-100.3,565.6
								C2146.5,2556.1,2146.6,2556.7,2146.8,2557.4"/>
							<path fill="#D8D8D8" d="M2146.4,2555.5l100.3-565.6c-0.2-0.9-0.3-1.7-0.5-2.6L2146,2553.6
								C2146.2,2554.2,2146.3,2554.9,2146.4,2555.5"/>
							<path fill="#D8D8D8" d="M2146,2553.6l100.1-566.2c-0.2-0.9-0.4-1.7-0.6-2.6l-100,566.9
								C2145.8,2552.3,2145.9,2552.9,2146,2553.6"/>
							<path fill="#D9D9D9" d="M2145.6,2551.7l100-566.9c-0.2-0.9-0.4-1.8-0.7-2.7l-99.8,567.6
								C2145.3,2550.3,2145.4,2551,2145.6,2551.7"/>
							<path fill="#D9D9D9" d="M2145.1,2549.7l99.8-567.6c-0.2-0.9-0.5-1.9-0.8-2.9l-99.6,568.4
								C2144.8,2548.3,2144.9,2549,2145.1,2549.7"/>
							<path fill="#DADADA" d="M2144.6,2547.6l99.6-568.4c-0.3-0.9-0.5-1.9-0.8-2.9l-99.4,569.2
								C2144.2,2546.2,2144.4,2546.9,2144.6,2547.6"/>
							<path fill="#DADADA" d="M2144,2545.5l99.4-569.2c-0.3-0.9-0.6-1.9-0.9-2.8l-99.1,569.9
								C2143.5,2544.1,2143.7,2544.8,2144,2545.5"/>
							<path fill="#DBDBDB" d="M2143.3,2543.4l99.1-569.9c-0.3-0.9-0.6-1.9-1-2.8l-98.9,570.7
								C2142.8,2542,2143.1,2542.7,2143.3,2543.4"/>
							<path fill="#DBDBDB" d="M2142.6,2541.3l98.9-570.7c-0.3-0.9-0.7-1.9-1-2.8l-98.6,571.4
								C2142.1,2539.9,2142.3,2540.6,2142.6,2541.3"/>
							<path fill="#DCDCDC" d="M2141.8,2539.2l98.6-571.4c-0.4-1.1-0.8-2.1-1.2-3.1l-98.3,572.2
								C2141.3,2537.7,2141.6,2538.4,2141.8,2539.2"/>
							<path fill="#DCDCDC" d="M2141,2536.9l98.3-572.2c-0.4-1.1-0.9-2.2-1.3-3.2l-97.9,573.1
								C2140.3,2535.3,2140.6,2536.1,2141,2536.9"/>
							<path fill="#DDDDDD" d="M2140,2534.5l97.9-573.1c-0.5-1.1-0.9-2.1-1.4-3.2l-97.6,573.9
								C2139.3,2533,2139.6,2533.7,2140,2534.5"/>
							<path fill="#DDDDDD" d="M2138.9,2532.2l97.6-573.9c-0.5-1.1-1-2.1-1.5-3.2l-97.2,574.8
								C2138.2,2530.6,2138.6,2531.4,2138.9,2532.2"/>
							<path fill="#DDDDDD" d="M2137.8,2529.8L2235,1955c-0.5-1.1-1.1-2.1-1.6-3.2l-96.8,575.6
								C2137,2528.2,2137.4,2529,2137.8,2529.8"/>
							<path fill="#DEDEDE" d="M2136.7,2527.5l96.8-575.6c-0.6-1.2-1.3-2.4-1.9-3.6l-96.2,576.6
								C2135.7,2525.7,2136.2,2526.6,2136.7,2527.5"/>
							<path fill="#DEDEDE" d="M2135.2,2524.8l96.2-576.6c-0.7-1.3-1.4-2.6-2.1-3.8l-95.7,577.6
								C2134.2,2522.9,2134.7,2523.9,2135.2,2524.8"/>
							<path fill="#DFDFDF" d="M2133.7,2522l95.7-577.6c-0.7-1.3-1.5-2.5-2.3-3.8l-95.1,578.6
								C2132.6,2520.1,2133.1,2521.1,2133.7,2522"/>
							<path fill="#DFDFDF" d="M2132,2519.2l95.1-578.6c-0.8-1.3-1.6-2.5-2.4-3.8l-94.4,579.6
								C2130.8,2517.3,2131.4,2518.3,2132,2519.2"/>
							<path fill="#E0E0E0" d="M2130.2,2516.4l94.4-579.6c-0.9-1.4-1.9-2.9-2.9-4.3l-93.7,580.7
								C2128.8,2514.3,2129.5,2515.4,2130.2,2516.4"/>
							<path fill="#E0E0E0" d="M2128.1,2513.2l93.7-580.7c-1.1-1.6-2.3-3.2-3.5-4.8l-92.8,582
								C2126.4,2510.9,2127.3,2512,2128.1,2513.2"/>
							<path fill="#E1E1E1" d="M2125.5,2509.7l92.8-582c-1.2-1.6-2.4-3.2-3.7-4.8l-91.8,583.3
								C2123.7,2507.3,2124.7,2508.5,2125.5,2509.7"/>
							<path fill="#E1E1E1" d="M2122.8,2506.2l91.8-583.3c-1.4-1.8-2.9-3.6-4.4-5.4l-90.6,584.7
								C2120.7,2503.5,2121.8,2504.8,2122.8,2506.2"/>
							<path fill="#E2E2E2" d="M2119.6,2502.2l90.6-584.7c-2-2.4-4.1-4.7-6.3-7l-89,586.6
								C2116.6,2498.8,2118.1,2500.5,2119.6,2502.2"/>
							<path fill="#E2E2E2" d="M2115,2497l89-586.6c-2.4-2.5-4.8-5-7.4-7.5l-87,588.6C2111.4,2493.3,2113.2,2495.2,2115,2497"/>
							<path fill="#E3E3E3" d="M2109.5,2491.5l87-588.6c-13-12.7-28.4-24.8-46.3-36.1l-74.8,598.1
								C2088.6,2473.3,2100,2482.2,2109.5,2491.5"/>
							<path fill="#E2E2E2" d="M2075.5,2464.9l74.8-598.1c-2.5-1.6-5-3.1-7.5-4.6c-1.6-1-3.3-1.9-4.9-2.9l-71.5,600.1
								c1.2,0.7,2.4,1.4,3.6,2.1C2071.9,2462.7,2073.7,2463.8,2075.5,2464.9"/>
							<path fill="#E2E2E2" d="M2066.4,2459.4l71.5-600.1c-3-1.7-6.1-3.5-9.2-5.1l-69,601.5
								C2061.9,2456.9,2064.1,2458.1,2066.4,2459.4"/>
							<path fill="#E1E1E1" d="M2059.6,2455.6l69-601.5c-3-1.6-6-3.2-9.1-4.7l-66.6,602.7
								C2055.2,2453.3,2057.4,2454.5,2059.6,2455.6"/>
							<path fill="#E1E1E1" d="M2052.9,2452.1l66.6-602.7c-2.2-1.1-4.4-2.2-6.6-3.3l-64.9,603.6
								C2049.7,2450.5,2051.3,2451.3,2052.9,2452.1"/>
							<path fill="#E0E0E0" d="M2048,2449.7l64.9-603.6c-2.2-1.1-4.5-2.1-6.7-3.2l-63.1,604.4
								C2044.8,2448.2,2046.4,2449,2048,2449.7"/>
							<path fill="#E0E0E0" d="M2043.1,2447.4l63.1-604.4c-2.3-1-4.5-2.1-6.8-3.1l-61.3,605.2
								C2039.7,2445.9,2041.4,2446.6,2043.1,2447.4"/>
							<path fill="#DFDFDF" d="M2038.1,2445.2l61.3-605.2c-2-0.9-3.9-1.7-5.9-2.6l-59.7,605.9
								C2035.2,2443.9,2036.6,2444.5,2038.1,2445.2"/>
							<path fill="#DFDFDF" d="M2033.7,2443.3l59.7-605.9c-1.8-0.7-3.6-1.5-5.4-2.2l-58.3,606.5
								C2031.1,2442.2,2032.4,2442.7,2033.7,2443.3"/>
							<path fill="#DEDEDE" d="M2029.7,2441.6l58.3-606.5c-1.8-0.7-3.6-1.5-5.4-2.2l-56.9,607.1
								C2027.1,2440.6,2028.4,2441.1,2029.7,2441.6"/>
							<path fill="#DEDEDE" d="M2025.7,2440l56.9-607.1c-1.8-0.7-3.7-1.4-5.5-2.1l-55.4,607.6C2023,2439,2024.4,2439.5,2025.7,2440"
								/>
							<path fill="#DDDDDD" d="M2021.7,2438.5l55.4-607.6c-1.8-0.7-3.6-1.4-5.5-2l-54,608.1C2019,2437.5,2020.4,2438,2021.7,2438.5"
								/>
							<path fill="#DDDDDD" d="M2017.7,2437l54-608.1c-1.5-0.6-3.1-1.1-4.6-1.6l-52.7,608.6
								C2015.4,2436.2,2016.6,2436.6,2017.7,2437"/>
							<path fill="#DDDDDD" d="M2014.3,2435.8l52.7-608.6c-1.5-0.5-3.1-1.1-4.6-1.6l-51.5,609
								C2012,2435,2013.1,2435.4,2014.3,2435.8"/>
							<path fill="#DCDCDC" d="M2010.9,2434.6l51.5-609c-1.6-0.5-3.1-1.1-4.7-1.6l-50.3,609.4
								C2008.6,2433.8,2009.7,2434.2,2010.9,2434.6"/>
							<path fill="#DCDCDC" d="M2007.4,2433.5l50.3-609.4c-1.6-0.5-3.1-1-4.7-1.5l-49.1,609.8
								C2005.1,2432.7,2006.3,2433.1,2007.4,2433.5"/>
							<path fill="#DBDBDB" d="M2004,2432.4l49-609.8c-1.6-0.5-3.1-1-4.7-1.5l-47.8,610.2C2001.7,2431.6,2002.8,2432,2004,2432.4"/>
							<path fill="#DBDBDB" d="M2000.5,2431.3l47.8-610.2c-1.5-0.4-2.9-0.9-4.4-1.3l-46.6,610.6
								C1998.3,2430.6,1999.4,2430.9,2000.5,2431.3"/>
							<path fill="#DADADA" d="M1997.3,2430.3l46.6-610.6c-1.4-0.4-2.8-0.8-4.2-1.2l-45.5,610.9
								C1995.2,2429.7,1996.3,2430,1997.3,2430.3"/>
							<path fill="#DADADA" d="M1994.2,2429.4l45.5-610.9c-1.4-0.4-2.8-0.8-4.2-1.2l-44.4,611.2
								C1992.2,2428.8,1993.2,2429.1,1994.2,2429.4"/>
							<path fill="#D9D9D9" d="M1991.1,2428.5l44.4-611.2c-1.4-0.4-2.8-0.8-4.2-1.2l-43.3,611.5
								C1989.1,2428,1990.1,2428.2,1991.1,2428.5"/>
							<path fill="#D9D9D9" d="M1988.1,2427.7l43.3-611.5c-1.4-0.4-2.8-0.7-4.2-1.1l-42.2,611.8
								C1986,2427.1,1987,2427.4,1988.1,2427.7"/>
							<path fill="#D8D8D8" d="M1984.9,2426.9l42.2-611.8c-1.4-0.4-2.8-0.7-4.2-1.1l-41.1,612.1
								C1982.9,2426.3,1983.9,2426.6,1984.9,2426.9"/>
							<path fill="#D8D8D8" d="M1981.8,2426.1l41.1-612.1c-1.4-0.4-2.8-0.7-4.2-1l-40,612.4
								C1979.8,2425.6,1980.8,2425.8,1981.8,2426.1"/>
							<path fill="#D7D7D7" d="M1978.8,2425.3l40-612.4c-1.3-0.3-2.6-0.6-3.9-0.9l-39,612.6
								C1976.9,2424.8,1977.8,2425.1,1978.8,2425.3"/>
							<path fill="#D7D7D7" d="M1975.9,2424.6l39-612.6c-1.3-0.3-2.6-0.6-3.9-0.9l-37.9,612.9
								C1974,2424.2,1975,2424.4,1975.9,2424.6"/>
							<path fill="#D6D6D6" d="M1973.1,2423.9l37.9-612.9c-1.3-0.3-2.6-0.6-3.9-0.9l-36.9,613.1
								C1971.1,2423.5,1972.1,2423.7,1973.1,2423.9"/>
							<path fill="#D6D6D6" d="M1970.2,2423.3l36.9-613.1c-1.3-0.3-2.6-0.6-3.9-0.9l-35.9,613.3
								C1968.3,2422.9,1969.2,2423.1,1970.2,2423.3"/>
							<path fill="#D5D5D5" d="M1967.3,2422.7l35.9-613.3c-1.3-0.3-2.6-0.6-3.9-0.8l-34.8,613.5
								C1965.4,2422.3,1966.3,2422.5,1967.3,2422.7"/>
							<path fill="#D5D5D5" d="M1964.4,2422.1l34.8-613.5c-1.3-0.3-2.6-0.5-3.9-0.8l-33.8,613.7
								C1962.5,2421.7,1963.4,2421.9,1964.4,2422.1"/>
							<path fill="#D4D4D4" d="M1961.5,2421.5l33.8-613.7c-1.3-0.3-2.6-0.5-3.9-0.8l-32.7,613.9
								C1959.6,2421.1,1960.5,2421.3,1961.5,2421.5"/>
							<path fill="#D4D4D4" d="M1958.6,2420.9l32.7-613.9c-1.2-0.2-2.5-0.5-3.7-0.7l-31.8,614.1
								C1956.8,2420.6,1957.7,2420.7,1958.6,2420.9"/>
							<path fill="#D4D4D4" d="M1955.9,2420.4l31.8-614.1c-1.2-0.2-2.5-0.5-3.8-0.7l-30.8,614.3
								C1954,2420,1955,2420.2,1955.9,2420.4"/>
							<path fill="#D3D3D3" d="M1953.1,2419.9l30.8-614.3c-1.2-0.2-2.5-0.4-3.8-0.7l-29.8,614.5
								C1951.3,2419.5,1952.2,2419.7,1953.1,2419.9"/>
							<path fill="#D3D3D3" d="M1950.3,2419.4l29.8-614.5c-1.3-0.2-2.5-0.4-3.8-0.6l-28.8,614.7
								C1948.5,2419.1,1949.4,2419.2,1950.3,2419.4"/>
							<path fill="#D2D2D2" d="M1947.6,2418.9l28.8-614.7c-1.3-0.2-2.5-0.4-3.8-0.6l-27.8,614.8
								C1945.7,2418.6,1946.6,2418.8,1947.6,2418.9"/>
							<path fill="#D2D2D2" d="M1944.8,2418.5l27.8-614.8c-1.3-0.2-2.5-0.4-3.8-0.6l-26.8,615
								C1942.9,2418.2,1943.9,2418.3,1944.8,2418.5"/>
							<path fill="#D1D1D1" d="M1942,2418l26.8-615c-1.3-0.2-2.5-0.4-3.8-0.6l-25.7,615.1C1940.1,2417.7,1941.1,2417.9,1942,2418"/>
							<path fill="#D1D1D1" d="M1939.2,2417.6l25.7-615.1c-1.2-0.2-2.5-0.4-3.7-0.5l-24.8,615.3
								C1937.4,2417.3,1938.3,2417.5,1939.2,2417.6"/>
							<path fill="#D0D0D0" d="M1936.4,2417.2l24.8-615.3c-1.2-0.2-2.5-0.3-3.7-0.5l-23.8,615.4
								C1934.6,2417,1935.5,2417.1,1936.4,2417.2"/>
							<path fill="#D0D0D0" d="M1933.7,2416.9l23.8-615.4c-1.2-0.2-2.5-0.3-3.7-0.5l-22.8,615.5
								C1931.9,2416.6,1932.8,2416.7,1933.7,2416.9"/>
							<path fill="#CFCFCF" d="M1931,2416.5l22.8-615.5c-1.2-0.2-2.5-0.3-3.7-0.5l-21.8,615.7
								C1929.2,2416.3,1930.1,2416.4,1931,2416.5"/>
							<path fill="#CFCFCF" d="M1928.2,2416.1l21.8-615.7c-1.2-0.1-2.5-0.3-3.7-0.4l-20.8,615.8
								C1926.4,2415.9,1927.3,2416,1928.2,2416.1"/>
							<path fill="#CECECE" d="M1925.5,2415.8l20.8-615.8c-1.2-0.1-2.5-0.3-3.7-0.4l-19.8,615.9
								C1923.7,2415.6,1924.6,2415.7,1925.5,2415.8"/>
							<path fill="#CECECE" d="M1922.8,2415.5l19.8-615.9c-1.2-0.1-2.5-0.3-3.7-0.4l-18.8,616
								C1920.9,2415.3,1921.8,2415.4,1922.8,2415.5"/>
							<path fill="#CDCDCD" d="M1920,2415.2l18.8-616c-1.2-0.1-2.5-0.2-3.7-0.4l-17.9,616.1C1918.1,2415,1919.1,2415.1,1920,2415.2"
								/>
							<path fill="#CDCDCD" d="M1917.2,2414.9l17.9-616.1c-1.2-0.1-2.5-0.2-3.7-0.4l-16.9,616.2
								C1915.4,2414.8,1916.3,2414.9,1917.2,2414.9"/>
							<path fill="#CCCCCC" d="M1914.5,2414.7l16.9-616.2c-1.2-0.1-2.5-0.2-3.7-0.3l-15.9,616.3
								C1912.7,2414.5,1913.6,2414.6,1914.5,2414.7"/>
							<path fill="#CCCCCC" d="M1911.7,2414.4l15.9-616.3c-1.2-0.1-2.5-0.2-3.7-0.3l-14.9,616.4
								C1909.9,2414.3,1910.8,2414.4,1911.7,2414.4"/>
							<path fill="#CBCBCB" d="M1909,2414.2l14.9-616.4c-1.2-0.1-2.5-0.2-3.7-0.3l-13.9,616.4
								C1907.1,2414.1,1908.1,2414.1,1909,2414.2"/>
							<path fill="#CBCBCB" d="M1906.2,2414l13.9-616.4c-1.2-0.1-2.5-0.2-3.7-0.3l-12.9,616.5
								C1904.4,2413.9,1905.3,2413.9,1906.2,2414"/>
							<path fill="#CBCBCB" d="M1903.5,2413.8l12.9-616.5c-1.2-0.1-2.5-0.2-3.7-0.2l-11.9,616.6
								C1901.6,2413.7,1902.6,2413.7,1903.5,2413.8"/>
							<path fill="#CACACA" d="M1900.7,2413.6l11.9-616.6c-1.2-0.1-2.5-0.2-3.8-0.2l-10.9,616.6
								C1898.9,2413.5,1899.8,2413.6,1900.7,2413.6"/>
							<path fill="#CACACA" d="M1897.9,2413.5l10.9-616.6c-1.3-0.1-2.5-0.1-3.8-0.2l-9.9,616.7
								C1896.1,2413.4,1897,2413.4,1897.9,2413.5"/>
							<path fill="#C9C9C9" d="M1895.2,2413.3l9.9-616.7c-1.3-0.1-2.5-0.1-3.8-0.2l-8.9,616.7
								C1893.3,2413.2,1894.2,2413.3,1895.2,2413.3"/>
							<path fill="#C9C9C9" d="M1892.4,2413.2l8.9-616.7c-1.3-0.1-2.5-0.1-3.8-0.2l-7.9,616.8
								C1890.5,2413.1,1891.4,2413.1,1892.4,2413.2"/>
							<path fill="#C8C8C8" d="M1889.6,2413.1l7.9-616.8c-1.3-0.1-2.5-0.1-3.8-0.1l-6.9,616.8
								C1887.7,2413,1888.6,2413,1889.6,2413.1"/>
							<path fill="#C8C8C8" d="M1886.8,2413l6.9-616.8c-1.3,0-2.5-0.1-3.8-0.1l-5.9,616.8C1884.9,2412.9,1885.8,2412.9,1886.8,2413"
								/>
							<path fill="#C7C7C7" d="M1884,2412.9l5.9-616.8c-1.3,0-2.5-0.1-3.8-0.1l-4.9,616.9C1882.1,2412.8,1883,2412.9,1884,2412.9"/>
							<path fill="#C7C7C7" d="M1881.2,2412.8l4.9-616.9c-1.3,0-2.6-0.1-3.8-0.1l-3.9,616.9
								C1879.3,2412.8,1880.2,2412.8,1881.2,2412.8"/>
							<path fill="#C6C6C6" d="M1878.4,2412.7l3.9-616.9c-1.3,0-2.6,0-3.8-0.1l-2.9,616.9
								C1876.5,2412.7,1877.4,2412.7,1878.4,2412.7"/>
							<path fill="#C6C6C6" d="M1875.5,2412.7l2.9-616.9c-1.3,0-2.6,0-3.9,0l-1.8,616.9C1873.6,2412.7,1874.6,2412.7,1875.5,2412.7"
								/>
							<path fill="#C5C5C5" d="M1872.7,2412.7l1.8-616.9c-1.3,0-2.6,0-3.9,0l-0.8,616.9C1870.7,2412.7,1871.7,2412.7,1872.7,2412.7"
								/>
							<path fill="#C5C5C5" d="M1869.8,2412.7l0.8-616.9c-1.3,0-2.6,0-3.9,0l0.2,616.9C1867.9,2412.7,1868.8,2412.7,1869.8,2412.7"
								/>
							<path fill="#C4C4C4" d="M1866.9,2412.7l-0.2-616.9c-1.3,0-2.6,0-3.9,0.1l1.3,616.9C1865,2412.7,1865.9,2412.7,1866.9,2412.7"
								/>
							<path fill="#C4C4C4" d="M1864,2412.7l-1.3-616.9c-1.3,0-2.6,0-3.9,0.1l2.3,616.9C1862.1,2412.8,1863.1,2412.8,1864,2412.7"/>
							<path fill="#C3C3C3" d="M1861.1,2412.8l-2.3-616.9c-1.3,0-2.6,0.1-3.9,0.1l3.4,616.8
								C1859.2,2412.8,1860.2,2412.8,1861.1,2412.8"/>
							<path fill="#C3C3C3" d="M1858.3,2412.9l-3.4-616.8c-1.3,0-2.6,0.1-3.9,0.1l4.4,616.8
								C1856.4,2412.9,1857.3,2412.9,1858.3,2412.9"/>
							<path fill="#C2C2C2" d="M1855.4,2413l-4.4-616.8c-1.4,0-2.7,0.1-4,0.1l5.5,616.8C1853.4,2413,1854.4,2413,1855.4,2413"/>
							<path fill="#C2C2C2" d="M1852.4,2413.1l-5.5-616.8c-1.4,0.1-2.7,0.1-4.1,0.2l6.5,616.7
								C1850.4,2413.1,1851.4,2413.1,1852.4,2413.1"/>
							<path fill="#C1C1C1" d="M1849.4,2413.2l-6.5-616.7c-1.4,0.1-2.7,0.1-4.1,0.2l7.6,616.7
								C1847.4,2413.3,1848.4,2413.2,1849.4,2413.2"/>
							<path fill="#C1C1C1" d="M1846.4,2413.3l-7.6-616.7c-1.4,0.1-2.7,0.1-4.1,0.2l8.7,616.6
								C1844.4,2413.4,1845.4,2413.4,1846.4,2413.3"/>
							<path fill="#C1C1C1" d="M1843.4,2413.5l-8.7-616.6c-1.4,0.1-2.7,0.2-4.1,0.2l9.8,616.5
								C1841.4,2413.6,1842.4,2413.6,1843.4,2413.5"/>
							<path fill="#C0C0C0" d="M1840.4,2413.7l-9.8-616.5c-1.4,0.1-2.7,0.2-4.1,0.3l10.8,616.5
								C1838.4,2413.8,1839.4,2413.7,1840.4,2413.7"/>
							<path fill="#C0C0C0" d="M1837.4,2413.9l-10.8-616.5c-1.4,0.1-2.7,0.2-4.1,0.3l11.9,616.4
								C1835.4,2414,1836.4,2414,1837.4,2413.9"/>
							<path fill="#BFBFBF" d="M1834.4,2414.1l-11.9-616.4c-1.4,0.1-2.8,0.2-4.2,0.3l13,616.3
								C1832.4,2414.3,1833.4,2414.2,1834.4,2414.1"/>
							<path fill="#BFBFBF" d="M1831.3,2414.4l-13-616.3c-1.4,0.1-2.9,0.2-4.3,0.4l14.2,616.2
								C1829.2,2414.5,1830.3,2414.4,1831.3,2414.4"/>
							<path fill="#BEBEBE" d="M1828.1,2414.6l-14.2-616.2c-1.4,0.1-2.9,0.3-4.3,0.4l15.3,616.1
								C1826,2414.8,1827.1,2414.7,1828.1,2414.6"/>
							<path fill="#BEBEBE" d="M1825,2414.9l-15.3-616.1c-1.4,0.1-2.9,0.3-4.3,0.4l16.5,616C1822.9,2415.1,1823.9,2415,1825,2414.9"
								/>
							<path fill="#BDBDBD" d="M1821.8,2415.2l-16.5-616c-1.4,0.1-2.9,0.3-4.3,0.5l17.6,615.9
								C1819.7,2415.5,1820.8,2415.4,1821.8,2415.2"/>
							<path fill="#BDBDBD" d="M1818.7,2415.6l-17.6-615.9c-1.4,0.2-2.9,0.3-4.3,0.5l18.7,615.7
								C1816.6,2415.8,1817.6,2415.7,1818.7,2415.6"/>
							<path fill="#BCBCBC" d="M1815.5,2416l-18.7-615.7c-1.4,0.2-2.9,0.3-4.3,0.5l19.9,615.6
								C1813.4,2416.2,1814.4,2416.1,1815.5,2416"/>
							<path fill="#BCBCBC" d="M1812.3,2416.4l-19.9-615.6c-1.6,0.2-3.1,0.4-4.7,0.6l21.1,615.4
								C1810.1,2416.6,1811.2,2416.5,1812.3,2416.4"/>
							<path fill="#BBBBBB" d="M1808.9,2416.8l-21.1-615.4c-1.6,0.2-3.1,0.4-4.6,0.6l22.3,615.2
								C1806.6,2417.1,1807.8,2416.9,1808.9,2416.8"/>
							<path fill="#BBBBBB" d="M1805.5,2417.3l-22.3-615.2c-1.6,0.2-3.1,0.4-4.6,0.7l23.5,615.1
								C1803.2,2417.6,1804.4,2417.4,1805.5,2417.3"/>
							<path fill="#BABABA" d="M1802.1,2417.7l-23.5-615.1c-1.5,0.2-3.1,0.5-4.6,0.7l24.8,614.9
								C1799.8,2418.1,1801,2417.9,1802.1,2417.7"/>
							<path fill="#BABABA" d="M1798.7,2418.3l-24.8-614.9c-1.5,0.2-3.1,0.5-4.6,0.7l26,614.7
								C1796.5,2418.6,1797.6,2418.4,1798.7,2418.3"/>
							<path fill="#B9B9B9" d="M1795.3,2418.8l-26-614.7c-1.5,0.2-3.1,0.5-4.6,0.8l27.2,614.5
								C1793.1,2419.2,1794.2,2419,1795.3,2418.8"/>
							<path fill="#B9B9B9" d="M1791.9,2419.4l-27.2-614.5c-1.7,0.3-3.4,0.6-5.1,0.9l28.6,614.2
								C1789.4,2419.8,1790.7,2419.6,1791.9,2419.4"/>
							<path fill="#B8B8B8" d="M1788.2,2420.1l-28.6-614.2c-1.7,0.3-3.4,0.6-5.1,1l29.9,614
								C1785.7,2420.5,1786.9,2420.3,1788.2,2420.1"/>
							<path fill="#B8B8B8" d="M1784.4,2420.8l-29.9-614c-1.7,0.3-3.4,0.7-5.1,1l31.3,613.7
								C1781.9,2421.2,1783.2,2421,1784.4,2420.8"/>
							<path fill="#B8B8B8" d="M1780.7,2421.5l-31.3-613.7c-1.7,0.3-3.4,0.7-5.1,1l32.6,613.5
								C1778.2,2422,1779.4,2421.7,1780.7,2421.5"/>
							<path fill="#B7B7B7" d="M1776.9,2422.3l-32.6-613.5c-1.7,0.4-3.4,0.7-5,1.1l33.9,613.2
								C1774.4,2422.8,1775.7,2422.5,1776.9,2422.3"/>
							<path fill="#B7B7B7" d="M1773.2,2423.1l-33.9-613.2c-1.9,0.4-3.7,0.8-5.5,1.2l35.4,612.8
								C1770.5,2423.7,1771.8,2423.4,1773.2,2423.1"/>
							<path fill="#B6B6B6" d="M1769.1,2424l-35.4-612.8c-2,0.4-3.9,0.9-5.9,1.4l37,612.5C1766.3,2424.6,1767.7,2424.3,1769.1,2424"
								/>
							<path fill="#B6B6B6" d="M1764.8,2425l-37-612.5c-1.9,0.5-3.9,0.9-5.8,1.4l38.5,612.1C1762,2425.7,1763.4,2425.3,1764.8,2425"
								/>
							<path fill="#B5B5B5" d="M1760.6,2426.1l-38.5-612.1c-1.9,0.5-3.9,1-5.8,1.5l40,611.7
								C1757.7,2426.8,1759.1,2426.4,1760.6,2426.1"/>
							<path fill="#B5B5B5" d="M1756.3,2427.2l-40-611.7c-1.9,0.5-3.8,1-5.7,1.6l41.5,611.3
								C1753.5,2427.9,1754.9,2427.5,1756.3,2427.2"/>
							<path fill="#B4B4B4" d="M1752.1,2428.3l-41.5-611.3c-2.4,0.6-4.7,1.3-7,2l43.4,610.8
								C1748.6,2429.3,1750.4,2428.8,1752.1,2428.3"/>
							<path fill="#B4B4B4" d="M1746.9,2429.8l-43.4-610.8c-2.3,0.7-4.7,1.4-7,2.1l45.2,610.2
								C1743.5,2430.8,1745.2,2430.3,1746.9,2429.8"/>
							<path fill="#B3B3B3" d="M1741.8,2431.3l-45.2-610.2c-2.3,0.7-4.6,1.4-6.9,2.2l47.1,609.6
								C1738.4,2432.4,1740.1,2431.8,1741.8,2431.3"/>
							<path fill="#B3B3B3" d="M1736.7,2432.9l-47.1-609.6c-2.5,0.8-4.9,1.6-7.4,2.5l49,609
								C1733,2434.1,1734.9,2433.5,1736.7,2432.9"/>
							<path fill="#B2B2B2" d="M1731.2,2434.7l-49-609c-3.1,1.1-6.1,2.1-9.2,3.2l51.4,608.1
								C1726.7,2436.3,1729,2435.5,1731.2,2434.7"/>
							<path fill="#B2B2B2" d="M1724.5,2437.1l-51.4-608.1c-3,1.1-6,2.2-9,3.4l53.8,607.2
								C1720.1,2438.8,1722.3,2437.9,1724.5,2437.1"/>
							<path fill="#B1B1B1" d="M1717.9,2439.6l-53.8-607.2c-3.8,1.5-7.5,3-11.2,4.5l56.8,606
								C1712.4,2441.8,1715.1,2440.7,1717.9,2439.6"/>
							<path fill="#B1B1B1" d="M1709.6,2442.9l-56.8-606c-4.7,2-9.3,4-13.8,6.1l60.5,604.4
								C1702.8,2445.9,1706.2,2444.4,1709.6,2442.9"/>
							<path fill="#B0B0B0" d="M1699.5,2447.4l-60.4-604.4c-9.3,4.3-18.4,8.9-27.1,13.8c-85.6,48-123,114-111.8,177.8l97.2,553.7
								c-8.2-46.9,19.3-95.5,82.2-130.8C1686,2454,1692.6,2450.6,1699.5,2447.4"/>
						</g>
					</g>
				</g>
				<g enable-background="new    ">
					<g>
						<defs>
							<path id="SVGID_3_" d="M1873.6,2013.2l97.2,553.7c-2.2-12.5-11.4-24.6-27.6-34.3c-38.2-22.8-101.1-23.5-140.4-1.4
								c-17.3,9.7-27.2,22.2-29.5,35.1C1773.3,2566.4,1873.6,2013.2,1873.6,2013.2z"/>
						</defs>
						<clipPath id="SVGID_4_">
							<use xlink:href="#SVGID_3_"  overflow="visible"/>
						</clipPath>
						<g clip-path="url(#SVGID_4_)" enable-background="new    ">
							<path fill="#C4C4C4" d="M1873.6,2013.2l97.2,553.7c0-0.1,0-0.2-0.1-0.3L1873.6,2013.2"/>
							<path fill="#C4C4C4" d="M1873.6,2013.2l97.1,553.4c-0.1-0.3-0.1-0.6-0.2-1L1873.6,2013.2"/>
							<path fill="#C5C5C5" d="M1873.6,2013.2l96.9,552.5c-0.1-0.3-0.1-0.6-0.2-1L1873.6,2013.2"/>
							<path fill="#C5C5C5" d="M1873.6,2013.2l96.7,551.5c-0.1-0.4-0.2-0.7-0.3-1.1L1873.6,2013.2"/>
							<path fill="#C6C6C6" d="M1873.6,2013.2l96.4,550.5c-0.1-0.4-0.2-0.7-0.3-1L1873.6,2013.2"/>
							<path fill="#C6C6C6" d="M1873.6,2013.2l96.1,549.4c-0.1-0.3-0.2-0.7-0.3-1L1873.6,2013.2"/>
							<path fill="#C7C7C7" d="M1873.6,2013.2l95.8,548.4c-0.1-0.3-0.2-0.7-0.4-1L1873.6,2013.2"/>
							<path fill="#C7C7C7" d="M1873.6,2013.2l95.4,547.4c-0.1-0.4-0.3-0.8-0.4-1.2L1873.6,2013.2"/>
							<path fill="#C8C8C8" d="M1873.6,2013.2l95,546.2c-0.2-0.4-0.3-0.8-0.5-1.2L1873.6,2013.2"/>
							<path fill="#C8C8C8" d="M1873.6,2013.2l94.5,545c-0.2-0.4-0.4-0.8-0.6-1.2L1873.6,2013.2"/>
							<path fill="#C9C9C9" d="M1873.6,2013.2l93.9,543.9c-0.2-0.4-0.4-0.8-0.6-1.2L1873.6,2013.2"/>
							<path fill="#C9C9C9" d="M1873.6,2013.2l93.3,542.7c-0.2-0.5-0.5-0.9-0.7-1.4L1873.6,2013.2"/>
							<path fill="#CACACA" d="M1873.6,2013.2l92.6,541.3c-0.3-0.5-0.5-0.9-0.8-1.4L1873.6,2013.2"/>
							<path fill="#CACACA" d="M1873.6,2013.2l91.8,539.9c-0.3-0.5-0.6-0.9-0.9-1.4L1873.6,2013.2"/>
							<path fill="#CBCBCB" d="M1873.6,2013.2l90.8,538.6c-0.4-0.6-0.8-1.2-1.2-1.7L1873.6,2013.2L1873.6,2013.2"/>
							<path fill="#CBCBCB" d="M1873.6,2013.2l89.6,536.8c-0.4-0.6-0.9-1.1-1.3-1.7L1873.6,2013.2L1873.6,2013.2"/>
							<path fill="#CBCBCB" d="M1873.6,2013.2l88.3,535.1c-0.6-0.7-1.2-1.5-1.9-2.2L1873.6,2013.2"/>
							<path fill="#CCCCCC" d="M1873.6,2013.2l86.4,532.9c-0.8-0.9-1.6-1.7-2.5-2.6L1873.6,2013.2"/>
							<path fill="#CCCCCC" d="M1873.6,2013.2l83.9,530.3c-3.3-3.3-7.3-6.4-11.8-9.3L1873.6,2013.2"/>
							<path fill="#CCCCCC" d="M1873.6,2013.2l72.1,521c-0.8-0.5-1.6-1-2.5-1.6c-0.5-0.3-1.1-0.6-1.6-0.9L1873.6,2013.2"/>
							<path fill="#CBCBCB" d="M1873.6,2013.2l68,518.5c-1-0.6-2-1.1-3.1-1.7L1873.6,2013.2"/>
							<path fill="#CBCBCB" d="M1873.6,2013.2l64.9,516.8c-0.9-0.4-1.7-0.9-2.6-1.3L1873.6,2013.2"/>
							<path fill="#CBCBCB" d="M1873.6,2013.2l62.3,515.5c-0.7-0.4-1.5-0.7-2.3-1.1L1873.6,2013.2"/>
							<path fill="#CACACA" d="M1873.6,2013.2l60,514.4c-0.8-0.4-1.5-0.7-2.3-1L1873.6,2013.2"/>
							<path fill="#CACACA" d="M1873.6,2013.2l57.7,513.4c-0.6-0.3-1.3-0.6-1.9-0.8L1873.6,2013.2"/>
							<path fill="#C9C9C9" d="M1873.6,2013.2l55.8,512.6c-0.6-0.3-1.3-0.5-1.9-0.8L1873.6,2013.2L1873.6,2013.2"/>
							<path fill="#C9C9C9" d="M1873.6,2013.2l53.9,511.8c-0.6-0.2-1.3-0.5-1.9-0.7L1873.6,2013.2"/>
							<path fill="#C8C8C8" d="M1873.6,2013.2l52,511.1c-0.6-0.2-1.2-0.4-1.8-0.7L1873.6,2013.2"/>
							<path fill="#C8C8C8" d="M1873.6,2013.2l50.2,510.4c-0.6-0.2-1.1-0.4-1.7-0.6L1873.6,2013.2"/>
							<path fill="#C7C7C7" d="M1873.6,2013.2l48.5,509.8c-0.6-0.2-1.1-0.4-1.7-0.6L1873.6,2013.2"/>
							<path fill="#C7C7C7" d="M1873.6,2013.2l46.8,509.3c-0.6-0.2-1.1-0.4-1.7-0.5L1873.6,2013.2"/>
							<path fill="#C6C6C6" d="M1873.6,2013.2l45.1,508.7c-0.6-0.2-1.1-0.3-1.6-0.5L1873.6,2013.2"/>
							<path fill="#C6C6C6" d="M1873.6,2013.2l43.5,508.2c-0.5-0.2-1-0.3-1.6-0.4L1873.6,2013.2"/>
							<path fill="#C5C5C5" d="M1873.6,2013.2l41.9,507.8c-0.5-0.1-1-0.3-1.6-0.4L1873.6,2013.2"/>
							<path fill="#C5C5C5" d="M1873.6,2013.2l40.4,507.3c-0.5-0.1-1.1-0.3-1.6-0.4L1873.6,2013.2"/>
							<path fill="#C4C4C4" d="M1873.6,2013.2l38.8,506.9c-0.5-0.1-1.1-0.3-1.6-0.4L1873.6,2013.2"/>
							<path fill="#C4C4C4" d="M1873.6,2013.2l37.2,506.5c-0.5-0.1-1-0.2-1.5-0.4L1873.6,2013.2"/>
							<path fill="#C3C3C3" d="M1873.6,2013.2l35.7,506.2c-0.5-0.1-1-0.2-1.5-0.3L1873.6,2013.2"/>
							<path fill="#C3C3C3" d="M1873.6,2013.2l34.2,505.8c-0.5-0.1-1-0.2-1.5-0.3L1873.6,2013.2"/>
							<path fill="#C2C2C2" d="M1873.6,2013.2l32.7,505.5c-0.5-0.1-1-0.2-1.5-0.3L1873.6,2013.2"/>
							<path fill="#C2C2C2" d="M1873.6,2013.2l31.2,505.2c-0.5-0.1-1-0.2-1.5-0.3L1873.6,2013.2"/>
							<path fill="#C1C1C1" d="M1873.6,2013.2l29.7,504.9c-0.5-0.1-1-0.2-1.5-0.3L1873.6,2013.2"/>
							<path fill="#C1C1C1" d="M1873.6,2013.2l28.2,504.6c-0.5-0.1-1-0.2-1.5-0.3L1873.6,2013.2"/>
							<path fill="#C1C1C1" d="M1873.6,2013.2l26.7,504.3c-0.5-0.1-1-0.2-1.5-0.2L1873.6,2013.2"/>
							<path fill="#C0C0C0" d="M1873.6,2013.2l25.3,504.1c-0.5-0.1-1-0.2-1.5-0.2L1873.6,2013.2"/>
							<path fill="#C0C0C0" d="M1873.6,2013.2l23.8,503.8c-0.5-0.1-1-0.1-1.5-0.2L1873.6,2013.2"/>
							<path fill="#BFBFBF" d="M1873.6,2013.2l22.3,503.6c-0.5-0.1-1-0.1-1.5-0.2L1873.6,2013.2"/>
							<path fill="#BFBFBF" d="M1873.6,2013.2l20.8,503.4c-0.5-0.1-1-0.1-1.5-0.2L1873.6,2013.2"/>
							<path fill="#BEBEBE" d="M1873.6,2013.2l19.3,503.2c-0.5-0.1-1-0.1-1.5-0.2L1873.6,2013.2L1873.6,2013.2"/>
							<path fill="#BEBEBE" d="M1873.6,2013.2l17.8,503c-0.5-0.1-1-0.1-1.5-0.2L1873.6,2013.2"/>
							<path fill="#BDBDBD" d="M1873.6,2013.2l16.3,502.9c-0.5-0.1-1-0.1-1.5-0.2L1873.6,2013.2"/>
							<path fill="#BDBDBD" d="M1873.6,2013.2l14.8,502.7c-0.5-0.1-1-0.1-1.5-0.1L1873.6,2013.2L1873.6,2013.2"/>
							<path fill="#BCBCBC" d="M1873.6,2013.2l13.3,502.6c-0.5-0.1-1-0.1-1.5-0.1L1873.6,2013.2"/>
							<path fill="#BCBCBC" d="M1873.6,2013.2l11.8,502.4c-0.5,0-1-0.1-1.5-0.1L1873.6,2013.2"/>
							<path fill="#BBBBBB" d="M1873.6,2013.2l10.2,502.3c-0.5,0-1-0.1-1.5-0.1L1873.6,2013.2"/>
							<path fill="#BBBBBB" d="M1873.6,2013.2l8.7,502.2c-0.5,0-1-0.1-1.6-0.1L1873.6,2013.2"/>
							<path fill="#BABABA" d="M1873.6,2013.2l7.2,502.1c-0.5,0-1.1-0.1-1.6-0.1L1873.6,2013.2"/>
							<path fill="#BABABA" d="M1873.6,2013.2l5.5,502.1c-0.5,0-1.1,0-1.6-0.1L1873.6,2013.2"/>
							<path fill="#B9B9B9" d="M1873.6,2013.2l3.9,502c-0.5,0-1.1,0-1.6-0.1L1873.6,2013.2"/>
							<path fill="#B9B9B9" d="M1873.6,2013.2l2.3,501.9c-0.5,0-1.1,0-1.6,0L1873.6,2013.2"/>
							<path fill="#B8B8B8" d="M1873.6,2013.2l0.7,501.9c-0.6,0-1.1,0-1.7,0L1873.6,2013.2"/>
							<path fill="#B8B8B8" d="M1873.6,2013.2l-1,501.9c-0.6,0-1.2,0-1.7,0L1873.6,2013.2"/>
							<path fill="#B8B8B8" d="M1873.6,2013.2l-2.7,501.9c-0.6,0-1.2,0-1.7,0L1873.6,2013.2"/>
							<path fill="#B7B7B7" d="M1873.6,2013.2l-4.4,501.9c-0.6,0-1.2,0-1.7,0L1873.6,2013.2"/>
							<path fill="#B7B7B7" d="M1873.6,2013.2l-6.2,501.9c-0.6,0-1.2,0-1.7,0.1L1873.6,2013.2"/>
							<path fill="#B6B6B6" d="M1873.6,2013.2l-7.9,502c-0.6,0-1.3,0.1-1.9,0.1L1873.6,2013.2"/>
							<path fill="#B6B6B6" d="M1873.6,2013.2l-9.8,502.1c-0.6,0-1.3,0.1-1.9,0.1L1873.6,2013.2"/>
							<path fill="#B5B5B5" d="M1873.6,2013.2l-11.8,502.2c-0.6,0-1.3,0.1-1.9,0.1L1873.6,2013.2"/>
							<path fill="#B5B5B5" d="M1873.6,2013.2l-13.7,502.3c-0.7,0.1-1.3,0.1-2,0.1L1873.6,2013.2L1873.6,2013.2"/>
							<path fill="#B4B4B4" d="M1873.6,2013.2l-15.6,502.4c-0.7,0.1-1.5,0.1-2.2,0.2L1873.6,2013.2"/>
							<path fill="#B4B4B4" d="M1873.6,2013.2l-17.9,502.6c-0.7,0.1-1.5,0.1-2.2,0.2L1873.6,2013.2"/>
							<path fill="#B3B3B3" d="M1873.6,2013.2l-20.1,502.9c-0.7,0.1-1.5,0.2-2.2,0.2L1873.6,2013.2"/>
							<path fill="#B3B3B3" d="M1873.6,2013.2l-22.4,503.1c-0.9,0.1-1.8,0.2-2.6,0.3L1873.6,2013.2L1873.6,2013.2"/>
							<path fill="#B2B2B2" d="M1873.6,2013.2l-25,503.5c-0.9,0.1-1.8,0.3-2.8,0.4L1873.6,2013.2"/>
							<path fill="#B2B2B2" d="M1873.6,2013.2l-27.7,503.9c-0.9,0.1-1.9,0.3-2.8,0.5L1873.6,2013.2"/>
							<path fill="#B1B1B1" d="M1873.6,2013.2l-30.6,504.3c-1.3,0.2-2.6,0.5-3.9,0.7L1873.6,2013.2"/>
							<path fill="#B1B1B1" d="M1873.6,2013.2l-34.4,505c-1.4,0.3-2.9,0.6-4.3,0.9L1873.6,2013.2"/>
							<path fill="#B0B0B0" d="M1873.6,2013.2l-38.7,506c-11.6,2.7-22.5,6.7-32,12c-17.3,9.7-27.2,22.2-29.5,35.1L1873.6,2013.2"/>
						</g>
					</g>
				</g>
				<g enable-background="new    ">
					<g>
						<defs>
							<path id="SVGID_5_" d="M1970.8,2567c3,16.9-6.9,34.3-29.6,47l-67.6-600.8C1902.7,2179.3,1941.6,2400.8,1970.8,2567z"/>
						</defs>
						<clipPath id="SVGID_6_">
							<use xlink:href="#SVGID_5_"  overflow="visible"/>
						</clipPath>
						<g clip-path="url(#SVGID_6_)" enable-background="new    ">
							<path fill="#B0B0B0" d="M1873.6,2013.2l67.6,600.8c22.6-12.7,32.5-30.1,29.6-47L1873.6,2013.2"/>
						</g>
					</g>
				</g>
				<g enable-background="new    ">
					<g>
						<defs>
							<path id="SVGID_7_" d="M1873.6,2013.2l67.6,600.8c-39.3,22.1-102.2,21.4-140.4-1.4c-21.4-12.8-30.5-29.8-27.5-46.2
								C1803.4,2400.4,1843.5,2179.2,1873.6,2013.2z"/>
						</defs>
						<clipPath id="SVGID_8_">
							<use xlink:href="#SVGID_7_"  overflow="visible"/>
						</clipPath>
						<g clip-path="url(#SVGID_8_)" enable-background="new    ">
							<path fill="#CECECE" d="M1873.6,2013.2l-100.3,553.2c0,0.1,0,0.2-0.1,0.3L1873.6,2013.2"/>
							<path fill="#CFCFCF" d="M1873.6,2013.2l-100.4,553.5c0,0.2-0.1,0.4-0.1,0.6L1873.6,2013.2"/>
							<path fill="#CFCFCF" d="M1873.6,2013.2l-100.5,554.1c0,0.2-0.1,0.4-0.1,0.6L1873.6,2013.2"/>
							<path fill="#D0D0D0" d="M1873.6,2013.2L1773,2567.9c0,0.2-0.1,0.4-0.1,0.6L1873.6,2013.2L1873.6,2013.2"/>
							<path fill="#D0D0D0" d="M1873.6,2013.2L1773,2568.5c0,0.2-0.1,0.4-0.1,0.6L1873.6,2013.2"/>
							<path fill="#D1D1D1" d="M1873.6,2013.2l-100.7,555.9c0,0.2,0,0.4-0.1,0.6L1873.6,2013.2"/>
							<path fill="#D1D1D1" d="M1873.6,2013.2l-100.7,556.5c0,0.2,0,0.4,0,0.6L1873.6,2013.2"/>
							<path fill="#D2D2D2" d="M1873.6,2013.2l-100.8,557.1c0,0.2,0,0.4,0,0.6L1873.6,2013.2"/>
							<path fill="#D2D2D2" d="M1873.6,2013.2l-100.8,557.7c0,0.2,0,0.4,0,0.6L1873.6,2013.2"/>
							<path fill="#D3D3D3" d="M1873.6,2013.2l-100.9,558.3c0,0.2,0,0.4,0,0.6L1873.6,2013.2"/>
							<path fill="#D3D3D3" d="M1873.6,2013.2l-100.9,559c0,0.2,0,0.4,0,0.6L1873.6,2013.2"/>
							<path fill="#D4D4D4" d="M1873.6,2013.2l-100.9,559.6c0,0.2,0,0.4,0,0.6L1873.6,2013.2"/>
							<path fill="#D4D4D4" d="M1873.6,2013.2l-100.8,560.3c0,0.2,0,0.4,0,0.6L1873.6,2013.2"/>
							<path fill="#D4D4D4" d="M1873.6,2013.2l-100.8,560.9c0,0.2,0,0.4,0,0.6L1873.6,2013.2"/>
							<path fill="#D5D5D5" d="M1873.6,2013.2l-100.8,561.5c0,0.2,0,0.4,0.1,0.6L1873.6,2013.2"/>
							<path fill="#D5D5D5" d="M1873.6,2013.2l-100.7,562.2c0,0.2,0,0.4,0.1,0.6L1873.6,2013.2L1873.6,2013.2"/>
							<path fill="#D6D6D6" d="M1873.6,2013.2L1772.9,2576c0,0.2,0.1,0.5,0.1,0.7L1873.6,2013.2"/>
							<path fill="#D6D6D6" d="M1873.6,2013.2L1773,2576.7c0,0.2,0.1,0.5,0.1,0.7L1873.6,2013.2"/>
							<path fill="#D7D7D7" d="M1873.6,2013.2l-100.5,564.2c0,0.2,0.1,0.5,0.1,0.7L1873.6,2013.2"/>
							<path fill="#D7D7D7" d="M1873.6,2013.2l-100.4,564.9c0,0.2,0.1,0.5,0.1,0.7L1873.6,2013.2"/>
							<path fill="#D8D8D8" d="M1873.6,2013.2l-100.3,565.6c0,0.2,0.1,0.5,0.1,0.7L1873.6,2013.2"/>
							<path fill="#D8D8D8" d="M1873.6,2013.2l-100.1,566.2c0.1,0.2,0.1,0.5,0.2,0.7L1873.6,2013.2L1873.6,2013.2"/>
							<path fill="#D9D9D9" d="M1873.6,2013.2l-100,566.9c0.1,0.2,0.1,0.5,0.2,0.7L1873.6,2013.2"/>
							<path fill="#D9D9D9" d="M1873.6,2013.2l-99.8,567.6c0.1,0.2,0.1,0.5,0.2,0.7L1873.6,2013.2"/>
							<path fill="#DADADA" d="M1873.6,2013.2l-99.6,568.4c0.1,0.2,0.1,0.5,0.2,0.7L1873.6,2013.2"/>
							<path fill="#DADADA" d="M1873.6,2013.2l-99.4,569.2c0.1,0.2,0.2,0.5,0.2,0.7L1873.6,2013.2"/>
							<path fill="#DBDBDB" d="M1873.6,2013.2l-99.1,569.9c0.1,0.2,0.2,0.5,0.2,0.7L1873.6,2013.2"/>
							<path fill="#DBDBDB" d="M1873.6,2013.2l-98.9,570.7c0.1,0.2,0.2,0.5,0.3,0.7L1873.6,2013.2"/>
							<path fill="#DCDCDC" d="M1873.6,2013.2l-98.6,571.4c0.1,0.3,0.2,0.6,0.3,0.8L1873.6,2013.2"/>
							<path fill="#DCDCDC" d="M1873.6,2013.2l-98.3,572.2c0.1,0.3,0.2,0.6,0.4,0.9L1873.6,2013.2L1873.6,2013.2"/>
							<path fill="#DDDDDD" d="M1873.6,2013.2l-97.9,573.1c0.1,0.3,0.2,0.6,0.4,0.9L1873.6,2013.2"/>
							<path fill="#DDDDDD" d="M1873.6,2013.2l-97.6,573.9c0.1,0.3,0.3,0.6,0.4,0.9L1873.6,2013.2"/>
							<path fill="#DDDDDD" d="M1873.6,2013.2l-97.2,574.8c0.1,0.3,0.3,0.6,0.4,0.8L1873.6,2013.2"/>
							<path fill="#DEDEDE" d="M1873.6,2013.2l-96.7,575.6c0.2,0.3,0.3,0.6,0.5,1L1873.6,2013.2L1873.6,2013.2"/>
							<path fill="#DEDEDE" d="M1873.6,2013.2l-96.2,576.6c0.2,0.3,0.4,0.7,0.6,1L1873.6,2013.2L1873.6,2013.2"/>
							<path fill="#DFDFDF" d="M1873.6,2013.2l-95.7,577.6c0.2,0.3,0.4,0.7,0.6,1L1873.6,2013.2"/>
							<path fill="#DFDFDF" d="M1873.6,2013.2l-95.1,578.6c0.2,0.3,0.4,0.7,0.6,1L1873.6,2013.2"/>
							<path fill="#E0E0E0" d="M1873.6,2013.2l-94.4,579.6c0.2,0.4,0.5,0.8,0.8,1.1L1873.6,2013.2"/>
							<path fill="#E0E0E0" d="M1873.6,2013.2l-93.7,580.7c0.3,0.4,0.6,0.9,0.9,1.3L1873.6,2013.2L1873.6,2013.2"/>
							<path fill="#E1E1E1" d="M1873.6,2013.2l-92.8,582c0.3,0.4,0.6,0.9,1,1.3L1873.6,2013.2"/>
							<path fill="#E1E1E1" d="M1873.6,2013.2l-91.8,583.3c0.4,0.5,0.8,0.9,1.2,1.4L1873.6,2013.2"/>
							<path fill="#E2E2E2" d="M1873.6,2013.2l-90.6,584.7c0.5,0.6,1.1,1.2,1.7,1.9L1873.6,2013.2"/>
							<path fill="#E2E2E2" d="M1873.6,2013.2l-89,586.6c0.6,0.7,1.3,1.3,1.9,2L1873.6,2013.2"/>
							<path fill="#E3E3E3" d="M1873.6,2013.2l-87,588.6c3.4,3.4,7.5,6.6,12.2,9.6L1873.6,2013.2"/>
							<path fill="#E2E2E2" d="M1873.6,2013.2l-74.8,598.1c0.7,0.4,1.3,0.8,2,1.2c0.4,0.2,0.9,0.5,1.3,0.8L1873.6,2013.2"/>
							<path fill="#E2E2E2" d="M1873.6,2013.2l-71.5,600.1c0.8,0.5,1.6,0.9,2.4,1.4L1873.6,2013.2"/>
							<path fill="#E1E1E1" d="M1873.6,2013.2l-69,601.5c0.8,0.4,1.6,0.8,2.4,1.2L1873.6,2013.2"/>
							<path fill="#E1E1E1" d="M1873.6,2013.2l-66.6,602.7c0.6,0.3,1.2,0.6,1.7,0.9L1873.6,2013.2"/>
							<path fill="#E0E0E0" d="M1873.6,2013.2l-64.9,603.6c0.6,0.3,1.2,0.6,1.8,0.8L1873.6,2013.2"/>
							<path fill="#E0E0E0" d="M1873.6,2013.2l-63.1,604.4c0.6,0.3,1.2,0.6,1.8,0.8L1873.6,2013.2"/>
							<path fill="#DFDFDF" d="M1873.6,2013.2l-61.3,605.2c0.5,0.2,1,0.4,1.6,0.7L1873.6,2013.2"/>
							<path fill="#DFDFDF" d="M1873.6,2013.2l-59.7,605.9c0.5,0.2,0.9,0.4,1.4,0.6L1873.6,2013.2"/>
							<path fill="#DEDEDE" d="M1873.6,2013.2l-58.3,606.5c0.5,0.2,1,0.4,1.4,0.6L1873.6,2013.2"/>
							<path fill="#DEDEDE" d="M1873.6,2013.2l-56.9,607.1c0.5,0.2,1,0.4,1.5,0.6L1873.6,2013.2"/>
							<path fill="#DDDDDD" d="M1873.6,2013.2l-55.4,607.6c0.5,0.2,1,0.4,1.4,0.5L1873.6,2013.2"/>
							<path fill="#DDDDDD" d="M1873.6,2013.2l-54,608.1c0.4,0.1,0.8,0.3,1.2,0.4L1873.6,2013.2L1873.6,2013.2"/>
							<path fill="#DDDDDD" d="M1873.6,2013.2l-52.7,608.6c0.4,0.1,0.8,0.3,1.2,0.4L1873.6,2013.2"/>
							<path fill="#DCDCDC" d="M1873.6,2013.2l-51.5,609c0.4,0.1,0.8,0.3,1.2,0.4L1873.6,2013.2"/>
							<path fill="#DCDCDC" d="M1873.6,2013.2l-50.3,609.4c0.4,0.1,0.8,0.3,1.2,0.4L1873.6,2013.2"/>
							<path fill="#DBDBDB" d="M1873.6,2013.2l-49,609.8c0.4,0.1,0.8,0.3,1.2,0.4L1873.6,2013.2"/>
							<path fill="#DBDBDB" d="M1873.6,2013.2l-47.8,610.2c0.4,0.1,0.8,0.2,1.2,0.4L1873.6,2013.2"/>
							<path fill="#DADADA" d="M1873.6,2013.2l-46.6,610.6c0.4,0.1,0.7,0.2,1.1,0.3L1873.6,2013.2"/>
							<path fill="#DADADA" d="M1873.6,2013.2l-45.5,610.9c0.4,0.1,0.7,0.2,1.1,0.3L1873.6,2013.2"/>
							<path fill="#D9D9D9" d="M1873.6,2013.2l-44.4,611.2c0.4,0.1,0.7,0.2,1.1,0.3L1873.6,2013.2"/>
							<path fill="#D9D9D9" d="M1873.6,2013.2l-43.3,611.5c0.4,0.1,0.7,0.2,1.1,0.3L1873.6,2013.2"/>
							<path fill="#D8D8D8" d="M1873.6,2013.2l-42.2,611.8c0.4,0.1,0.7,0.2,1.1,0.3L1873.6,2013.2"/>
							<path fill="#D8D8D8" d="M1873.6,2013.2l-41.1,612.1c0.4,0.1,0.7,0.2,1.1,0.3L1873.6,2013.2"/>
							<path fill="#D7D7D7" d="M1873.6,2013.2l-40,612.4c0.3,0.1,0.7,0.2,1,0.2L1873.6,2013.2"/>
							<path fill="#D7D7D7" d="M1873.6,2013.2l-39,612.6c0.3,0.1,0.7,0.2,1,0.2L1873.6,2013.2"/>
							<path fill="#D6D6D6" d="M1873.6,2013.2l-37.9,612.9c0.3,0.1,0.7,0.2,1,0.2L1873.6,2013.2"/>
							<path fill="#D6D6D6" d="M1873.6,2013.2l-36.9,613.1c0.3,0.1,0.7,0.2,1,0.2L1873.6,2013.2"/>
							<path fill="#D5D5D5" d="M1873.6,2013.2l-35.9,613.3c0.3,0.1,0.7,0.1,1,0.2L1873.6,2013.2"/>
							<path fill="#D5D5D5" d="M1873.6,2013.2l-34.8,613.5c0.3,0.1,0.7,0.1,1.1,0.2L1873.6,2013.2"/>
							<path fill="#D4D4D4" d="M1873.6,2013.2l-33.8,613.7c0.3,0.1,0.7,0.1,1,0.2L1873.6,2013.2"/>
							<path fill="#D4D4D4" d="M1873.6,2013.2l-32.7,613.9c0.3,0.1,0.7,0.1,1,0.2L1873.6,2013.2"/>
							<path fill="#D4D4D4" d="M1873.6,2013.2l-31.8,614.1c0.3,0.1,0.7,0.1,1,0.2L1873.6,2013.2"/>
							<path fill="#D3D3D3" d="M1873.6,2013.2l-30.8,614.3c0.3,0.1,0.7,0.1,1,0.2L1873.6,2013.2L1873.6,2013.2"/>
							<path fill="#D3D3D3" d="M1873.6,2013.2l-29.8,614.5c0.3,0.1,0.7,0.1,1,0.2L1873.6,2013.2"/>
							<path fill="#D2D2D2" d="M1873.6,2013.2l-28.8,614.7c0.3,0.1,0.7,0.1,1,0.2L1873.6,2013.2"/>
							<path fill="#D2D2D2" d="M1873.6,2013.2l-27.8,614.8c0.3,0.1,0.7,0.1,1,0.2L1873.6,2013.2"/>
							<path fill="#D1D1D1" d="M1873.6,2013.2l-26.8,615c0.3,0.1,0.7,0.1,1,0.1L1873.6,2013.2"/>
							<path fill="#D1D1D1" d="M1873.6,2013.2l-25.7,615.1c0.3,0.1,0.7,0.1,1,0.1L1873.6,2013.2"/>
							<path fill="#D0D0D0" d="M1873.6,2013.2l-24.8,615.3c0.3,0.1,0.7,0.1,1,0.1L1873.6,2013.2"/>
							<path fill="#D0D0D0" d="M1873.6,2013.2l-23.8,615.4c0.3,0,0.7,0.1,1,0.1L1873.6,2013.2"/>
							<path fill="#CFCFCF" d="M1873.6,2013.2l-22.8,615.5c0.3,0,0.7,0.1,1,0.1L1873.6,2013.2L1873.6,2013.2"/>
							<path fill="#CFCFCF" d="M1873.6,2013.2l-21.8,615.7c0.3,0,0.7,0.1,1,0.1L1873.6,2013.2L1873.6,2013.2"/>
							<path fill="#CECECE" d="M1873.6,2013.2l-20.8,615.8c0.3,0,0.7,0.1,1,0.1L1873.6,2013.2"/>
							<path fill="#CECECE" d="M1873.6,2013.2l-19.8,615.9c0.3,0,0.7,0.1,1,0.1L1873.6,2013.2"/>
							<path fill="#CDCDCD" d="M1873.6,2013.2l-18.8,616c0.3,0,0.7,0.1,1,0.1L1873.6,2013.2"/>
							<path fill="#CDCDCD" d="M1873.6,2013.2l-17.9,616.1c0.3,0,0.7,0.1,1,0.1L1873.6,2013.2"/>
							<path fill="#CCCCCC" d="M1873.6,2013.2l-16.9,616.2c0.3,0,0.7,0.1,1,0.1L1873.6,2013.2"/>
							<path fill="#CCCCCC" d="M1873.6,2013.2l-15.9,616.3c0.3,0,0.7,0.1,1,0.1L1873.6,2013.2"/>
							<path fill="#CBCBCB" d="M1873.6,2013.2l-14.9,616.4c0.3,0,0.7,0.1,1,0.1L1873.6,2013.2"/>
							<path fill="#CBCBCB" d="M1873.6,2013.2l-13.9,616.4c0.3,0,0.7,0.1,1,0.1L1873.6,2013.2"/>
							<path fill="#CBCBCB" d="M1873.6,2013.2l-12.9,616.5c0.3,0,0.7,0,1,0.1L1873.6,2013.2"/>
							<path fill="#CACACA" d="M1873.6,2013.2l-11.9,616.6c0.3,0,0.7,0,1,0.1L1873.6,2013.2"/>
							<path fill="#CACACA" d="M1873.6,2013.2l-10.9,616.6c0.3,0,0.7,0,1,0.1L1873.6,2013.2"/>
							<path fill="#C9C9C9" d="M1873.6,2013.2l-9.9,616.7c0.3,0,0.7,0,1,0.1L1873.6,2013.2"/>
							<path fill="#C9C9C9" d="M1873.6,2013.2l-8.9,616.7c0.3,0,0.7,0,1,0L1873.6,2013.2"/>
							<path fill="#C8C8C8" d="M1873.6,2013.2l-7.9,616.8c0.3,0,0.7,0,1,0L1873.6,2013.2"/>
							<path fill="#C8C8C8" d="M1873.6,2013.2l-6.9,616.8c0.3,0,0.7,0,1,0L1873.6,2013.2"/>
							<path fill="#C7C7C7" d="M1873.6,2013.2l-5.9,616.8c0.3,0,0.7,0,1,0L1873.6,2013.2"/>
							<path fill="#C7C7C7" d="M1873.6,2013.2l-4.9,616.9c0.3,0,0.7,0,1,0L1873.6,2013.2"/>
							<path fill="#C6C6C6" d="M1873.6,2013.2l-3.9,616.9c0.3,0,0.7,0,1,0L1873.6,2013.2"/>
							<path fill="#C6C6C6" d="M1873.6,2013.2l-2.9,616.9c0.3,0,0.7,0,1,0L1873.6,2013.2"/>
							<path fill="#C5C5C5" d="M1873.6,2013.2l-1.8,616.9c0.3,0,0.7,0,1,0L1873.6,2013.2"/>
							<path fill="#C5C5C5" d="M1873.6,2013.2l-0.8,616.9c0.3,0,0.7,0,1,0L1873.6,2013.2L1873.6,2013.2"/>
							<path fill="#C4C4C4" d="M1873.6,2013.2l0.2,616.9c0.3,0,0.7,0,1,0L1873.6,2013.2"/>
							<path fill="#C4C4C4" d="M1873.6,2013.2l1.3,616.9c0.3,0,0.7,0,1,0L1873.6,2013.2"/>
							<path fill="#C3C3C3" d="M1873.6,2013.2l2.3,616.9c0.3,0,0.7,0,1,0L1873.6,2013.2"/>
							<path fill="#C3C3C3" d="M1873.6,2013.2l3.4,616.8c0.3,0,0.7,0,1,0L1873.6,2013.2"/>
							<path fill="#C2C2C2" d="M1873.6,2013.2l4.4,616.8c0.4,0,0.7,0,1.1,0L1873.6,2013.2"/>
							<path fill="#C2C2C2" d="M1873.6,2013.2l5.5,616.8c0.4,0,0.7,0,1.1-0.1L1873.6,2013.2"/>
							<path fill="#C1C1C1" d="M1873.6,2013.2l6.5,616.7c0.4,0,0.7,0,1.1-0.1L1873.6,2013.2"/>
							<path fill="#C1C1C1" d="M1873.6,2013.2l7.6,616.7c0.4,0,0.7,0,1.1-0.1L1873.6,2013.2"/>
							<path fill="#C1C1C1" d="M1873.6,2013.2l8.7,616.6c0.4,0,0.7,0,1.1-0.1L1873.6,2013.2"/>
							<path fill="#C0C0C0" d="M1873.6,2013.2l9.8,616.5c0.4,0,0.7-0.1,1.1-0.1L1873.6,2013.2"/>
							<path fill="#C0C0C0" d="M1873.6,2013.2l10.8,616.5c0.4,0,0.7-0.1,1.1-0.1L1873.6,2013.2"/>
							<path fill="#BFBFBF" d="M1873.6,2013.2l11.9,616.4c0.4,0,0.7-0.1,1.1-0.1L1873.6,2013.2"/>
							<path fill="#BFBFBF" d="M1873.6,2013.2l13,616.3c0.4,0,0.8-0.1,1.1-0.1L1873.6,2013.2L1873.6,2013.2"/>
							<path fill="#BEBEBE" d="M1873.6,2013.2l14.2,616.2c0.4,0,0.8-0.1,1.1-0.1L1873.6,2013.2"/>
							<path fill="#BEBEBE" d="M1873.6,2013.2l15.3,616.1c0.4,0,0.8-0.1,1.1-0.1L1873.6,2013.2"/>
							<path fill="#BDBDBD" d="M1873.6,2013.2l16.5,616c0.4,0,0.7-0.1,1.1-0.1L1873.6,2013.2L1873.6,2013.2"/>
							<path fill="#BDBDBD" d="M1873.6,2013.2l17.6,615.9c0.4,0,0.7-0.1,1.1-0.1L1873.6,2013.2"/>
							<path fill="#BCBCBC" d="M1873.6,2013.2l18.7,615.7c0.4-0.1,0.8-0.1,1.1-0.1L1873.6,2013.2"/>
							<path fill="#BCBCBC" d="M1873.6,2013.2l19.9,615.6c0.4-0.1,0.8-0.1,1.2-0.2L1873.6,2013.2"/>
							<path fill="#BBBBBB" d="M1873.6,2013.2l21.1,615.4c0.4-0.1,0.8-0.1,1.2-0.2L1873.6,2013.2"/>
							<path fill="#BBBBBB" d="M1873.6,2013.2l22.3,615.2c0.4-0.1,0.8-0.1,1.2-0.2L1873.6,2013.2"/>
							<path fill="#BABABA" d="M1873.6,2013.2l23.5,615.1c0.4-0.1,0.8-0.1,1.2-0.2L1873.6,2013.2"/>
							<path fill="#BABABA" d="M1873.6,2013.2l24.8,614.9c0.4-0.1,0.8-0.1,1.2-0.2L1873.6,2013.2"/>
							<path fill="#B9B9B9" d="M1873.6,2013.2l26,614.7c0.4-0.1,0.8-0.1,1.2-0.2L1873.6,2013.2"/>
							<path fill="#B9B9B9" d="M1873.6,2013.2l27.2,614.5c0.4-0.1,0.9-0.2,1.4-0.2L1873.6,2013.2"/>
							<path fill="#B8B8B8" d="M1873.6,2013.2l28.6,614.2c0.4-0.1,0.9-0.2,1.4-0.2L1873.6,2013.2"/>
							<path fill="#B8B8B8" d="M1873.6,2013.2l29.9,614c0.4-0.1,0.9-0.2,1.4-0.3L1873.6,2013.2"/>
							<path fill="#B8B8B8" d="M1873.6,2013.2l31.3,613.7c0.4-0.1,0.9-0.2,1.3-0.3L1873.6,2013.2"/>
							<path fill="#B7B7B7" d="M1873.6,2013.2l32.6,613.5c0.4-0.1,0.9-0.2,1.3-0.3L1873.6,2013.2"/>
							<path fill="#B7B7B7" d="M1873.6,2013.2l33.9,613.2c0.5-0.1,1-0.2,1.5-0.3L1873.6,2013.2"/>
							<path fill="#B6B6B6" d="M1873.6,2013.2l35.4,612.8c0.5-0.1,1-0.2,1.6-0.4L1873.6,2013.2"/>
							<path fill="#B6B6B6" d="M1873.6,2013.2l37,612.5c0.5-0.1,1-0.2,1.5-0.4L1873.6,2013.2"/>
							<path fill="#B5B5B5" d="M1873.6,2013.2l38.5,612.1c0.5-0.1,1-0.3,1.5-0.4L1873.6,2013.2"/>
							<path fill="#B5B5B5" d="M1873.6,2013.2l40,611.7c0.5-0.1,1-0.3,1.5-0.4L1873.6,2013.2L1873.6,2013.2"/>
							<path fill="#B4B4B4" d="M1873.6,2013.2l41.5,611.3c0.6-0.2,1.2-0.4,1.9-0.5L1873.6,2013.2"/>
							<path fill="#B4B4B4" d="M1873.6,2013.2L1917,2624c0.6-0.2,1.2-0.4,1.9-0.6L1873.6,2013.2"/>
							<path fill="#B3B3B3" d="M1873.6,2013.2l45.2,610.2c0.6-0.2,1.2-0.4,1.8-0.6L1873.6,2013.2"/>
							<path fill="#B3B3B3" d="M1873.6,2013.2l47.1,609.6c0.7-0.2,1.3-0.4,2-0.6L1873.6,2013.2L1873.6,2013.2"/>
							<path fill="#B2B2B2" d="M1873.6,2013.2l49,609c0.8-0.3,1.6-0.6,2.4-0.9L1873.6,2013.2"/>
							<path fill="#B2B2B2" d="M1873.6,2013.2l51.4,608.1c0.8-0.3,1.6-0.6,2.4-0.9L1873.6,2013.2"/>
							<path fill="#B1B1B1" d="M1873.6,2013.2l53.8,607.2c1-0.4,2-0.8,3-1.2L1873.6,2013.2"/>
							<path fill="#B1B1B1" d="M1873.6,2013.2l56.8,606c1.2-0.5,2.4-1.1,3.7-1.6L1873.6,2013.2"/>
							<path fill="#B0B0B0" d="M1873.6,2013.2l60.4,604.4c2.5-1.1,4.9-2.4,7.2-3.7L1873.6,2013.2"/>
						</g>
					</g>
				</g>
				<g enable-background="new    ">
					<g>
						<defs>
							<path id="SVGID_9_" d="M2246.9,2036.8c-33.4,184.4-66.9,368.8-100.3,553.2c-6.5,35.9-33.9,70.7-82.1,97.7l70.8-518
								C2200.7,2132.9,2238,2085.6,2246.9,2036.8z"/>
						</defs>
						<clipPath id="SVGID_10_">
							<use xlink:href="#SVGID_9_"  overflow="visible"/>
						</clipPath>
						<g clip-path="url(#SVGID_10_)" enable-background="new    ">
							<path fill="#B0B0B0" d="M2064.4,2687.7l70.8-518c65.5-36.8,102.8-84.1,111.7-132.9l-100.3,553.2
								C2140.1,2625.8,2112.6,2660.6,2064.4,2687.7"/>
						</g>
					</g>
				</g>
				<g enable-background="new    ">
					<g>
						<defs>
							<path id="SVGID_11_" d="M1597.3,2588.4l-97.2-553.7c8.3,47.1,43,93,104.3,129.6c144.5,86.4,382.1,88.8,530.8,5.4l-70.8,518
								c-109.3,61.4-284.1,59.6-390.4-3.9C1628.9,2656.7,1603.4,2623,1597.3,2588.4z"/>
						</defs>
						<clipPath id="SVGID_12_">
							<use xlink:href="#SVGID_11_"  overflow="visible"/>
						</clipPath>
						<g clip-path="url(#SVGID_12_)" enable-background="new    ">
							<path fill="#C4C4C4" d="M1597.3,2588.4l-97.2-553.7c0.1,0.4,0.1,0.7,0.2,1.1l97.1,553.4
								C1597.4,2588.9,1597.4,2588.6,1597.3,2588.4"/>
							<path fill="#C4C4C4" d="M1597.5,2589.1l-97.1-553.4c0.2,1.2,0.5,2.4,0.7,3.6l96.9,552.5
								C1597.8,2590.9,1597.6,2590,1597.5,2589.1"/>
							<path fill="#C5C5C5" d="M1598,2591.8l-96.9-552.5c0.3,1.2,0.5,2.4,0.8,3.7l96.7,551.5
								C1598.4,2593.6,1598.2,2592.7,1598,2591.8"/>
							<path fill="#C5C5C5" d="M1598.6,2594.5l-96.7-551.5c0.3,1.3,0.7,2.6,1,4l96.4,550.5
								C1599.1,2596.5,1598.9,2595.5,1598.6,2594.5"/>
							<path fill="#C6C6C6" d="M1599.4,2597.4l-96.4-550.5c0.4,1.3,0.7,2.6,1.1,3.9l96.1,549.4
								C1599.9,2599.4,1599.6,2598.4,1599.4,2597.4"/>
							<path fill="#C6C6C6" d="M1600.2,2600.3l-96.1-549.4c0.4,1.3,0.8,2.6,1.3,3.9l95.8,548.4
								C1600.8,2602.3,1600.5,2601.3,1600.2,2600.3"/>
							<path fill="#C7C7C7" d="M1601.2,2603.2l-95.8-548.4c0.4,1.3,0.9,2.6,1.4,3.9l95.4,547.4
								C1601.8,2605.1,1601.5,2604.2,1601.2,2603.2"/>
							<path fill="#C7C7C7" d="M1602.2,2606.1l-95.4-547.4c0.6,1.5,1.1,2.9,1.7,4.4l95,546.2
								C1603,2608.2,1602.6,2607.2,1602.2,2606.1"/>
							<path fill="#C8C8C8" d="M1603.4,2609.3l-95-546.2c0.6,1.5,1.2,2.9,1.9,4.4l94.5,545
								C1604.4,2611.5,1603.9,2610.4,1603.4,2609.3"/>
							<path fill="#C8C8C8" d="M1604.8,2612.5l-94.5-545c0.7,1.5,1.3,2.9,2.1,4.4l93.9,543.9
								C1605.8,2614.7,1605.3,2613.6,1604.8,2612.5"/>
							<path fill="#C9C9C9" d="M1606.4,2615.8l-93.9-543.9c0.7,1.5,1.5,3,2.3,4.5l93.3,542.7
								C1607.5,2618,1606.9,2616.9,1606.4,2615.8"/>
							<path fill="#C9C9C9" d="M1608,2619.1l-93.3-542.7c0.9,1.7,1.9,3.5,2.9,5.2l92.6,541.3
								C1609.4,2621.7,1608.7,2620.4,1608,2619.1"/>
							<path fill="#CACACA" d="M1610.1,2622.9l-92.6-541.3c1,1.7,2,3.4,3.1,5.2l91.8,539.9
								C1611.6,2625.4,1610.9,2624.2,1610.1,2622.9"/>
							<path fill="#CACACA" d="M1612.4,2626.7l-91.8-539.9c1.1,1.7,2.2,3.5,3.4,5.2l90.8,538.6
								C1614.1,2629.3,1613.2,2628,1612.4,2626.7"/>
							<path fill="#CBCBCB" d="M1614.9,2630.5l-90.8-538.6c1.5,2.2,3,4.4,4.6,6.5l89.6,536.8
								C1617.1,2633.8,1616,2632.2,1614.9,2630.5"/>
							<path fill="#CBCBCB" d="M1618.3,2635.4l-89.6-536.8c1.6,2.2,3.3,4.3,5,6.5l88.3,535.1
								C1620.7,2638.5,1619.5,2637,1618.3,2635.4"/>
							<path fill="#CBCBCB" d="M1622,2640.1l-88.3-535.1c2.3,2.8,4.7,5.7,7.2,8.5l86.4,532.9
								C1625.5,2644.3,1623.7,2642.2,1622,2640.1"/>
							<path fill="#CCCCCC" d="M1627.3,2646.3l-86.4-532.9c3,3.3,6.1,6.6,9.4,9.8l83.9,530.3
								C1631.9,2651.2,1629.5,2648.8,1627.3,2646.3"/>
							<path fill="#CCCCCC" d="M1634.3,2653.6l-83.9-530.3c12.6,12.3,27.5,24.1,44.6,35.1l72.1,521
								C1654.5,2671.3,1643.5,2662.6,1634.3,2653.6"/>
							<path fill="#CCCCCC" d="M1667.1,2679.4l-72.1-521c3.1,2,6.2,3.9,9.4,5.8c2,1.2,4,2.4,6.1,3.6l68,518.5
								c-1.5-0.9-3-1.7-4.5-2.6C1671.7,2682.3,1669.4,2680.9,1667.1,2679.4"/>
							<path fill="#CBCBCB" d="M1678.5,2686.3l-68-518.5c3.8,2.2,7.7,4.3,11.6,6.4l64.9,516.8
								C1684.2,2689.5,1681.3,2687.9,1678.5,2686.3"/>
							<path fill="#CBCBCB" d="M1687.1,2691l-64.9-516.8c3.2,1.7,6.5,3.4,9.8,5l62.3,515.5C1691.9,2693.5,1689.5,2692.3,1687.1,2691
								"/>
							<path fill="#CBCBCB" d="M1694.3,2694.7l-62.3-515.5c2.8,1.4,5.7,2.7,8.6,4.1l60,514.4
								C1698.5,2696.7,1696.4,2695.7,1694.3,2694.7"/>
							<path fill="#CACACA" d="M1700.6,2697.7l-60-514.4c2.9,1.3,5.8,2.6,8.8,3.9l57.7,513.4
								C1704.9,2699.6,1702.7,2698.7,1700.6,2697.7"/>
							<path fill="#CACACA" d="M1707,2700.6l-57.7-513.4c2.4,1.1,4.8,2.1,7.3,3.1l55.8,512.6
								C1710.6,2702.1,1708.8,2701.3,1707,2700.6"/>
							<path fill="#C9C9C9" d="M1712.4,2702.8l-55.8-512.6c2.4,1,4.8,1.9,7.2,2.9l53.9,511.8
								C1715.9,2704.3,1714.1,2703.6,1712.4,2702.8"/>
							<path fill="#C9C9C9" d="M1717.7,2705l-53.9-511.8c2.4,0.9,4.8,1.9,7.2,2.8l52,511.1C1721.2,2706.3,1719.4,2705.7,1717.7,2705
								"/>
							<path fill="#C8C8C8" d="M1723,2707l-52-511.1c2.3,0.9,4.6,1.7,6.9,2.5l50.2,510.4C1726.3,2708.2,1724.7,2707.6,1723,2707"/>
							<path fill="#C8C8C8" d="M1728,2708.8l-50.2-510.4c2.1,0.7,4.2,1.5,6.3,2.2l48.5,509.8
								C1731.1,2709.9,1729.6,2709.4,1728,2708.8"/>
							<path fill="#C7C7C7" d="M1732.7,2710.5l-48.5-509.8c2.1,0.7,4.2,1.4,6.4,2.1l46.8,509.3
								C1735.8,2711.5,1734.2,2711,1732.7,2710.5"/>
							<path fill="#C7C7C7" d="M1737.4,2712l-46.8-509.3c2.1,0.7,4.3,1.4,6.4,2.1l45.1,508.7C1740.5,2713,1739,2712.5,1737.4,2712"
								/>
							<path fill="#C6C6C6" d="M1742.1,2713.5l-45.1-508.7c2.1,0.6,4.1,1.3,6.2,1.9l43.5,508.2
								C1745.2,2714.5,1743.6,2714,1742.1,2713.5"/>
							<path fill="#C6C6C6" d="M1746.7,2714.9l-43.5-508.2c1.9,0.6,3.9,1.1,5.9,1.7l41.9,507.8
								C1749.6,2715.8,1748.1,2715.3,1746.7,2714.9"/>
							<path fill="#C5C5C5" d="M1751,2716.2l-41.9-507.8c2,0.6,3.9,1.1,5.9,1.6l40.3,507.3C1753.9,2717,1752.5,2716.6,1751,2716.2"
								/>
							<path fill="#C5C5C5" d="M1755.3,2717.4l-40.3-507.3c2,0.5,4,1.1,6,1.6l38.8,506.9C1758.3,2718.2,1756.8,2717.8,1755.3,2717.4
								"/>
							<path fill="#C4C4C4" d="M1759.7,2718.6l-38.8-506.9c2,0.5,4,1,6,1.5l37.2,506.5C1762.7,2719.3,1761.2,2718.9,1759.7,2718.6"
								/>
							<path fill="#C4C4C4" d="M1764.1,2719.7l-37.2-506.5c1.9,0.5,3.8,0.9,5.7,1.4l35.7,506.2
								C1766.9,2720.3,1765.5,2720,1764.1,2719.7"/>
							<path fill="#C3C3C3" d="M1768.3,2720.7l-35.7-506.2c1.9,0.4,3.8,0.9,5.7,1.3l34.2,505.8
								C1771.1,2721.3,1769.7,2721,1768.3,2720.7"/>
							<path fill="#C3C3C3" d="M1772.5,2721.6l-34.2-505.8c1.9,0.4,3.8,0.8,5.7,1.2l32.7,505.5
								C1775.2,2722.2,1773.8,2721.9,1772.5,2721.6"/>
							<path fill="#C2C2C2" d="M1776.6,2722.5l-32.7-505.5c1.9,0.4,3.8,0.8,5.7,1.2l31.2,505.2
								C1779.4,2723.1,1778,2722.8,1776.6,2722.5"/>
							<path fill="#C2C2C2" d="M1780.8,2723.4l-31.2-505.2c1.9,0.4,3.8,0.8,5.7,1.1l29.7,504.9
								C1783.6,2724,1782.2,2723.7,1780.8,2723.4"/>
							<path fill="#C1C1C1" d="M1785,2724.3l-29.7-504.9c1.9,0.4,3.7,0.7,5.5,1.1l28.2,504.6
								C1787.8,2724.8,1786.4,2724.5,1785,2724.3"/>
							<path fill="#C1C1C1" d="M1789.1,2725l-28.2-504.6c1.9,0.3,3.7,0.7,5.6,1l26.7,504.3C1791.9,2725.5,1790.5,2725.3,1789.1,2725
								"/>
							<path fill="#C1C1C1" d="M1793.2,2725.8l-26.7-504.3c1.9,0.3,3.7,0.6,5.6,0.9l25.3,504.1
								C1796,2726.2,1794.6,2726,1793.2,2725.8"/>
							<path fill="#C0C0C0" d="M1797.3,2726.5l-25.3-504.1c1.9,0.3,3.7,0.6,5.6,0.9l23.8,503.8
								C1800.1,2726.9,1798.7,2726.7,1797.3,2726.5"/>
							<path fill="#C0C0C0" d="M1801.5,2727.1l-23.8-503.8c1.9,0.3,3.7,0.6,5.6,0.8l22.3,503.6
								C1804.2,2727.5,1802.8,2727.3,1801.5,2727.1"/>
							<path fill="#BFBFBF" d="M1805.6,2727.7l-22.3-503.6c1.9,0.3,3.7,0.5,5.6,0.8l20.8,503.4
								C1808.4,2728.1,1807,2727.9,1805.6,2727.7"/>
							<path fill="#BFBFBF" d="M1809.7,2728.3l-20.8-503.4c1.9,0.2,3.7,0.5,5.6,0.7l19.3,503.2
								C1812.5,2728.7,1811.1,2728.5,1809.7,2728.3"/>
							<path fill="#BEBEBE" d="M1813.9,2728.9l-19.3-503.2c1.9,0.2,3.8,0.5,5.6,0.7l17.8,503
								C1816.6,2729.2,1815.2,2729,1813.9,2728.9"/>
							<path fill="#BEBEBE" d="M1818,2729.4l-17.8-503c1.9,0.2,3.8,0.4,5.7,0.6l16.3,502.9C1820.8,2729.7,1819.4,2729.5,1818,2729.4
								"/>
							<path fill="#BDBDBD" d="M1822.2,2729.8l-16.3-502.9c1.9,0.2,3.8,0.4,5.7,0.6l14.8,502.7
								C1824.9,2730.1,1823.6,2730,1822.2,2729.8"/>
							<path fill="#BDBDBD" d="M1826.3,2730.3l-14.8-502.7c1.9,0.2,3.9,0.4,5.8,0.5l13.3,502.6
								C1829.2,2730.5,1827.8,2730.4,1826.3,2730.3"/>
							<path fill="#BCBCBC" d="M1830.6,2730.6l-13.3-502.6c1.9,0.2,3.9,0.3,5.8,0.5l11.8,502.4
								C1833.4,2730.9,1832,2730.8,1830.6,2730.6"/>
							<path fill="#BCBCBC" d="M1834.8,2731l-11.8-502.4c1.9,0.2,3.9,0.3,5.8,0.4l10.2,502.3
								C1837.7,2731.2,1836.3,2731.1,1834.8,2731"/>
							<path fill="#BBBBBB" d="M1839.1,2731.3l-10.2-502.3c1.9,0.1,3.9,0.3,5.8,0.4l8.7,502.2
								C1842,2731.5,1840.5,2731.4,1839.1,2731.3"/>
							<path fill="#BBBBBB" d="M1843.4,2731.6l-8.7-502.2c1.9,0.1,3.9,0.2,5.9,0.3l7.2,502.1
								C1846.3,2731.8,1844.8,2731.7,1843.4,2731.6"/>
							<path fill="#BABABA" d="M1847.7,2731.9l-7.2-502.1c2,0.1,4,0.2,6.1,0.3l5.5,502.1C1850.7,2732,1849.2,2731.9,1847.7,2731.9"
								/>
							<path fill="#BABABA" d="M1852.2,2732.1l-5.5-502.1c2,0.1,4,0.2,6.1,0.2l3.9,502C1855.1,2732.2,1853.7,2732.1,1852.2,2732.1"
								/>
							<path fill="#B9B9B9" d="M1856.6,2732.3l-3.9-502c2,0.1,4.1,0.1,6.1,0.2l2.3,501.9C1859.6,2732.4,1858.1,2732.3,1856.6,2732.3
								"/>
							<path fill="#B9B9B9" d="M1861.1,2732.4l-2.3-501.9c2,0.1,4.1,0.1,6.1,0.1l0.7,501.9
								C1864.1,2732.4,1862.6,2732.4,1861.1,2732.4"/>
							<path fill="#B8B8B8" d="M1865.6,2732.5l-0.7-501.9c2.1,0,4.2,0.1,6.3,0.1l-1,501.9
								C1868.7,2732.5,1867.2,2732.5,1865.6,2732.5"/>
							<path fill="#B8B8B8" d="M1870.2,2732.5l1-501.9c2.2,0,4.4,0,6.6,0l-2.7,501.9C1873.5,2732.5,1871.9,2732.5,1870.2,2732.5"/>
							<path fill="#B8B8B8" d="M1875.1,2732.5l2.7-501.9c2.2,0,4.4,0,6.6-0.1l-4.4,501.9C1878.3,2732.5,1876.7,2732.5,1875.1,2732.5
								"/>
							<path fill="#B7B7B7" d="M1879.9,2732.5l4.4-501.9c2.2,0,4.4-0.1,6.6-0.1l-6.2,501.9
								C1883.1,2732.4,1881.5,2732.5,1879.9,2732.5"/>
							<path fill="#B7B7B7" d="M1884.7,2732.4l6.2-501.9c2.2-0.1,4.4-0.1,6.6-0.2l-7.9,502
								C1887.9,2732.3,1886.3,2732.3,1884.7,2732.4"/>
							<path fill="#B6B6B6" d="M1889.6,2732.3l7.9-502c2.4-0.1,4.9-0.2,7.3-0.3l-9.8,502.1
								C1893.2,2732.1,1891.4,2732.2,1889.6,2732.3"/>
							<path fill="#B6B6B6" d="M1894.9,2732l9.8-502.1c2.4-0.1,4.9-0.2,7.3-0.4l-11.8,502.2
								C1898.5,2731.9,1896.7,2731.9,1894.9,2732"/>
							<path fill="#B5B5B5" d="M1900.3,2731.8l11.8-502.2c2.4-0.1,4.9-0.3,7.3-0.5l-13.7,502.3
								C1903.9,2731.5,1902.1,2731.6,1900.3,2731.8"/>
							<path fill="#B5B5B5" d="M1905.7,2731.4l13.7-502.3c2.5-0.2,4.9-0.4,7.4-0.6l-15.6,502.4
								C1909.3,2731.1,1907.5,2731.3,1905.7,2731.4"/>
							<path fill="#B4B4B4" d="M1911.1,2731l15.6-502.4c2.8-0.2,5.7-0.5,8.5-0.7l-17.9,502.6
								C1915.3,2730.7,1913.2,2730.8,1911.1,2731"/>
							<path fill="#B4B4B4" d="M1917.3,2730.5l17.9-502.6c2.8-0.3,5.6-0.6,8.4-0.9l-20.1,502.9
								C1921.5,2730.1,1919.4,2730.3,1917.3,2730.5"/>
							<path fill="#B3B3B3" d="M1923.6,2729.8l20.1-502.9c2.8-0.3,5.6-0.6,8.4-1l-22.4,503.1
								C1927.7,2729.4,1925.6,2729.6,1923.6,2729.8"/>
							<path fill="#B3B3B3" d="M1929.7,2729.1l22.4-503.1c3.3-0.4,6.7-0.8,10-1.3l-25,503.5
								C1934.6,2728.5,1932.2,2728.8,1929.7,2729.1"/>
							<path fill="#B2B2B2" d="M1937.1,2728.2l25-503.5c3.5-0.5,7-1,10.5-1.5l-27.7,503.9
								C1942.2,2727.5,1939.6,2727.8,1937.1,2728.2"/>
							<path fill="#B2B2B2" d="M1944.7,2727l27.7-503.9c3.5-0.6,7.1-1.1,10.6-1.7l-30.6,504.3
								C1950,2726.2,1947.4,2726.6,1944.7,2727"/>
							<path fill="#B1B1B1" d="M1952.6,2725.8l30.6-504.3c4.9-0.9,9.7-1.8,14.6-2.7l-34.4,505
								C1959.7,2724.5,1956.2,2725.1,1952.6,2725.8"/>
							<path fill="#B1B1B1" d="M1963.3,2723.7l34.4-505c5.5-1.1,11-2.3,16.4-3.5l-38.7,506
								C1971.4,2722.1,1967.3,2722.9,1963.3,2723.7"/>
							<path fill="#B0B0B0" d="M1975.3,2721.1l38.7-506c43.9-10.2,85.1-25.3,121.1-45.5l-70.8,518
								C2037.9,2702.5,2007.6,2713.7,1975.3,2721.1"/>
						</g>
					</g>
				</g>
				<g>
					
						<ellipse transform="matrix(2.834985e-03 -1 1 2.834985e-03 -144.9083 3881.0923)" fill="#DFDFDF" cx="1873.6" cy="2013.2" rx="217.4" ry="375.4"/>
				</g>
			</g>
		</g>
	</g>
	<g>
		<g>
			<g enable-background="new    ">
				<g>
					<path fill="#7F9DB1" d="M2060.1,2128.1c-106.5,59.7-276.6,58-380.1-3.8c-103.5-61.9-101-160.4,5.4-220.1
						c106.5-59.7,276.6-58,380.1,3.8C2169,1969.8,2166.6,2068.4,2060.1,2128.1z M1940.1,2056.4c38.3-21.5,39.1-56.9,1.9-79.1
						s-98.4-22.8-136.6-1.4c-38.3,21.5-39.1,56.9-1.9,79.1C1840.7,2077.2,1901.9,2077.8,1940.1,2056.4"/>
				</g>
				<g enable-background="new    ">
					<g>
						<defs>
							<path id="SVGID_13_" d="M1872.8,2011.5l67.3,44.9c-38.3,21.5-99.4,20.9-136.6-1.4c-37.2-22.2-36.3-57.7,1.9-79.1
								c38.3-21.5,99.4-20.9,136.6,1.4c37.2,22.2,36.3,57.7-1.9,79.1L1872.8,2011.5z"/>
						</defs>
						<clipPath id="SVGID_14_">
							<use xlink:href="#SVGID_13_"  overflow="visible"/>
						</clipPath>
						<g clip-path="url(#SVGID_14_)" enable-background="new    ">
							<path fill="#7A98AB" d="M1872.8,2011.5l67.3,44.9c4.1-2.3,7.8-4.7,11-7.3L1872.8,2011.5"/>
							<path fill="#7A97AB" d="M1872.8,2011.5l78.3,37.5c4.8-3.8,8.6-7.9,11.5-12.1L1872.8,2011.5"/>
							<path fill="#7A97AA" d="M1872.8,2011.5l89.8,25.4c2-3,3.6-6,4.7-9.2L1872.8,2011.5"/>
							<path fill="#7997AA" d="M1872.8,2011.5l94.6,16.2c0.9-2.6,1.6-5.3,1.8-7.9L1872.8,2011.5"/>
							<path fill="#7996A9" d="M1872.8,2011.5l96.4,8.3c0.2-2.4,0.2-4.8,0-7.2L1872.8,2011.5"/>
							<path fill="#7996A9" d="M1872.8,2011.5l96.4,1.2c-0.2-2.2-0.7-4.4-1.4-6.5L1872.8,2011.5"/>
							<path fill="#7895A8" d="M1872.8,2011.5l95-5.3c-0.6-2-1.5-4-2.5-6L1872.8,2011.5"/>
							<path fill="#7895A8" d="M1872.8,2011.5l92.5-11.4c-1-1.9-2.1-3.7-3.5-5.6L1872.8,2011.5"/>
							<path fill="#7895A7" d="M1872.8,2011.5l89.1-16.9c-1.3-1.8-2.7-3.5-4.4-5.2L1872.8,2011.5"/>
							<path fill="#7794A7" d="M1872.8,2011.5l84.7-22.2c-1.6-1.7-3.3-3.3-5.2-4.9L1872.8,2011.5"/>
							<path fill="#7794A6" d="M1872.8,2011.5l79.5-27c-1.9-1.6-3.9-3.1-6.1-4.6L1872.8,2011.5"/>
							<path fill="#7793A6" d="M1872.8,2011.5l73.4-31.6c-1.3-0.9-2.7-1.8-4.2-2.6c-0.9-0.6-1.9-1.1-2.9-1.7L1872.8,2011.5"/>
							<path fill="#7693A6" d="M1872.8,2011.5l66.4-35.9c-2.5-1.4-5.1-2.7-7.8-3.9L1872.8,2011.5"/>
							<path fill="#7692A5" d="M1872.8,2011.5l58.5-39.8c-2.8-1.2-5.7-2.4-8.7-3.5L1872.8,2011.5"/>
							<path fill="#7692A5" d="M1872.8,2011.5l49.8-43.3c-3.2-1.1-6.5-2.1-9.8-3L1872.8,2011.5"/>
							<path fill="#7592A4" d="M1872.8,2011.5l40-46.3c-3.6-1-7.3-1.8-11.1-2.5L1872.8,2011.5"/>
							<path fill="#7591A4" d="M1872.8,2011.5l28.9-48.7c-4.2-0.8-8.4-1.4-12.7-1.8L1872.8,2011.5"/>
							<path fill="#7591A3" d="M1872.8,2011.5l16.2-50.5c-5-0.5-10-0.8-15.1-0.8L1872.8,2011.5"/>
							<path fill="#7490A3" d="M1872.8,2011.5l1.1-51.4c-6.4-0.1-12.8,0.2-19.1,0.9L1872.8,2011.5"/>
							<path fill="#7490A2" d="M1872.8,2011.5l-18-50.4c-11.9,1.3-23.5,3.9-34.1,7.8L1872.8,2011.5"/>
							<path fill="#7490A2" d="M1872.8,2011.5l-52.1-42.6c-5.4,2-10.5,4.3-15.3,7c-0.1,0-0.1,0.1-0.2,0.1L1872.8,2011.5"/>
							<path fill="#7490A2" d="M1872.8,2011.5l-67.6-35.5c-8.9,5-15.8,10.8-20.6,17.1L1872.8,2011.5"/>
							<path fill="#7490A3" d="M1872.8,2011.5l-88.2-18.5c-2.6,3.4-4.6,6.9-6,10.4L1872.8,2011.5"/>
							<path fill="#7591A3" d="M1872.8,2011.5l-94.2-8c-1.1,2.9-1.9,5.8-2.2,8.7L1872.8,2011.5"/>
							<path fill="#7591A4" d="M1872.8,2011.5l-96.4,0.6c-0.3,2.6-0.3,5.1,0,7.7L1872.8,2011.5"/>
							<path fill="#7592A4" d="M1872.8,2011.5l-96.4,8.3c0.3,2.3,0.8,4.6,1.6,6.8L1872.8,2011.5"/>
							<path fill="#7692A5" d="M1872.8,2011.5l-94.9,15.2c0.7,2.1,1.6,4.2,2.7,6.3L1872.8,2011.5"/>
							<path fill="#7692A5" d="M1872.8,2011.5l-92.1,21.4c1.1,1.9,2.3,3.8,3.7,5.7L1872.8,2011.5"/>
							<path fill="#7693A6" d="M1872.8,2011.5l-88.4,27.1c1.4,1.8,2.9,3.5,4.6,5.3L1872.8,2011.5"/>
							<path fill="#7793A6" d="M1872.8,2011.5l-83.8,32.4c1.7,1.7,3.5,3.3,5.4,4.9L1872.8,2011.5"/>
							<path fill="#7794A6" d="M1872.8,2011.5l-78.3,37.3c1.9,1.6,4,3.1,6.3,4.5L1872.8,2011.5"/>
							<path fill="#7794A7" d="M1872.8,2011.5l-72.1,41.8c0.9,0.6,1.8,1.2,2.8,1.7c1.4,0.9,2.9,1.7,4.4,2.4L1872.8,2011.5"/>
							<path fill="#7895A7" d="M1872.8,2011.5l-64.9,45.9c2.5,1.3,5.1,2.6,7.8,3.7L1872.8,2011.5"/>
							<path fill="#7895A8" d="M1872.8,2011.5l-57.1,49.7c2.8,1.2,5.7,2.3,8.6,3.3L1872.8,2011.5"/>
							<path fill="#7895A8" d="M1872.8,2011.5l-48.6,52.9c3.1,1,6.2,2,9.5,2.8L1872.8,2011.5"/>
							<path fill="#7996A9" d="M1872.8,2011.5l-39.1,55.7c3.4,0.9,7,1.7,10.5,2.3L1872.8,2011.5"/>
							<path fill="#7996A9" d="M1872.8,2011.5l-28.6,58c3.9,0.7,7.8,1.3,11.8,1.7L1872.8,2011.5"/>
							<path fill="#7997AA" d="M1872.8,2011.5l-16.7,59.7c4.5,0.5,9.2,0.7,13.8,0.8L1872.8,2011.5"/>
							<path fill="#7A97AA" d="M1872.8,2011.5l-3,60.5c5.5,0.1,11-0.1,16.5-0.5L1872.8,2011.5"/>
							<path fill="#7A97AB" d="M1872.8,2011.5l13.6,60.1c8-0.6,15.9-1.9,23.5-3.7L1872.8,2011.5"/>
							<path fill="#7A98AB" d="M1872.8,2011.5l37,56.4c11-2.6,21.3-6.5,30.3-11.5L1872.8,2011.5"/>
						</g>
					</g>
				</g>
				<g enable-background="new    ">
					<g>
						<defs>
							<path id="SVGID_15_" d="M2060.1,2128.1c106.5-59.7,108.9-158.3,5.4-220.1c-103.5-61.9-273.6-63.6-380.1-3.8
								c-106.5,59.7-108.9,158.3-5.4,220.1C1783.5,2186.1,1953.7,2187.8,2060.1,2128.1l67.4,35.6c-144.7,81.2-376.1,78.9-516.7-5.2
								s-137.4-218.1,7.3-299.3s376.1-78.9,516.7,5.2s137.4,218.1-7.3,299.3L2060.1,2128.1z"/>
						</defs>
						<clipPath id="SVGID_16_">
							<use xlink:href="#SVGID_15_"  overflow="visible"/>
						</clipPath>
						<g clip-path="url(#SVGID_16_)" enable-background="new    ">
							<path fill="#7490A2" d="M2060.1,2128.1l67.4,35.6c0.2-0.1,0.5-0.3,0.7-0.4l-67.6-35.5
								C2060.5,2127.9,2060.3,2128,2060.1,2128.1"/>
							<path fill="#7490A2" d="M2060.7,2127.8l67.6,35.5c33.8-19.1,59.8-41,78-64.5l-88.2-18.5
								C2104.7,2097.6,2085.5,2113.8,2060.7,2127.8"/>
							<path fill="#7490A3" d="M2118.1,2080.3l88.2,18.5c9.9-12.8,17.5-26,22.8-39.5l-94.2-8
								C2130.9,2061.2,2125.4,2070.9,2118.1,2080.3"/>
							<path fill="#7591A3" d="M2134.9,2051.3l94.2,8c4.3-10.8,7-21.8,8.3-32.8l-96.4,0.6C2140,2035.3,2138,2043.4,2134.9,2051.3"/>
							<path fill="#7591A4" d="M2141,2027.2l96.4-0.6c1.1-9.6,1.1-19.3,0-29l-96.4,8.3C2141.8,2012.9,2141.8,2020.1,2141,2027.2"/>
							<path fill="#7592A4" d="M2141,2005.8l96.4-8.3c-1-8.7-3-17.3-5.9-25.9l-94.9,15.2C2138.8,1993.1,2140.2,1999.5,2141,2005.8"
								/>
							<path fill="#7692A5" d="M2136.6,1986.8l94.9-15.2c-2.7-8-6.1-15.9-10.4-23.7l-92.1,21.4
								C2132.1,1975.1,2134.7,1980.9,2136.6,1986.8"/>
							<path fill="#7692A5" d="M2129,1969.4l92.1-21.4c-4-7.3-8.7-14.5-14.1-21.6l-88.4,27.1C2122.6,1958.7,2126.1,1964,2129,1969.4
								"/>
							<path fill="#7693A6" d="M2118.6,1953.5l88.4-27.1c-5.2-6.8-11-13.4-17.5-19.9l-83.8,32.4
								C2110.5,1943.6,2114.8,1948.5,2118.6,1953.5"/>
							<path fill="#7793A6" d="M2105.8,1938.8l83.8-32.4c-6.2-6.3-13.1-12.4-20.5-18.4l-78.3,37.3
								C2096.1,1929.7,2101.2,1934.2,2105.8,1938.8"/>
							<path fill="#7794A6" d="M2090.7,1925.3l78.3-37.3c-7.3-5.9-15.2-11.6-23.7-17.1l-72.1,41.8
								C2079.5,1916.8,2085.3,1921,2090.7,1925.3"/>
							<path fill="#7794A7" d="M2073.2,1912.7l72.1-41.8c-3.4-2.2-6.9-4.4-10.4-6.5c-5.4-3.2-10.9-6.3-16.5-9.3l-64.9,45.9
								c4.1,2.2,8.2,4.5,12.1,6.8C2068.2,1909.5,2070.7,1911.1,2073.2,1912.7"/>
							<path fill="#7895A7" d="M2053.4,1901.1l64.9-45.9c-9.5-5-19.4-9.7-29.5-14l-57.1,49.7
								C2039.2,1894,2046.4,1897.4,2053.4,1901.1"/>
							<path fill="#7895A8" d="M2031.7,1890.8l57.1-49.7c-10.5-4.5-21.4-8.6-32.5-12.4l-48.6,52.9
								C2016,1884.5,2024,1887.5,2031.7,1890.8"/>
							<path fill="#7895A8" d="M2007.8,1881.7l48.6-52.9c-11.6-3.9-23.6-7.5-35.7-10.6l-39.1,55.7
								C1990.5,1876.2,1999.3,1878.8,2007.8,1881.7"/>
							<path fill="#7996A9" d="M1981.5,1873.9l39.1-55.7c-13-3.4-26.3-6.3-39.9-8.7l-28.6,58
								C1962.2,1869.3,1971.9,1871.4,1981.5,1873.9"/>
							<path fill="#7996A9" d="M1952.2,1867.5l28.6-58c-14.7-2.7-29.7-4.8-44.8-6.3l-16.7,59.7
								C1930.4,1864,1941.4,1865.5,1952.2,1867.5"/>
							<path fill="#7997AA" d="M1919.3,1862.8l16.7-59.7c-17.2-1.8-34.6-2.8-52-3.2l-3,60.5
								C1893.8,1860.8,1906.6,1861.5,1919.3,1862.8"/>
							<path fill="#7A97AA" d="M1881,1860.5l3-60.5c-20.9-0.4-41.8,0.2-62.5,1.9l13.6,60.1C1850.3,1860.6,1865.7,1860.2,1881,1860.5
								"/>
							<path fill="#7A97AB" d="M1835,1861.9l-13.6-60.1c-30.2,2.4-60.1,7-88.7,13.8l37,56.4C1790.9,1867,1812.8,1863.6,1835,1861.9"
								/>
							<path fill="#7A98AB" d="M1769.8,1872l-37-56.4c-41.5,9.9-80.5,24.4-114.7,43.6c-15.5,8.7-29.3,18-41.6,27.7l78.3,37.5
								c9-7.2,19.2-14,30.6-20.4C1710.6,1890,1739.3,1879.3,1769.8,1872"/>
							<path fill="#7A97AB" d="M1654.9,1924.5l-78.3-37.5c-18.1,14.4-32.6,29.9-43.6,45.9l89.8,25.4
								C1630.9,1946.5,1641.6,1935.1,1654.9,1924.5"/>
							<path fill="#7A97AA" d="M1622.8,1958.3l-89.8-25.4c-7.7,11.3-13.7,22.9-17.9,34.6l94.6,16.2
								C1612.7,1975.1,1617.1,1966.6,1622.8,1958.3"/>
							<path fill="#7997AA" d="M1609.6,1983.8l-94.6-16.2c-3.5,9.9-5.9,19.9-7,30l96.4,8.3C1605.3,1998.4,1607,1991.1,1609.6,1983.8
								"/>
							<path fill="#7996A9" d="M1604.5,2005.8l-96.4-8.3c-1,9-1,18,0,27l96.4,1.2C1603.8,2019.1,1603.8,2012.4,1604.5,2005.8"/>
							<path fill="#7996A9" d="M1604.5,2025.7l-96.4-1.2c0.9,8.2,2.7,16.4,5.2,24.6l95-5.3
								C1606.5,2037.8,1605.2,2031.8,1604.5,2025.7"/>
							<path fill="#7895A8" d="M1608.4,2043.8l-95,5.3c2.4,7.7,5.6,15.3,9.5,22.8l92.5-11.4
								C1612.5,2055,1610.2,2049.4,1608.4,2043.8"/>
							<path fill="#7895A8" d="M1615.4,2060.6l-92.5,11.4c3.7,7.1,8,14.2,13.1,21.1l89.1-16.9
								C1621.3,2071,1618.1,2065.8,1615.4,2060.6"/>
							<path fill="#7895A7" d="M1625,2076.1l-89.1,16.9c4.9,6.7,10.3,13.3,16.4,19.7l84.7-22.2
								C1632.6,2085.8,1628.6,2081,1625,2076.1"/>
							<path fill="#7794A7" d="M1637.1,2090.6l-84.7,22.2c6,6.3,12.5,12.5,19.7,18.5l79.5-27
								C1646.3,2099.8,1641.5,2095.2,1637.1,2090.6"/>
							<path fill="#7794A6" d="M1651.6,2104.2l-79.5,27c7.1,5.9,14.8,11.7,23,17.3l73.4-31.6
								C1662.4,2112.8,1656.8,2108.5,1651.6,2104.2"/>
							<path fill="#7793A6" d="M1668.5,2116.9l-73.4,31.6c5,3.4,10.2,6.7,15.7,10c3.6,2.1,7.2,4.2,10.9,6.3l66.4-35.9
								c-2.7-1.5-5.4-3-8-4.6C1676,2121.9,1672.2,2119.4,1668.5,2116.9"/>
							<path fill="#7693A6" d="M1688.1,2128.9l-66.4,35.9c9.5,5.2,19.4,10.1,29.7,14.7l58.5-39.8
								C1702.4,2136.3,1695.1,2132.7,1688.1,2128.9"/>
							<path fill="#7692A5" d="M1709.9,2139.7l-58.5,39.8c10.7,4.7,21.7,9.1,33,13.1l49.8-43.3
								C1725.9,2146.4,1717.7,2143.2,1709.9,2139.7"/>
							<path fill="#7692A5" d="M1734.2,2149.3l-49.8,43.3c12,4.2,24.4,8,37,11.4l40-46.3C1752.2,2155.2,1743.1,2152.4,1734.2,2149.3
								"/>
							<path fill="#7592A4" d="M1761.4,2157.7l-40,46.3c13.7,3.6,27.7,6.7,41.9,9.3l28.9-48.7
								C1781.8,2162.6,1771.5,2160.3,1761.4,2157.7"/>
							<path fill="#7591A4" d="M1792.2,2164.5l-28.9,48.7c15.8,2.9,31.8,5.2,48.1,6.8l16.2-50.5
								C1815.7,2168.3,1803.8,2166.6,1792.2,2164.5"/>
							<path fill="#7591A3" d="M1827.6,2169.5l-16.2,50.5c18.9,1.9,38,2.9,57.1,3.1l1.1-51.4
								C1855.5,2171.7,1841.5,2170.9,1827.6,2169.5"/>
							<path fill="#7490A3" d="M1869.6,2171.8l-1.1,51.4c24.2,0.2,48.5-1,72.4-3.5l-18-50.4
								C1905.3,2171.1,1887.4,2171.9,1869.6,2171.8"/>
							<path fill="#7490A2" d="M1922.8,2169.2l18,50.4c45.1-4.9,89-14.6,129-29.4l-52.1-42.6
								C1988.3,2158.4,1956,2165.6,1922.8,2169.2"/>
							<path fill="#7490A2" d="M2017.7,2147.5l52.1,42.6c20.3-7.5,39.7-16.3,57.7-26.4l-67.4-35.6
								C2046.9,2135.5,2032.7,2142,2017.7,2147.5"/>
						</g>
					</g>
				</g>
				<g>
					
						<ellipse transform="matrix(2.834985e-03 -1 1 2.834985e-03 -143.9543 3878.5791)" fill="#7F9DB1" cx="1872.8" cy="2011.5" rx="211.7" ry="365.4"/>
				</g>
			</g>
		</g>
	</g>
	<g>
		<g>
			<g enable-background="new    ">
				<g>
					<path fill="#594E47" d="M2037.5,2126.4c-90.8,50.9-235.9,49.5-324.1-3.3c-88.2-52.7-86.2-136.8,4.6-187.7
						c90.8-50.9,235.9-49.5,324.1,3.3C2130.3,1991.5,2128.2,2075.5,2037.5,2126.4z M1935.2,2065.3c32.6-18.3,33.4-48.5,1.7-67.5
						c-31.7-19-83.9-19.5-116.5-1.2c-32.6,18.3-33.4,48.5-1.7,67.5C1850.3,2083.1,1902.5,2083.6,1935.2,2065.3"/>
				</g>
				<g enable-background="new    ">
					<g>
						<defs>
							<path id="SVGID_17_" d="M1877.7,2027l57.4,38.3c-32.6,18.3-84.8,17.8-116.5-1.2c-31.7-19-31-49.2,1.7-67.5
								c32.6-18.3,84.8-17.8,116.5,1.2c31.7,19,31,49.2-1.7,67.5L1877.7,2027z"/>
						</defs>
						<clipPath id="SVGID_18_">
							<use xlink:href="#SVGID_17_"  overflow="visible"/>
						</clipPath>
						<g clip-path="url(#SVGID_18_)" enable-background="new    ">
							<path fill="#564B45" d="M1877.7,2027l57.4,38.3c3.3-1.9,6.4-3.9,9-6L1877.7,2027"/>
							<path fill="#554B45" d="M1877.7,2027l66.5,32.3c4.2-3.3,7.5-6.8,10.1-10.5L1877.7,2027"/>
							<path fill="#554B44" d="M1877.7,2027l76.5,21.8c1.8-2.6,3.1-5.2,4.1-7.8L1877.7,2027"/>
							<path fill="#554B44" d="M1877.7,2027l80.6,14c0.8-2.2,1.4-4.5,1.6-6.8L1877.7,2027"/>
							<path fill="#554B44" d="M1877.7,2027l82.2,7.2c0.2-2,0.2-4.1,0-6.1L1877.7,2027"/>
							<path fill="#544A44" d="M1877.7,2027l82.2,1.1c-0.2-1.9-0.6-3.7-1.2-5.6L1877.7,2027"/>
							<path fill="#544A44" d="M1877.7,2027l81.1-4.5c-0.6-1.7-1.3-3.5-2.1-5.2L1877.7,2027"/>
							<path fill="#544A43" d="M1877.7,2027l78.9-9.7c-0.8-1.6-1.8-3.2-2.9-4.8L1877.7,2027"/>
							<path fill="#544A43" d="M1877.7,2027l76-14.4c-1.1-1.5-2.3-3-3.7-4.5L1877.7,2027"/>
							<path fill="#534A43" d="M1877.7,2027l72.3-18.9c-1.4-1.4-2.8-2.8-4.5-4.2L1877.7,2027"/>
							<path fill="#534943" d="M1877.7,2027l67.8-23.1c-1.6-1.3-3.3-2.7-5.2-3.9L1877.7,2027"/>
							<path fill="#534943" d="M1877.7,2027l62.6-27c-1.1-0.8-2.3-1.5-3.5-2.2c-0.8-0.5-1.7-1-2.5-1.4L1877.7,2027"/>
							<path fill="#534943" d="M1877.7,2027l56.6-30.7c-2.2-1.2-4.4-2.3-6.7-3.3L1877.7,2027"/>
							<path fill="#534942" d="M1877.7,2027l49.9-34c-2.4-1.1-4.9-2.1-7.5-3L1877.7,2027"/>
							<path fill="#524942" d="M1877.7,2027l42.4-36.9c-2.7-0.9-5.5-1.8-8.4-2.6L1877.7,2027"/>
							<path fill="#524842" d="M1877.7,2027l34-39.5c-3.1-0.8-6.3-1.5-9.5-2.1L1877.7,2027"/>
							<path fill="#524842" d="M1877.7,2027l24.5-41.6c-3.6-0.7-7.2-1.2-10.9-1.5L1877.7,2027"/>
							<path fill="#524842" d="M1877.7,2027l13.6-43.1c-4.3-0.4-8.6-0.6-13-0.7L1877.7,2027"/>
							<path fill="#514841" d="M1877.7,2027l0.7-43.8c-5.5,0-11,0.2-16.4,0.8L1877.7,2027"/>
							<path fill="#514841" d="M1877.7,2027l-15.8-43c-10.7,1.2-21.1,3.6-30.5,7.3L1877.7,2027"/>
							<path fill="#514741" d="M1877.7,2027l-46.3-35.7c-3.1,1.2-6.1,2.6-9,4.1L1877.7,2027"/>
							<path fill="#514841" d="M1877.7,2027l-55.3-31.6c-0.7,0.4-1.5,0.8-2.2,1.2c-7.6,4.3-13.4,9.2-17.6,14.4L1877.7,2027"/>
							<path fill="#514841" d="M1877.7,2027l-75-16c-2.3,2.9-4,5.9-5.3,9L1877.7,2027"/>
							<path fill="#524842" d="M1877.7,2027l-80.3-7c-1,2.4-1.6,4.9-1.9,7.4L1877.7,2027"/>
							<path fill="#524842" d="M1877.7,2027l-82.2,0.4c-0.3,2.2-0.3,4.4,0,6.6L1877.7,2027"/>
							<path fill="#524842" d="M1877.7,2027l-82.2,7c0.2,2,0.7,3.9,1.3,5.9L1877.7,2027"/>
							<path fill="#524942" d="M1877.7,2027l-80.9,12.8c0.6,1.8,1.4,3.6,2.3,5.4L1877.7,2027"/>
							<path fill="#534942" d="M1877.7,2027l-78.6,18.2c0.9,1.7,2,3.3,3.2,4.9L1877.7,2027"/>
							<path fill="#534943" d="M1877.7,2027l-75.4,23.1c1.2,1.5,2.5,3,3.9,4.5L1877.7,2027"/>
							<path fill="#534943" d="M1877.7,2027l-71.5,27.6c1.4,1.4,3,2.8,4.6,4.2L1877.7,2027"/>
							<path fill="#534943" d="M1877.7,2027l-66.8,31.8c1.7,1.3,3.4,2.6,5.4,3.9L1877.7,2027"/>
							<path fill="#534A43" d="M1877.7,2027l-61.5,35.6c0.8,0.5,1.6,1,2.4,1.5c1.2,0.7,2.5,1.4,3.7,2.1L1877.7,2027"/>
							<path fill="#544A43" d="M1877.7,2027l-55.4,39.2c2.1,1.1,4.4,2.2,6.7,3.2L1877.7,2027"/>
							<path fill="#544A43" d="M1877.7,2027l-48.7,42.4c2.4,1,4.8,1.9,7.3,2.8L1877.7,2027"/>
							<path fill="#544A44" d="M1877.7,2027l-41.4,45.2c2.6,0.9,5.3,1.7,8.1,2.4L1877.7,2027"/>
							<path fill="#544A44" d="M1877.7,2027l-33.3,47.6c3,0.8,6,1.4,9,2L1877.7,2027"/>
							<path fill="#554B44" d="M1877.7,2027l-24.2,49.5c3.3,0.6,6.7,1.1,10.1,1.4L1877.7,2027"/>
							<path fill="#554B44" d="M1877.7,2027l-14.1,50.9c3.9,0.4,7.8,0.6,11.8,0.7L1877.7,2027"/>
							<path fill="#554B44" d="M1877.7,2027l-2.3,51.6c4.7,0.1,9.5-0.1,14.2-0.4L1877.7,2027"/>
							<path fill="#554B45" d="M1877.7,2027l11.9,51.2c6.9-0.6,13.8-1.7,20.3-3.2L1877.7,2027"/>
							<path fill="#564B45" d="M1877.7,2027l32.2,47.9c9.1-2.2,17.7-5.4,25.2-9.7L1877.7,2027"/>
						</g>
					</g>
				</g>
				<g enable-background="new    ">
					<g>
						<defs>
							<path id="SVGID_19_" d="M2037.5,2126.4c90.8-50.9,92.8-135,4.6-187.7c-88.2-52.7-233.3-54.2-324.1-3.3
								c-90.8,50.9-92.8,135-4.6,187.7C1801.6,2175.9,1946.7,2177.4,2037.5,2126.4l57.5,30.4c-123.4,69.2-320.7,67.2-440.6-4.5
								c-120-71.7-117.2-186,6.3-255.2c123.4-69.2,320.7-67.2,440.6,4.5c120,71.7,117.2,186-6.3,255.2L2037.5,2126.4z"/>
						</defs>
						<clipPath id="SVGID_20_">
							<use xlink:href="#SVGID_19_"  overflow="visible"/>
						</clipPath>
						<g clip-path="url(#SVGID_20_)" enable-background="new    ">
							<path fill="#514841" d="M2037.5,2126.4l57.5,30.4c28.7-16.1,50.9-34.7,66.5-54.5l-75-16
								C2074.9,2100.9,2058.6,2114.6,2037.5,2126.4"/>
							<path fill="#514841" d="M2086.4,2086.3l75,16c8.6-11,15.3-22.3,19.9-33.9l-80.3-7C2097.6,2069.9,2092.7,2078.3,2086.4,2086.3
								"/>
							<path fill="#524842" d="M2101,2061.4l80.3,7c3.7-9.3,6.1-18.7,7.3-28.1l-82.2,0.4C2105.5,2047.6,2103.7,2054.6,2101,2061.4"
								/>
							<path fill="#524842" d="M2106.4,2040.7l82.2-0.4c1-8.3,1-16.5,0.1-24.8l-82.2,7C2107.1,2028.5,2107.1,2034.6,2106.4,2040.7"
								/>
							<path fill="#524842" d="M2106.4,2022.4l82.2-7c-0.9-7.4-2.5-14.8-4.9-22.2l-80.9,12.8
								C2104.5,2011.5,2105.8,2017,2106.4,2022.4"/>
							<path fill="#524942" d="M2102.8,2006.1l80.9-12.8c-2.3-6.8-5.2-13.6-8.8-20.2l-78.6,18.2
								C2098.9,1996.1,2101.1,2001.1,2102.8,2006.1"/>
							<path fill="#534942" d="M2096.3,1991.2l78.6-18.2c-3.4-6.3-7.4-12.4-12-18.5l-75.4,23.1
								C2090.8,1982.1,2093.7,1986.6,2096.3,1991.2"/>
							<path fill="#534943" d="M2087.4,1977.6l75.4-23.1c-4.4-5.8-9.4-11.5-14.9-17.1l-71.5,27.6
								C2080.5,1969.2,2084.2,1973.4,2087.4,1977.6"/>
							<path fill="#534943" d="M2076.4,1965.1l71.5-27.6c-5.3-5.4-11.2-10.6-17.6-15.7l-66.8,31.8
								C2068.2,1957.3,2072.5,1961.2,2076.4,1965.1"/>
							<path fill="#534943" d="M2063.5,1953.5l66.8-31.8c-6.3-5-13-9.9-20.3-14.6l-61.5,35.6
								C2053.9,1946.3,2058.9,1949.8,2063.5,1953.5"/>
							<path fill="#534A43" d="M2048.6,1942.8l61.5-35.6c-2.9-1.9-5.9-3.7-8.9-5.5c-4.6-2.7-9.3-5.4-14.1-7.9l-55.4,39.2
								c3.5,1.9,7,3.8,10.4,5.8C2044.3,1940.1,2046.5,1941.4,2048.6,1942.8"/>
							<path fill="#544A43" d="M2031.7,1932.9l55.4-39.2c-8.1-4.3-16.6-8.3-25.2-12l-48.7,42.4
								C2019.5,1926.8,2025.7,1929.7,2031.7,1932.9"/>
							<path fill="#544A43" d="M2013.1,1924.1l48.7-42.4c-9-3.8-18.3-7.4-27.8-10.6l-41.4,45.2
								C1999.7,1918.6,2006.5,1921.2,2013.1,1924.1"/>
							<path fill="#544A44" d="M1992.7,1916.3l41.4-45.2c-10-3.4-20.2-6.4-30.6-9.1l-33.3,47.6
								C1977.9,1911.6,1985.4,1913.8,1992.7,1916.3"/>
							<path fill="#544A44" d="M1970.2,1909.6l33.3-47.6c-11.2-2.9-22.6-5.4-34.1-7.4l-24.3,49.5
								C1953.6,1905.7,1962,1907.5,1970.2,1909.6"/>
							<path fill="#554B44" d="M1945.1,1904.2l24.3-49.5c-12.6-2.3-25.4-4-38.4-5.4l-14.1,50.9
								C1926.4,1901.2,1935.9,1902.5,1945.1,1904.2"/>
							<path fill="#554B44" d="M1916.9,1900.2l14.1-50.9c-14.7-1.5-29.6-2.4-44.6-2.7l-2.3,51.6
								C1895.1,1898.4,1906.1,1899.1,1916.9,1900.2"/>
							<path fill="#554B44" d="M1884.1,1898.2l2.3-51.6c-17.9-0.3-35.9,0.2-53.7,1.7l11.9,51.2
								C1857.7,1898.4,1871,1898,1884.1,1898.2"/>
							<path fill="#554B45" d="M1844.6,1899.5l-11.9-51.2c-26.2,2.2-52,6.2-76.8,12.3l32.2,47.9
								C1806.3,1904.1,1825.3,1901.1,1844.6,1899.5"/>
							<path fill="#564B45" d="M1788.1,1908.5l-32.2-47.9c-34.5,8.4-66.9,20.6-95.4,36.6c-12.6,7.1-24,14.7-34.1,22.6l66.5,32.3
								c7.4-5.9,15.8-11.4,25.1-16.6C1738.9,1923.7,1762.8,1914.7,1788.1,1908.5"/>
							<path fill="#554B45" d="M1692.9,1952.1l-66.5-32.3c-15.8,12.4-28.5,25.7-38,39.6l76.5,21.8
								C1671.9,1971,1681.3,1961.2,1692.9,1952.1"/>
							<path fill="#554B44" d="M1664.9,1981.2l-76.5-21.8c-6.7,9.7-11.8,19.6-15.5,29.7l80.6,14
								C1656.2,1995.6,1660,1988.3,1664.9,1981.2"/>
							<path fill="#554B44" d="M1653.5,2003l-80.6-14c-3.1,8.5-5.1,17.1-6.1,25.7l82.2,7.2C1649.7,2015.6,1651.2,2009.3,1653.5,2003
								"/>
							<path fill="#554B44" d="M1649,2021.9l-82.2-7.2c-0.9,7.7-0.9,15.4,0,23.1l82.2,1.1C1648.4,2033.3,1648.4,2027.6,1649,2021.9"
								/>
							<path fill="#544A44" d="M1649,2038.9l-82.2-1.1c0.8,7,2.2,14.1,4.4,21l81.1-4.5C1650.6,2049.3,1649.6,2044.1,1649,2038.9"/>
							<path fill="#544A44" d="M1652.2,2054.4l-81.1,4.5c2.1,6.6,4.8,13.1,8.1,19.5l78.9-9.7
								C1655.7,2064,1653.8,2059.2,1652.2,2054.4"/>
							<path fill="#544A43" d="M1658.2,2068.8l-78.9,9.7c3.2,6.1,6.9,12.1,11.2,18l76-14.4
								C1663.2,2077.7,1660.5,2073.2,1658.2,2068.8"/>
							<path fill="#544A43" d="M1666.4,2082l-76,14.4c4.2,5.7,8.8,11.4,14,16.9l72.3-18.9C1672.9,2090.4,1669.4,2086.2,1666.4,2082"
								/>
							<path fill="#534A43" d="M1676.7,2094.4l-72.3,18.9c5.1,5.4,10.7,10.7,16.8,15.8l67.8-23.1
								C1684.6,2102.3,1680.5,2098.4,1676.7,2094.4"/>
							<path fill="#534943" d="M1689.1,2106l-67.8,23.1c6.1,5.1,12.6,10,19.7,14.8l62.6-27C1698.4,2113.4,1693.6,2109.8,1689.1,2106
								"/>
							<path fill="#534943" d="M1703.6,2116.9l-62.6,27c4.3,2.9,8.7,5.7,13.3,8.5c3.1,1.9,6.2,3.7,9.4,5.4l56.6-30.7
								c-2.4-1.3-4.7-2.6-6.9-4C1710,2121.1,1706.7,2119.1,1703.6,2116.9"/>
							<path fill="#534943" d="M1720.3,2127.1l-56.6,30.7c8.2,4.5,16.6,8.7,25.4,12.5l49.9-34
								C1732.5,2133.5,1726.3,2130.4,1720.3,2127.1"/>
							<path fill="#534942" d="M1739,2136.4l-49.9,34c9.1,4,18.6,7.8,28.3,11.2l42.4-36.9C1752.6,2142.1,1745.7,2139.3,1739,2136.4"
								/>
							<path fill="#524942" d="M1759.8,2144.6l-42.4,36.9c10.3,3.6,20.9,6.8,31.7,9.7l34-39.5
								C1775.1,2149.6,1767.3,2147.2,1759.8,2144.6"/>
							<path fill="#524842" d="M1783.1,2151.7l-34,39.5c11.7,3.1,23.7,5.7,35.9,8l24.5-41.6
								C1800.5,2155.9,1791.7,2154,1783.1,2151.7"/>
							<path fill="#524842" d="M1809.4,2157.6l-24.5,41.6c13.5,2.5,27.3,4.4,41.2,5.7l13.6-43.1
								C1829.5,2160.8,1819.4,2159.4,1809.4,2157.6"/>
							<path fill="#524842" d="M1839.7,2161.8l-13.6,43.1c16.2,1.6,32.6,2.5,49,2.6l0.7-43.8
								C1863.7,2163.6,1851.7,2163,1839.7,2161.8"/>
							<path fill="#514841" d="M1875.8,2163.7l-0.7,43.8c20.8,0.1,41.7-0.9,62.2-3.2l-15.8-43
								C1906.4,2163,1891.1,2163.8,1875.8,2163.7"/>
							<path fill="#514841" d="M1921.5,2161.3l15.8,43c40.5-4.5,79.7-13.6,115.1-27.4l-46.2-35.7
								C1980.1,2151.4,1951.2,2158.1,1921.5,2161.3"/>
							<path fill="#514741" d="M2006.1,2141.2l46.2,35.7c12-4.7,23.6-10,34.7-15.8l-55.4-31.6
								C2023.5,2133.8,2015,2137.7,2006.1,2141.2"/>
							<path fill="#514841" d="M2031.7,2129.6l55.4,31.6c2.7-1.4,5.3-2.8,7.9-4.3l-57.5-30.4
								C2035.6,2127.5,2033.6,2128.6,2031.7,2129.6"/>
						</g>
					</g>
				</g>
				<g>
					
						<ellipse transform="matrix(2.834985e-03 -1 1 2.834985e-03 -154.5755 3899.0005)" fill="#594E47" cx="1877.7" cy="2027" rx="180.5" ry="311.6"/>
				</g>
			</g>
		</g>
	</g>
	<g>
		
			<linearGradient id="SVGID_21_" gradientUnits="userSpaceOnUse" x1="1810.0609" y1="2010.1774" x2="2173.1423" y2="2599.2583" gradientTransform="matrix(1 0 0 -1 0 3885.8899)">
			<stop  offset="2.250000e-02" style="stop-color:#175A47"/>
			<stop  offset="0.1101" style="stop-color:#2F6B56"/>
			<stop  offset="0.2809" style="stop-color:#689279"/>
			<stop  offset="0.4279" style="stop-color:#71AA83"/>
			<stop  offset="0.4494" style="stop-color:#73AE85"/>
			<stop  offset="0.6308" style="stop-color:#5E9677"/>
			<stop  offset="0.6573" style="stop-color:#5B9275"/>
			<stop  offset="0.7186" style="stop-color:#73A68A"/>
			<stop  offset="0.7978" style="stop-color:#98C5AA"/>
			<stop  offset="1" style="stop-color:#D9E9D0"/>
		</linearGradient>
		<path fill="url(#SVGID_21_)" d="M1869.5,1983.1c0,0,25.9-428.6,114.9-595.3c88.9-166.7,167.4-233.4,167.4-233.4
			s-130.3,296.4-156.3,444.6C1969.5,1747.2,1929.8,1918.9,1869.5,1983.1z"/>
		
			<linearGradient id="SVGID_22_" gradientUnits="userSpaceOnUse" x1="2085.6995" y1="2234.583" x2="2360.8906" y2="2071.7148" gradientTransform="matrix(1 0 0 -1 0 3885.8899)">
			<stop  offset="2.250000e-02" style="stop-color:#175A47"/>
			<stop  offset="0.1101" style="stop-color:#2F6B56"/>
			<stop  offset="0.2809" style="stop-color:#689279"/>
			<stop  offset="0.4279" style="stop-color:#71AA83"/>
			<stop  offset="0.4494" style="stop-color:#73AE85"/>
			<stop  offset="0.6308" style="stop-color:#5E9677"/>
			<stop  offset="0.6573" style="stop-color:#5B9275"/>
			<stop  offset="0.7186" style="stop-color:#73A68A"/>
			<stop  offset="0.7978" style="stop-color:#98C5AA"/>
			<stop  offset="1" style="stop-color:#D9E9D0"/>
		</linearGradient>
		<path fill="url(#SVGID_22_)" d="M1938.7,1991.5c0,0,226-160,311.2-297.1c85.2-137.1,114.9-305.2,114.9-305.2
			s-129.7,253.3-337.1,423.7C1952.2,1874.9,1950.1,1988.3,1938.7,1991.5z"/>
		
			<linearGradient id="SVGID_23_" gradientUnits="userSpaceOnUse" x1="2011.8196" y1="2047.8098" x2="2193.3604" y2="1940.3674" gradientTransform="matrix(1 0 0 -1 0 3885.8899)">
			<stop  offset="2.250000e-02" style="stop-color:#175A47"/>
			<stop  offset="0.1101" style="stop-color:#2F6B56"/>
			<stop  offset="0.2809" style="stop-color:#689279"/>
			<stop  offset="0.4279" style="stop-color:#71AA83"/>
			<stop  offset="0.4494" style="stop-color:#73AE85"/>
			<stop  offset="0.6308" style="stop-color:#5E9677"/>
			<stop  offset="0.6573" style="stop-color:#5B9275"/>
			<stop  offset="0.7186" style="stop-color:#73A68A"/>
			<stop  offset="0.7978" style="stop-color:#98C5AA"/>
			<stop  offset="1" style="stop-color:#D9E9D0"/>
		</linearGradient>
		<path fill="url(#SVGID_23_)" d="M1924,2024.2c0,0,25.9-55.6,77.8-140.8c51.9-85.2,118.6-129.7,137.1-196.4
			C2157.4,1620.4,2194.4,1961.2,1924,2024.2z"/>
		
			<linearGradient id="SVGID_24_" gradientUnits="userSpaceOnUse" x1="1837.4496" y1="1859.9235" x2="1625.3433" y2="2138.718" gradientTransform="matrix(1 0 0 -1 0 3885.8899)">
			<stop  offset="2.250000e-02" style="stop-color:#175A47"/>
			<stop  offset="0.1101" style="stop-color:#2F6B56"/>
			<stop  offset="0.2809" style="stop-color:#689279"/>
			<stop  offset="0.4279" style="stop-color:#71AA83"/>
			<stop  offset="0.4494" style="stop-color:#73AE85"/>
			<stop  offset="0.6308" style="stop-color:#5E9677"/>
			<stop  offset="0.6573" style="stop-color:#5B9275"/>
			<stop  offset="0.7186" style="stop-color:#73A68A"/>
			<stop  offset="0.7978" style="stop-color:#98C5AA"/>
			<stop  offset="1" style="stop-color:#D9E9D0"/>
		</linearGradient>
		<path fill="url(#SVGID_24_)" d="M1866.5,2036.9c0,0-140.5-45.8-177.5-123.6c-37-77.8-51.9-229.7-85.2-255.6
			c-33.3-25.9,140.8,130.9,174.1,217.3C1811.3,1961.4,1866.5,2036.9,1866.5,2036.9z"/>
		
			<linearGradient id="SVGID_25_" gradientUnits="userSpaceOnUse" x1="1621.2109" y1="2319.2771" x2="2380.8826" y2="1869.6757" gradientTransform="matrix(1 0 0 -1 0 3885.8899)">
			<stop  offset="2.250000e-02" style="stop-color:#175A47"/>
			<stop  offset="0.1101" style="stop-color:#2F6B56"/>
			<stop  offset="0.2809" style="stop-color:#689279"/>
			<stop  offset="0.4279" style="stop-color:#71AA83"/>
			<stop  offset="0.4494" style="stop-color:#73AE85"/>
			<stop  offset="0.6308" style="stop-color:#5E9677"/>
			<stop  offset="0.6573" style="stop-color:#5B9275"/>
			<stop  offset="0.7186" style="stop-color:#73A68A"/>
			<stop  offset="0.7978" style="stop-color:#98C5AA"/>
			<stop  offset="1" style="stop-color:#D9E9D0"/>
		</linearGradient>
		<path fill="url(#SVGID_25_)" d="M1866.5,2036.9c0,0-95.1-254.4-96.8-424.9c-1.7-170.4,45.5-255.6,45.5-255.6
			S1959.2,1915.8,1866.5,2036.9z"/>
		
			<linearGradient id="SVGID_26_" gradientUnits="userSpaceOnUse" x1="1966.4917" y1="2148.968" x2="2213.3418" y2="2002.8733" gradientTransform="matrix(1 0 0 -1 0 3885.8899)">
			<stop  offset="2.250000e-02" style="stop-color:#175A47"/>
			<stop  offset="0.1101" style="stop-color:#2F6B56"/>
			<stop  offset="0.2809" style="stop-color:#689279"/>
			<stop  offset="0.4279" style="stop-color:#71AA83"/>
			<stop  offset="0.4494" style="stop-color:#73AE85"/>
			<stop  offset="0.6308" style="stop-color:#5E9677"/>
			<stop  offset="0.6573" style="stop-color:#5B9275"/>
			<stop  offset="0.7186" style="stop-color:#73A68A"/>
			<stop  offset="0.7978" style="stop-color:#98C5AA"/>
			<stop  offset="1" style="stop-color:#D9E9D0"/>
		</linearGradient>
		<path fill="url(#SVGID_26_)" d="M1869.5,2031c0,0,66.7-221,114.9-284c48.2-63,166.5-203.8,164.8-248.2
			c-1.8-44.5,31.6,207.5-98.1,377.9C1921.4,2047.1,1869.5,2031,1869.5,2031z"/>
		
			<linearGradient id="SVGID_27_" gradientUnits="userSpaceOnUse" x1="2082.3123" y1="1887.4368" x2="1548.8392" y2="2218.0398" gradientTransform="matrix(1 0 0 -1 0 3885.8899)">
			<stop  offset="2.250000e-02" style="stop-color:#175A47"/>
			<stop  offset="0.1101" style="stop-color:#2F6B56"/>
			<stop  offset="0.2809" style="stop-color:#689279"/>
			<stop  offset="0.4279" style="stop-color:#71AA83"/>
			<stop  offset="0.4494" style="stop-color:#73AE85"/>
			<stop  offset="0.6308" style="stop-color:#5E9677"/>
			<stop  offset="0.6573" style="stop-color:#5B9275"/>
			<stop  offset="0.7186" style="stop-color:#73A68A"/>
			<stop  offset="0.7978" style="stop-color:#98C5AA"/>
			<stop  offset="1" style="stop-color:#D9E9D0"/>
		</linearGradient>
		<path fill="url(#SVGID_27_)" d="M1866.5,2036.9c10.3,35.9-25.5-302.8-169.3-436.1s-217.8-111.1-217.8-111.1
			S1748.7,1625.6,1866.5,2036.9z"/>
		
			<linearGradient id="SVGID_28_" gradientUnits="userSpaceOnUse" x1="1388.1844" y1="2216.6553" x2="2396.573" y2="1619.8535" gradientTransform="matrix(1 0 0 -1 0 3885.8899)">
			<stop  offset="2.250000e-02" style="stop-color:#175A47"/>
			<stop  offset="0.1101" style="stop-color:#2F6B56"/>
			<stop  offset="0.2809" style="stop-color:#689279"/>
			<stop  offset="0.4279" style="stop-color:#71AA83"/>
			<stop  offset="0.4494" style="stop-color:#73AE85"/>
			<stop  offset="0.6308" style="stop-color:#5E9677"/>
			<stop  offset="0.6573" style="stop-color:#5B9275"/>
			<stop  offset="0.7186" style="stop-color:#73A68A"/>
			<stop  offset="0.7978" style="stop-color:#98C5AA"/>
			<stop  offset="1" style="stop-color:#D9E9D0"/>
		</linearGradient>
		<path fill="url(#SVGID_28_)" d="M1866.5,2036.9c0,0-94.9-55.6-198.7-107.5c-103.7-51.9-155.6-200.1-170.4-281.6
			c-5.9-32.6,40,42.4,114.9,111.1C1724.7,1862.2,1911,1967.9,1866.5,2036.9z"/>
	</g>
</g>
</svg>
