<svg id="_6c_L" data-name="6c_L" xmlns="http://www.w3.org/2000/svg" viewBox="0 0 3844.17 3886.94"><defs><style>.cls-screener6C-1{fill:#fff;}.cls-screener6C-2{fill:#d1d1d1;}.cls-screener6C-3{fill:none;stroke:#333331;stroke-linecap:round;stroke-linejoin:round;stroke-width:5px;}.cls-screener6C-4{fill:#d33535;}</style></defs><title>IKEA_Sleep_essentials_v5_6C-L-01</title><circle class="cls-screener6C-1" cx="983.76" cy="1639.5" r="72.42" transform="translate(-871.17 1175.83) rotate(-45)"/><path class="cls-screener6C-1" d="M984.31,1709.82h0a40.74,40.74,0,0,1-40.74-40.74V1390.5a40.74,40.74,0,0,1,40.74-40.74h0A40.74,40.74,0,0,1,1025,1390.5v278.58A40.74,40.74,0,0,1,984.31,1709.82Z"/><path class="cls-screener6C-2" d="M932.75,1638.65a51,51,0,1,0,69.28-47.6V1391.83a18.25,18.25,0,0,0-36.5,0V1591A51,51,0,0,0,932.75,1638.65Z"/><line class="cls-screener6C-3" x1="1050.07" y1="1385.49" x2="1087.85" y2="1385.49"/><line class="cls-screener6C-3" x1="1050.07" y1="1402.69" x2="1073.4" y2="1402.69"/><line class="cls-screener6C-3" x1="1050.07" y1="1419.88" x2="1087.85" y2="1419.88"/><line class="cls-screener6C-3" x1="1050.07" y1="1437.08" x2="1073.4" y2="1437.08"/><line class="cls-screener6C-3" x1="1050.07" y1="1454.27" x2="1087.85" y2="1454.27"/><line class="cls-screener6C-3" x1="1050.07" y1="1471.46" x2="1073.4" y2="1471.46"/><line class="cls-screener6C-3" x1="1050.07" y1="1488.65" x2="1087.85" y2="1488.65"/><line class="cls-screener6C-3" x1="1050.07" y1="1505.84" x2="1073.4" y2="1505.84"/><line class="cls-screener6C-3" x1="1050.07" y1="1523.04" x2="1087.85" y2="1523.04"/><circle class="cls-screener6C-1" cx="983.76" cy="1639.5" r="72.42" transform="translate(-871.17 1175.83) rotate(-45)"/><path class="cls-screener6C-1" d="M984.31,1709.82h0a40.74,40.74,0,0,1-40.74-40.74V1390.5a40.74,40.74,0,0,1,40.74-40.74h0A40.74,40.74,0,0,1,1025,1390.5v278.58A40.74,40.74,0,0,1,984.31,1709.82Z"/><path class="cls-screener6C-4" d="M932.75,1638.65a51,51,0,1,0,69.28-47.6V1391.83a18.25,18.25,0,0,0-36.5,0V1591A51,51,0,0,0,932.75,1638.65Z"/><line class="cls-screener6C-3" x1="1050.07" y1="1385.49" x2="1087.85" y2="1385.49"/><line class="cls-screener6C-3" x1="1050.07" y1="1402.69" x2="1073.4" y2="1402.69"/><line class="cls-screener6C-3" x1="1050.07" y1="1419.88" x2="1087.85" y2="1419.88"/><line class="cls-screener6C-3" x1="1050.07" y1="1437.08" x2="1073.4" y2="1437.08"/><line class="cls-screener6C-3" x1="1050.07" y1="1454.27" x2="1087.85" y2="1454.27"/><line class="cls-screener6C-3" x1="1050.07" y1="1471.46" x2="1073.4" y2="1471.46"/><line class="cls-screener6C-3" x1="1050.07" y1="1488.65" x2="1087.85" y2="1488.65"/><line class="cls-screener6C-3" x1="1050.07" y1="1505.84" x2="1073.4" y2="1505.84"/><line class="cls-screener6C-3" x1="1050.07" y1="1523.04" x2="1087.85" y2="1523.04"/></svg>