<svg id="screener3B" data-name="3b" xmlns="http://www.w3.org/2000/svg" viewBox="0 0 3844.1746 3886.9393">
  <defs>
    <style>
      #screener3B .cls-screener3B-1 {
        fill: #565e66;
      }

      #screener3B .cls-screener3B-2 {
        fill: #f9f9f9;
      }

      #screener3B .cls-screener3B-3 {
        fill: #956eff;
        opacity: 0.69;
      }

      #screener3B .cls-screener3B-4, #screener3B .cls-screener3B-6 {
        opacity: 0.7;
      }

      #screener3B .cls-screener3B-5, #screener3B .cls-screener3B-6 {
        fill: #7834d1;
      }
    </style>
  </defs>
  <title>IKEA_Sleep_essentials_v5_3B</title>
  <path class="cls-screener3B-1" d="M2084.247,2686.97273s-85.79559-4.90422-124.70289,26.479-43.89542,52.33326-50.87878,57.32138,42.30606-39.33814,77.8146-56.74154C2010.64171,2702.1894,2084.247,2686.97273,2084.247,2686.97273Z"/>
  <path class="cls-screener3B-1" d="M1643.3633,2710.29121s46.71961-54.29244,72.65781-67.20433,67.83837-15.46188,67.83837-15.46188-51.8764,17.71013-65.84312,27.58846S1643.3633,2710.29121,1643.3633,2710.29121Z"/>
  <path class="cls-screener3B-1" d="M1868.73876,2634.77409s19.79605-33.46153,43.81721-41.17253,54.07062-6.71338,54.07062-6.71338-42.0991,11.36942-58.21374,19.2901C1894.55771,2612.98837,1868.73876,2634.77409,1868.73876,2634.77409Z"/>
  <path class="cls-screener3B-1" d="M1931.18188,2856.49362s19.796-33.46154,43.81721-41.17254,54.07062-6.71337,54.07062-6.71337-40.12026,11.52153-58.21375,19.29009C1954.2623,2835.02241,1931.18188,2856.49362,1931.18188,2856.49362Z"/>
  <path class="cls-screener3B-2" d="M2047.52482,2483.24422c6.07793-7.94369,16.12791-18.53833,27.28337-22.11933,18.30415-5.87579,41.20186-5.1156,41.20186-5.1156s-30.57167,8.77942-44.35892,14.69907c-6.86663,2.94823-15.191,9.12046-21.36474,14.1456Z"/>
  <path class="cls-screener3B-2" d="M2349.82476,2568.19791c-6.19214,1.41345-12.3366,3.69133-17.1517,7.27548-15.421,11.47867-28.1124,30.5525-28.1124,30.5525s24.91455-19.773,37.74564-27.55074a76.01955,76.01955,0,0,1,14.41759-6.27587Z"/>
  <g>
    <path class="cls-screener3B-3" d="M2292.50886,2436.9477c-19.10043-9.91447-36.69285-3.70833-46.49427,2.73153-9.80163,6.43992-16.58717,21.54882-20.85967,27.49333s-15.07907,0-15.07907,0c-5.32276-6.67639-14.11065-21.06466-19.60305-26.00717-23.62363-21.25852-90.47538,52.26208-95.753,59.445-3.40434,4.63317-5.5201,18.15654-.19944,28.08208-5.98289,1.72988-9.69988,5.02474-15.34769,5.28826-6.07174.28329-20.06364,1.5791-26.21994,3.53406-12.24323,3.88791-25.98125,5.4428-44.44965,37.16122-23.43334,40.24538-34.37108,85.20055-34.37108,85.20055s-47.3219-2.43428-77.10326,6.11095a482.5677,482.5677,0,0,1-59.25636,12.59575s-15.631,2.92754-14.77572,4.4191c-2.58848.705-8.37362-2.04565-12.19506-3.05973-3.89049-1.03239-14.969-4.51621-18.30777,6.69432s2.29293,22.44924-.69113,30.69771-17.308,34.32988-11.1251,37.78629c6.02862,3.37032,17.71674-14.11832,22.61744-25.1201,3.3267-7.4684,23.36142-21.17,28.74539-25.06418a39.64,39.64,0,0,1,.85878,5.42887s44.13931-.78863,75.50932-1.1144c13.71061-.14238,23.75214.13843,23.75214.13843-23.75214-.13843-52.61859,4.12734-52.61859,4.12734a8.02025,8.02025,0,0,1,1.2861,3.87851c-3.20173-.5135-4.64254-.61123-7.237-1.76942-3.67006-1.63848-14.03167-6.8409-19.16472,3.69046s-1.41822,22.51933-5.71565,30.18417-22.70948,31.12208-17.17462,35.51784c5.39661,4.28618,19.79883-11.111,26.4391-21.18781,3.01489-4.57506,10.9442-10.30613,20.0632-15.30258a32.81327,32.81327,0,0,1-.81989,3.45691c-.754,0,89.84412-12.06549,121.3396-15.43365,32.44679-3.46989,42.01507-10.54417,48.89445-21.75174,6.77479-11.03719,74.661-92.82227,74.661-92.82227,3.67182-2.21787,15.43124-8.85462,26.8397-15.25257-1.78352,3.936-3.31688,7.8021-3.21563,10.29886.25137,6.19219,24.88081,11.39363,29.40458,7.67829,3.37732-2.77377.87135-21.14463-1.03394-32.03143h0s8.70649-4.11489,16.93947-9.01119c14.49878,6.2292,54.2781,23.241,66.52747,27.66749,15.07918,5.44917,26.3887-.99075,28.65058-7.67834,1.03989-3.07478,2.23905-25.57177,3.23129-48.98148l-25.58341-13.61089c-2.10636,17.085-4.03647,33.36527-4.03647,33.36527s-14.57666-11.14595-19.60305-15.35663c-4.61487-3.86595-22.77555-15.86632-25.72062-17.80685V2519.6752l-.00088-.00893c4.24625-5.44183,10.83414-11.87293,16.92523-11.87293,7.29269,0,7.53954,6.6876,23.62408,12.1367a16.55,16.55,0,0,0,5.31173.82625c.16346.00275.33023-.006.49513-.008a22.63925,22.63925,0,0,0,2.56509-.204c.13412-.01946.269-.04274.4038-.06474q.39046-.06006.78378-.13335c12.93377-2.55346,28.11354-16.11879,30.42-18.236a72.62408,72.62408,0,0,0,10.28463-11.9027C2314.87631,2475.59393,2311.60917,2446.86217,2292.50886,2436.9477Z"/>
    <g class="cls-screener3B-4">
      <path class="cls-screener3B-5" d="M1845.59985,2760.81346l-.25622.00541S1845.44356,2761.05259,1845.59985,2760.81346Z"/>
      <path class="cls-screener3B-5" d="M2153.65886,2594.53382a3.44264,3.44264,0,0,0-.07093-1.626c-1.10673-2.90564-56.547-59.44176-56.547-59.44176s50.61136,57.44,49.77155,61.74721a39.01981,39.01981,0,0,1-.92121,4.93955c-9.73557,4.5332-25.17928,11.7136-25.32311,11.7136-.2099,0-68.95354,96.95992-89.4443,110.11317-18.14353,11.64652-152.71994,24.743-152.71994,24.743a40.40359,40.40359,0,0,1-1.18529,5.26239c6.17945-.13076,111.60694-14.90624,136.47407-17.55264,25.30606-2.69311,30.40423-15.41434,37.92192-25.606s70.05564-86.93909,70.05564-86.93909l26.8397-15.25256s4.57947-8.01553,5.14894-12.10086v-.00005Z"/>
    </g>
    <path class="cls-screener3B-6" d="M1832.42308,2705.51394s57.41741-2.69039,67.81013-2.69347,70.31272.36826,78.11944-.25721c14.35863-1.15039,21.61492-5.20525,32.03454-14.52115,8.58364-7.67441,50.54648-79.78738,50.54648-79.78738s-36.25291,72.521-40.41588,80.63351c-7.692,14.98962-24.52489,20.89816-34.73839,20.68869-9.67-.19832-52.53235.85617-61.96348,0s-20.61755,0-35.24935,0c-14.84989,0-55.28477,1.36589-55.28477,1.36589Z"/>
    <path class="cls-screener3B-6" d="M1875.10553,2716.23878s3.73867,5.10926,3.50544,30.04506c0,0,4.79152-21.61472,1.99825-28.74978Z"/>
    <path class="cls-screener3B-6" d="M1823.19,2682.50566a22.26767,22.26767,0,0,1,7.34037,10.69354,34.03865,34.03865,0,0,1,1.70349,11.24076l-2.73592,2.00322s-3.22847-21.26315-8.10524-23.68771Z"/>
    <path class="cls-screener3B-6" d="M2130.57856,2520.32423s33.0302-21.47209,39.74872-28.09912a156.39547,156.39547,0,0,0,11.15721-12.17275s-49.83634,32.97587-54.5365,34.67628Z"/>
    <path class="cls-screener3B-6" d="M2190.60437,2583.65934s19.12925-17.77956,23.46581-42.40146l3.76778,2.49517s-3.0278,32.22411-13.61679,45.38581Z"/>
    <path class="cls-screener3B-6" d="M2282.73342,2551.51169c-.84886,18.45446-2.23874,38.51714-4.41109,45.4055-4.37453,13.87158-21.19046,14.40961-21.19046,14.40961s7.53667,4.47022,18.35371,1.343,10.29687-9.02133,11.38882-18.04586c.48814-4.03442,1.311-21.67937,2.07177-39.95977Z"/>
    <polygon class="cls-screener3B-6" points="2172.742 2587.868 2190.604 2583.659 2173.665 2592.671 2172.742 2587.868"/>
  </g>
</svg>
