<?xml version="1.0" encoding="utf-8"?>
<!-- Generator: Adobe Illustrator 22.0.1, SVG Export Plug-In . SVG Version: 6.00 Build 0)  -->
<svg version="1.1" id="_x37_b_1_" xmlns="http://www.w3.org/2000/svg" xmlns:xlink="http://www.w3.org/1999/xlink" x="0px" y="0px"
	 viewBox="0 0 3844.17 3886.94" enable-background="new 0 0 3844.17 3886.94" xml:space="preserve">
<g>
	<polygon fill="#7C6956" points="1721.59,3419.87 1727.88,3416.22 1386.7,3219.25 1380.42,3222.89 	"/>
	<polygon fill="#4F4337" points="1366.17,3231.03 1364.76,3231.81 1737.15,3446.81 1732.88,3442.75 	"/>
	<polygon fill="#88735E" points="1722.98,3425.61 1721.59,3419.87 1380.42,3222.89 1376.13,3225.35 	"/>
	<polygon fill="#4D4135" points="1380.42,3222.89 1386.7,3219.25 1388.93,2431.11 1382.65,2434.76 	"/>
	<polygon fill="#6C5B4B" points="1376.13,3225.35 1380.42,3222.89 1382.65,2434.76 1378.38,2430.7 	"/>
	<polygon fill="#635445" points="1368.48,2413.56 1367.1,2407.82 1364.76,3231.81 1366.17,3231.03 	"/>
	<polygon fill="#635445" points="1725.23,2630.96 1723.83,2631.74 1721.59,3419.87 1722.98,3425.61 	"/>
	<polygon fill="#4F4337" points="1378.38,2430.7 1382.65,2434.76 1723.83,2631.74 1725.23,2630.96 	"/>
	<path fill="#6F5E4D" d="M1732.88,3442.78l-366.71-211.72l2.31-817.47l366.72,211.69L1732.88,3442.78z M1376.13,3225.38
		L1723,3425.61l2.25-794.65L1378.4,2430.7l-2.25,794.65"/>
	<polygon fill="#4D4135" points="1737.15,3446.81 1743.43,3443.16 1745.76,2619.17 1739.48,2622.82 	"/>
	<polygon fill="#7C6956" points="1739.48,2622.82 1745.76,2619.17 1373.38,2404.17 1367.1,2407.82 	"/>
	<polygon fill="#6C5B4B" points="1732.88,3442.75 1737.15,3446.81 1739.48,2622.82 1735.2,2625.28 	"/>
	<polygon fill="#88735E" points="1735.2,2625.28 1739.48,2622.82 1367.1,2407.82 1368.48,2413.56 	"/>
</g>
<g>
	<g>
		<g>
			<defs>
				<path id="SVGID_1_" d="M1358.82,3230.47l14.14-8.17v-0.22l-15.61,9C1357.86,3230.94,1358.36,3230.73,1358.82,3230.47z"/>
			</defs>
			<clipPath id="SVGID_2_">
				<use xlink:href="#SVGID_1_"  overflow="visible"/>
			</clipPath>
			<g clip-path="url(#SVGID_2_)">
				<g>
					<path fill="#594C3E" d="M1358.82,3230.47l0.67-0.39l0.69-0.4l0.69-0.4l0.71-0.41l0.7-0.41l0.72-0.41l0.72-0.41l0.72-0.42
						l0.72-0.42l0.73-0.42l0.72-0.42l0.73-0.41l0.72-0.42l0.72-0.42l0.71-0.41l0.71-0.41l0.71-0.4l0.69-0.4l1.36-0.79l0,0
						l-0.68,0.39l-0.69,0.4l-0.69,0.4l-0.71,0.41l-0.71,0.41l-0.71,0.41l-0.72,0.42l-0.73,0.41l-0.72,0.42l-0.73,0.42l-0.73,0.42
						l-0.72,0.42l-0.72,0.42l-0.72,0.41l-0.72,0.42l-0.71,0.41l-0.71,0.4l-0.69,0.41l-0.69,0.39l-0.68,0.4l0,0"/>
					<path fill="#5C4E40" d="M1358.78,3230.49l0.68-0.4l0.69-0.39l0.69-0.41l0.71-0.4l0.71-0.41l0.72-0.42l0.72-0.41l0.72-0.42
						l0.72-0.42l0.73-0.42l0.73-0.42l0.72-0.42l0.73-0.41l0.72-0.42l0.71-0.41l0.71-0.41l0.71-0.41l0.69-0.4l0.69-0.4l0.68-0.39l0,0
						l-14.48,8.37l0.3-0.16"/>
					<path fill="#5F5142" d="M1358.48,3230.65l14.48-8.37l0,0l-14.81,8.55l0.33-0.15"/>
					<path fill="#625344" d="M1358.15,3230.78l14.81-8.55v-0.06l-15.16,8.74l0.34-0.13"/>
					<path fill="#655546" d="M1357.81,3230.93l15.16-8.74v-0.08l-15.47,8.93L1357.81,3230.93"/>
					<path fill="#685848" d="M1357.5,3231.04l15.47-8.93l0,0l-15.61,9h0.14"/>
				</g>
			</g>
		</g>
	</g>
	<g>
		<g>
			<defs>
				<path id="SVGID_3_" d="M1373,3222.3l37,21.51l37,21.54l296.68,172.43c0.46,0.26,0.96,0.48,1.47,0.63L1373,3222.08V3222.3z"/>
			</defs>
			<clipPath id="SVGID_4_">
				<use xlink:href="#SVGID_3_"  overflow="visible"/>
			</clipPath>
			<g clip-path="url(#SVGID_4_)">
				<g>
					<path fill="#4B3F34" d="M1373,3222.3l18.51,10.75l18.49,10.73l37,21.54l18.54,10.77l18.54,10.77l18.55,10.78l18.55,10.78
						l18.55,10.78l18.56,10.79l18.55,10.78l18.56,10.78l18.55,10.78l18.54,10.78l18.55,10.78l18.53,10.77l18.53,10.77l18.53,10.76
						l18.51,10.76l18.51,10.76l0.5,0.26L1373,3222.27l0,0"/>
					<path fill="#4E4236" d="M1373,3222.27L1744.22,3438l0.43,0.18l-371.64-216v0.07"/>
					<path fill="#514438" d="M1373,3222.2l371.64,216l0.32,0.12l-372-216.17v0.07"/>
					<path fill="#54473A" d="M1373,3222.13l372,216.17l0.2,0.06L1373,3222.08l0,0"/>
					<path fill="#56493C" d="M1373,3222.08L1373,3222.08l18.61,10.81l18.6,10.82l18.61,10.81l18.61,10.82l18.61,10.81l18.61,10.81
						l18.61,10.82l18.6,10.81l18.61,10.82l18.61,10.81l18.61,10.81l18.61,10.82l18.61,10.81l18.6,10.82l18.61,10.81l18.61,10.81
						l18.61,10.82l18.61,10.81l18.61,10.82l18.6,10.81l0,0L1373,3222.08L1373,3222.08"/>
				</g>
			</g>
		</g>
	</g>
	<g>
		<g>
			<defs>
				<path id="SVGID_5_" d="M1729.57,3451.35l-370.72-215.44c0.58,0.3,1.06,0.77,1.36,1.35l369.37,214.65
					C1729.57,3451.47,1729.57,3451.35,1729.57,3451.35z"/>
			</defs>
			<clipPath id="SVGID_6_">
				<use xlink:href="#SVGID_5_"  overflow="visible"/>
			</clipPath>
			<g clip-path="url(#SVGID_6_)">
				<g>
					<path fill="#4B3F34" d="M1729.57,3451.35l-18.51-10.76l-18.51-10.76l-18.55-10.76l-18.53-10.77l-18.47-10.77l-18.59-10.75
						l-18.54-10.78l-18.55-10.78l-18.56-10.78l-18.55-10.78l-18.55-10.78l-18.56-10.79l-18.55-10.78l-18.55-10.8l-18.54-10.73
						l-18.53-10.77l-18.54-10.77l-18.52-10.77l-18.51-10.76l-18.51-10.75c0.35,0.19,0.66,0.44,0.94,0.72l369.78,214.9v-0.18"/>
					<path fill="#4E4236" d="M1729.57,3451.53l-369.78-214.9l0.18,0.22l369.6,214.79V3451.53"/>
					<path fill="#514438" d="M1729.57,3451.64L1360,3236.85l0.12,0.18l369.45,214.75v-0.11"/>
					<path fill="#54473A" d="M1729.57,3451.78l-369.48-214.72c0.03,0.05,0.06,0.1,0.08,0.15l369.41,214.67v-0.1"/>
					<path fill="#56493C" d="M1729.58,3451.85l-369.41-214.67c0.01,0.03,0.01,0.05,0,0.08l369.37,214.65v-0.06"/>
				</g>
			</g>
		</g>
	</g>
	<g>
		<g>
			<defs>
				<path id="SVGID_7_" d="M1743.71,3443.18l-14.14,8.17c0,0,0,0.12,0,0.56l12.76-7.37
					C1742.64,3443.95,1743.12,3443.48,1743.71,3443.18z"/>
			</defs>
			<clipPath id="SVGID_8_">
				<use xlink:href="#SVGID_7_"  overflow="visible"/>
			</clipPath>
			<g clip-path="url(#SVGID_8_)">
				<g>
					<path fill="#4B3F34" d="M1743.71,3443.18l-0.67,0.39l-0.69,0.4l-0.69,0.4l-0.71,0.4l-0.71,0.41l-0.71,0.41l-0.72,0.42
						l-0.72,0.42l-0.73,0.41l-0.72,0.42l-0.73,0.42l-0.72,0.42l-0.72,0.42l-0.72,0.41l-0.71,0.41l-0.71,0.41l-0.71,0.41l-0.69,0.4
						l-0.69,0.4l-0.67,0.39c0,0,0,0.12,0,0.56l12.76-7.37C1742.64,3443.95,1743.12,3443.48,1743.71,3443.18"/>
				</g>
			</g>
		</g>
	</g>
	<path fill="#7C6956" d="M1742.32,3436.39l-12.77,7.39c0,0-79.61-46.11-181.75-105.52c-187.61-109.15-187.61-109.15-187.61-109.15
		l12.77-6.81c47.72,26.18,115.83,64.28,182.69,103.1"/>
	<g>
		<g>
			<defs>
				<path id="SVGID_9_" d="M1729.55,3443.78v3.61l15.6-9c-0.11,0-2.24-0.64-2.83-2L1729.55,3443.78z"/>
			</defs>
			<clipPath id="SVGID_10_">
				<use xlink:href="#SVGID_9_"  overflow="visible"/>
			</clipPath>
			<g clip-path="url(#SVGID_10_)">
				<g>
					<path fill="#4E4236" d="M1742.32,3436.39l-12.77,7.37v0.06l12.79-7.38l0,0"/>
					<path fill="#514438" d="M1742.34,3436.44l-12.79,7.38v0.31l12.92-7.46C1742.42,3436.59,1742.38,3436.52,1742.34,3436.44"/>
					<path fill="#54473A" d="M1742.47,3436.67l-12.92,7.46v0.29l13.07-7.54L1742.47,3436.67"/>
					<path fill="#56493C" d="M1742.62,3436.88l-13.07,7.54v0.28l13.24-7.64L1742.62,3436.88"/>
					<path fill="#594C3E" d="M1742.79,3437.06l-13.24,7.64v0.28l13.42-7.74L1742.79,3437.06"/>
					<path fill="#5C4E40" d="M1743,3437.24l-13.42,7.74v0.29l13.63-7.87L1743,3437.24"/>
					<path fill="#5F5142" d="M1743.18,3437.4l-13.63,7.87v0.3l13.86-8L1743.18,3437.4"/>
					<path fill="#625344" d="M1743.41,3437.57l-13.86,8v0.32l14.13-8.15L1743.41,3437.57"/>
					<path fill="#655546" d="M1743.68,3437.78l-14.13,8.15v0.35l14.44-8.34L1743.68,3437.78"/>
					<path fill="#685848" d="M1744,3437.9l-14.44,8.34v0.37l14.79-8.54C1744.23,3438.02,1744.11,3437.96,1744,3437.9"/>
					<path fill="#6B5A4A" d="M1744.34,3438.07l-14.79,8.54v0.39l15.19-8.77L1744.34,3438.07"/>
					<path fill="#6D5D4C" d="M1744.74,3438.23l-15.19,8.77v0.34l15.56-9l-0.37-0.12"/>
					<path fill="#705F4E" d="M1745.11,3438.35l-15.56,9l0,0l15.6-9l0,0"/>
				</g>
			</g>
		</g>
	</g>
	<polygon fill="#6F5E4D" points="1357.36,3231.08 1357.38,3235.28 1729.56,3451.57 1729.55,3447.37 	"/>
	<polygon fill="#4D4136" points="1729.55,3447.37 1729.56,3451.57 1745.16,3442.56 1745.15,3438.37 	"/>
	<g>
		<g>
			<defs>
				<path id="SVGID_11_" d="M1360.19,3229.11c-0.59,1.34-2.71,1.94-2.83,2l372.19,216.29v-3.62L1360.19,3229.11z"/>
			</defs>
			<clipPath id="SVGID_12_">
				<use xlink:href="#SVGID_11_"  overflow="visible"/>
			</clipPath>
			<g clip-path="url(#SVGID_12_)">
				<g>
					<path fill="#796654" d="M1729.55,3443.78l-369.36-214.65v0.1l369.41,214.67v-0.12"/>
					<path fill="#7C6956" d="M1729.55,3443.88l-369.41-214.67l-0.06,0.11l369.47,214.72L1729.55,3443.88"/>
					<path fill="#7F6B58" d="M1729.55,3444.04l-369.47-214.72l-0.08,0.12l369.55,214.76V3444.04"/>
					<path fill="#826E5A" d="M1729.55,3444.2L1360,3229.44l-0.09,0.13l369.64,214.81V3444.2"/>
					<path fill="#84705C" d="M1729.55,3444.38l-369.64-214.81l-0.12,0.13l369.76,214.88V3444.38"/>
					<path fill="#87735E" d="M1729.55,3444.58l-369.76-214.88l-0.14,0.15l369.9,215v-0.23"/>
					<path fill="#8A7560" d="M1729.55,3444.78l-369.9-215l-0.2,0.18l370.1,215.07V3444.78"/>
					<path fill="#8D7862" d="M1729.55,3445.1l-370.1-215.07c-0.09,0.08-0.19,0.15-0.29,0.22l370.39,215.25V3445.1"/>
					<path fill="#907A64" d="M1729.55,3445.5l-370.39-215.25c-0.51,0.34-1.07,0.6-1.65,0.79l372,216.21v-1.75"/>
					<path fill="#8D7862" d="M1729.55,3447.25l-372-216.21h-0.15l372.19,216.29v-0.12"/>
				</g>
			</g>
		</g>
	</g>
</g>
<g>
	<polygon fill="#574537" points="1497.71,3657.48 1495.81,3652.06 1497.19,2861.75 1499.09,2863.5 	"/>
	<polygon fill="#705946" points="1499.09,2863.5 1497.19,2861.75 1702.18,2622.96 1706.93,2621.39 	"/>
	<polygon fill="#5D4A3A" points="1512.21,3665.91 1497.71,3657.48 1499.09,2863.5 1513.59,2871.92 	"/>
	<polygon fill="#8D7059" points="1513.59,2871.92 1499.09,2863.5 1706.93,2621.39 1721.43,2629.82 	"/>
	<polygon fill="#866B54" points="1723.33,2635.25 1721.95,3425.55 1516.96,3664.35 1518.33,2874.04 	"/>
	<polygon fill="#6B5543" points="1516.96,3664.35 1512.21,3665.91 1513.59,2871.92 1518.33,2874.04 	"/>
	<polygon fill="#9D7E63" points="1518.33,2874.04 1513.59,2871.92 1721.43,2629.82 1723.33,2635.25 	"/>
</g>
<g>
	<g>
		<g enable-background="new    ">
			<g enable-background="new    ">
				<defs>
					<path id="SVGID_13_" enable-background="new    " d="M1565.64,3210.39l-14.1-8.19c-1.89-1.1-4.51-0.94-7.39,0.72l14.1,8.19
						C1561.14,3209.44,1563.75,3209.29,1565.64,3210.39z"/>
				</defs>
				<clipPath id="SVGID_14_">
					<use xlink:href="#SVGID_13_"  overflow="visible"/>
				</clipPath>
				<g clip-path="url(#SVGID_14_)" enable-background="new    ">
					<path fill="#5D5635" d="M1565.64,3210.39l-14.1-8.19c-0.27-0.15-0.55-0.28-0.84-0.39l14.1,8.19
						C1565.09,3210.1,1565.38,3210.23,1565.64,3210.39"/>
					<path fill="#605937" d="M1564.8,3210l-14.1-8.19c-0.23-0.08-0.48-0.15-0.73-0.2l14.1,8.19
						C1564.32,3209.85,1564.57,3209.91,1564.8,3210"/>
					<path fill="#645C39" d="M1564.07,3209.8l-14.1-8.19c-0.2-0.04-0.39-0.07-0.6-0.09l14.1,8.19
						C1563.68,3209.73,1563.88,3209.76,1564.07,3209.8"/>
					<path fill="#67603B" d="M1563.48,3209.71l-14.1-8.19c-0.18-0.02-0.36-0.02-0.54-0.03l14.1,8.19
						C1563.12,3209.69,1563.3,3209.69,1563.48,3209.71"/>
					<path fill="#6B633D" d="M1562.94,3209.69l-14.1-8.19c-0.16,0-0.32,0-0.49,0.02l14.1,8.19
						C1562.61,3209.69,1562.78,3209.68,1562.94,3209.69"/>
					<path fill="#6E663F" d="M1562.45,3209.7l-14.1-8.19c-0.15,0.01-0.31,0.03-0.46,0.05l14.1,8.19
						C1562.14,3209.73,1562.3,3209.71,1562.45,3209.7"/>
					<path fill="#726A41" d="M1561.99,3209.75l-14.1-8.19c-0.15,0.02-0.3,0.04-0.45,0.07l14.1,8.19
						C1561.69,3209.79,1561.84,3209.77,1561.99,3209.75"/>
					<path fill="#756D43" d="M1561.53,3209.82l-14.1-8.19c-0.14,0.03-0.28,0.06-0.43,0.09l14.1,8.19
						C1561.25,3209.88,1561.39,3209.85,1561.53,3209.82"/>
					<path fill="#797045" d="M1561.11,3209.92l-14.1-8.19c-0.14,0.04-0.28,0.07-0.43,0.12l14.1,8.19
						C1560.82,3209.99,1560.96,3209.95,1561.11,3209.92"/>
					<path fill="#7D7447" d="M1560.68,3210.04l-14.1-8.19c-0.14,0.04-0.28,0.09-0.42,0.14l14.1,8.19
						C1560.4,3210.12,1560.54,3210.08,1560.68,3210.04"/>
					<path fill="#807749" d="M1560.26,3210.17l-14.1-8.19c-0.14,0.05-0.28,0.1-0.42,0.16l14.1,8.19
						C1559.98,3210.27,1560.12,3210.22,1560.26,3210.17"/>
					<path fill="#847A4B" d="M1559.84,3210.33l-14.1-8.19c-0.14,0.05-0.28,0.11-0.42,0.18l14.1,8.19
						C1559.57,3210.44,1559.7,3210.39,1559.84,3210.33"/>
					<path fill="#877D4E" d="M1559.43,3210.51l-14.1-8.19c-0.14,0.06-0.28,0.13-0.42,0.2l14.1,8.19
						C1559.15,3210.63,1559.29,3210.57,1559.43,3210.51"/>
					<path fill="#8B8150" d="M1559.01,3210.7l-14.1-8.19c-0.14,0.07-0.28,0.14-0.43,0.22l14.1,8.19
						C1558.72,3210.85,1558.86,3210.77,1559.01,3210.7"/>
					<path fill="#8E8452" d="M1558.58,3210.93l-14.1-8.19c-0.11,0.06-0.22,0.12-0.33,0.18l14.1,8.19
						C1558.36,3211.05,1558.47,3210.98,1558.58,3210.93"/>
				</g>
			</g>
			<g enable-background="new    ">
				<defs>
					<path id="SVGID_15_" enable-background="new    " d="M1536.83,3227.51l14.1,8.19c-1.86-1.08-3.02-3.38-3.03-6.66
						c-0.02-6.6,4.62-14.62,10.35-17.93l-14.1-8.19c-5.73,3.31-10.37,11.34-10.35,17.93
						C1533.81,3224.12,1534.97,3226.42,1536.83,3227.51z"/>
				</defs>
				<clipPath id="SVGID_16_">
					<use xlink:href="#SVGID_15_"  overflow="visible"/>
				</clipPath>
				<g clip-path="url(#SVGID_16_)" enable-background="new    ">
					<path fill="#8E8452" d="M1558.25,3211.11l-14.1-8.19c-0.03,0.02-0.07,0.04-0.1,0.06l14.1,8.19
						C1558.18,3211.15,1558.22,3211.13,1558.25,3211.11"/>
					<path fill="#928754" d="M1558.15,3211.17l-14.1-8.19c-0.15,0.09-0.29,0.18-0.44,0.27l14.1,8.19
						C1557.85,3211.35,1558,3211.26,1558.15,3211.17"/>
					<path fill="#968B56" d="M1557.71,3211.44l-14.1-8.19c-0.15,0.09-0.29,0.19-0.44,0.29l14.1,8.19
						C1557.41,3211.63,1557.56,3211.53,1557.71,3211.44"/>
					<path fill="#998E58" d="M1557.27,3211.73l-14.1-8.19c-0.15,0.1-0.3,0.21-0.45,0.32l14.1,8.19
						C1556.97,3211.94,1557.12,3211.83,1557.27,3211.73"/>
					<path fill="#9D915A" d="M1556.82,3212.05l-14.1-8.19c-0.15,0.11-0.31,0.23-0.46,0.35l14.1,8.19
						C1556.51,3212.28,1556.66,3212.16,1556.82,3212.05"/>
					<path fill="#A0955C" d="M1556.36,3212.4l-14.1-8.19c-0.16,0.12-0.31,0.25-0.46,0.38l14.1,8.19
						C1556.05,3212.65,1556.2,3212.52,1556.36,3212.4"/>
					<path fill="#A4985E" d="M1555.9,3212.78l-14.1-8.19c-0.16,0.13-0.31,0.27-0.46,0.4l14.1,8.19
						C1555.59,3213.04,1555.74,3212.91,1555.9,3212.78"/>
					<path fill="#A79B60" d="M1555.44,3213.18l-14.1-8.19c-0.15,0.14-0.31,0.28-0.46,0.43l14.1,8.19
						C1555.13,3213.46,1555.28,3213.32,1555.44,3213.18"/>
					<path fill="#AB9E62" d="M1554.98,3213.6l-14.1-8.19c-0.15,0.14-0.29,0.29-0.44,0.43l14.1,8.19
						C1554.69,3213.89,1554.83,3213.75,1554.98,3213.6"/>
					<path fill="#AEA264" d="M1554.54,3214.04l-14.1-8.19c-0.14,0.15-0.28,0.29-0.42,0.45l14.1,8.19
						C1554.26,3214.33,1554.4,3214.18,1554.54,3214.04"/>
					<path fill="#B2A566" d="M1554.12,3214.48l-14.1-8.19c-0.14,0.15-0.27,0.3-0.4,0.45l14.1,8.19
						C1553.85,3214.78,1553.98,3214.63,1554.12,3214.48"/>
					<path fill="#BBB078" d="M1553.71,3214.93l-14.1-8.19c-0.14,0.15-0.27,0.31-0.4,0.47l14.1,8.19
						C1553.44,3215.24,1553.58,3215.08,1553.71,3214.93"/>
					<path fill="#BFB480" d="M1553.31,3215.4l-14.1-8.19c-0.14,0.16-0.27,0.33-0.4,0.49l14.1,8.19
						C1553.04,3215.73,1553.18,3215.56,1553.31,3215.4"/>
					<path fill="#C2B886" d="M1552.91,3215.89l-14.1-8.19c-0.16,0.2-0.31,0.4-0.46,0.61l14.1,8.19
						C1552.6,3216.29,1552.75,3216.09,1552.91,3215.89"/>
					<path fill="#C4BB8B" d="M1552.45,3216.5l-14.1-8.19c-0.23,0.31-0.45,0.62-0.66,0.94l14.1,8.19
						C1552,3217.12,1552.22,3216.81,1552.45,3216.5"/>
					<path fill="#C7BD8F" d="M1551.79,3217.44l-14.1-8.19c-0.27,0.4-0.53,0.81-0.77,1.23l14.1,8.19
						C1551.27,3218.25,1551.52,3217.84,1551.79,3217.44"/>
					<path fill="#C4BB8B" d="M1551.02,3218.67l-14.1-8.19c-0.18,0.3-0.35,0.6-0.51,0.91l14.1,8.19
						C1550.67,3219.27,1550.84,3218.97,1551.02,3218.67"/>
					<path fill="#C2B886" d="M1550.51,3219.58l-14.1-8.19c-0.11,0.21-0.22,0.41-0.32,0.62l14.1,8.19
						C1550.29,3219.99,1550.4,3219.78,1550.51,3219.58"/>
					<path fill="#BFB480" d="M1550.19,3220.2l-14.1-8.19c-0.09,0.18-0.18,0.36-0.27,0.55l14.1,8.19
						C1550.01,3220.57,1550.1,3220.38,1550.19,3220.2"/>
					<path fill="#BBB078" d="M1549.92,3220.75l-14.1-8.19c-0.08,0.17-0.15,0.33-0.23,0.5l14.1,8.19
						C1549.77,3221.08,1549.84,3220.92,1549.92,3220.75"/>
					<path fill="#B2A566" d="M1549.69,3221.25l-14.1-8.19c-0.07,0.16-0.14,0.33-0.21,0.5l14.1,8.19
						C1549.55,3221.58,1549.62,3221.42,1549.69,3221.25"/>
					<path fill="#AEA264" d="M1549.48,3221.75l-14.1-8.19c-0.07,0.17-0.14,0.34-0.2,0.5l14.1,8.19
						C1549.34,3222.08,1549.41,3221.91,1549.48,3221.75"/>
					<path fill="#AB9E62" d="M1549.28,3222.25l-14.1-8.19c-0.07,0.17-0.13,0.34-0.19,0.51l14.1,8.19
						C1549.15,3222.59,1549.21,3222.42,1549.28,3222.25"/>
					<path fill="#A79B60" d="M1549.09,3222.76l-14.1-8.19c-0.06,0.18-0.13,0.35-0.18,0.53l14.1,8.19
						C1548.96,3223.11,1549.02,3222.94,1549.09,3222.76"/>
					<path fill="#A4985E" d="M1548.9,3223.29l-14.1-8.19c-0.06,0.18-0.12,0.36-0.17,0.54l14.1,8.19
						C1548.78,3223.65,1548.84,3223.47,1548.9,3223.29"/>
					<path fill="#A0955C" d="M1548.73,3223.83l-14.1-8.19c-0.06,0.18-0.11,0.37-0.16,0.55l14.1,8.19
						C1548.62,3224.19,1548.67,3224.01,1548.73,3223.83"/>
					<path fill="#9D915A" d="M1548.57,3224.37l-14.1-8.19c-0.05,0.18-0.1,0.37-0.14,0.55l14.1,8.19
						C1548.47,3224.74,1548.52,3224.56,1548.57,3224.37"/>
					<path fill="#998E58" d="M1548.42,3224.93l-14.1-8.19c-0.05,0.18-0.09,0.36-0.13,0.54l14.1,8.19
						C1548.34,3225.29,1548.38,3225.11,1548.42,3224.93"/>
					<path fill="#968B56" d="M1548.3,3225.47l-14.1-8.19c-0.04,0.18-0.08,0.36-0.11,0.54l14.1,8.19
						C1548.22,3225.83,1548.26,3225.65,1548.3,3225.47"/>
					<path fill="#928754" d="M1548.19,3226.01l-14.1-8.19c-0.03,0.18-0.06,0.35-0.09,0.52l14.1,8.19
						C1548.12,3226.36,1548.15,3226.19,1548.19,3226.01"/>
					<path fill="#8E8452" d="M1548.1,3226.54l-14.1-8.19c-0.03,0.17-0.05,0.35-0.07,0.52l14.1,8.19
						C1548.04,3226.89,1548.07,3226.71,1548.1,3226.54"/>
					<path fill="#8B8150" d="M1548.02,3227.06l-14.1-8.19c-0.02,0.17-0.04,0.34-0.06,0.51l14.1,8.19
						C1547.98,3227.4,1548,3227.23,1548.02,3227.06"/>
					<path fill="#877D4E" d="M1547.97,3227.57l-14.1-8.19c-0.02,0.17-0.03,0.34-0.04,0.51l14.1,8.19
						C1547.94,3227.9,1547.95,3227.74,1547.97,3227.57"/>
					<path fill="#847A4B" d="M1547.93,3228.07l-14.1-8.19c-0.01,0.17-0.02,0.34-0.02,0.5l14.1,8.19
						C1547.91,3228.41,1547.92,3228.24,1547.93,3228.07"/>
					<path fill="#807749" d="M1547.9,3228.57l-14.1-8.19c0,0.16-0.01,0.31-0.01,0.47c0,0.01,0,0.02,0,0.03l14.1,8.19
						c0-0.01,0-0.02,0-0.03C1547.9,3228.89,1547.9,3228.73,1547.9,3228.57"/>
					<path fill="#7D7447" d="M1547.9,3229.07l-14.1-8.19c0,0.17,0,0.34,0.01,0.5l14.1,8.19
						C1547.9,3229.41,1547.9,3229.24,1547.9,3229.07"/>
					<path fill="#797045" d="M1547.91,3229.57l-14.1-8.19c0.01,0.17,0.02,0.33,0.03,0.49l14.1,8.19
						C1547.93,3229.9,1547.92,3229.74,1547.91,3229.57"/>
					<path fill="#756D43" d="M1547.94,3230.06l-14.1-8.19c0.01,0.17,0.03,0.34,0.05,0.5l14.1,8.19
						C1547.97,3230.4,1547.95,3230.23,1547.94,3230.06"/>
					<path fill="#726A41" d="M1547.99,3230.56l-14.1-8.19c0.02,0.17,0.05,0.33,0.07,0.5l14.1,8.19
						C1548.04,3230.9,1548.01,3230.73,1547.99,3230.56"/>
					<path fill="#6E663F" d="M1548.06,3231.06l-14.1-8.19c0.03,0.17,0.06,0.34,0.1,0.51l14.1,8.19
						C1548.13,3231.4,1548.09,3231.23,1548.06,3231.06"/>
					<path fill="#6B633D" d="M1548.17,3231.57l-14.1-8.19c0.04,0.18,0.09,0.36,0.14,0.53l14.1,8.19
						C1548.25,3231.92,1548.21,3231.75,1548.17,3231.57"/>
					<path fill="#67603B" d="M1548.3,3232.1l-14.1-8.19c0.06,0.19,0.12,0.37,0.18,0.55l14.1,8.19
						C1548.42,3232.47,1548.36,3232.28,1548.3,3232.1"/>
					<path fill="#645C39" d="M1548.48,3232.64l-14.1-8.19c0.08,0.2,0.16,0.4,0.25,0.59l14.1,8.19
						C1548.64,3233.04,1548.56,3232.85,1548.48,3232.64"/>
					<path fill="#605937" d="M1548.73,3233.23l-14.1-8.19c0.12,0.25,0.25,0.49,0.39,0.71l14.1,8.19
						C1548.98,3233.72,1548.85,3233.48,1548.73,3233.23"/>
					<path fill="#5D5635" d="M1549.13,3233.94l-14.1-8.19c0.48,0.75,1.09,1.34,1.8,1.76l14.1,8.19
						C1550.21,3235.29,1549.61,3234.69,1549.13,3233.94"/>
				</g>
			</g>
			<g>
				<path fill="#5F5937" d="M1558.25,3211.11c-5.73,3.31-10.37,11.34-10.35,17.93c0.02,6.59,4.69,9.24,10.42,5.93
					c5.73-3.31,10.37-11.34,10.35-17.93C1568.65,3210.45,1563.98,3207.8,1558.25,3211.11z"/>
			</g>
		</g>
	</g>
	<g>
		<g enable-background="new    ">
			<g enable-background="new    ">
				<defs>
					<path id="SVGID_17_" enable-background="new    " d="M1572.77,3210.85l-14.1-8.19c-2.33-1.35-5.55-1.16-9.12,0.89l14.1,8.19
						C1567.21,3209.69,1570.44,3209.5,1572.77,3210.85z"/>
				</defs>
				<clipPath id="SVGID_18_">
					<use xlink:href="#SVGID_17_"  overflow="visible"/>
				</clipPath>
				<g clip-path="url(#SVGID_18_)" enable-background="new    ">
					<path fill="#6D663D" d="M1572.77,3210.85l-14.1-8.19c-0.33-0.19-0.67-0.35-1.04-0.48l14.1,8.19
						C1572.09,3210.5,1572.44,3210.66,1572.77,3210.85"/>
					<path fill="#716A3F" d="M1571.73,3210.37l-14.1-8.19c-0.29-0.1-0.59-0.18-0.9-0.25l14.1,8.19
						C1571.14,3210.19,1571.44,3210.27,1571.73,3210.37"/>
					<path fill="#756E42" d="M1570.83,3210.13l-14.1-8.19c-0.24-0.05-0.49-0.08-0.74-0.11l14.1,8.19
						C1570.35,3210.04,1570.59,3210.08,1570.83,3210.13"/>
					<path fill="#797244" d="M1570.1,3210.02l-14.1-8.19c-0.22-0.02-0.44-0.03-0.66-0.03l14.1,8.19
						C1569.66,3209.99,1569.88,3210,1570.1,3210.02"/>
					<path fill="#7D7646" d="M1569.43,3209.99l-14.1-8.19c-0.2,0-0.4,0.01-0.6,0.02l14.1,8.19
						C1569.03,3209.99,1569.23,3209.99,1569.43,3209.99"/>
					<path fill="#827A49" d="M1568.83,3210.01l-14.1-8.19c-0.19,0.01-0.38,0.03-0.57,0.06l14.1,8.19
						C1568.45,3210.04,1568.64,3210.02,1568.83,3210.01"/>
					<path fill="#867D4B" d="M1568.26,3210.07l-14.1-8.19c-0.18,0.02-0.37,0.06-0.56,0.09l14.1,8.19
						C1567.89,3210.12,1568.07,3210.09,1568.26,3210.07"/>
					<path fill="#8A814D" d="M1567.7,3210.16l-14.1-8.19c-0.17,0.03-0.35,0.07-0.53,0.12l14.1,8.19
						C1567.35,3210.23,1567.53,3210.19,1567.7,3210.16"/>
					<path fill="#8E8550" d="M1567.17,3210.27l-14.1-8.19c-0.17,0.04-0.35,0.09-0.53,0.15l14.1,8.19
						C1566.82,3210.37,1567,3210.32,1567.17,3210.27"/>
					<path fill="#928952" d="M1566.64,3210.42l-14.1-8.19c-0.17,0.05-0.34,0.11-0.51,0.17l14.1,8.19
						C1566.3,3210.53,1566.47,3210.47,1566.64,3210.42"/>
					<path fill="#968D54" d="M1566.13,3210.59l-14.1-8.19c-0.17,0.06-0.34,0.12-0.52,0.19l14.1,8.19
						C1565.79,3210.71,1565.96,3210.65,1566.13,3210.59"/>
					<path fill="#9B9157" d="M1565.61,3210.78l-14.1-8.19c-0.17,0.07-0.34,0.14-0.51,0.22l14.1,8.19
						C1565.27,3210.92,1565.44,3210.85,1565.61,3210.78"/>
					<path fill="#9F9559" d="M1565.1,3211l-14.1-8.19c-0.17,0.08-0.34,0.16-0.52,0.24l14.1,8.19
						C1564.76,3211.16,1564.93,3211.08,1565.1,3211"/>
					<path fill="#A3995B" d="M1564.58,3211.25l-14.1-8.19c-0.17,0.09-0.35,0.18-0.52,0.27l14.1,8.19
						C1564.23,3211.42,1564.41,3211.33,1564.58,3211.25"/>
					<path fill="#A79D5E" d="M1564.06,3211.52l-14.1-8.19c-0.14,0.07-0.27,0.15-0.41,0.23l14.1,8.19
						C1563.79,3211.67,1563.92,3211.59,1564.06,3211.52"/>
				</g>
			</g>
			<g enable-background="new    ">
				<defs>
					<path id="SVGID_19_" enable-background="new    " d="M1540.53,3233.87l14.1,8.19c-2.3-1.34-3.73-4.18-3.74-8.22
						c-0.02-8.12,5.69-18.02,12.76-22.1l-14.1-8.19c-7.07,4.08-12.78,13.98-12.76,22.1
						C1536.81,3229.69,1538.23,3232.53,1540.53,3233.87z"/>
				</defs>
				<clipPath id="SVGID_20_">
					<use xlink:href="#SVGID_19_"  overflow="visible"/>
				</clipPath>
				<g clip-path="url(#SVGID_20_)" enable-background="new    ">
					<path fill="#A79D5E" d="M1563.65,3211.74l-14.1-8.19c-0.04,0.02-0.08,0.05-0.13,0.07l14.1,8.19
						C1563.57,3211.79,1563.61,3211.77,1563.65,3211.74"/>
					<path fill="#ABA160" d="M1563.52,3211.82l-14.1-8.19c-0.18,0.11-0.36,0.22-0.54,0.33l14.1,8.19
						C1563.16,3212.04,1563.34,3211.93,1563.52,3211.82"/>
					<path fill="#B0A562" d="M1562.98,3212.15l-14.1-8.19c-0.18,0.12-0.36,0.24-0.54,0.36l14.1,8.19
						C1562.62,3212.39,1562.8,3212.27,1562.98,3212.15"/>
					<path fill="#B4A965" d="M1562.44,3212.51l-14.1-8.19c-0.19,0.13-0.37,0.26-0.56,0.4l14.1,8.19
						C1562.07,3212.77,1562.25,3212.64,1562.44,3212.51"/>
					<path fill="#B8AC67" d="M1561.88,3212.9l-14.1-8.19c-0.19,0.14-0.38,0.28-0.56,0.43l14.1,8.19
						C1561.51,3213.19,1561.7,3213.04,1561.88,3212.9"/>
					<path fill="#BCB069" d="M1561.32,3213.33l-14.1-8.19c-0.19,0.15-0.38,0.31-0.57,0.46l14.1,8.19
						C1560.94,3213.64,1561.13,3213.48,1561.32,3213.33"/>
					<path fill="#C0B46C" d="M1560.75,3213.8l-14.1-8.19c-0.19,0.16-0.38,0.33-0.57,0.5l14.1,8.19
						C1560.37,3214.12,1560.56,3213.96,1560.75,3213.8"/>
					<path fill="#C4B86E" d="M1560.18,3214.29l-14.1-8.19c-0.19,0.17-0.38,0.35-0.56,0.52l14.1,8.19
						C1559.81,3214.64,1559.99,3214.46,1560.18,3214.29"/>
					<path fill="#C9BC70" d="M1559.62,3214.82l-14.1-8.19c-0.18,0.17-0.36,0.35-0.54,0.53l14.1,8.19
						C1559.26,3215.17,1559.44,3214.99,1559.62,3214.82"/>
					<path fill="#CDC073" d="M1559.08,3215.35l-14.1-8.19c-0.18,0.18-0.35,0.36-0.52,0.55l14.1,8.19
						C1558.73,3215.71,1558.91,3215.53,1559.08,3215.35"/>
					<path fill="#D1C475" d="M1558.56,3215.9l-14.1-8.19c-0.17,0.18-0.33,0.37-0.5,0.55l14.1,8.19
						C1558.22,3216.27,1558.39,3216.08,1558.56,3215.9"/>
					<path fill="#D7CB86" d="M1558.06,3216.45l-14.1-8.19c-0.17,0.19-0.33,0.38-0.49,0.58l14.1,8.19
						C1557.73,3216.84,1557.89,3216.64,1558.06,3216.45"/>
					<path fill="#D9CE8C" d="M1557.56,3217.03l-14.1-8.19c-0.17,0.2-0.33,0.4-0.49,0.61l14.1,8.19
						C1557.23,3217.44,1557.4,3217.23,1557.56,3217.03"/>
					<path fill="#DBD092" d="M1557.07,3217.64l-14.1-8.19c-0.19,0.25-0.38,0.49-0.57,0.75l14.1,8.19
						C1556.69,3218.14,1556.88,3217.89,1557.07,3217.64"/>
					<path fill="#DCD296" d="M1556.5,3218.39l-14.1-8.19c-0.28,0.38-0.55,0.76-0.81,1.16l14.1,8.19
						C1555.95,3219.15,1556.22,3218.77,1556.5,3218.39"/>
					<path fill="#DDD49A" d="M1555.69,3219.54l-14.1-8.19c-0.33,0.49-0.65,1-0.95,1.51l14.1,8.19
						C1555.04,3220.54,1555.36,3220.04,1555.69,3219.54"/>
					<path fill="#DCD296" d="M1554.74,3221.06l-14.1-8.19c-0.22,0.37-0.43,0.75-0.63,1.13l14.1,8.19
						C1554.31,3221.8,1554.52,3221.43,1554.74,3221.06"/>
					<path fill="#DBD092" d="M1554.11,3222.18l-14.1-8.19c-0.14,0.25-0.27,0.51-0.4,0.77l14.1,8.19
						C1553.84,3222.69,1553.97,3222.44,1554.11,3222.18"/>
					<path fill="#D9CE8C" d="M1553.71,3222.95l-14.1-8.19c-0.11,0.22-0.22,0.45-0.33,0.68l14.1,8.19
						C1553.49,3223.4,1553.6,3223.17,1553.71,3222.95"/>
					<path fill="#D7CB86" d="M1553.39,3223.63l-14.1-8.19c-0.1,0.21-0.19,0.41-0.28,0.62l14.1,8.19
						C1553.2,3224.04,1553.29,3223.83,1553.39,3223.63"/>
					<path fill="#D1C475" d="M1553.11,3224.24l-14.1-8.19c-0.09,0.2-0.18,0.41-0.26,0.61l14.1,8.19
						C1552.93,3224.65,1553.02,3224.45,1553.11,3224.24"/>
					<path fill="#CDC073" d="M1552.84,3224.85l-14.1-8.19c-0.09,0.21-0.17,0.41-0.25,0.62l14.1,8.19
						C1552.67,3225.27,1552.76,3225.06,1552.84,3224.85"/>
					<path fill="#C9BC70" d="M1552.59,3225.48l-14.1-8.19c-0.08,0.21-0.16,0.42-0.24,0.63l14.1,8.19
						C1552.43,3225.89,1552.51,3225.69,1552.59,3225.48"/>
					<path fill="#C4B86E" d="M1552.36,3226.1l-14.1-8.19c-0.08,0.22-0.15,0.43-0.23,0.65l14.1,8.19
						C1552.2,3226.54,1552.28,3226.32,1552.36,3226.1"/>
					<path fill="#C0B46C" d="M1552.13,3226.76l-14.1-8.19c-0.07,0.22-0.14,0.44-0.21,0.66l14.1,8.19
						C1551.99,3227.2,1552.06,3226.98,1552.13,3226.76"/>
					<path fill="#BCB069" d="M1551.92,3227.42l-14.1-8.19c-0.07,0.23-0.14,0.45-0.2,0.68l14.1,8.19
						C1551.78,3227.87,1551.85,3227.64,1551.92,3227.42"/>
					<path fill="#B8AC67" d="M1551.72,3228.09l-14.1-8.19c-0.06,0.23-0.12,0.45-0.18,0.68l14.1,8.19
						C1551.6,3228.55,1551.66,3228.32,1551.72,3228.09"/>
					<path fill="#B4A965" d="M1551.54,3228.77l-14.1-8.19c-0.06,0.22-0.11,0.45-0.16,0.67l14.1,8.19
						C1551.43,3229.22,1551.49,3229,1551.54,3228.77"/>
					<path fill="#B0A562" d="M1551.39,3229.44l-14.1-8.19c-0.05,0.22-0.09,0.45-0.14,0.67l14.1,8.19
						C1551.29,3229.89,1551.34,3229.67,1551.39,3229.44"/>
					<path fill="#ABA160" d="M1551.25,3230.11l-14.1-8.19c-0.04,0.22-0.08,0.43-0.11,0.65l14.1,8.19
						C1551.17,3230.54,1551.21,3230.33,1551.25,3230.11"/>
					<path fill="#A79D5E" d="M1551.14,3230.76l-14.1-8.19c-0.03,0.21-0.06,0.43-0.09,0.64l14.1,8.19
						C1551.07,3231.19,1551.1,3230.97,1551.14,3230.76"/>
					<path fill="#A3995B" d="M1551.05,3231.4l-14.1-8.19c-0.03,0.21-0.05,0.42-0.07,0.63l14.1,8.19
						C1551,3231.82,1551.02,3231.61,1551.05,3231.4"/>
					<path fill="#9F9559" d="M1550.98,3232.03l-14.1-8.19c-0.02,0.21-0.04,0.42-0.05,0.62l14.1,8.19
						C1550.94,3232.44,1550.96,3232.24,1550.98,3232.03"/>
					<path fill="#9B9157" d="M1550.93,3232.65l-14.1-8.19c-0.01,0.21-0.02,0.41-0.03,0.62l14.1,8.19
						C1550.91,3233.06,1550.91,3232.86,1550.93,3232.65"/>
					<path fill="#968D54" d="M1550.9,3233.27l-14.1-8.19c-0.01,0.19-0.01,0.39-0.01,0.58c0,0.01,0,0.02,0,0.04l14.1,8.19
						c0-0.01,0-0.02,0-0.04C1550.89,3233.65,1550.89,3233.46,1550.9,3233.27"/>
					<path fill="#928952" d="M1550.89,3233.88l-14.1-8.19c0,0.21,0.01,0.42,0.01,0.62l14.1,8.19
						C1550.9,3234.3,1550.89,3234.09,1550.89,3233.88"/>
					<path fill="#8E8550" d="M1550.91,3234.5l-14.1-8.19c0.01,0.2,0.02,0.41,0.04,0.6l14.1,8.19
						C1550.93,3234.91,1550.91,3234.71,1550.91,3234.5"/>
					<path fill="#8A814D" d="M1550.94,3235.11l-14.1-8.19c0.02,0.21,0.04,0.42,0.06,0.62l14.1,8.19
						C1550.98,3235.52,1550.96,3235.32,1550.94,3235.11"/>
					<path fill="#867D4B" d="M1551.01,3235.72l-14.1-8.19c0.03,0.21,0.06,0.41,0.09,0.61l14.1,8.19
						C1551.06,3236.14,1551.03,3235.93,1551.01,3235.72"/>
					<path fill="#827A49" d="M1551.1,3236.33l-14.1-8.19c0.04,0.21,0.08,0.42,0.13,0.63l14.1,8.19
						C1551.18,3236.76,1551.14,3236.55,1551.1,3236.33"/>
					<path fill="#7D7646" d="M1551.22,3236.96l-14.1-8.19c0.05,0.22,0.11,0.44,0.17,0.65l14.1,8.19
						C1551.33,3237.4,1551.28,3237.19,1551.22,3236.96"/>
					<path fill="#797244" d="M1551.39,3237.62l-14.1-8.19c0.07,0.23,0.14,0.46,0.22,0.67l14.1,8.19
						C1551.54,3238.07,1551.46,3237.85,1551.39,3237.62"/>
					<path fill="#756E42" d="M1551.62,3238.29l-14.1-8.19c0.09,0.25,0.2,0.5,0.31,0.73l14.1,8.19
						C1551.81,3238.79,1551.71,3238.54,1551.62,3238.29"/>
					<path fill="#716A3F" d="M1551.93,3239.02l-14.1-8.19c0.15,0.31,0.31,0.6,0.48,0.88l14.1,8.19
						C1552.23,3239.62,1552.07,3239.33,1551.93,3239.02"/>
					<path fill="#6D663D" d="M1552.41,3239.9l-14.1-8.19c0.59,0.93,1.34,1.66,2.22,2.17l14.1,8.19
						C1553.75,3241.55,1553,3240.82,1552.41,3239.9"/>
				</g>
			</g>
			<g>
				
					<radialGradient id="SVGID_21_" cx="759.6635" cy="3251.4683" r="50.2439" gradientTransform="matrix(-1 0 0 1 2360.3521 0)" gradientUnits="userSpaceOnUse">
					<stop  offset="0" style="stop-color:#C7B299"/>
					<stop  offset="0.4164" style="stop-color:#DAD196"/>
					<stop  offset="0.9226" style="stop-color:#AA915D"/>
				</radialGradient>
				<path fill="url(#SVGID_21_)" d="M1563.65,3211.74c-7.07,4.08-12.78,13.98-12.76,22.1c0.02,8.13,5.78,11.41,12.84,7.33
					c7.07-4.08,12.79-13.98,12.77-22.11C1576.48,3210.94,1570.72,3207.66,1563.65,3211.74z"/>
			</g>
		</g>
	</g>
</g>
</svg>
