<svg id="_5b_L" data-name="5b_L" xmlns="http://www.w3.org/2000/svg" xmlns:xlink="http://www.w3.org/1999/xlink" viewBox="0 0 3844.17 3886.94"><defs><style>.cls-screener5A-1{fill:none;}.cls-screener5A-2{clip-path:url(#clip-path);}.cls-screener5A-3{fill:#858585;}.cls-screener5A-4{clip-path:url(#clip-path-2);}.cls-screener5A-5{fill:#999;}.cls-screener5A-6{fill:#9e9e9e;}.cls-screener5A-7{fill:#a3a3a3;}.cls-screener5A-8{fill:#a8a8a8;}.cls-screener5A-9{fill:#adadad;}.cls-screener5A-10{fill:#b3b3b3;}.cls-screener5A-11{fill:#b8b8b8;}.cls-screener5A-12{fill:#949494;}.cls-screener5A-13{fill:#8f8f8f;}.cls-screener5A-14{fill:#8a8a8a;}.cls-screener5A-15{fill:#e3e3e3;}.cls-screener5A-16{clip-path:url(#clip-path-3);}.cls-screener5A-17{clip-path:url(#clip-path-4);}.cls-screener5A-18{clip-path:url(#clip-path-5);}.cls-screener5A-19{clip-path:url(#clip-path-6);}</style><clipPath id="clip-path"><path class="cls-screener5A-1" d="M2309,2101.46V2107a25,25,0,0,1,.59-5.25,28,28,0,0,1,1.72-5.19,31.41,31.41,0,0,1,2.87-5,38.75,38.75,0,0,1,4-4.85,3.62,3.62,0,0,0,.36-.42,2.38,2.38,0,0,0,.25-.44,1.7,1.7,0,0,0,.15-.45,1.61,1.61,0,0,0,.06-.44v-5.52a1.61,1.61,0,0,1-.05.44,1.7,1.7,0,0,1-.15.45,2.67,2.67,0,0,1-.25.43,2.11,2.11,0,0,1-.36.43,38.65,38.65,0,0,0-4,4.84,31.41,31.41,0,0,0-2.87,5,26.82,26.82,0,0,0-1.72,5.17A24.52,24.52,0,0,0,2309,2101.46Z"/></clipPath><clipPath id="clip-path-2"><path class="cls-screener5A-1" d="M2295.65,2101.65v5.55a30.1,30.1,0,0,0,1.69,10,37.81,37.81,0,0,0,5.07,9.69,52.27,52.27,0,0,0,8.43,9.09,73.49,73.49,0,0,0,11.72,8.15,109,109,0,0,0,24.43,10,150.39,150.39,0,0,0,28.17,5,161.43,161.43,0,0,0,29.33-.29,136.81,136.81,0,0,0,27.89-5.74l.4-.14.38-.16.36-.17.33-.19a5.15,5.15,0,0,0,.77-.55,4.27,4.27,0,0,0,.57-.63,3,3,0,0,0,.36-.68,2.4,2.4,0,0,0,.13-.7l.18-5.6a2.35,2.35,0,0,1-.14.7,2.61,2.61,0,0,1-.36.68,3,3,0,0,1-.57.62,4.74,4.74,0,0,1-.77.56,1.77,1.77,0,0,1-.33.19l-.35.17-.39.15-.4.15a137.75,137.75,0,0,1-27.92,5.73,161.76,161.76,0,0,1-29.36.29,150,150,0,0,1-28.21-5,109.21,109.21,0,0,1-24.46-9.94,74,74,0,0,1-11.73-8.15,52.21,52.21,0,0,1-8.44-9.07,37.31,37.31,0,0,1-5.08-9.68A30.29,30.29,0,0,1,2295.65,2101.65Z"/></clipPath><clipPath id="clip-path-3"><path class="cls-screener5A-1" d="M2223.67,2127.8l.07,5.58a38.13,38.13,0,0,1,.67-7.61,40.15,40.15,0,0,1,2.2-7.51,46.82,46.82,0,0,1,3.74-7.33,55.43,55.43,0,0,1,5.3-7.09,3.08,3.08,0,0,0,.3-.41,1.77,1.77,0,0,0,.21-.41,1.55,1.55,0,0,0,.12-.42,1.48,1.48,0,0,0,0-.42l-.06-5.54a1.48,1.48,0,0,1,0,.42,2.25,2.25,0,0,1-.13.42,1.77,1.77,0,0,1-.21.41,1.9,1.9,0,0,1-.3.4,56.38,56.38,0,0,0-5.3,7.09,45.51,45.51,0,0,0-3.75,7.32,39.84,39.84,0,0,0-2.2,7.5A37.23,37.23,0,0,0,2223.67,2127.8Z"/></clipPath><clipPath id="clip-path-4"><path class="cls-screener5A-1" d="M2132,2160.65l.18,5.61a52.72,52.72,0,0,1,.75-10.79,57.58,57.58,0,0,1,2.94-10.71,67.25,67.25,0,0,1,5.12-10.52,81.21,81.21,0,0,1,7.32-10.25,3.3,3.3,0,0,0,.3-.43,1.72,1.72,0,0,0,.21-.43,1.69,1.69,0,0,0,.12-.44,1.55,1.55,0,0,0,0-.43l-.15-5.57a1.62,1.62,0,0,1,0,.44,2.09,2.09,0,0,1-.11.43,3.42,3.42,0,0,1-.21.43,2.61,2.61,0,0,1-.31.43,81.11,81.11,0,0,0-7.32,10.24,66.37,66.37,0,0,0-5.14,10.51,57.48,57.48,0,0,0-2.94,10.7A53.34,53.34,0,0,0,2132,2160.65Z"/></clipPath><clipPath id="clip-path-5"><path class="cls-screener5A-1" d="M2210.29,2128.11l.09,5.58a44.48,44.48,0,0,0,2.59,14.17,56.16,56.16,0,0,0,7.31,13.85,77.55,77.55,0,0,0,12,13.08,109.23,109.23,0,0,0,16.62,11.88,157.7,157.7,0,0,0,34,14.65,210.62,210.62,0,0,0,39.24,7.83,227.17,227.17,0,0,0,41.15.55,200.51,200.51,0,0,0,39.72-7l.5-.16.46-.18.43-.2.4-.22a4.66,4.66,0,0,0,.76-.56,3.84,3.84,0,0,0,.57-.64,2.58,2.58,0,0,0,.35-.68,2.61,2.61,0,0,0,.13-.73l.14-5.65a2.18,2.18,0,0,1-.13.72,2.49,2.49,0,0,1-.35.69,3.1,3.1,0,0,1-.57.63,4.66,4.66,0,0,1-.76.56l-.39.22-.43.2-.47.18-.5.16a201.51,201.51,0,0,1-39.76,7,228.75,228.75,0,0,1-41.21-.56,210.36,210.36,0,0,1-39.28-7.82,158,158,0,0,1-34.08-14.63,110.48,110.48,0,0,1-16.64-11.86,77.07,77.07,0,0,1-12-13.07,55.4,55.4,0,0,1-7.32-13.83A44.4,44.4,0,0,1,2210.29,2128.11Z"/></clipPath><clipPath id="clip-path-6"><path class="cls-screener5A-1" d="M2118.26,2161.6c.06,1.88.13,3.75.19,5.62a60.16,60.16,0,0,0,3.47,18,72.78,72.78,0,0,0,9.14,17.5,98.4,98.4,0,0,0,14.82,16.56,137.05,137.05,0,0,0,20.47,15.14,195.6,195.6,0,0,0,42,19,265.73,265.73,0,0,0,49.08,10.67,300.54,300.54,0,0,0,52.46,1.77,283.46,283.46,0,0,0,52-7.57l.66-.19a4.44,4.44,0,0,0,.61-.22c.2-.08.39-.16.57-.25s.35-.18.51-.28a5.6,5.6,0,0,0,.83-.62,3.81,3.81,0,0,0,.62-.71,2.74,2.74,0,0,0,.39-.76,2.45,2.45,0,0,0,.14-.8h0c0-1.91.07-3.81.1-5.72a2.75,2.75,0,0,1-.14.8,2.94,2.94,0,0,1-.39.77,4.57,4.57,0,0,1-.62.7,5.06,5.06,0,0,1-.84.62c-.16.1-.33.19-.51.28l-.56.25a6.32,6.32,0,0,1-.61.22l-.67.19a284.84,284.84,0,0,1-52.05,7.56,301.34,301.34,0,0,1-52.53-1.77,266.31,266.31,0,0,1-49.14-10.65,196.78,196.78,0,0,1-42-18.93,138.93,138.93,0,0,1-20.5-15.12,99.22,99.22,0,0,1-14.84-16.54,73.47,73.47,0,0,1-9.15-17.49A60,60,0,0,1,2118.26,2161.6Z"/></clipPath></defs><title>IKEA_Sleep_essentials_v5_5b_L-01</title><g class="cls-screener5A-2"><path class="cls-screener5A-3" d="M2309,2101.46V2107a25,25,0,0,1,.59-5.25,28,28,0,0,1,1.72-5.19,31.41,31.41,0,0,1,2.87-5,38.75,38.75,0,0,1,4-4.85,3.62,3.62,0,0,0,.36-.42,2.38,2.38,0,0,0,.25-.44,1.7,1.7,0,0,0,.15-.45,1.61,1.61,0,0,0,.06-.44v-5.52a1.61,1.61,0,0,1-.05.44,1.7,1.7,0,0,1-.15.45,2.67,2.67,0,0,1-.25.43,2.11,2.11,0,0,1-.36.43,38.65,38.65,0,0,0-4,4.84,31.41,31.41,0,0,0-2.87,5,26.82,26.82,0,0,0-1.72,5.17,25.16,25.16,0,0,0-.59,5.26"/></g><g class="cls-screener5A-4"><path class="cls-screener5A-5" d="M2295.67,2102.87v5.55c0,.42,0,.85.08,1.28s.08.85.14,1.27.11.85.19,1.28.15.85.24,1.27V2108c-.1-.42-.18-.84-.25-1.27s-.14-.85-.19-1.27-.1-.85-.14-1.27-.06-.85-.08-1.28"/><path class="cls-screener5A-6" d="M2296.33,2108v5.56c.09.42.19.84.3,1.27s.23.84.36,1.26.27.84.41,1.26.3.84.47,1.26V2113c-.16-.42-.32-.84-.46-1.26s-.29-.84-.42-1.26-.24-.84-.35-1.26-.21-.84-.3-1.27"/><path class="cls-screener5A-7" d="M2297.86,2113v5.56q.26.64.54,1.29c.19.43.39.85.59,1.28s.43.85.66,1.28l.71,1.27v-5.57c-.25-.42-.49-.85-.71-1.27s-.45-.85-.66-1.27-.41-.86-.6-1.29-.37-.85-.54-1.28"/><path class="cls-screener5A-8" d="M2300.37,2118.12v5.57c.27.45.55.91.84,1.36s.6.9.91,1.35.64.9,1,1.35.69.89,1,1.33v-5.58a14.9,14.9,0,0,1-1-1.33c-.29-.45-.66-.89-1-1.34s-.62-.9-.91-1.35-.57-.91-.84-1.36"/><path class="cls-screener5A-9" d="M2304.14,2123.5v5.58c.41.51.85,1,1.3,1.53s.91,1,1.39,1.52,1,1,1.49,1.49a20.45,20.45,0,0,0,1.58,1.47v-5.58c-.54-.48-1.07-1-1.58-1.47s-1-1-1.49-1.49a17.77,17.77,0,0,1-1.4-1.51c-.4-.51-.88-1-1.3-1.54"/><path class="cls-screener5A-10" d="M2309.91,2129.51v5.58c.82.74,1.68,1.47,2.57,2.18s1.82,1.43,2.78,2.12,1.95,1.38,3,2,2.1,1.34,3.19,2v-5.59c-1.09-.64-2.16-1.3-3.19-2s-2-1.36-3-2a31.29,31.29,0,0,1-2.78-2.12c-.89-.72-1.75-1.44-2.57-2.18"/><path class="cls-screener5A-11" d="M2321.44,2137.8v5.59l.29.17.28.16.29.17.29.16c1.53.87,3.1,1.7,4.72,2.51s3.29,1.57,5,2.29,3.44,1.42,5.21,2.07,3.58,1.27,5.42,1.86l.07-5.6q-2.76-.87-5.43-1.86t-5.21-2.07q-2.57-1.1-5-2.29t-4.73-2.5l-.29-.16-.29-.17-.28-.16-.29-.17"/><path class="cls-screener5A-10" d="M2343,2147.21l-.07,5.6c1.4.44,2.81.86,4.24,1.26s2.87.78,4.33,1.14,2.93.69,4.42,1,3,.61,4.49.88l.09-5.61q-2.26-.41-4.5-.87c-1.48-.32-3-.65-4.42-1s-2.91-.73-4.34-1.13-2.84-.82-4.24-1.26"/><path class="cls-screener5A-9" d="M2360.45,2151.48l-.09,5.61,3,.5c1,.16,2,.3,3,.44s2,.27,3,.39,2,.23,3,.33l.1-5.61q-1.5-.15-3-.33t-3-.39c-1-.14-2-.28-3-.44s-2-.32-3-.5"/><path class="cls-screener5A-8" d="M2372.51,2153.14l-.1,5.61,2.58.23,2.59.2,2.6.15,2.6.11.11-5.61-2.6-.11-2.6-.15-2.6-.2c-.86-.07-1.72-.14-2.58-.23"/><path class="cls-screener5A-7" d="M2382.89,2153.8l-.11,5.61,2.38.06h7.15l.12-5.61h-7.15l-2.39-.06"/><path class="cls-screener5A-6" d="M2392.43,2153.87l-.12,5.61,2.27-.07,2.27-.11c.75,0,1.51-.08,2.26-.14l2.26-.16.13-5.61-2.26.16c-.75.06-1.51.1-2.26.14l-2.27.11-2.28.07"/><path class="cls-screener5A-5" d="M2401.5,2153.39l-.13,5.61,2.23-.2c.74-.08,1.49-.15,2.23-.24l2.21-.26c.74-.1,1.48-.19,2.21-.3l.14-5.61c-.73.11-1.47.21-2.2.3l-2.22.26c-.74.09-1.49.16-2.23.24l-2.24.2"/><path class="cls-screener5A-12" d="M2410.39,2152.39l-.14,5.61,2.27-.34c.76-.12,1.51-.24,2.26-.38s1.5-.26,2.25-.41l2.22-.44.16-5.61c-.74.16-1.48.3-2.23.45l-2.25.41-2.26.37-2.28.34"/><path class="cls-screener5A-13" d="M2419.41,2150.8l-.16,5.61,2.4-.52c.79-.18,1.58-.37,2.36-.57s1.57-.39,2.35-.6l2.32-.64.16-5.61-2.32.65-2.34.6-2.38.56-2.39.52"/><path class="cls-screener5A-14" d="M2428.84,2148.49l-.16,5.61.93-.27.92-.28.92-.29.92-.29h.13l.13,0h.13l.13-.05.17-5.6h-.13l-.13.05h-.13l-.13,0-.92.29-.92.28-.93.28-.93.27"/><path class="cls-screener5A-3" d="M2433.06,2147.18l-.17,5.6.25-.11.25-.11.23-.12.22-.13a5.15,5.15,0,0,0,.77-.55,4.27,4.27,0,0,0,.57-.63,3,3,0,0,0,.36-.68,2.4,2.4,0,0,0,.13-.7l.18-5.6a2.42,2.42,0,0,1-.14.7,2.61,2.61,0,0,1-.36.68,3,3,0,0,1-.57.62,4.74,4.74,0,0,1-.77.56l-.22.13-.23.12-.25.11-.25.11"/></g><path class="cls-screener5A-15" d="M2306.6,2077.56a38.46,38.46,0,0,0-9.59,15.35,29.25,29.25,0,0,0-.42,16.17,38.42,38.42,0,0,0,8.59,15.66,66.28,66.28,0,0,0,17.41,13.75,109.21,109.21,0,0,0,24.46,9.94,150,150,0,0,0,28.21,5,161.76,161.76,0,0,0,29.36-.29,137.75,137.75,0,0,0,27.92-5.73l.4-.15.39-.15.35-.17a1.77,1.77,0,0,0,.33-.19,4.69,4.69,0,0,0,1.22-1,2.65,2.65,0,0,0,.57-1.18,2.22,2.22,0,0,0-.1-1.25,3.36,3.36,0,0,0-.83-1.21,5.79,5.79,0,0,0-1.82-1.19,10.21,10.21,0,0,0-2.37-.68,11.41,11.41,0,0,0-2.61-.13,10.67,10.67,0,0,0-2.57.46,116.15,116.15,0,0,1-23.69,4.85,136.47,136.47,0,0,1-24.92.24,127.14,127.14,0,0,1-23.95-4.2,93.69,93.69,0,0,1-20.81-8.42,56.84,56.84,0,0,1-14.86-11.67,33,33,0,0,1-7.39-13.31,24.89,24.89,0,0,1,.27-13.77,32.52,32.52,0,0,1,8.09-13.1,2.68,2.68,0,0,0,.78-1.41,2.11,2.11,0,0,0-.24-1.41,3.56,3.56,0,0,0-1.18-1.26,6.78,6.78,0,0,0-2-.94,10.3,10.3,0,0,0-2.06-.41,12.39,12.39,0,0,0-2.11,0,11.48,11.48,0,0,0-2,.35,7.47,7.47,0,0,0-1.71.69,3.37,3.37,0,0,0-.32.19l-.3.2-.26.21Z"/><g class="cls-screener5A-16"><path class="cls-screener5A-3" d="M2223.67,2127.8l.07,5.58a38.13,38.13,0,0,1,.67-7.61,40.15,40.15,0,0,1,2.2-7.51,46.82,46.82,0,0,1,3.74-7.33,55.43,55.43,0,0,1,5.3-7.09,3.08,3.08,0,0,0,.3-.41,1.77,1.77,0,0,0,.21-.41,1.55,1.55,0,0,0,.12-.42,1.48,1.48,0,0,0,0-.42l-.06-5.54a1.48,1.48,0,0,1,0,.42,2.25,2.25,0,0,1-.13.42,1.77,1.77,0,0,1-.21.41,1.9,1.9,0,0,1-.3.4,56.38,56.38,0,0,0-5.3,7.09,45.51,45.51,0,0,0-3.75,7.32,39.84,39.84,0,0,0-2.2,7.5,38,38,0,0,0-.67,7.6"/></g><g class="cls-screener5A-17"><path class="cls-screener5A-3" d="M2132,2160.65l.18,5.61a52.72,52.72,0,0,1,.75-10.79,57.58,57.58,0,0,1,2.94-10.71,67.25,67.25,0,0,1,5.12-10.52,81.21,81.21,0,0,1,7.32-10.25,3.3,3.3,0,0,0,.3-.43,1.72,1.72,0,0,0,.21-.43,1.69,1.69,0,0,0,.12-.44,1.55,1.55,0,0,0,0-.43l-.15-5.57a1.62,1.62,0,0,1,0,.44,2.09,2.09,0,0,1-.11.43,3.42,3.42,0,0,1-.21.43,2.61,2.61,0,0,1-.31.43,81.11,81.11,0,0,0-7.32,10.24,66.37,66.37,0,0,0-5.14,10.51,57.48,57.48,0,0,0-2.94,10.7,52.62,52.62,0,0,0-.75,10.78"/></g><path class="cls-screener5A-15" d="M2223.79,2094.91a53.56,53.56,0,0,0-12,21.69,43,43,0,0,0,.26,22.71,57.28,57.28,0,0,0,12.44,22.06A98.39,98.39,0,0,0,2249,2181a158,158,0,0,0,34.08,14.63,210.36,210.36,0,0,0,39.28,7.82,228.75,228.75,0,0,0,41.21.56,201.63,201.63,0,0,0,39.76-7l.5-.16.47-.18.43-.2.39-.22a4.32,4.32,0,0,0,1.17-1,2.67,2.67,0,0,0,.59-1.16,2.37,2.37,0,0,0-.06-1.24,3.13,3.13,0,0,0-.74-1.22,6.08,6.08,0,0,0-1.74-1.28,9.61,9.61,0,0,0-2.34-.78,12.2,12.2,0,0,0-2.63-.23,10.65,10.65,0,0,0-2.62.39,182.17,182.17,0,0,1-35.59,6.26,206.29,206.29,0,0,1-36.86-.5,188.8,188.8,0,0,1-35.15-7,142.52,142.52,0,0,1-30.54-13,88.81,88.81,0,0,1-22-17.58,51.76,51.76,0,0,1-11.26-19.76,38.58,38.58,0,0,1-.35-20.37,47.68,47.68,0,0,1,10.72-19.51,2.47,2.47,0,0,0,.66-1.42,2.2,2.2,0,0,0-.34-1.41,3.93,3.93,0,0,0-1.25-1.25,7.85,7.85,0,0,0-2.08-.9,9.65,9.65,0,0,0-2-.36,10.81,10.81,0,0,0-3.9.35,8,8,0,0,0-1.64.65l-.36.22-.33.24a3.47,3.47,0,0,0-.29.25Z"/><g class="cls-screener5A-18"><path class="cls-screener5A-5" d="M2210.29,2128.11l.09,5.58a16.57,16.57,0,0,0,.06,1.72c.06.58.08,1.14.13,1.72s.12,1.14.2,1.72.17,1.14.27,1.71L2211,2135c-.1-.58-.19-1.15-.27-1.72s-.14-1.14-.2-1.72-.1-1.14-.13-1.71,0-1.15-.06-1.72"/><path class="cls-screener5A-6" d="M2211,2135l.09,5.58c.11.62.23,1.24.37,1.85s.29,1.23.45,1.85.34,1.23.53,1.84.39,1.23.61,1.84l-.09-5.6c-.21-.61-.42-1.22-.61-1.83s-.36-1.23-.53-1.84-.31-1.23-.45-1.85-.26-1.23-.37-1.84"/><path class="cls-screener5A-7" d="M2212.91,2142.34l.09,5.6c.22.64.46,1.27.72,1.91s.52,1.26.8,1.89.58,1.27.89,1.89.64,1.26,1,1.88l-.08-5.6c-.34-.62-.67-1.25-1-1.88s-.61-1.26-.89-1.89-.55-1.26-.81-1.89-.49-1.27-.72-1.91"/><path class="cls-screener5A-8" d="M2216.31,2149.91l.08,5.6c.37.68.76,1.36,1.16,2s.83,1.35,1.27,2,.89,1.34,1.36,2,1,1.33,1.47,2l-.07-5.61c-.51-.66-1-1.33-1.47-2s-.93-1.33-1.37-2-.86-1.34-1.27-2-.79-1.35-1.16-2"/><path class="cls-screener5A-9" d="M2221.58,2158l.07,5.61c.6.78,1.23,1.56,1.87,2.33s1.32,1.54,2,2.31,1.41,1.52,2.15,2.27,1.51,1.51,2.3,2.25l-.07-5.63c-.79-.74-1.55-1.49-2.3-2.24s-1.46-1.51-2.15-2.27-1.37-1.53-2-2.3-1.27-1.55-1.87-2.33"/><path class="cls-screener5A-10" d="M2229.92,2167.09l.07,5.63c1.21,1.14,2.48,2.26,3.79,3.37s2.69,2.2,4.13,3.28,2.92,2.14,4.45,3.18,3.13,2.07,4.78,3.07V2180c-1.65-1-3.25-2-4.78-3.07s-3-2.11-4.46-3.18-2.8-2.16-4.13-3.27-2.59-2.24-3.8-3.37"/><path class="cls-screener5A-11" d="M2247.09,2180v5.64l.43.27.44.26.44.26.44.26q3.43,2,7.08,3.89c2.42,1.24,4.92,2.42,7.46,3.55s5.16,2.2,7.83,3.22,5.37,2,8.14,2.88v-5.66q-4.16-1.35-8.15-2.87c-2.66-1-5.27-2.09-7.83-3.22s-5-2.31-7.48-3.55-4.79-2.53-7.08-3.88l-.44-.26-.44-.26-.44-.26-.44-.27"/><path class="cls-screener5A-10" d="M2279.39,2194.55v5.66c2.07.68,4.18,1.32,6.31,1.93s4.28,1.2,6.45,1.74,4.37,1.06,6.59,1.54,4.44.92,6.69,1.34v-5.67c-2.26-.41-4.49-.85-6.71-1.33s-4.41-1-6.59-1.54-4.33-1.12-6.46-1.73-4.24-1.26-6.32-1.94"/><path class="cls-screener5A-9" d="M2305.47,2201.09v5.67c1.44.26,2.89.51,4.34.74s2.91.46,4.37.66,2.93.4,4.4.58,3,.34,4.43.49v-5.67c-1.49-.15-3-.31-4.44-.49l-4.41-.57c-1.47-.2-2.92-.43-4.37-.66s-2.9-.49-4.34-.75"/><path class="cls-screener5A-8" d="M2323,2203.56v5.67c1.24.13,2.48.24,3.73.34l3.74.29c1.25.09,2.5.16,3.75.22s2.5.12,3.76.16l.06-5.67c-1.25,0-2.51-.09-3.76-.16s-2.51-.13-3.76-.22l-3.74-.28c-1.24-.1-2.49-.22-3.73-.35"/><path class="cls-screener5A-7" d="M2338,2204.57l-.06,5.67c1.14,0,2.27.07,3.41.09s2.28,0,3.42,0h3.42c1.14,0,2.27,0,3.41-.06l.08-5.67-3.42.06h-6.84l-3.42-.1"/><path class="cls-screener5A-6" d="M2351.7,2204.64l-.08,5.67,3.27-.11c1.09,0,2.17-.09,3.26-.15l3.25-.2,3.25-.25.09-5.67-3.25.25-3.26.2c-1.08.06-2.17.11-3.26.15l-3.27.11"/><path class="cls-screener5A-5" d="M2364.79,2203.93l-.09,5.67c1.07-.09,2.14-.19,3.2-.3s2.13-.21,3.2-.34l3.18-.38c1.06-.14,2.11-.28,3.17-.44l.11-5.66-3.17.43c-1.06.14-2.13.27-3.19.39l-3.2.34-3.21.29"/><path class="cls-screener5A-12" d="M2377.51,2202.48l-.11,5.66c1.09-.15,2.17-.32,3.26-.5l3.24-.54,3.22-.6c1.07-.21,2.14-.43,3.2-.66l.12-5.66c-1.06.23-2.13.44-3.2.65s-2.15.41-3.22.6l-3.25.55-3.26.5"/><path class="cls-screener5A-13" d="M2390.44,2200.18l-.12,5.66c1.08-.22,2.15-.46,3.22-.71l3.2-.76,3.17-.82c1.05-.28,2.09-.57,3.13-.87h.08l.14-5.66h-.08c-1,.3-2.09.59-3.14.87s-2.11.55-3.17.81l-3.2.77-3.23.71"/><path class="cls-screener5A-14" d="M2403.26,2197l-.14,5.66.2-.06.2-.07.2-.07.19-.07.14-5.66-.19.07-.2.08-.2.06-.2.06"/><path class="cls-screener5A-3" d="M2404.05,2196.72l-.14,5.66.24-.11.24-.11.22-.11.22-.13a4.66,4.66,0,0,0,.76-.56,3.84,3.84,0,0,0,.57-.64,2.58,2.58,0,0,0,.35-.68,2.61,2.61,0,0,0,.13-.73l.14-5.65a2.18,2.18,0,0,1-.13.72,2.49,2.49,0,0,1-.35.69,3.1,3.1,0,0,1-.57.63,4.66,4.66,0,0,1-.76.56l-.21.13-.23.11-.24.12-.24.1"/></g><g class="cls-screener5A-19"><path class="cls-screener5A-5" d="M2118.26,2161.6l.19,5.62a10.2,10.2,0,0,0,.07,1.47c.07.47.07,1,.11,1.46s.09,1,.14,1.46.12,1,.19,1.47l-.2-5.63c-.07-.48-.13-1-.18-1.46s-.1-1-.15-1.46-.07-1-.1-1.46-.06-1-.07-1.47"/><path class="cls-screener5A-6" d="M2118.79,2167.45l.2,5.63c.11.82.24,1.64.38,2.45s.32,1.64.5,2.45.38,1.64.6,2.45.45,1.63.7,2.44l-.19-5.64c-.25-.81-.49-1.62-.71-2.43s-.41-1.63-.6-2.45-.34-1.63-.49-2.44-.28-1.64-.39-2.46"/><path class="cls-screener5A-7" d="M2121,2177.23l.19,5.64q.39,1.26.84,2.52c.3.83.62,1.67,1,2.5s.69,1.67,1.06,2.5.77,1.66,1.18,2.48l-.19-5.64c-.41-.83-.8-1.65-1.18-2.48s-.73-1.66-1.07-2.5-.65-1.67-1-2.5-.58-1.68-.84-2.52"/><path class="cls-screener5A-8" d="M2125,2187.23l.19,5.64c.45.9.92,1.8,1.41,2.69s1,1.78,1.54,2.66,1.1,1.77,1.68,2.65,1.18,1.75,1.81,2.62l-.19-5.66c-.62-.87-1.23-1.74-1.81-2.62s-1.14-1.76-1.67-2.64-1.06-1.77-1.55-2.66-1-1.79-1.41-2.68"/><path class="cls-screener5A-9" d="M2131.43,2197.8l.19,5.66c.74,1,1.52,2.07,2.32,3.09s1.65,2,2.52,3.06,1.77,2,2.7,3,1.89,2,2.89,3l-.17-5.67c-1-1-2-2-2.9-3s-1.83-2-2.7-3-1.71-2-2.52-3.06-1.58-2-2.33-3.09"/><path class="cls-screener5A-10" d="M2141.88,2210l.17,5.67c1.53,1.53,3.15,3,4.83,4.52s3.45,3,5.28,4.4,3.75,2.87,5.73,4.27,4,2.79,6.17,4.14l-.15-5.69q-3.19-2-6.18-4.13c-2-1.4-3.89-2.83-5.73-4.27s-3.6-2.91-5.29-4.4-3.3-3-4.83-4.51"/><path class="cls-screener5A-11" d="M2163.91,2227.28l.15,5.69.57.36.57.36.58.36.57.35q4.41,2.7,9.09,5.19t9.64,4.75q5,2.26,10.13,4.31t10.59,3.86l-.1-5.72q-5.4-1.82-10.6-3.85t-10.14-4.31q-5-2.27-9.65-4.74t-9.1-5.18l-.58-.36-.58-.35-.57-.36-.57-.36"/><path class="cls-screener5A-10" d="M2205.7,2246.8l.1,5.72c2.67.9,5.39,1.76,8.18,2.58s5.56,1.59,8.38,2.32,5.69,1.42,8.57,2.06,5.81,1.24,8.74,1.8l-.05-5.73c-2.94-.55-5.86-1.14-8.75-1.79s-5.75-1.31-8.58-2-5.63-1.5-8.4-2.33-5.5-1.69-8.19-2.58"/><path class="cls-screener5A-9" d="M2239.62,2255.54l.05,5.73c1.9.35,3.81.69,5.73,1s3.85.61,5.79.9,3.88.54,5.84.79,3.91.46,5.88.67v-5.73c-2-.2-3.93-.43-5.89-.67s-3.9-.5-5.84-.78-3.87-.58-5.8-.9-3.83-.66-5.73-1"/><path class="cls-screener5A-8" d="M2262.88,2258.91v5.73c1.66.17,3.32.33,5,.47l5,.39c1.66.12,3.36.22,5,.31s3.36.16,5,.22v-5.73c-1.69-.06-3.37-.13-5.05-.22s-3.37-.19-5-.31-3.35-.24-5-.39-3.33-.3-5-.47"/><path class="cls-screener5A-7" d="M2283,2260.3V2266c1.54,0,3.09.1,4.63.13s3.09,0,4.64.06,3.09,0,4.64,0,3.1,0,4.65-.08v-5.73c-1.56,0-3.11.07-4.66.08s-3.1,0-4.64,0l-4.65-.06c-1.54,0-3.09-.08-4.63-.13"/><path class="cls-screener5A-6" d="M2301.56,2260.39v5.73l4.45-.15c1.48-.06,3-.13,4.45-.21l4.45-.28c1.48-.11,3-.22,4.44-.35v-5.73c-1.48.13-3,.24-4.45.35s-3,.2-4.45.28-3,.15-4.46.21-3,.11-4.45.15"/><path class="cls-screener5A-5" d="M2319.37,2259.4v5.73l4.42-.41c1.48-.15,2.95-.31,4.42-.48s2.94-.36,4.4-.55,2.93-.4,4.39-.61l.06-5.73c-1.46.22-2.92.42-4.39.61s-2.94.38-4.41.55-3,.33-4.42.48-3,.29-4.43.41"/><path class="cls-screener5A-12" d="M2337,2257.35l-.06,5.73,4.55-.71c1.55-.25,3-.51,4.52-.78s3-.56,4.5-.86,3-.61,4.48-.93l.08-5.72c-1.49.32-3,.63-4.48.93s-3,.58-4.51.85-3,.53-4.53.78-3,.49-4.55.71"/><path class="cls-screener5A-13" d="M2355.09,2254.08l-.08,5.72,1.73-.38c.57-.12,1.15-.25,1.72-.39l1.72-.4,1.71-.41h.49l.09-5.72H2362l-1.71.41-1.72.4-1.73.39-1.73.38"/><path class="cls-screener5A-14" d="M2362.47,2252.37l-.09,5.72.22-.07.22-.08.21-.07.2-.08.1-5.72-.21.08-.21.07-.22.08-.22.07"/><path class="cls-screener5A-3" d="M2363.33,2252.07l-.1,5.72.27-.12.26-.13.24-.13.24-.13a5.6,5.6,0,0,0,.83-.62,3.81,3.81,0,0,0,.62-.71,2.74,2.74,0,0,0,.39-.76,2.45,2.45,0,0,0,.14-.8l.1-5.72a2.75,2.75,0,0,1-.14.8,2.94,2.94,0,0,1-.39.77,4.57,4.57,0,0,1-.62.7,5.06,5.06,0,0,1-.84.62l-.23.13-.25.14-.26.12-.26.12"/></g><path class="cls-screener5A-15" d="M2136,2115.34c-7.84,9.3-13.06,19-15.71,28.86A58.2,58.2,0,0,0,2120,2174c2.52,9.93,7.64,19.66,15.31,28.86s18,18,30.86,25.83a196.29,196.29,0,0,0,42,18.93,266.31,266.31,0,0,0,49.14,10.65,301.34,301.34,0,0,0,52.53,1.77,284.84,284.84,0,0,0,52-7.56l.67-.19a6.32,6.32,0,0,0,.61-.22l.56-.25c.18-.09.35-.18.51-.28a5.24,5.24,0,0,0,1.2-1,3.19,3.19,0,0,0,.66-1.14,2.6,2.6,0,0,0,.09-1.24,3,3,0,0,0-.54-1.25,4.93,4.93,0,0,0-1.6-1.41,8.56,8.56,0,0,0-2.29-.91,10.91,10.91,0,0,0-2.67-.33,11.26,11.26,0,0,0-2.77.31,261.71,261.71,0,0,1-47.83,6.92,275.74,275.74,0,0,1-48.24-1.62,244.51,244.51,0,0,1-45.16-9.76,182.67,182.67,0,0,1-38.71-17.35c-11.82-7.19-21.35-15.2-28.5-23.72s-11.87-17.4-14.24-26.54a53.7,53.7,0,0,1,.07-27.46c2.4-9.08,7.17-18,14.36-26.65a2.64,2.64,0,0,0,.66-1.48,2.3,2.3,0,0,0-.37-1.44,3.86,3.86,0,0,0-1.3-1.24,7.85,7.85,0,0,0-2.14-.88,11.69,11.69,0,0,0-5.88.13,9.1,9.1,0,0,0-1.65.68l-.43.25c-.13.09-.27.18-.39.28a2.6,2.6,0,0,0-.36.3A1.44,1.44,0,0,1,2136,2115.34Z"/></svg>