<svg id="screener3A" data-name="3a" xmlns="http://www.w3.org/2000/svg" viewBox="0 0 3844.1746 3886.9393">
  <defs>
    <style>
      #screener3A .cls-screener3A-1 {
        fill: #956eff;
      }

      #screener3A .cls-screener3A-1, #screener3A .cls-screener3A-2 {
        opacity: 0.69;
      }

      #screener3A .cls-screener3A-2, #screener3A .cls-screener3A-3 {
        fill: #7834d1;
      }

      #screener3A .cls-screener3A-3 {
        opacity: 0.7;
      }
    </style>
  </defs>
  <title>IKEA_Sleep_essentials_v5_3A</title>
  <g>
    <path class="cls-screener3A-1" d="M2289.182,2447.28463c-11.40581-13.47263-22.07073-19.02773-35.78615-16.05165-12.78137,2.77339-16.46227,7.12839-23.11078,12.61553s-15.95366,19.35348-15.29422,30.74536c.45071,7.78591,3.93814,11.17512,1.83663,16.45316-4.42284,11.10834-15.87083,14.98915-20.87258,14.654s-28.25055-12.75066-46.10615-16.67843c-27.74153-6.10242-153.10129,52.01448-155.74513,52.995s-22.09109-4.49085-23.83975-4.50918-3.09672-.04264-3.80633,1.95585c-1.03483,2.91483,8.65983,4.12345,9.15259,6.18607s-18.93676,3.28584-21.22592,7.16355a6.21989,6.21989,0,0,0,.86953,7.38092c1.34114,1.59832,9.18173,13.15506,16.92612,12.35174,7.74452-.8035,24.66961-15.74815,26.36649-16.67677s103.103-23.73526,107.25922-22.29472c-16.33073,9.90025-40.59445,23.84211-41.20925,23.84211,0,0-74.65285,6.09984-95.391,10.14629s-102.90028,25.10128-110.877,28.93011c-12.64512,6.06964-10.62192,28.21578-12.13929,51.28473s-12.64523,54.429-12.64523,54.429,1.833.0005,4.47733.19131c-.261,2.0146-1.28828,7.59286-4.47733,8.53387,0,0-21.63375-1.314-26.4284-2.65548-7.5734-2.11893-28.45171-7.96644-31.29685-4.93159s-3.79359,5.88-3.03485,9.29421,2.46582,18.96779,10.05289,23.52,31.48656-.18966,36.60792.9484,26.93412,13.27745,34.33159,7.96649,4.74193-10.81163,6.44913-18.58842c1.707-7.77678,3.239-10.93577,3.239-10.93577l-.01456-.02173c1.64543,2.06362,2.65554,3.56,2.65554,3.56s4.58972-16.69378,9.10444-27.88263c4.36273-10.81164,12.95031-24.65917,13.973-35.2801.95386-9.9057,2.1442-22.0515,2.1442-22.0515L2022.21,2630.8884s-33.38325,28.31643-48.5575,46.02412-21.49687,26.30635-29.58976,32.88183-81.37172,53.29948-81.37172,53.29948c.045,0,.16633.09866.34413.27867l-.34413-.27867s-13.46717,10.81164-21.43367,8.91484-22.00258-10.622-28.45171-14.41551-8.72512-12.8779-15.17414-11.18091-6.82844,14.59513,3.41417,28.63127,20.10578,28.45166,23.52006,39.453,18.96784,9.1045,25.03743,0c4.32512-6.48756,14.61736-15.86025,20.59077-20.57747-.33971,2.76826-.09463,5.06224,1.8786,4.39162,4.46486-1.51742,42.90627-19.72647,54.034-23.773s34.395-14.1626,42.48779-26.80778c8.093-12.64517,34.3949-23.773,41.47626-27.81942s62.21427-33.3833,72.8363-41.982,49.69555-40.21169,49.69555-40.21169l-.01213-.12662.01213.12662,27.01828-17.52172c.56781,1.78275,1.05456,3.23394,1.43343,4.24427,3.41428,9.10455,13.27746,19.34715,20.86453,22.00264s16.31231,1.13805,20.48522-2.65549c4.1236-3.74875,41.28433-35.031,41.43059-35.77053,3.51519-2.55142,18.60143-15.44239,27.64488-32.1896,10.24271-18.96779-6.63884-27.83024-10.27537-31.05171-5.64946-5.00483-10.1907-11.52236-11.02638-14.15571s-4.11327-11.35417,4.47994-15.25772c5.80667-2.63774,27.62682-8.31953,35.99094-23.59824C2299.01287,2476.48427,2300.5877,2460.75731,2289.182,2447.28463Z"/>
    <path class="cls-screener3A-2" d="M2133.03731,2532.40825a6.75478,6.75478,0,0,0,.8263,4.73242c1.42724,2.70424,3.29116,5.73722,3.29116,5.73722a.803.803,0,0,0,.57273-.87383,6.82774,6.82774,0,0,0-.78495-2.388c-.41131-.83378-2.92569-5.11506-3.18-6.041s-.5306-1.673.10449-2.33067C2133.867,2531.24432,2133.319,2531.41293,2133.03731,2532.40825Z"/>
    <path class="cls-screener3A-3" d="M1863.44966,2715.52852s9.00393-28.07709,11.20738-33.68589,9.41477-17.42733,9.8154-22.03456,2.20345-31.07373,2.8044-30.66059,147.6541-13.34522,147.6541-13.34522L2022.21,2630.8884l-130.88318,2.98593s-2.02059,20.18536-2.28412,23.20978-2.37463,8.85123-3.02261,10.44454-8.918,19.0562-10.15687,22.10668-3.59386,9.01558-5.78639,16.14888-3.97164,13.30435-3.97164,13.30435Z"/>
    <path class="cls-screener3A-3" d="M2180.18968,2595.064c.84792-.15775,50.27545-21.49121,50.27545-21.49121l-45.192,29.7623Z"/>
    <path class="cls-screener3A-3" d="M2169.41353,2637.31307s19.43632,8.52309,33.40824-.94176,71.80865-58.884,71.86491-70.69481c0,0-.17376,18.37479-35.20742,47.34652s-37.29148,35.98967-52.72049,34.75524C2175.62912,2646.88781,2169.41353,2637.31307,2169.41353,2637.31307Z"/>
    <path class="cls-screener3A-3" d="M1838.02111,2702.39853s17.02557,3.14738,25.42855,13.13l-1.78014,5.19849s-14.85365-14.86512-23.869-16.9592Z"/>
    <path class="cls-screener3A-3" d="M2292.99931,2452.67734s7.09943,17.97972-7.3977,37.9654c-11.55943,15.93577-33.52788,26.30066-33.52788,26.30066s31.15215-9.938,38.57479-25.18043S2299.91858,2463.67471,2292.99931,2452.67734Z"/>
    <g>
      <path class="cls-screener3A-3" d="M2159.62063,2620.19511s-1.37619-4.90208-3.32813-11.71767l-.00011-.00011h0c-4.2446-14.82053-11.21367-38.69609-12.68858-40.94131-2.15324-3.27784-15.1351-4.78975-18.88424-6.63134s-11.288-4.53386-12.35216-13.02217c0,0-.74054,4.31541-.00078,7.06106.765,2.83929,5.0575,8.56877,13.98524,10.216,9.79337,1.807,13.8755,4.04248,14.70185,6.74671.5644,1.84722,7.81815,24.48,12.399,38.61556-4.1065,2.95721-12.31146,8.86753-22.19615,15.99653-8.04294-16.94647-27.16983-33.79758-33.777-39.29914,15.00362,12.79005,24.53922,33.43729,28.43086,43.1556-26.006,18.76319-59.85577,43.24042-63.728,46.31266-6.37876,5.06091-78.75478,49.62485-84.564,53.23049s-15.42408,14.22233-20.03145,21.033c-4.60715,6.81068-29.44605,16.22545-33.0518,17.62767-3.49854,1.36052-49.80552,21.95659-52.55227,23.17841-1.5948-14.28431-17.36841-23.83954-16.95921-23.53032,5.86675,4.43316,12.9651,27.48423,12.9651,27.48423l2.43471-2.00395a6.74827,6.74827,0,0,0-.32052,2.83494c.27872,3.70022,1.96948,1.76868,6.209,0s56.46112-23.83182,73.82325-33.1262c17.54753-9.3937,16.516-14.44286,20.32042-18.20072,5.331-5.26574,10.39284-9.9887,17.51423-13.60317,12.69332-6.44234,76.02535-41.68554,86.44763-47.93326s39.77811-31.06919,50.19-39.49343c8.40846-6.80329,26.06431-18.25989,32.55028-22.41857l.01036.01892C2157.29246,2621.70493,2159.62063,2620.19511,2159.62063,2620.19511Z"/>
      <path class="cls-screener3A-3" d="M2096.4803,2586.39334c-.83341-.68159-1.30262-1.04811-1.30262-1.04811C2095.61865,2585.68407,2096.04815,2586.04077,2096.4803,2586.39334Z"/>
      <path class="cls-screener3A-3" d="M2097.4796,2587.21925c-.32946-.28087-.66444-.55281-.9993-.82591C2096.76729,2586.62806,2097.1101,2586.91152,2097.4796,2587.21925Z"/>
    </g>
    <path class="cls-screener3A-3" d="M1978.91846,2566.0128c.96076-.13152,14.4145-13.343,17.67472-14.15917s56.82971-12.54344,73.01237-14.79253,36.2-3.48611,36.2-3.48611-63.375,10.49233-107.25922,22.29472l-12.89919,9.80679Z"/>
  </g>
</svg>
