<svg id="screener3C" data-name="3c" xmlns="http://www.w3.org/2000/svg" viewBox="0 0 3844.1746 3886.9393">
  <defs>
    <style>
      #screener3C .cls-screener3C-1 {
        fill: #565e66;
      }

      #screener3C .cls-screener3C-2 {
        fill: #f9f9f9;
      }

      #screener3C .cls-screener3C-3 {
        fill: #956eff;
      }

      #screener3C .cls-screener3C-3, #screener3C .cls-screener3C-4 {
        opacity: 0.69;
      }

      #screener3C .cls-screener3C-4, #screener3C .cls-screener3C-5 {
        fill: #7834d1;
      }

      #screener3C .cls-screener3C-5 {
        opacity: 0.7;
      }
    </style>
  </defs>
  <title>IKEA_Sleep_essentials_v5_3C</title>
  <path class="cls-screener3C-1" d="M2070.067,2701.18509s-85.79558-4.90421-124.70288,26.479-43.89542,52.33327-50.87878,57.32138,42.30606-39.33813,77.8146-56.74154C1996.46166,2716.40176,2070.067,2701.18509,2070.067,2701.18509Z"/>
  <path class="cls-screener3C-1" d="M1629.18326,2724.50357s46.71961-54.29243,72.65781-67.20433,67.83837-15.46188,67.83837-15.46188-51.8764,17.71013-65.84313,27.58847S1629.18326,2724.50357,1629.18326,2724.50357Z"/>
  <path class="cls-screener3C-1" d="M1854.55872,2648.98646s19.796-33.46154,43.81721-41.17254,54.07062-6.71337,54.07062-6.71337-42.09911,11.36941-58.21375,19.29009C1880.37767,2627.20073,1854.55872,2648.98646,1854.55872,2648.98646Z"/>
  <path class="cls-screener3C-1" d="M1917.00184,2870.706s19.79605-33.46153,43.81721-41.17253,54.07061-6.71338,54.07061-6.71338-40.12025,11.52154-58.21374,19.2901C1940.08226,2849.23477,1917.00184,2870.706,1917.00184,2870.706Z"/>
  <path class="cls-screener3C-2" d="M2033.34477,2497.45658c6.07794-7.94369,16.12791-18.53833,27.28338-22.11933,18.30415-5.87579,41.20186-5.1156,41.20186-5.1156s-30.57167,8.77942-44.35892,14.69907c-6.86663,2.94823-15.191,9.12047-21.36474,14.14561Z"/>
  <path class="cls-screener3C-2" d="M2335.64471,2582.41028c-6.19214,1.41344-12.33659,3.69133-17.15169,7.27547-15.421,11.47867-28.1124,30.55251-28.1124,30.55251s24.91455-19.773,37.74564-27.55075a76.01927,76.01927,0,0,1,14.41759-6.27586Z"/>
  <path class="cls-screener3C-1" d="M1751.84345,2772.87723s19.796-33.46153,43.81721-41.17253,54.07062-6.71338,54.07062-6.71338-42.0991,11.36942-58.21374,19.2901C1777.6624,2751.0915,1751.84345,2772.87723,1751.84345,2772.87723Z"/>
  <path class="cls-screener3C-1" d="M2206.101,2723.31846s-66.74065-3.815-97.00677,20.59807-34.14638,40.71021-39.57876,44.59048,32.91-30.60126,60.53223-44.13943C2148.84323,2735.15555,2206.101,2723.31846,2206.101,2723.31846Z"/>
  <path class="cls-screener3C-1" d="M1560.00024,2691.49327s19.796-33.46153,43.81721-41.17253,54.07062-6.71338,54.07062-6.71338-42.0991,11.36942-58.21374,19.2901C1585.81919,2669.70755,1560.00024,2691.49327,1560.00024,2691.49327Z"/>
  <path class="cls-screener3C-2" d="M2169.70876,2549.61327s12.97306-21.92855,28.715-26.98184,35.43441-4.39952,35.43441-4.39952-27.58905,7.45079-38.14955,12.6415C2186.62884,2535.3363,2169.70876,2549.61327,2169.70876,2549.61327Z"/>
  <path class="cls-screener3C-1" d="M1732.36665,2594.5388s46.7196-54.29244,72.65781-67.20433,67.83837-15.46188,67.83837-15.46188-51.8764,17.71013-65.84313,27.58846S1732.36665,2594.5388,1732.36665,2594.5388Z"/>
  <g>
    <path class="cls-screener3C-3" d="M2290.38062,2563.327l-37.14582-15.49572-42.57151-22.784a1.453,1.453,0,0,1-.73779.08543l.73779-.08543s1.56215-12.2722,7.02951-14.355,9.294,2.10047,17.675,1.18618c8.263-.90142,14.65059-7.65467,22.37774-18.92232,7.02555-10.24452,10.17848-24.41221,9.77269-30.72195-.86319-13.42283-3.34846-21.67941-19.23016-30.53149s-32.4509-5.6088-46.19,9.22039c-12.18872,13.15579-13.17454,41.32216-14.86674,44.51469-1.69241,3.19252,0,0-2.34317,3.645s-12.23679,3.645-12.23679,3.645c-.86617-.43309-11.46471-5.90271-28.78614-5.03715.10236-.06005.1574-.09607.14714-.09893-.27939-.07832-15.10068-9.18347-27.59767-3.45564-12.4628,5.71211-14.82726,25.3043-14.84016,25.41162-18.31455,17.25574-36.04452,39.73-41.91734,44.62394-9.37279,7.81064-52.44075,9.87981-64.52159,13.83435s-39.09978,17.929-64.61458,39.79884-53.6333,42.17753-56.23678,44.2604-125.67982,52.90076-127.96464,54.80478c-2.34323,1.95266-1.16993,4.51538.39051,4.55624,0,0-42.17758,26.56076-46.47342,30.07558s-3.12424,20.69825-2.34322,26.94675,18.74559-4.29584,23.432-7.42014c2.96944-1.97963,27.41639-13.68065,44.93343-21.98995,11.13415-1.9445,136.75005-52.08566,138.74722-52.08566,2.08286,0,91.64509-42.17753,92.68653-41.65681s2.08275,9.89346-5.20706,21.86984c-7.29,11.97632-28.63911,42.17753-28.63911,42.17753s-24.9942,3.645-56.23678,15.62134-64.04742,30.72192-67.69233,38.53257c-2.34317,1.30179-9.89352,2.08286-14.05925,1.82251s-16.142-1.56216-17.18344,10.67453,7.02962,22.65092,5.72788,31.76335-9.63321,35.40832-2.34328,36.44976,11.45567-17.44381,16.66284-25.77517c4.27923-6.84686,22.68191-20.6249,29.108-25.32051,4.29269-1.4941,76.34047-29.6421,95.60215-30.65591,19.78692-1.04143,36.44964-4.6864,44.2604-13.53848s89.56222-100.49712,89.56222-100.49712,13.3978-9.0885,30.40222-19.04808c15.62438-9.15143,41.97657-20.52591,60.72216-33.023,8.5856-5.7237,12.62238-9.502,21.83342-13.10874s23.171-5.4898,30.42965-3.57814,28.25792,7.51455,33.65414,9.39695c11.19525,3.90532,48.426,11.97632,52.85206,2.34322s3.371-17.31658,3.371-17.31658l-29.69906-17.44711ZM1860.0641,2791.49461l2.41354-1.89569a34.89951,34.89951,0,0,1-2.86985,2.22294C1859.894,2791.616,1860.0641,2791.49461,1860.0641,2791.49461Z"/>
    <polygon class="cls-screener3C-4" points="1997.693 2645.296 1993.188 2638.815 1910.883 2680.894 1765.456 2739.024 1767.985 2739.024 1910.002 2686.355 1997.693 2645.296"/>
    <path class="cls-screener3C-4" d="M1746.71014,2711.42617s23.3779-8.92278,31.03992,2.20669-12.29434,25.391-12.29434,25.391,14.69811-16.66528,8.68868-24.62776C1768.1071,2706.39664,1746.71014,2711.42617,1746.71014,2711.42617Z"/>
    <path class="cls-screener3C-4" d="M2202.94463,2574.52668c-13.98668,2.497-92.27236,52.58249-99.45034,55.70944-3.11294,1.35617-9.74218,5.97909-16.49981,11.22-3.74561-38.65329-45.29587-61.26814-45.29587-61.26814,33.39317,29.12652,39.62787,52.73587,39.9784,65.50149-6.8634,5.60722-12.8988,11.12769-14.27256,13.57013-3.04136,5.40686-59.11773,68.26528-66.62958,78.12256s-19.3804,16.4508-28.09406,17.878c-7.76412,1.27171-25.46494,3.3803-38.6857,6.86478-9.19382,2.42314-74.41292,27.33429-78.18322,25.07053s-15.8945-23.69825-15.8945-23.69825l11.76262,34.20259,5.94154-4.52211v0s61.12466-23.11933,76.674-26.64987c4.04244-.91784,10.39932-2.64575,16.601-3.60565,7.10481-1.09968,14.06054-1.40035,18.02828-1.878,8.11272-.97653,23.13869-6.13909,26.141-9.54s76.24054-85.20351,85.37553-95.44567,34.13692-26.2452,71.619-44.62267c22.91087-10.46778,34.9345-23.87289,50.88423-29.16807a61.63836,61.63836,0,0,1,32.57207-1.31364S2216.93131,2572.02963,2202.94463,2574.52668Z"/>
    <path class="cls-screener3C-4" d="M2205.73226,2522.30932c.15024-.15023,3.45542-12.31932,7.662-15.02356s12.21467.94921,17.62316,1.71225,11.53477,1.00966,14.38647-1.54984c0,0-4.73868,4.29048-10.03608,4.43025s-5.079.14392-7.75029-.50435-7.6055-2.24084-10.61391-.34766-4.86474,6.693-6.34034,14.02084Z"/>
    <polygon class="cls-screener3C-5" points="2290.381 2563.327 2320.346 2580.44 2320.52 2574.086 2290.821 2556.639 2290.381 2563.327"/>
  </g>
</svg>
