<svg id="_5c" data-name="5c" xmlns="http://www.w3.org/2000/svg" xmlns:xlink="http://www.w3.org/1999/xlink" viewBox="0 0 3844.17 3886.94">
  <defs>
    <style>
      .cls-screener5C-1 {
        fill: none;
      }

      .cls-screener5C-2 {
        isolation: isolate;
      }

      .cls-screener5C-3 {
        clip-path: url(#clip-screener5C-path);
      }

      .cls-screener5C-4 {
        fill: #858585;
      }

      .cls-screener5C-5 {
        clip-path: url(#clip-screener5C-path-2);
      }

      .cls-screener5C-6 {
        fill: #949494;
      }

      .cls-screener5C-7 {
        fill: #999;
      }

      .cls-screener5C-8 {
        fill: #9e9e9e;
      }

      .cls-screener5C-9 {
        fill: #a3a3a3;
      }

      .cls-screener5C-10 {
        fill: #a8a8a8;
      }

      .cls-screener5C-11 {
        fill: #adadad;
      }

      .cls-screener5C-12 {
        fill: #b3b3b3;
      }

      .cls-screener5C-13 {
        fill: #b8b8b8;
      }

      .cls-screener5C-14 {
        fill: #8f8f8f;
      }

      .cls-screener5C-15 {
        fill: #8a8a8a;
      }

      .cls-screener5C-16 {
        fill: #e3e3e3;
      }

      .cls-screener5C-17 {
        clip-path: url(#clip-screener5C-path-3);
      }

      .cls-screener5C-18 {
        clip-path: url(#clip-screener5C-path-4);
      }

      .cls-screener5C-19 {
        clip-path: url(#clip-screener5C-path-5);
      }

      .cls-screener5C-20 {
        clip-path: url(#clip-screener5C-path-6);
      }
    </style>
    <clipPath id="clip-screener5C-path">
      <path class="cls-screener5C-1" d="M2317.2,2045.64l0,7.15a31.72,31.72,0,0,1,.76-6.77,33.78,33.78,0,0,1,2.22-6.68,40.42,40.42,0,0,1,3.68-6.5,49.78,49.78,0,0,1,5.18-6.26,4.55,4.55,0,0,0,.46-.54,3.27,3.27,0,0,0,.32-.57,3.23,3.23,0,0,0,.2-.57,2.78,2.78,0,0,0,.06-.58l0-7.11a2.86,2.86,0,0,1-.06.58,3.23,3.23,0,0,1-.2.57,2.87,2.87,0,0,1-.32.56,4.62,4.62,0,0,1-.46.55,48.79,48.79,0,0,0-5.18,6.24,40.57,40.57,0,0,0-3.7,6.5,35.27,35.27,0,0,0-2.22,6.67A32.28,32.28,0,0,0,2317.2,2045.64Z"/>
    </clipPath>
    <clipPath id="clip-screener5C-path-2">
      <path class="cls-screener5C-1" d="M2300,2045.89c0,2.39,0,4.77,0,7.15a39.25,39.25,0,0,0,2.17,12.83,49,49,0,0,0,6.54,12.47,67,67,0,0,0,10.86,11.71,95,95,0,0,0,15.09,10.51,141.41,141.41,0,0,0,31.48,12.82,192.44,192.44,0,0,0,36.29,6.39,207.38,207.38,0,0,0,37.79-.37,176,176,0,0,0,35.92-7.39l.52-.19.49-.2.46-.22.43-.24a6.3,6.3,0,0,0,1-.72,4.52,4.52,0,0,0,.73-.8,3.48,3.48,0,0,0,.46-.87,3,3,0,0,0,.18-.92l.22-7.21a3.18,3.18,0,0,1-.17.91,3.65,3.65,0,0,1-.46.87,5,5,0,0,1-.74.81,7.23,7.23,0,0,1-1,.72c-.14.08-.28.16-.43.23a4.91,4.91,0,0,1-.46.22l-.49.2-.52.19a176.27,176.27,0,0,1-36,7.38,207.82,207.82,0,0,1-37.83.37,193,193,0,0,1-36.34-6.38,141.65,141.65,0,0,1-31.51-12.81,94.67,94.67,0,0,1-15.11-10.49,67,67,0,0,1-10.87-11.7,48.52,48.52,0,0,1-6.55-12.46A39.36,39.36,0,0,1,2300,2045.89Z"/>
    </clipPath>
    <clipPath id="clip-screener5C-path-3">
      <path class="cls-screener5C-1" d="M2207.22,2079.55l.09,7.19a49.88,49.88,0,0,1,.86-9.8,52.65,52.65,0,0,1,2.84-9.67,59.34,59.34,0,0,1,4.82-9.45,71.32,71.32,0,0,1,6.83-9.13,4.36,4.36,0,0,0,.38-.53,2.94,2.94,0,0,0,.27-.53,2.21,2.21,0,0,0,.16-.54,2.47,2.47,0,0,0,.05-.54l-.07-7.14a3.29,3.29,0,0,1,0,.54,2.76,2.76,0,0,1-.16.54,2.94,2.94,0,0,1-.27.53,3.71,3.71,0,0,1-.39.52,72,72,0,0,0-6.83,9.13,59.73,59.73,0,0,0-4.83,9.44,52.1,52.1,0,0,0-2.84,9.66A48.93,48.93,0,0,0,2207.22,2079.55Z"/>
    </clipPath>
    <clipPath id="clip-screener5C-path-4">
      <path class="cls-screener5C-1" d="M2089.14,2121.9q.11,3.61.23,7.23a69.18,69.18,0,0,1,1-13.9,75.4,75.4,0,0,1,3.79-13.8,85.47,85.47,0,0,1,6.61-13.56,104.39,104.39,0,0,1,9.42-13.2,4,4,0,0,0,.39-.55,3.2,3.2,0,0,0,.27-.56,2.75,2.75,0,0,0,.16-.56,3.52,3.52,0,0,0,0-.56l-.2-7.17a2.65,2.65,0,0,1,0,.56,2.73,2.73,0,0,1-.15.56,3.58,3.58,0,0,1-.27.56,4.65,4.65,0,0,1-.39.55,103.51,103.51,0,0,0-9.44,13.19,84.87,84.87,0,0,0-6.61,13.54,74.45,74.45,0,0,0-3.8,13.78A69.08,69.08,0,0,0,2089.14,2121.9Z"/>
    </clipPath>
    <clipPath id="clip-screener5C-path-5">
      <path class="cls-screener5C-1" d="M2190,2080l.11,7.19a57.81,57.81,0,0,0,3.34,18.26,71.7,71.7,0,0,0,9.42,17.83,99.06,99.06,0,0,0,15.45,16.86,140.38,140.38,0,0,0,21.41,15.31,203.74,203.74,0,0,0,43.85,18.87,270.76,270.76,0,0,0,50.54,10.08,293.38,293.38,0,0,0,53,.72,258,258,0,0,0,51.17-9.06l.64-.2c.21-.07.41-.15.6-.23l.55-.26c.18-.09.35-.18.51-.28a6.34,6.34,0,0,0,1-.73,4.5,4.5,0,0,0,.72-.81,4,4,0,0,0,.46-.89,3.25,3.25,0,0,0,.17-.93l.18-7.29a2.94,2.94,0,0,1-.17.93,3.73,3.73,0,0,1-.45.89,5,5,0,0,1-.73.82,6.48,6.48,0,0,1-1,.72c-.16.1-.33.19-.5.28s-.36.18-.56.26-.39.16-.6.23l-.64.2a258.58,258.58,0,0,1-51.23,9,294,294,0,0,1-53.08-.71,272.46,272.46,0,0,1-50.61-10.07,204.35,204.35,0,0,1-43.9-18.85,139.85,139.85,0,0,1-21.43-15.29,99.08,99.08,0,0,1-15.47-16.84,72,72,0,0,1-9.43-17.81A57.13,57.13,0,0,1,2190,2080Z"/>
    </clipPath>
    <clipPath id="clip-screener5C-path-6">
      <path class="cls-screener5C-1" d="M2071.42,2123.13c.09,2.41.17,4.82.26,7.24a77.24,77.24,0,0,0,4.46,23.16,93.73,93.73,0,0,0,11.78,22.55,126.92,126.92,0,0,0,19.09,21.33,177.64,177.64,0,0,0,26.38,19.51,252.46,252.46,0,0,0,54.11,24.4,340.71,340.71,0,0,0,63.23,13.74,385.7,385.7,0,0,0,67.58,2.28,366.23,366.23,0,0,0,67-9.74l.85-.24.79-.29c.25-.1.49-.21.72-.32s.45-.24.66-.37a6.05,6.05,0,0,0,1.08-.8,5.56,5.56,0,0,0,.8-.9,4.15,4.15,0,0,0,.49-1,3.29,3.29,0,0,0,.19-1h0l.12-7.36a3.06,3.06,0,0,1-.18,1,3.79,3.79,0,0,1-.5,1,4.79,4.79,0,0,1-.8.9,6.05,6.05,0,0,1-1.08.8c-.2.13-.42.25-.65.37l-.73.32-.79.29-.85.24a367.06,367.06,0,0,1-67.07,9.73,387.62,387.62,0,0,1-67.66-2.27,342.26,342.26,0,0,1-63.3-13.73,253,253,0,0,1-54.18-24.38,178.93,178.93,0,0,1-26.41-19.48,127.41,127.41,0,0,1-19.11-21.31,94,94,0,0,1-11.79-22.52A77.5,77.5,0,0,1,2071.42,2123.13Z"/>
    </clipPath>
  </defs>
  <title>IKEA_Sleep_essentials_v5_5C</title>
  <g>
    <g class="cls-screener5C-2">
      <g class="cls-screener5C-2">
        <g class="cls-screener5C-3">
          <g class="cls-screener5C-2">
            <path class="cls-screener5C-4" d="M2317.2,2045.64l0,7.15a31.72,31.72,0,0,1,.76-6.77,33.78,33.78,0,0,1,2.22-6.68,40.42,40.42,0,0,1,3.68-6.5,49.78,49.78,0,0,1,5.18-6.26,4.55,4.55,0,0,0,.46-.54,3.27,3.27,0,0,0,.32-.57,3.23,3.23,0,0,0,.2-.57,2.78,2.78,0,0,0,.06-.58l0-7.11a2.86,2.86,0,0,1-.06.58,3.23,3.23,0,0,1-.2.57,2.87,2.87,0,0,1-.32.56,4.62,4.62,0,0,1-.46.55,48.79,48.79,0,0,0-5.18,6.24,40.57,40.57,0,0,0-3.7,6.5,35.27,35.27,0,0,0-2.22,6.67,32.28,32.28,0,0,0-.76,6.76"/>
          </g>
        </g>
      </g>
      <g class="cls-screener5C-2">
        <g class="cls-screener5C-5">
          <g class="cls-screener5C-2">
            <path class="cls-screener5C-6" d="M2300,2045.89v7.54c0,.13,0,.27,0,.4s0,.26,0,.39,0,.26,0,.39v-7.14c0-.14,0-.27,0-.4s0-.26,0-.39v-.39c0-.13,0-.27,0-.4"/>
            <path class="cls-screener5C-7" d="M2300,2047.47v7.14c0,.55.06,1.1.1,1.65s.1,1.09.17,1.64.16,1.1.25,1.64.2,1.1.32,1.64V2054c-.11-.55-.22-1.09-.31-1.64s-.18-1.09-.25-1.64-.13-1.09-.17-1.64-.08-1.1-.11-1.64"/>
            <path class="cls-screener5C-8" d="M2300.82,2054v7.15c.11.55.24,1.09.38,1.64s.3,1.08.46,1.63.35,1.08.53,1.62.39,1.08.61,1.62v-7.17c-.21-.53-.41-1.07-.6-1.61s-.36-1.08-.53-1.62-.32-1.09-.46-1.63-.27-1.09-.39-1.63"/>
            <path class="cls-screener5C-9" d="M2302.8,2060.52v7.17c.21.55.45,1.11.69,1.66s.5,1.1.77,1.65.55,1.1.84,1.65.6,1.09.92,1.63l0-7.17c-.32-.54-.62-1.09-.92-1.63s-.57-1.1-.84-1.65-.53-1.1-.77-1.65-.48-1.1-.7-1.66"/>
            <path class="cls-screener5C-10" d="M2306,2067.11l0,7.17c.35.59.71,1.18,1.08,1.76s.77,1.16,1.17,1.74.82,1.16,1.26,1.73.88,1.15,1.34,1.72l0-7.19c-.47-.56-.91-1.13-1.35-1.71s-.85-1.14-1.26-1.72-.79-1.16-1.16-1.75-.74-1.16-1.09-1.75"/>
            <path class="cls-screener5C-11" d="M2310.89,2074l0,7.19c.54.66,1.1,1.32,1.68,2s1.18,1.31,1.8,2,1.25,1.28,1.91,1.92,1.34,1.27,2,1.9l0-7.19c-.7-.63-1.38-1.26-2-1.9s-1.3-1.27-1.92-1.92-1.22-1.29-1.8-1.95-1.14-1.31-1.68-2"/>
            <path class="cls-screener5C-12" d="M2318.32,2081.79l0,7.19c1.05.95,2.16,1.88,3.3,2.81s2.35,1.83,3.58,2.73,2.52,1.77,3.85,2.64,2.7,1.71,4.11,2.55l0-7.21c-1.41-.83-2.79-1.68-4.11-2.54s-2.61-1.75-3.85-2.64-2.44-1.8-3.59-2.73-2.25-1.86-3.31-2.8"/>
            <path class="cls-screener5C-13" d="M2333.18,2092.5l0,7.21.37.21.36.21.37.22.37.21c2,1.12,4,2.19,6.09,3.22s4.23,2,6.42,2.95,4.43,1.83,6.71,2.68,4.61,1.64,7,2.39l.09-7.21q-3.55-1.12-7-2.4t-6.72-2.67c-2.2-.93-4.34-1.92-6.43-2.94s-4.12-2.11-6.09-3.23l-.37-.21-.37-.21-.37-.21-.37-.22"/>
            <path class="cls-screener5C-12" d="M2360.89,2104.59l-.09,7.21q2.7.85,5.46,1.63t5.58,1.46q2.82.69,5.69,1.3t5.79,1.12l.11-7.22c-1.94-.35-3.88-.72-5.79-1.13s-3.82-.83-5.7-1.29-3.74-1-5.59-1.46-3.66-1.06-5.46-1.62"/>
            <path class="cls-screener5C-11" d="M2383.43,2110.09l-.11,7.22c1.27.23,2.55.44,3.84.65s2.57.39,3.86.57,2.6.34,3.9.5,2.61.29,3.92.42l.13-7.22c-1.31-.13-2.62-.27-3.92-.43s-2.61-.32-3.9-.5-2.59-.36-3.88-.57-2.56-.42-3.84-.64"/>
            <path class="cls-screener5C-10" d="M2399,2112.23l-.13,7.22c1.1.11,2.21.21,3.32.3s2.23.18,3.34.25,2.23.14,3.35.2l3.35.14.15-7.23L2409,2113c-1.12-.06-2.24-.12-3.35-.2s-2.23-.15-3.34-.24-2.22-.19-3.33-.3"/>
            <path class="cls-screener5C-9" d="M2412.35,2113.11l-.15,7.23,3.07.08,3.07,0h3.06c1,0,2,0,3.07-.06l.16-7.22-3.07,0h-3.07l-3.07,0-3.07-.08"/>
            <path class="cls-screener5C-8" d="M2424.63,2113.17l-.16,7.22c1,0,2,0,2.93-.09s1.95-.08,2.92-.14l2.92-.17,2.9-.22.18-7.23-2.91.22-2.92.18-2.93.13-2.93.1"/>
            <path class="cls-screener5C-7" d="M2436.32,2112.54l-.18,7.23,2.88-.26c1-.09,1.92-.19,2.87-.3s1.9-.22,2.85-.34l2.85-.38.18-7.23c-.94.14-1.89.26-2.84.39l-2.86.34-2.87.29c-1,.1-1.92.18-2.88.26"/>
            <path class="cls-screener5C-6" d="M2447.77,2111.26l-.18,7.23,2.92-.44c1-.15,1.95-.32,2.92-.48l2.89-.53,2.87-.58.2-7.22c-1,.2-1.91.39-2.88.57s-1.92.36-2.89.53-1.94.33-2.91.48-2,.3-2.94.44"/>
            <path class="cls-screener5C-14" d="M2459.39,2109.24l-.2,7.22c1-.21,2.06-.44,3.08-.67s2-.47,3.05-.72,2-.51,3-.78,2-.54,3-.83l.21-7.22-3,.83c-1,.27-2,.52-3,.77s-2,.5-3.06.73l-3.08.67"/>
            <path class="cls-screener5C-15" d="M2471.54,2106.24l-.21,7.22,1.19-.35,1.2-.36,1.18-.37,1.18-.37.17-.06.17-.06.17-.06.16-.07.22-7.21-.16.06-.17.06-.17.06-.17.06-1.18.37-1.19.37-1.19.36-1.2.35"/>
            <path class="cls-screener5C-4" d="M2477,2104.55l-.22,7.21.33-.13.31-.15a2.11,2.11,0,0,0,.3-.16,2.69,2.69,0,0,0,.29-.16,6.3,6.3,0,0,0,1-.72,4.52,4.52,0,0,0,.73-.8,3.48,3.48,0,0,0,.46-.87,3,3,0,0,0,.18-.92l.22-7.21a3.18,3.18,0,0,1-.17.91,3.65,3.65,0,0,1-.46.87,5,5,0,0,1-.74.81,7.23,7.23,0,0,1-1,.72l-.28.16-.3.15-.32.15-.33.14"/>
          </g>
        </g>
      </g>
      <path class="cls-screener5C-16" d="M2314.06,2014.86a49.41,49.41,0,0,0-12.36,19.77,37.85,37.85,0,0,0-.54,20.83,49.52,49.52,0,0,0,11.07,20.18,85.36,85.36,0,0,0,22.43,17.71,141.65,141.65,0,0,0,31.51,12.81,193,193,0,0,0,36.34,6.38,207.82,207.82,0,0,0,37.83-.37,176.27,176.27,0,0,0,36-7.38l.52-.19.49-.2a4.91,4.91,0,0,0,.46-.22c.15-.07.29-.15.43-.23a5.89,5.89,0,0,0,1.56-1.31,3.55,3.55,0,0,0,.75-1.52,3,3,0,0,0-.13-1.6,4.27,4.27,0,0,0-1.08-1.57,7.72,7.72,0,0,0-2.34-1.53,12.57,12.57,0,0,0-3.05-.88,15.13,15.13,0,0,0-3.37-.17,14,14,0,0,0-3.31.6,150.43,150.43,0,0,1-30.52,6.25,177.39,177.39,0,0,1-32.1.31,164.35,164.35,0,0,1-30.85-5.41,120.94,120.94,0,0,1-26.81-10.85,73.36,73.36,0,0,1-19.15-15,42.51,42.51,0,0,1-9.52-17.15,32.11,32.11,0,0,1,.35-17.73,41.9,41.9,0,0,1,10.43-16.88,3.51,3.51,0,0,0,1-1.81,2.78,2.78,0,0,0-.31-1.82,4.73,4.73,0,0,0-1.52-1.63,9.1,9.1,0,0,0-2.6-1.21,14.08,14.08,0,0,0-2.66-.53,15.35,15.35,0,0,0-2.71,0,13.82,13.82,0,0,0-2.56.45,9.64,9.64,0,0,0-2.2.89l-.41.24-.38.26-.35.27C2314.26,2014.66,2314.15,2014.75,2314.06,2014.86Z"/>
    </g>
    <g class="cls-screener5C-2">
      <g class="cls-screener5C-2">
        <g class="cls-screener5C-17">
          <g class="cls-screener5C-2">
            <path class="cls-screener5C-4" d="M2207.22,2079.55l.09,7.19a49.88,49.88,0,0,1,.86-9.8,52.65,52.65,0,0,1,2.84-9.67,59.34,59.34,0,0,1,4.82-9.45,71.32,71.32,0,0,1,6.83-9.13,4.36,4.36,0,0,0,.38-.53,2.94,2.94,0,0,0,.27-.53,2.21,2.21,0,0,0,.16-.54,2.47,2.47,0,0,0,.05-.54l-.07-7.14a3.29,3.29,0,0,1,0,.54,2.76,2.76,0,0,1-.16.54,2.94,2.94,0,0,1-.27.53,3.71,3.71,0,0,1-.39.52,72,72,0,0,0-6.83,9.13,59.73,59.73,0,0,0-4.83,9.44,52.1,52.1,0,0,0-2.84,9.66,48.93,48.93,0,0,0-.86,9.78"/>
          </g>
        </g>
      </g>
      <g class="cls-screener5C-2">
        <g class="cls-screener5C-18">
          <g class="cls-screener5C-2">
            <path class="cls-screener5C-4" d="M2089.14,2121.9l.23,7.23a69.18,69.18,0,0,1,1-13.9,75.4,75.4,0,0,1,3.79-13.8,85.47,85.47,0,0,1,6.61-13.56,104.39,104.39,0,0,1,9.42-13.2,4,4,0,0,0,.39-.55,3.2,3.2,0,0,0,.27-.56,2.75,2.75,0,0,0,.16-.56,3.52,3.52,0,0,0,0-.56l-.2-7.17a2.65,2.65,0,0,1,0,.56,2.73,2.73,0,0,1-.15.56,3.58,3.58,0,0,1-.27.56,4.65,4.65,0,0,1-.39.55,103.51,103.51,0,0,0-9.44,13.19,84.87,84.87,0,0,0-6.61,13.54,74.45,74.45,0,0,0-3.8,13.78,69.08,69.08,0,0,0-1,13.89"/>
          </g>
        </g>
      </g>
      <path class="cls-screener5C-16" d="M2207.32,2037.21c-7.86,8.9-13,18.33-15.53,27.95a55.18,55.18,0,0,0,.33,29.24c2.75,9.77,8.11,19.37,16,28.43s18.5,17.69,31.51,25.33a204.35,204.35,0,0,0,43.9,18.85,272.46,272.46,0,0,0,50.61,10.07,294,294,0,0,0,53.08.71,258.58,258.58,0,0,0,51.23-9l.64-.2c.21-.07.41-.15.6-.23s.38-.17.56-.26.34-.18.5-.28a5.75,5.75,0,0,0,1.52-1.28,3.69,3.69,0,0,0,.75-1.49,3.23,3.23,0,0,0-.07-1.6,4.35,4.35,0,0,0-.95-1.58,7.56,7.56,0,0,0-2.25-1.64,12.61,12.61,0,0,0-3-1,15.23,15.23,0,0,0-3.39-.29,14.07,14.07,0,0,0-3.37.49,232.52,232.52,0,0,1-45.85,8.07,264.15,264.15,0,0,1-47.48-.64,244,244,0,0,1-45.29-9,183.22,183.22,0,0,1-39.33-16.81c-11.68-6.83-21.15-14.49-28.32-22.64s-12-16.71-14.51-25.46a49.57,49.57,0,0,1-.45-26.25c2.21-8.64,6.79-17.12,13.81-25.13a3.31,3.31,0,0,0,.86-1.83,3,3,0,0,0-.44-1.82,5.15,5.15,0,0,0-1.62-1.6,9.49,9.49,0,0,0-2.68-1.17,13.29,13.29,0,0,0-2.58-.46,15.28,15.28,0,0,0-2.62,0,13.62,13.62,0,0,0-2.45.45,10.09,10.09,0,0,0-2.11.84l-.47.28-.42.31-.38.32C2207.55,2037,2207.43,2037.09,2207.32,2037.21Z"/>
      <g class="cls-screener5C-2">
        <g class="cls-screener5C-19">
          <g class="cls-screener5C-2">
            <path class="cls-screener5C-7" d="M2190,2080l.11,7.19c0,.73,0,1.47.08,2.21s.1,1.48.17,2.22.16,1.47.26,2.21.21,1.48.34,2.21l-.11-7.19c-.13-.74-.24-1.48-.34-2.21s-.19-1.48-.26-2.22-.13-1.47-.17-2.21-.07-1.47-.08-2.21"/>
            <path class="cls-screener5C-8" d="M2190.84,2088.83l.11,7.19c.15.8.3,1.59.48,2.39s.37,1.58.58,2.38.43,1.58.68,2.37.51,1.58.78,2.37l-.11-7.21c-.27-.79-.54-1.58-.78-2.37s-.47-1.58-.68-2.37-.41-1.58-.58-2.37-.34-1.59-.48-2.38"/>
            <path class="cls-screener5C-9" d="M2193.36,2098.32l.11,7.21c.29.82.6,1.63.93,2.45s.67,1.63,1,2.45.75,1.62,1.15,2.43.82,1.62,1.26,2.42l-.11-7.22c-.44-.8-.86-1.61-1.26-2.42s-.78-1.61-1.15-2.43-.71-1.62-1-2.44-.63-1.63-.93-2.45"/>
            <path class="cls-screener5C-10" d="M2197.74,2108.06l.11,7.22c.48.88,1,1.75,1.5,2.62s1.06,1.74,1.62,2.61,1.16,1.72,1.76,2.58,1.24,1.71,1.89,2.56l-.09-7.23c-.65-.85-1.29-1.7-1.9-2.56s-1.19-1.72-1.76-2.58-1.11-1.73-1.63-2.6-1-1.74-1.5-2.62"/>
            <path class="cls-screener5C-11" d="M2204.53,2118.42l.09,7.23c.78,1,1.58,2,2.41,3s1.7,2,2.6,3,1.82,2,2.77,2.94,1.95,1.93,3,2.89l-.08-7.25c-1-.95-2-1.92-3-2.89s-1.89-1.94-2.78-2.92-1.76-2-2.6-3-1.64-2-2.41-3"/>
            <path class="cls-screener5C-12" d="M2215.28,2130.2l.08,7.25q2.34,2.19,4.89,4.34t5.31,4.22q2.78,2.09,5.74,4.1c2,1.35,4,2.67,6.16,4l-.06-7.26c-2.13-1.3-4.18-2.62-6.17-4s-3.9-2.71-5.74-4.09-3.62-2.8-5.32-4.22-3.33-2.88-4.89-4.34"/>
            <path class="cls-screener5C-13" d="M2237.4,2146.81l.06,7.26c.18.12.37.23.56.34l.56.34.57.34.57.34q4.43,2.59,9.11,5t9.62,4.58q4.93,2.17,10.08,4.14t10.48,3.71v-7.29q-5.34-1.74-10.5-3.7t-10.08-4.14q-4.93-2.17-9.63-4.57t-9.13-5l-.57-.34-.57-.33c-.18-.12-.37-.23-.56-.34l-.56-.34"/>
            <path class="cls-screener5C-12" d="M2279,2165.57v7.29q4,1.32,8.13,2.5c2.75.79,5.52,1.53,8.32,2.24s5.63,1.36,8.48,2,5.73,1.19,8.63,1.72l0-7.3q-4.35-.8-8.64-1.72t-8.49-2q-4.2-1.05-8.33-2.23c-2.74-.79-5.46-1.62-8.14-2.5"/>
            <path class="cls-screener5C-11" d="M2312.6,2174l0,7.3q2.78.51,5.58,1t5.64.85c1.88.27,3.77.51,5.67.74s3.8.44,5.7.63l.06-7.3q-2.86-.29-5.71-.63c-1.9-.23-3.79-.47-5.68-.74s-3.77-.55-5.64-.85-3.74-.62-5.59-1"/>
            <path class="cls-screener5C-10" d="M2335.22,2177.18l-.06,7.3c1.6.17,3.2.31,4.8.45s3.21.26,4.82.36,3.22.21,4.83.29,3.23.15,4.85.21l.08-7.3c-1.62-.06-3.24-.13-4.85-.21s-3.23-.18-4.84-.29-3.22-.23-4.82-.36-3.21-.28-4.81-.45"/>
            <path class="cls-screener5C-9" d="M2354.54,2178.49l-.08,7.3c1.46.05,2.93.09,4.4.12s2.93,0,4.4.05,2.93,0,4.4,0,2.93,0,4.4-.08l.1-7.3c-1.47,0-2.94.06-4.4.08s-2.94,0-4.41,0l-4.41,0c-1.47,0-2.94-.07-4.4-.12"/>
            <path class="cls-screener5C-8" d="M2372.16,2178.57l-.1,7.3c1.4,0,2.8-.08,4.21-.14s2.8-.12,4.2-.19l4.19-.26,4.18-.32.12-7.3-4.19.32c-1.39.09-2.79.18-4.19.25s-2.8.15-4.21.2-2.8.1-4.21.14"/>
            <path class="cls-screener5C-7" d="M2389,2177.66l-.12,7.3c1.38-.12,2.76-.24,4.13-.38s2.75-.28,4.11-.44,2.74-.32,4.1-.5,2.73-.36,4.08-.56l.15-7.29c-1.36.19-2.73.38-4.09.55s-2.73.35-4.1.5-2.75.3-4.12.44-2.76.26-4.14.38"/>
            <path class="cls-screener5C-6" d="M2405.41,2175.79l-.15,7.29c1.41-.2,2.81-.41,4.2-.64s2.79-.46,4.18-.71,2.77-.5,4.15-.77,2.75-.55,4.12-.84l.16-7.29c-1.37.29-2.74.57-4.12.83s-2.77.53-4.16.78-2.78.48-4.18.7-2.8.44-4.2.65"/>
            <path class="cls-screener5C-14" d="M2422.07,2172.83l-.16,7.29c1.39-.29,2.77-.6,4.15-.92s2.75-.64,4.12-1,2.73-.69,4.08-1.06,2.7-.73,4-1.12h.1l.18-7.29h-.1c-1.34.39-2.69.76-4,1.12s-2.72.71-4.09,1.05-2.74.67-4.12,1-2.77.62-4.16.92"/>
            <path class="cls-screener5C-15" d="M2438.58,2168.72l-.18,7.29.26-.08.26-.08.25-.09.25-.1.18-7.29-.25.09-.25.1-.25.08-.27.08"/>
            <path class="cls-screener5C-4" d="M2439.6,2168.37l-.18,7.29.31-.14.31-.14.29-.15.27-.16a6.34,6.34,0,0,0,1-.73,4.5,4.5,0,0,0,.72-.81,4,4,0,0,0,.46-.89,3.25,3.25,0,0,0,.17-.93l.18-7.29a2.94,2.94,0,0,1-.17.93,3.73,3.73,0,0,1-.45.89,5,5,0,0,1-.73.82,6.48,6.48,0,0,1-1,.72l-.27.16-.29.15-.31.14-.31.14"/>
          </g>
        </g>
      </g>
      <g class="cls-screener5C-2">
        <g class="cls-screener5C-20">
          <g class="cls-screener5C-2">
            <path class="cls-screener5C-7" d="M2071.42,2123.13l.26,7.24c0,.63.05,1.25.09,1.88s.08,1.26.13,1.89.12,1.26.19,1.89.15,1.25.23,1.88l-.25-7.25c-.08-.62-.16-1.25-.23-1.88s-.13-1.25-.19-1.88-.1-1.26-.14-1.89l-.09-1.88"/>
            <path class="cls-screener5C-8" d="M2072.07,2130.66l.25,7.25c.15,1.06.32,2.11.5,3.16s.41,2.11.64,3.16.49,2.1.77,3.15.59,2.1.91,3.15l-.25-7.26c-.32-1.05-.63-2.09-.91-3.14s-.54-2.1-.77-3.15-.45-2.1-.64-3.16-.35-2.1-.5-3.16"/>
            <path class="cls-screener5C-9" d="M2074.89,2143.27l.25,7.26q.51,1.62,1.08,3.24c.39,1.08.8,2.15,1.23,3.23s.89,2.14,1.38,3.21,1,2.14,1.52,3.2l-.25-7.27c-.53-1.06-1-2.13-1.52-3.2s-.94-2.14-1.38-3.21-.84-2.15-1.23-3.23-.74-2.15-1.08-3.23"/>
            <path class="cls-screener5C-10" d="M2080.1,2156.14l.25,7.27c.57,1.16,1.18,2.31,1.81,3.46s1.3,2.29,2,3.43,1.41,2.28,2.16,3.41,1.52,2.26,2.33,3.38l-.24-7.29c-.81-1.12-1.58-2.24-2.33-3.38s-1.47-2.26-2.16-3.4-1.36-2.28-2-3.43-1.24-2.3-1.82-3.45"/>
            <path class="cls-screener5C-11" d="M2088.4,2169.8l.24,7.29q1.43,2,3,4t3.24,3.94q1.68,2,3.48,3.89t3.72,3.84l-.22-7.31q-1.92-1.91-3.73-3.84c-1.2-1.28-2.36-2.58-3.48-3.88s-2.2-2.62-3.24-3.94-2-2.64-3-4"/>
            <path class="cls-screener5C-12" d="M2101.85,2185.44l.22,7.31q3,2.94,6.23,5.81t6.8,5.67q3.55,2.8,7.38,5.51t7.95,5.33l-.19-7.33q-4.12-2.61-8-5.33t-7.39-5.5q-3.54-2.79-6.81-5.66t-6.23-5.81"/>
            <path class="cls-screener5C-13" d="M2130.24,2207.74l.19,7.33.73.46.74.47.74.46.75.46q5.67,3.47,11.71,6.67t12.41,6.12q6.38,2.92,13,5.55t13.64,5l-.12-7.36q-7-2.34-13.66-5t-13.07-5.55q-6.37-2.91-12.43-6.11t-11.72-6.67l-.75-.46-.74-.46-.73-.46-.74-.46"/>
            <path class="cls-screener5C-12" d="M2184.08,2232.88l.12,7.36q5.21,1.74,10.54,3.33t10.8,3q5.46,1.41,11,2.65t11.26,2.31l-.07-7.37q-5.68-1.07-11.27-2.31t-11.06-2.65q-5.47-1.41-10.81-3t-10.55-3.32"/>
            <path class="cls-screener5C-11" d="M2227.77,2244.15l.07,7.37q3.67.69,7.38,1.31c2.48.41,5,.8,7.46,1.16s5,.7,7.52,1,5,.6,7.57.86l0-7.38q-3.81-.39-7.59-.86t-7.53-1c-2.5-.36-5-.75-7.46-1.16s-4.94-.84-7.39-1.3"/>
            <path class="cls-screener5C-10" d="M2257.74,2248.48l0,7.38c2.14.22,4.28.43,6.43.61s4.29.35,6.45.5,4.32.29,6.48.4,4.33.21,6.51.29v-7.38q-3.26-.12-6.51-.29c-2.17-.11-4.33-.25-6.49-.39s-4.31-.32-6.46-.51-4.3-.39-6.43-.61"/>
            <path class="cls-screener5C-9" d="M2283.63,2250.28v7.38q3,.11,6,.16t6,.08c2,0,4,0,6,0s4-.06,6-.11l0-7.38q-3,.08-6,.11t-6,0q-3,0-6-.08t-6-.16"/>
            <path class="cls-screener5C-8" d="M2307.56,2250.39l0,7.38c1.91-.05,3.82-.11,5.73-.19s3.82-.17,5.73-.27,3.82-.23,5.73-.37,3.82-.28,5.72-.44l.06-7.38q-2.87.24-5.73.45t-5.74.36q-2.86.15-5.74.27c-1.91.08-3.83.14-5.74.19"/>
            <path class="cls-screener5C-7" d="M2330.51,2249.12l-.06,7.38c1.91-.17,3.81-.34,5.71-.53s3.79-.4,5.68-.62,3.79-.46,5.68-.71,3.77-.51,5.65-.79l.08-7.37q-2.82.42-5.66.79t-5.68.7q-2.84.33-5.69.62t-5.71.53"/>
            <path class="cls-screener5C-6" d="M2353.25,2246.48l-.08,7.37q2.94-.43,5.86-.91t5.83-1q2.91-.53,5.8-1.1c1.92-.38,3.85-.78,5.76-1.19l.11-7.38q-2.88.63-5.77,1.2t-5.81,1.1c-1.94.35-3.88.69-5.84,1s-3.9.62-5.86.91"/>
            <path class="cls-screener5C-14" d="M2376.53,2242.26l-.11,7.38,2.23-.49,2.22-.51,2.21-.51,2.21-.53.16,0,.16,0,.15,0,.15,0,.12-7.37-.15,0-.15,0-.16.05-.16,0-2.21.53-2.22.51-2.22.51-2.23.48"/>
            <path class="cls-screener5C-15" d="M2386,2240.06l-.12,7.37.29-.09.28-.1.27-.1.27-.1.12-7.37-.27.1-.27.1-.28.1-.29.09"/>
            <path class="cls-screener5C-4" d="M2387.14,2239.67,2387,2247l.34-.15.33-.16.32-.17.3-.18a6.05,6.05,0,0,0,1.08-.8,5.56,5.56,0,0,0,.8-.9,4.15,4.15,0,0,0,.49-1,3.29,3.29,0,0,0,.19-1l.12-7.36a3.06,3.06,0,0,1-.18,1,3.79,3.79,0,0,1-.5,1,4.79,4.79,0,0,1-.8.9,6.05,6.05,0,0,1-1.08.8l-.3.18-.31.17-.34.16-.34.15"/>
          </g>
        </g>
      </g>
      <path class="cls-screener5C-16" d="M2094.29,2063.52c-10.1,12-16.83,24.52-20.25,37.19a75,75,0,0,0-.32,38.41c3.24,12.79,9.84,25.33,19.72,37.18s23.24,23.18,39.76,33.28a253,253,0,0,0,54.18,24.38,342.26,342.26,0,0,0,63.3,13.73,387.62,387.62,0,0,0,67.66,2.27,367.06,367.06,0,0,0,67.07-9.73l.85-.24.79-.29.73-.32c.23-.12.45-.24.65-.37a6.34,6.34,0,0,0,1.54-1.26,4.4,4.4,0,0,0,.86-1.48,3.18,3.18,0,0,0,.11-1.59,4,4,0,0,0-.69-1.62,6.53,6.53,0,0,0-2.06-1.81,11,11,0,0,0-3-1.17,15,15,0,0,0-3.45-.43,14.73,14.73,0,0,0-3.56.4,338.2,338.2,0,0,1-61.62,8.92,357.86,357.86,0,0,1-62.14-2.09,315.74,315.74,0,0,1-58.18-12.58,233.8,233.8,0,0,1-49.87-22.35c-15.23-9.26-27.5-19.58-36.72-30.55s-15.29-22.42-18.34-34.19a69.11,69.11,0,0,1,.09-35.38c3.09-11.7,9.24-23.26,18.5-34.33a3.47,3.47,0,0,0,.85-1.91,3,3,0,0,0-.48-1.85,5,5,0,0,0-1.68-1.6,9.29,9.29,0,0,0-2.75-1.13,13.77,13.77,0,0,0-2.56-.39,15.83,15.83,0,0,0-2.58.07,14.21,14.21,0,0,0-2.42.49,10.92,10.92,0,0,0-2.12.86l-.56.33-.51.36a5.63,5.63,0,0,0-.45.38A5.09,5.09,0,0,0,2094.29,2063.52Z"/>
    </g>
  </g>
</svg>
