<svg id="_5b" data-name="5b" xmlns="http://www.w3.org/2000/svg" xmlns:xlink="http://www.w3.org/1999/xlink" viewBox="0 0 3844.17 3886.94"><defs><style>.cls-screener5B-1{fill:none;}.cls-screener5B-2{isolation:isolate;}.cls-screener5B-3{clip-path:url(#clip-path);}.cls-screener5B-4{fill:#858585;}.cls-screener5B-5{clip-path:url(#clip-path-2);}.cls-screener5B-6{fill:#949494;}.cls-screener5B-7{fill:#999;}.cls-screener5B-8{fill:#9e9e9e;}.cls-screener5B-9{fill:#a3a3a3;}.cls-screener5B-10{fill:#a8a8a8;}.cls-screener5B-11{fill:#adadad;}.cls-screener5B-12{fill:#b3b3b3;}.cls-screener5B-13{fill:#b8b8b8;}.cls-screener5B-14{fill:#8f8f8f;}.cls-screener5B-15{fill:#8a8a8a;}.cls-screener5B-16{fill:#e3e3e3;}.cls-screener5B-17{clip-path:url(#clip-path-3);}.cls-screener5B-18{clip-path:url(#clip-path-4);}.cls-screener5B-19{clip-path:url(#clip-path-5);}.cls-screener5B-20{clip-path:url(#clip-path-6);}</style><clipPath id="clip-path"><path class="cls-screener5B-1" d="M2349,2040l0,4.33a19.84,19.84,0,0,1,.46-4.11,20.93,20.93,0,0,1,1.35-4,24.45,24.45,0,0,1,2.24-3.94,30.64,30.64,0,0,1,3.13-3.79,2.73,2.73,0,0,0,.28-.33,2,2,0,0,0,.2-.34,2.42,2.42,0,0,0,.12-.35,2.09,2.09,0,0,0,0-.35l0-4.31a2.09,2.09,0,0,1,0,.35,2.3,2.3,0,0,1-.12.34,2.08,2.08,0,0,1-.2.35,2.73,2.73,0,0,1-.28.33,30,30,0,0,0-3.14,3.78,24.45,24.45,0,0,0-2.24,3.94,20.89,20.89,0,0,0-1.34,4.05A18.41,18.41,0,0,0,2349,2040Z"/></clipPath><clipPath id="clip-path-2"><path class="cls-screener5B-1" d="M2338.55,2040.16c0,1.44,0,2.89,0,4.33a23.38,23.38,0,0,0,1.32,7.78,29.2,29.2,0,0,0,4,7.56,40.13,40.13,0,0,0,6.58,7.1,57.45,57.45,0,0,0,9.16,6.38,85.34,85.34,0,0,0,19.08,7.77,116,116,0,0,0,22,3.87,125.22,125.22,0,0,0,22.91-.22,107.17,107.17,0,0,0,21.78-4.48l.32-.11.29-.13.28-.13.26-.14a4.24,4.24,0,0,0,.6-.44,3.39,3.39,0,0,0,.45-.49,2,2,0,0,0,.27-.53,1.74,1.74,0,0,0,.11-.55l.14-4.37a1.79,1.79,0,0,1-.11.55,2,2,0,0,1-.28.52,2.87,2.87,0,0,1-.44.49,4.15,4.15,0,0,1-.61.44,2,2,0,0,1-.25.14l-.28.14-.3.12-.32.11a106.69,106.69,0,0,1-21.8,4.48,126.45,126.45,0,0,1-22.94.22,116,116,0,0,1-22-3.87,86,86,0,0,1-19.11-7.76,57.42,57.42,0,0,1-9.16-6.37,40.13,40.13,0,0,1-6.59-7.09,29.19,29.19,0,0,1-4-7.55A23.37,23.37,0,0,1,2338.55,2040.16Z"/></clipPath><clipPath id="clip-path-3"><path class="cls-screener5B-1" d="M2282.32,2060.57l0,4.36a29.7,29.7,0,0,1,.53-5.94,31.1,31.1,0,0,1,1.72-5.87,35.59,35.59,0,0,1,2.92-5.73,44.06,44.06,0,0,1,4.14-5.54,2.06,2.06,0,0,0,.23-.31,2.59,2.59,0,0,0,.17-.33,2,2,0,0,0,.09-.33,1.66,1.66,0,0,0,0-.32l0-4.33a1.84,1.84,0,0,1,0,.33,1.31,1.31,0,0,1-.1.32,2.49,2.49,0,0,1-.16.33,3.24,3.24,0,0,1-.24.31,44.71,44.71,0,0,0-4.14,5.53,36.94,36.94,0,0,0-2.93,5.73,31.54,31.54,0,0,0-1.72,5.86A29.65,29.65,0,0,0,2282.32,2060.57Z"/></clipPath><clipPath id="clip-path-4"><path class="cls-screener5B-1" d="M2210.72,2086.24c.05,1.47.09,2.93.14,4.39a41.25,41.25,0,0,1,.59-8.43,45,45,0,0,1,2.29-8.36,52.37,52.37,0,0,1,4-8.23,63.88,63.88,0,0,1,5.71-8,2.62,2.62,0,0,0,.24-.34,1.66,1.66,0,0,0,.16-.33,1.62,1.62,0,0,0,.1-.34,2,2,0,0,0,0-.34l-.12-4.35a2,2,0,0,1,0,.34,2.14,2.14,0,0,1-.09.34,2.08,2.08,0,0,1-.4.67,61.58,61.58,0,0,0-5.72,8,50.92,50.92,0,0,0-4,8.21,44.4,44.4,0,0,0-2.3,8.35A41.2,41.2,0,0,0,2210.72,2086.24Z"/></clipPath><clipPath id="clip-path-5"><path class="cls-screener5B-1" d="M2271.87,2060.83l.07,4.35a34.91,34.91,0,0,0,2,11.08,43.89,43.89,0,0,0,5.71,10.81,60.19,60.19,0,0,0,9.37,10.22,85.15,85.15,0,0,0,13,9.28,123.76,123.76,0,0,0,26.59,11.45,164.42,164.42,0,0,0,30.65,6.11,177,177,0,0,0,32.15.43,156.64,156.64,0,0,0,31-5.49,3.59,3.59,0,0,0,.39-.12,3,3,0,0,0,.36-.14l.34-.15.31-.18a3.9,3.9,0,0,0,.59-.43,2.87,2.87,0,0,0,.44-.5,2,2,0,0,0,.28-.54,1.78,1.78,0,0,0,.1-.56l.11-4.42a1.78,1.78,0,0,1-.1.56,2,2,0,0,1-.27.54,3.36,3.36,0,0,1-.44.5,4.6,4.6,0,0,1-.6.43,3.07,3.07,0,0,1-.31.17l-.34.16a3,3,0,0,1-.36.14l-.39.12a157,157,0,0,1-31.06,5.49,178.38,178.38,0,0,1-32.19-.44,164.09,164.09,0,0,1-30.68-6.1,123.76,123.76,0,0,1-26.62-11.43,85.53,85.53,0,0,1-13-9.27,60.64,60.64,0,0,1-9.38-10.21,43.32,43.32,0,0,1-5.71-10.8A34.86,34.86,0,0,1,2271.87,2060.83Z"/></clipPath><clipPath id="clip-path-6"><path class="cls-screener5B-1" d="M2200,2087l.15,4.39a47,47,0,0,0,2.71,14,57,57,0,0,0,7.14,13.67,77.72,77.72,0,0,0,11.57,12.93,108.47,108.47,0,0,0,16,11.83,153.51,153.51,0,0,0,32.81,14.8,207.23,207.23,0,0,0,38.34,8.33,234.67,234.67,0,0,0,41,1.38,221.42,221.42,0,0,0,40.62-5.91,3.8,3.8,0,0,0,.51-.15c.17,0,.33-.11.48-.17l.44-.19a3.81,3.81,0,0,0,.4-.23,4.21,4.21,0,0,0,.65-.48,3.12,3.12,0,0,0,.49-.55,2.41,2.41,0,0,0,.3-.6,1.88,1.88,0,0,0,.11-.62h0c0-1.49,0-3,.08-4.47a2.32,2.32,0,0,1-.11.63,2.23,2.23,0,0,1-.31.59,3.05,3.05,0,0,1-.48.55,4.8,4.8,0,0,1-.65.49l-.4.22-.44.19-.48.18-.52.14a222.84,222.84,0,0,1-40.66,5.91,235.36,235.36,0,0,1-41-1.38,207.47,207.47,0,0,1-38.38-8.33,153.1,153.1,0,0,1-32.85-14.78,108.63,108.63,0,0,1-16-11.81,77.83,77.83,0,0,1-11.59-12.92,56.79,56.79,0,0,1-7.14-13.66A46.56,46.56,0,0,1,2200,2087Z"/></clipPath></defs><title>IKEA_Sleep_essentials_v5_5b-01</title><g class="cls-screener5B-2"><g class="cls-screener5B-2"><g class="cls-screener5B-3"><g class="cls-screener5B-2"><path class="cls-screener5B-4" d="M2349,2040l0,4.33a19.84,19.84,0,0,1,.46-4.11,20.93,20.93,0,0,1,1.35-4,24.45,24.45,0,0,1,2.24-3.94,30.64,30.64,0,0,1,3.13-3.79,2.73,2.73,0,0,0,.28-.33,2,2,0,0,0,.2-.34,2.42,2.42,0,0,0,.12-.35,2.09,2.09,0,0,0,0-.35l0-4.31a2.09,2.09,0,0,1,0,.35,2.3,2.3,0,0,1-.12.34,2.08,2.08,0,0,1-.2.35,2.73,2.73,0,0,1-.28.33,30,30,0,0,0-3.14,3.78,24.45,24.45,0,0,0-2.24,3.94,20.89,20.89,0,0,0-1.34,4.05,18.41,18.41,0,0,0-.46,4.1"/></g></g></g><g class="cls-screener5B-2"><g class="cls-screener5B-5"><g class="cls-screener5B-2"><path class="cls-screener5B-6" d="M2338.55,2040.16V2045c0,.08,0,.16,0,.24a1.93,1.93,0,0,0,0,.24v-4.58a1.69,1.69,0,0,1,0-.23v-.48"/><path class="cls-screener5B-7" d="M2338.56,2041.11v4.34q0,.49.06,1c0,.34.06.67.1,1s.09.67.15,1,.12.66.19,1v-4.34c-.07-.33-.13-.66-.19-1s-.11-.66-.15-1-.08-.66-.1-1-.05-.67-.07-1"/><path class="cls-screener5B-8" d="M2339.07,2045.09v4.34q.11.5.24,1c.08.33.18.66.28,1s.2.66.32,1,.23.66.36,1V2049c-.12-.33-.25-.65-.36-1s-.22-.65-.32-1-.2-.66-.28-1-.17-.66-.24-1"/><path class="cls-screener5B-9" d="M2340.27,2049v4.34l.42,1c.15.34.31.67.47,1s.33.67.51,1,.37.66.56,1V2053c-.19-.33-.38-.66-.56-1l-.51-1c-.16-.34-.32-.67-.46-1s-.29-.67-.43-1"/><path class="cls-screener5B-10" d="M2342.23,2053v4.35c.21.36.43.71.65,1.07l.71,1.06c.25.35.5.7.76,1s.54.7.82,1v-4.35c-.28-.35-.55-.69-.81-1s-.52-.69-.76-1.05-.48-.7-.71-1-.45-.71-.66-1.07"/><path class="cls-screener5B-11" d="M2345.17,2057.23v4.35q.49.61,1,1.2c.35.4.71.79,1.09,1.19s.76.78,1.16,1.16.81.77,1.23,1.15l0-4.36c-.42-.38-.83-.76-1.23-1.15s-.79-.77-1.16-1.16-.74-.79-1.1-1.18-.69-.8-1-1.2"/><path class="cls-screener5B-12" d="M2349.68,2061.92l0,4.36q1,.87,2,1.71c.69.56,1.42,1.11,2.17,1.65s1.52,1.08,2.33,1.6,1.63,1,2.49,1.55l0-4.37c-.85-.5-1.69-1-2.49-1.54s-1.58-1.06-2.34-1.6-1.47-1.1-2.17-1.66-1.36-1.12-2-1.7"/><path class="cls-screener5B-13" d="M2358.69,2068.42l0,4.37.22.13.23.13.22.13.23.13c1.19.67,2.42,1.33,3.69,2s2.56,1.22,3.89,1.79,2.68,1.11,4.07,1.62,2.8,1,4.23,1.45l0-4.37c-1.43-.46-2.85-.94-4.24-1.45s-2.74-1.05-4.07-1.62-2.63-1.17-3.9-1.79-2.49-1.27-3.69-1.95l-.23-.13-.22-.13-.22-.13-.23-.13"/><path class="cls-screener5B-12" d="M2375.49,2075.75l0,4.37c1.09.35,2.19.68,3.31,1s2.25.61,3.38.89,2.29.54,3.46.78,2.33.47,3.5.68l.07-4.38c-1.18-.21-2.35-.43-3.51-.68s-2.31-.5-3.46-.78-2.27-.58-3.38-.89-2.23-.64-3.32-1"/><path class="cls-screener5B-11" d="M2389.16,2079.08l-.07,4.38c.78.14,1.55.27,2.33.39s1.56.24,2.35.35,1.57.21,2.36.3,1.58.18,2.37.26l.08-4.38c-.79-.08-1.58-.16-2.38-.26s-1.57-.19-2.36-.3-1.57-.22-2.35-.35-1.55-.25-2.33-.39"/><path class="cls-screener5B-10" d="M2398.58,2080.38l-.08,4.38c.67.07,1.35.13,2,.18s1.35.11,2,.15,1.35.09,2,.12l2,.09.08-4.38-2-.09c-.68,0-1.36-.07-2-.12s-1.35-.09-2-.15-1.35-.11-2-.18"/><path class="cls-screener5B-9" d="M2406.69,2080.92l-.08,4.38,1.85,0,1.87,0h1.86q.93,0,1.86,0l.09-4.38c-.62,0-1.24,0-1.86,0h-1.86l-1.86,0-1.87,0"/><path class="cls-screener5B-8" d="M2414.14,2081l-.09,4.38,1.77,0,1.77-.09,1.77-.1,1.76-.14.11-4.38-1.77.13-1.77.11-1.77.08c-.59,0-1.18,0-1.78.06"/><path class="cls-screener5B-7" d="M2421.23,2080.57l-.11,4.38c.59,0,1.17-.1,1.75-.15l1.74-.18,1.73-.21,1.72-.23.12-4.38-1.73.23-1.73.2-1.74.19-1.75.15"/><path class="cls-screener5B-6" d="M2428.18,2079.8l-.12,4.38,1.78-.27,1.76-.29,1.76-.32,1.74-.35.12-4.38-1.74.35-1.76.32-1.77.29-1.77.27"/><path class="cls-screener5B-14" d="M2435.22,2078.57l-.12,4.38,1.86-.41,1.85-.44,1.84-.47,1.81-.5.13-4.38-1.82.5-1.83.47-1.85.44-1.87.41"/><path class="cls-screener5B-15" d="M2442.59,2076.75l-.13,4.38.72-.21.72-.22.72-.22.72-.23.1,0,.11,0,.1,0,.09,0,.14-4.38-.1,0-.1,0-.1,0-.11,0-.71.23-.72.22-.73.22-.72.21"/><path class="cls-screener5B-4" d="M2445.88,2075.72l-.14,4.38.2-.08.2-.09.18-.1.17-.09a4.24,4.24,0,0,0,.6-.44,3.39,3.39,0,0,0,.45-.49,2,2,0,0,0,.27-.53,1.74,1.74,0,0,0,.11-.55l.14-4.37a1.79,1.79,0,0,1-.11.55,2,2,0,0,1-.28.52,2.87,2.87,0,0,1-.44.49,4.15,4.15,0,0,1-.61.44l-.17.1-.18.09-.19.09-.2.08"/></g></g></g><path class="cls-screener5B-16" d="M2347.1,2021.34a29.93,29.93,0,0,0-7.49,12,22.9,22.9,0,0,0-.33,12.63,29.94,29.94,0,0,0,6.71,12.23,51.72,51.72,0,0,0,13.6,10.75,86,86,0,0,0,19.11,7.76,116,116,0,0,0,22,3.87,126.45,126.45,0,0,0,22.94-.22,106.69,106.69,0,0,0,21.8-4.48l.32-.11.3-.12.28-.14a2,2,0,0,0,.25-.14,3.47,3.47,0,0,0,1-.79,2,2,0,0,0,.45-.92,1.74,1.74,0,0,0-.08-1,2.61,2.61,0,0,0-.65-1,4.53,4.53,0,0,0-1.42-.92,7.65,7.65,0,0,0-1.85-.54,9.87,9.87,0,0,0-2-.1,8.39,8.39,0,0,0-2,.36,90.59,90.59,0,0,1-18.5,3.79,107.29,107.29,0,0,1-19.47.19,99.15,99.15,0,0,1-18.7-3.28,73,73,0,0,1-16.26-6.58,44.53,44.53,0,0,1-11.61-9.12,25.75,25.75,0,0,1-5.77-10.39,19.58,19.58,0,0,1,.21-10.76,25.35,25.35,0,0,1,6.32-10.23,2,2,0,0,0,.61-1.1,1.65,1.65,0,0,0-.19-1.1,2.85,2.85,0,0,0-.92-1,5.44,5.44,0,0,0-1.57-.73,8,8,0,0,0-1.62-.32,9,9,0,0,0-1.64,0,9.27,9.27,0,0,0-1.55.27,6.47,6.47,0,0,0-1.34.54l-.25.15-.23.16-.21.16Z"/></g><g class="cls-screener5B-2"><g class="cls-screener5B-2"><g class="cls-screener5B-17"><g class="cls-screener5B-2"><path class="cls-screener5B-4" d="M2282.32,2060.57l0,4.36a29.7,29.7,0,0,1,.53-5.94,31.1,31.1,0,0,1,1.72-5.87,35.59,35.59,0,0,1,2.92-5.73,44.06,44.06,0,0,1,4.14-5.54,2.06,2.06,0,0,0,.23-.31,2.59,2.59,0,0,0,.17-.33,2,2,0,0,0,.09-.33,1.66,1.66,0,0,0,0-.32l0-4.33a1.84,1.84,0,0,1,0,.33,1.31,1.31,0,0,1-.1.32,2.49,2.49,0,0,1-.16.33,3.24,3.24,0,0,1-.24.31,44.71,44.71,0,0,0-4.14,5.53,36.94,36.94,0,0,0-2.93,5.73,31.54,31.54,0,0,0-1.72,5.86,29.65,29.65,0,0,0-.52,5.93"/></g></g></g><g class="cls-screener5B-2"><g class="cls-screener5B-18"><g class="cls-screener5B-2"><path class="cls-screener5B-4" d="M2210.72,2086.24l.14,4.39a41.25,41.25,0,0,1,.59-8.43,45,45,0,0,1,2.29-8.36,52.37,52.37,0,0,1,4-8.23,63.88,63.88,0,0,1,5.71-8,2.62,2.62,0,0,0,.24-.34,1.66,1.66,0,0,0,.16-.33,1.62,1.62,0,0,0,.1-.34,2,2,0,0,0,0-.34l-.12-4.35a2,2,0,0,1,0,.34,2.14,2.14,0,0,1-.09.34,2.08,2.08,0,0,1-.4.67,61.58,61.58,0,0,0-5.72,8,50.92,50.92,0,0,0-4,8.21,44.4,44.4,0,0,0-2.3,8.35,41.2,41.2,0,0,0-.59,8.42"/></g></g></g><path class="cls-screener5B-16" d="M2282.38,2034.89a41.7,41.7,0,0,0-9.42,17,33.55,33.55,0,0,0,.2,17.73,44.84,44.84,0,0,0,9.72,17.24,77,77,0,0,0,19.11,15.36,123.76,123.76,0,0,0,26.62,11.43,164.09,164.09,0,0,0,30.68,6.1,178.38,178.38,0,0,0,32.19.44,157,157,0,0,0,31.06-5.49l.39-.12a3,3,0,0,0,.36-.14l.34-.16a3.07,3.07,0,0,0,.31-.17,3.39,3.39,0,0,0,.92-.77,2.16,2.16,0,0,0,.45-.91,1.85,1.85,0,0,0,0-1,2.45,2.45,0,0,0-.58-1,4.57,4.57,0,0,0-1.36-1,7.87,7.87,0,0,0-1.83-.61,9.35,9.35,0,0,0-2.06-.17,8.17,8.17,0,0,0-2,.29,141.42,141.42,0,0,1-27.8,4.89,160.91,160.91,0,0,1-28.79-.38,148.22,148.22,0,0,1-27.46-5.45,111.25,111.25,0,0,1-23.85-10.19,69.38,69.38,0,0,1-17.17-13.73,40.38,40.38,0,0,1-8.8-15.44,30.05,30.05,0,0,1-.27-15.91,37.3,37.3,0,0,1,8.37-15.24,2,2,0,0,0,.52-1.11,1.76,1.76,0,0,0-.27-1.1,2.93,2.93,0,0,0-1-1,5.65,5.65,0,0,0-1.62-.71,7.6,7.6,0,0,0-1.57-.28,8.34,8.34,0,0,0-1.58,0,8.74,8.74,0,0,0-1.49.27,5.89,5.89,0,0,0-1.28.51l-.28.17a2.48,2.48,0,0,0-.26.19l-.23.19Z"/><g class="cls-screener5B-2"><g class="cls-screener5B-19"><g class="cls-screener5B-2"><path class="cls-screener5B-7" d="M2271.87,2060.83l.07,4.35c0,.45,0,.9,0,1.35s.06.89.1,1.34.09.9.15,1.34.14.9.22,1.35l-.07-4.37c-.08-.44-.15-.89-.21-1.34s-.12-.89-.16-1.34-.08-.89-.1-1.34,0-.9-.05-1.34"/><path class="cls-screener5B-8" d="M2272.39,2066.19l.07,4.37c.08.48.18,1,.28,1.44s.23,1,.35,1.44.27,1,.42,1.44.3,1,.47,1.44l-.06-4.37q-.26-.72-.48-1.44c-.15-.48-.29-1-.41-1.43s-.25-1-.35-1.45-.21-1-.29-1.44"/><path class="cls-screener5B-9" d="M2273.92,2072l.06,4.37c.18.49.37,1,.56,1.49s.41,1,.63,1.48l.7,1.48c.24.49.5,1,.77,1.46l-.07-4.37c-.26-.49-.52-1-.76-1.47s-.48-1-.7-1.48-.43-1-.63-1.48-.39-1-.56-1.48"/><path class="cls-screener5B-10" d="M2276.57,2077.86l.07,4.37c.28.54.59,1.07.9,1.59s.65,1.06,1,1.58.7,1,1.07,1.57.75,1,1.14,1.55l0-4.39c-.4-.51-.78-1-1.15-1.55s-.73-1-1.07-1.56-.67-1.05-1-1.58-.62-1.05-.91-1.58"/><path class="cls-screener5B-11" d="M2280.69,2084.13l0,4.39c.47.61,1,1.22,1.47,1.82s1,1.21,1.57,1.8,1.1,1.19,1.68,1.78,1.18,1.17,1.8,1.75l-.06-4.39c-.61-.58-1.21-1.16-1.79-1.75s-1.14-1.18-1.69-1.78-1.07-1.19-1.57-1.8-1-1.21-1.46-1.82"/><path class="cls-screener5B-12" d="M2287.2,2091.28l.06,4.39c.94.89,1.93,1.77,3,2.63s2.1,1.73,3.22,2.57,2.28,1.67,3.48,2.48,2.45,1.62,3.73,2.4l0-4.4q-1.93-1.18-3.74-2.4c-1.2-.81-2.37-1.64-3.48-2.48s-2.2-1.7-3.23-2.56-2-1.74-3-2.63"/><path class="cls-screener5B-13" d="M2300.62,2101.35l0,4.4.34.21.34.21.35.2.34.2c1.79,1.06,3.64,2.07,5.53,3s3.84,1.89,5.83,2.77,4,1.72,6.11,2.52,4.2,1.54,6.36,2.25v-4.42q-3.24-1.07-6.36-2.25t-6.12-2.51c-2-.88-3.94-1.81-5.84-2.77s-3.74-2-5.53-3l-.35-.21-.34-.2-.34-.21a3.79,3.79,0,0,1-.34-.2"/><path class="cls-screener5B-12" d="M2325.84,2112.73v4.42c1.62.53,3.27,1,4.93,1.51s3.34.93,5,1.36,3.42.82,5.14,1.2,3.48.72,5.23,1l0-4.42q-2.64-.48-5.23-1.05t-5.15-1.19c-1.7-.43-3.39-.88-5-1.36s-3.31-1-4.94-1.51"/><path class="cls-screener5B-11" d="M2346.21,2117.84l0,4.42c1.13.21,2.26.4,3.39.58s2.27.36,3.42.52,2.29.31,3.44.45,2.3.27,3.45.38l0-4.42c-1.16-.12-2.31-.25-3.46-.39s-2.3-.28-3.45-.45-2.28-.33-3.42-.51-2.26-.38-3.39-.58"/><path class="cls-screener5B-10" d="M2359.93,2119.77l0,4.42c1,.1,1.94.19,2.92.27s1.94.16,2.92.22,1.95.13,2.93.18,2,.09,2.93.12l0-4.42-2.94-.13-2.93-.17-2.93-.22-2.91-.27"/><path class="cls-screener5B-9" d="M2371.64,2120.56l0,4.42,2.67.08,2.67,0h2.67c.89,0,1.78,0,2.67,0l.06-4.42-2.67,0c-.89,0-1.78,0-2.68,0s-1.78,0-2.67,0l-2.67-.07"/><path class="cls-screener5B-8" d="M2382.33,2120.61l-.06,4.42,2.55-.08c.85,0,1.7-.07,2.54-.12l2.55-.16c.84-.05,1.69-.12,2.53-.19l.08-4.43-2.54.2q-1.28.09-2.55.15l-2.55.12-2.55.09"/><path class="cls-screener5B-7" d="M2392.52,2120.05l-.08,4.43,2.51-.23,2.49-.26,2.49-.31c.82-.1,1.65-.22,2.47-.34l.09-4.42-2.48.34-2.49.3-2.5.26c-.83.09-1.67.16-2.5.23"/><path class="cls-screener5B-6" d="M2402.49,2118.92l-.09,4.42q1.28-.18,2.55-.39c.84-.13,1.69-.27,2.53-.42l2.52-.47,2.49-.51.1-4.43c-.83.18-1.66.35-2.5.51s-1.68.32-2.52.47l-2.53.43q-1.27.21-2.55.39"/><path class="cls-screener5B-14" d="M2412.59,2117.12l-.1,4.43,2.52-.56c.84-.19,1.67-.39,2.5-.6s1.65-.42,2.47-.64,1.64-.44,2.45-.68h.06l.11-4.42h-.06c-.81.24-1.63.46-2.45.68l-2.48.64c-.83.21-1.66.41-2.5.6s-1.68.38-2.52.55"/><path class="cls-screener5B-15" d="M2422.6,2114.64l-.11,4.42.16,0,.16-.05.15-.06.15-.06.11-4.42-.15.06-.15.05-.16.06-.16,0"/><path class="cls-screener5B-4" d="M2423.22,2114.42l-.11,4.42.19-.08.18-.09.18-.09.17-.1a3.9,3.9,0,0,0,.59-.43,2.87,2.87,0,0,0,.44-.5,2,2,0,0,0,.28-.54,1.78,1.78,0,0,0,.1-.56l.11-4.42a1.78,1.78,0,0,1-.1.56,2,2,0,0,1-.27.54,3.36,3.36,0,0,1-.44.5,4.6,4.6,0,0,1-.6.43l-.17.1-.18.09-.18.09-.19.08"/></g></g></g><g class="cls-screener5B-2"><g class="cls-screener5B-20"><g class="cls-screener5B-2"><path class="cls-screener5B-7" d="M2200,2087l.15,4.39c0,.38,0,.76.06,1.14s0,.77.08,1.15.07.76.11,1.14.09.76.15,1.14l-.16-4.39c0-.38-.1-.76-.14-1.14s-.08-.76-.11-1.14-.06-.77-.09-1.15,0-.76-.05-1.14"/><path class="cls-screener5B-8" d="M2200.37,2091.56l.16,4.39q.12,1,.3,1.92c.11.64.24,1.28.38,1.92s.3,1.27.47,1.91.36,1.27.55,1.9l-.15-4.4c-.2-.63-.38-1.27-.55-1.9s-.33-1.27-.47-1.91-.27-1.28-.38-1.91-.22-1.28-.31-1.92"/><path class="cls-screener5B-9" d="M2202.08,2099.2l.15,4.4c.21.66.43,1.31.66,2s.48,1.31.74,2,.55,1.3.84,1.95.6,1.29.92,1.94l-.15-4.41c-.32-.65-.63-1.29-.92-1.94s-.57-1.3-.84-2-.51-1.3-.74-2-.45-1.3-.66-2"/><path class="cls-screener5B-10" d="M2205.24,2107l.15,4.41c.35.7.72,1.4,1.1,2.09s.79,1.39,1.2,2.08.86,1.38,1.31,2.07.93,1.37,1.42,2.05l-.15-4.42c-.49-.68-1-1.36-1.41-2.05s-.89-1.37-1.31-2.06-.82-1.39-1.21-2.08-.75-1.39-1.1-2.09"/><path class="cls-screener5B-11" d="M2210.27,2115.29l.15,4.42c.58.81,1.18,1.62,1.81,2.42s1.29,1.59,2,2.39,1.39,1.57,2.12,2.35,1.48,1.56,2.25,2.33l-.13-4.43c-.78-.77-1.53-1.54-2.26-2.32s-1.43-1.57-2.11-2.36-1.34-1.59-2-2.39-1.24-1.6-1.82-2.41"/><path class="cls-screener5B-12" d="M2218.43,2124.77l.13,4.43q1.8,1.78,3.78,3.53t4.12,3.44q2.16,1.7,4.48,3.34c1.55,1.09,3.15,2.17,4.82,3.23l-.12-4.45q-2.49-1.58-4.82-3.23c-1.55-1.09-3.05-2.2-4.48-3.33s-2.81-2.27-4.13-3.44-2.58-2.33-3.78-3.52"/><path class="cls-screener5B-13" d="M2235.64,2138.29l.12,4.45.44.28.45.28.45.28.45.28q3.43,2.1,7.1,4t7.53,3.72q3.86,1.77,7.91,3.36c2.7,1.07,5.46,2.07,8.27,3l-.07-4.47q-4.23-1.41-8.28-3t-7.93-3.36c-2.58-1.18-5.09-2.41-7.53-3.71s-4.82-2.64-7.11-4l-.46-.28-.45-.28-.44-.28-.45-.28"/><path class="cls-screener5B-12" d="M2268.29,2153.53l.07,4.47c2.1.7,4.23,1.38,6.39,2s4.34,1.24,6.55,1.81,4.44,1.11,6.69,1.61,4.54,1,6.83,1.4l0-4.47q-3.45-.64-6.84-1.4c-2.25-.5-4.49-1-6.7-1.61s-4.4-1.17-6.56-1.81-4.29-1.31-6.39-2"/><path class="cls-screener5B-11" d="M2294.78,2160.37l0,4.47c1.49.28,3,.54,4.48.79s3,.49,4.52.71,3,.42,4.56.61,3,.36,4.59.52l0-4.47c-1.54-.16-3.07-.33-4.6-.52s-3-.4-4.57-.62-3-.45-4.52-.7-3-.51-4.48-.79"/><path class="cls-screener5B-10" d="M2313,2163l0,4.47c1.29.14,2.59.26,3.89.37s2.61.22,3.92.31,2.62.17,3.93.24l3.94.17v-4.47c-1.32-.05-2.64-.11-4-.18s-2.62-.15-3.93-.24-2.62-.19-3.92-.3-2.61-.24-3.9-.37"/><path class="cls-screener5B-9" d="M2328.65,2164.09v4.47c1.21,0,2.41.08,3.62.1s2.41,0,3.62.05h3.62l3.63-.07,0-4.47c-1.21,0-2.42.05-3.64.06s-2.42,0-3.63,0-2.41,0-3.62,0l-3.62-.1"/><path class="cls-screener5B-8" d="M2343.16,2164.16l0,4.47,3.48-.12c1.16,0,2.32-.1,3.48-.16l3.47-.22c1.16-.08,2.31-.17,3.47-.27l0-4.48c-1.16.1-2.31.19-3.47.27s-2.32.16-3.48.22-2.32.12-3.48.17-2.32.09-3.48.12"/><path class="cls-screener5B-7" d="M2357.07,2163.38l0,4.48c1.15-.1,2.31-.21,3.46-.33s2.3-.24,3.45-.37,2.29-.28,3.44-.43,2.28-.31,3.42-.48l.05-4.47c-1.14.17-2.28.33-3.43.48l-3.44.43c-1.15.13-2.3.26-3.46.37s-2.3.22-3.46.32"/><path class="cls-screener5B-6" d="M2370.86,2161.78l-.05,4.47c1.19-.17,2.37-.36,3.55-.55s2.36-.4,3.54-.61,2.35-.44,3.52-.67,2.33-.47,3.49-.72l.07-4.47c-1.17.25-2.33.49-3.5.72s-2.35.46-3.52.67l-3.54.61c-1.18.19-2.37.38-3.56.55"/><path class="cls-screener5B-14" d="M2385,2159.23l-.07,4.47,1.35-.3,1.35-.3,1.34-.32,1.34-.32.1,0,.09,0,.09,0,.1,0,.07-4.47-.09,0-.1,0-.09,0-.1,0-1.34.32-1.34.32-1.35.3-1.35.3"/><path class="cls-screener5B-15" d="M2390.74,2157.89l-.07,4.47.17-.06.17-.05.17-.06.16-.07.07-4.47-.16.07-.17.06-.17,0-.17.06"/><path class="cls-screener5B-4" d="M2391.41,2157.65l-.07,4.47.21-.09.2-.1.19-.1.18-.11a4.21,4.21,0,0,0,.65-.48,3.12,3.12,0,0,0,.49-.55,2.41,2.41,0,0,0,.3-.6,1.88,1.88,0,0,0,.11-.62l.08-4.47a2.32,2.32,0,0,1-.11.63,2.23,2.23,0,0,1-.31.59,3.05,3.05,0,0,1-.48.55,4.8,4.8,0,0,1-.65.49l-.19.1-.19.11-.2.09-.21.09"/></g></g></g><path class="cls-screener5B-16" d="M2213.84,2050.85a59,59,0,0,0-12.27,22.55,45.41,45.41,0,0,0-.2,23.29,57.53,57.53,0,0,0,12,22.54,96.88,96.88,0,0,0,24.11,20.18,153.1,153.1,0,0,0,32.85,14.78,207.47,207.47,0,0,0,38.38,8.33,235.36,235.36,0,0,0,41,1.38,222.84,222.84,0,0,0,40.66-5.91l.52-.14.48-.18.44-.19.4-.22a4.24,4.24,0,0,0,.93-.77,2.57,2.57,0,0,0,.52-.9,2.08,2.08,0,0,0,.07-1,2.53,2.53,0,0,0-.42-1,3.85,3.85,0,0,0-1.25-1.1,6.5,6.5,0,0,0-1.79-.71,8.43,8.43,0,0,0-2.09-.26,8.73,8.73,0,0,0-2.16.24,205,205,0,0,1-37.36,5.41A216.66,216.66,0,0,1,2311,2156a191.58,191.58,0,0,1-35.28-7.62,141.72,141.72,0,0,1-30.24-13.56,89.68,89.68,0,0,1-22.26-18.52,53.18,53.18,0,0,1-11.12-20.73,42,42,0,0,1,0-21.46,54.2,54.2,0,0,1,11.22-20.81,2.1,2.1,0,0,0,.51-1.16,1.71,1.71,0,0,0-.29-1.12,3,3,0,0,0-1-1,5.71,5.71,0,0,0-1.67-.68,8.17,8.17,0,0,0-1.56-.24,10.13,10.13,0,0,0-1.56,0,8.7,8.7,0,0,0-1.47.3,6.12,6.12,0,0,0-1.28.52l-.34.2-.31.22a3.11,3.11,0,0,0-.28.23Z"/></g></svg>