<svg xmlns="http://www.w3.org/2000/svg" xmlns:xlink="http://www.w3.org/1999/xlink" viewBox="0 0 3844.17 3886.94"><g opacity=".47"><path d="M2477.28 2543.91l-446.56 259.51-670.31-387.01 446.56-259.51z" opacity=".38"/></g><path fill="#94607B" d="M1921.1 2137.28l-42.01 133.26-49.26-28.44 13.63-149.64z"/><path fill="#96617D" d="M1921.1 2137.28l23.4-13.59-42.01 133.26-23.4 13.59z"/><path fill="#9A6480" d="M1843.46 2092.46l23.39-13.6 77.65 44.83-23.4 13.59z"/><path fill="#F7EFE2" d="M2354.07 2387.25l12.76 164.89-49.27-28.45-41.14-181.27z"/><path fill="#4E447F" d="M2354.07 2387.25l23.39-13.59 12.77 164.88-23.4 13.6z"/><path fill="#9A6480" d="M2276.42 2342.42l23.4-13.59 77.64 44.83-23.39 13.59z"/><linearGradient id="a" gradientUnits="userSpaceOnUse" x1="2956.0146" y1="752.9824" x2="3047.2979" y2="752.9824" gradientTransform="translate(-1476.3994 1626.9626)"><stop offset="0" stop-color="#faeece"/><stop offset="1" stop-color="#c7b7c6"/></linearGradient><path fill="url(#a)" d="M1570.9 2335.73l-42.01 133.26-49.27-28.45 13.63-149.64z"/><path fill="#62529D" d="M1570.9 2335.73l23.4-13.6-42.02 133.26-23.39 13.6z"/><path fill="#8F8D99" d="M1493.25 2290.9l23.4-13.59 77.65 44.82-23.4 13.6z"/><g><linearGradient id="b" gradientUnits="userSpaceOnUse" x1="3469.6155" y1="1036.0424" x2="3583.9644" y2="1172.5227" gradientTransform="translate(-1476.3994 1626.9626)"><stop offset="0" stop-color="#f7efe2"/><stop offset="1" stop-color="#c7b7c6"/></linearGradient><path fill="url(#b)" d="M2003.85 2585.7l12.78 164.88-49.27-28.44-41.15-181.27z"/><path fill="#4E447F" d="M2003.85 2585.7l23.4-13.6 12.77 164.89-23.39 13.59z"/><path fill="#8F8D99" d="M1926.21 2540.87l23.39-13.6 77.65 44.83-23.4 13.6z"/></g><g><defs><path id="c" d="M1472.6 1802.06l418.04-242.94c12.04-7 28.72-6.01 47.12 4.61l-418.04 242.94c-18.4-10.62-35.08-11.61-47.12-4.61z"/></defs><clipPath id="d"><use xlink:href="#c" overflow="visible"/></clipPath><g clip-path="url(#d)"><path fill="#DCE5E5" d="M1900.02 1555.5c-3.29.71-6.46 1.94-9.38 3.62l-418.04 242.94c2.92-1.69 6.08-2.91 9.38-3.62 4.4-.93 8.92-1.1 13.37-.51l418.04-242.94c-4.46-.59-8.98-.42-13.37.51z"/><linearGradient id="e" gradientUnits="userSpaceOnUse" x1="3198.1677" y1="62.8961" x2="3186.8716" y2="43.3314" gradientTransform="translate(-1476.3994 1626.9626)"><stop offset=".1339" stop-color="#f7efe2"/><stop offset=".6385" stop-color="#e6eaf5"/><stop offset=".838" stop-color="#e2e8ef"/><stop offset="1" stop-color="#dce5e5"/></linearGradient><path fill="url(#e)" d="M1495.34 1797.92l418.04-242.94c8.63 1.26 16.92 4.23 24.38 8.75l-418.04 242.94c-7.46-4.51-15.75-7.49-24.38-8.75"/></g><defs><path id="f" d="M2400.81 2375.54l-418.04 242.94c11.89-6.91 19.26-21.6 19.32-42.48l418.04-242.94c-.06 20.89-7.43 35.58-19.32 42.48z"/></defs><clipPath id="g"><use xlink:href="#f" overflow="visible"/></clipPath><g clip-path="url(#g)"><path fill="#62529D" d="M2002.09 2576.01l418.04-242.94c-.06 20.88-7.43 35.57-19.32 42.48l-418.04 242.94c11.89-6.92 19.26-21.61 19.32-42.48"/></g><path fill="#6D6DAF" d="M2003.26 2162.07l418.05-242.93-1.18 413.93-418.04 242.94z"/><path fill="#F7EFE2" d="M1519.73 1806.68l418.04-242.94 417.52 241.05-418.04 242.94z"/><g><defs><path id="h" d="M1937.25 2047.73l418.04-242.94c36.57 21.11 66.13 72.32 66.01 114.34l-418.04 242.94c.12-42.02-29.44-93.22-66.01-114.34z"/></defs><clipPath id="i"><use xlink:href="#h" overflow="visible"/></clipPath><g clip-path="url(#i)"><linearGradient id="j" gradientUnits="userSpaceOnUse" x1="3650.2908" y1="332.8884" x2="3706.9387" y2="427.8573" gradientTransform="translate(-1476.3994 1626.9626)"><stop offset="0" stop-color="#efeef8"/><stop offset=".3494" stop-color="#ddb5d2"/><stop offset=".6136" stop-color="#d08fb8"/><stop offset=".6533" stop-color="#bb88b6"/><stop offset=".7269" stop-color="#997cb3"/><stop offset=".7971" stop-color="#8174b1"/><stop offset=".8617" stop-color="#726faf"/><stop offset=".9154" stop-color="#6d6daf"/></linearGradient><path fill="url(#j)" d="M2414.06 1880.03c-2.09-5.88-4.54-11.63-7.33-17.22-2.52-5.06-5.3-9.98-8.34-14.74-3.08-4.84-6.42-9.51-10.02-13.99-4.24-5.3-8.87-10.28-13.83-14.91-5.86-5.5-12.32-10.32-19.25-14.38l-418.04 242.94c6.93 4.06 13.39 8.89 19.25 14.38 4.97 4.63 9.59 9.61 13.83 14.91 3.59 4.48 6.94 9.14 10.02 13.99 3.04 4.76 5.82 9.68 8.34 14.74 2.79 5.59 5.24 11.34 7.33 17.22 4.62 12.53 7.07 25.75 7.25 39.1l418.04-242.94c-.18-13.35-2.63-26.57-7.25-39.1z"/></g></g><path fill="#A0ADD9" d="M1937.25 2047.73c36.57 21.11 66.13 72.32 66.01 114.34l-1.17 413.93c-.12 42.02-29.87 58.98-66.45 37.87l-417.53-241.06c-36.57-21.11-66.13-72.32-66.01-114.34l1.17-413.93c.12-42.02 29.87-58.98 66.45-37.87l417.53 241.06z"/></g><g><defs><path id="k" d="M1455.69 2148.6l35.23-20.47c9.43-5.48 22.5-4.71 36.92 3.62l-35.23 20.47c-14.42-8.33-27.48-9.1-36.92-3.62z"/></defs><clipPath id="l"><use xlink:href="#k" overflow="visible"/></clipPath><g clip-path="url(#l)"><path fill="#B3B3D0" d="M1508.74 2124.89c-3.49-.46-7.03-.32-10.47.4-2.58.56-5.06 1.52-7.34 2.84l-35.23 20.47c2.29-1.32 4.76-2.28 7.34-2.84 3.44-.73 6.98-.86 10.47-.4 6.76.98 13.26 3.32 19.1 6.86l35.23-20.47c-5.84-3.55-12.34-5.88-19.1-6.86z"/></g><defs><path id="m" d="M1952.51 2596.59l-35.23 20.47c9.32-5.41 15.1-16.93 15.14-33.29l35.23-20.47c-.05 16.36-5.83 27.87-15.14 33.29z"/></defs><clipPath id="n"><use xlink:href="#m" overflow="visible"/></clipPath><g clip-path="url(#n)"><linearGradient id="o" gradientUnits="userSpaceOnUse" x1="3422.1626" y1="968.8835" x2="3415.093" y2="956.7366" gradientTransform="translate(-1476.3994 1626.9626)"><stop offset="0" stop-color="#62529d"/><stop offset=".4078" stop-color="#675ea5"/><stop offset=".7955" stop-color="#6d6daf"/><stop offset="1" stop-color="#6d6daf"/></linearGradient><path fill="url(#o)" d="M1932.42 2583.77l35.23-20.47c-.05 16.37-5.82 27.88-15.14 33.29l-35.23 20.47c9.32-5.41 15.09-16.92 15.14-33.29"/></g><path fill="#6D6DAF" d="M1932.76 2466.08l35.23-20.47-.34 117.69-35.23 20.47zM1492.61 2152.22l35.23-20.48 388.4 224.25-35.23 20.47z"/><g><defs><path id="p" d="M1881.01 2376.46l35.23-20.47c28.66 16.55 51.84 56.67 51.74 89.62l-35.23 20.47c.1-32.95-23.08-73.08-51.74-89.62z"/></defs><clipPath id="q"><use xlink:href="#p" overflow="visible"/></clipPath><g clip-path="url(#q)"><linearGradient id="r" gradientUnits="userSpaceOnUse" x1="3371.1602" y1="722.6403" x2="3426.697" y2="815.9431" gradientTransform="translate(-1476.3994 1626.9626)"><stop offset="0" stop-color="#a0add9"/><stop offset=".0296" stop-color="#a5b1db"/><stop offset=".1693" stop-color="#b8c2e3"/><stop offset=".3132" stop-color="#c3cce7"/><stop offset=".4665" stop-color="#c7cfe9"/><stop offset=".6231" stop-color="#b6c1e2"/><stop offset=".8641" stop-color="#95a6d4"/><stop offset="1" stop-color="#6d6daf"/></linearGradient><path fill="url(#r)" d="M1962.3 2414.96c-1.64-4.61-3.56-9.12-5.75-13.49-1.98-3.96-4.16-7.82-6.54-11.55-2.41-3.79-5.04-7.45-7.85-10.96-3.32-4.15-6.95-8.06-10.84-11.69-4.59-4.31-9.65-8.09-15.09-11.28l-35.23 20.47c5.43 3.19 10.49 6.97 15.09 11.28 3.89 3.63 7.52 7.53 10.84 11.69 2.81 3.51 5.44 7.17 7.85 10.96 2.38 3.73 4.56 7.59 6.54 11.55 2.19 4.38 4.11 8.88 5.75 13.49 3.62 9.82 5.54 20.19 5.68 30.65l35.23-20.47c-.14-10.47-2.06-20.83-5.68-30.65z"/></g></g><path fill="#EAE4DF" d="M1881.01 2376.46c28.66 16.55 51.84 56.67 51.74 89.62l-.33 117.69c-.09 32.95-23.42 46.23-52.08 29.68l-388.4-224.24c-28.66-16.55-51.81-56.65-51.72-89.61l.33-117.69c.09-32.95 23.4-46.24 52.06-29.69l388.4 224.24z"/></g><g><linearGradient id="s" gradientUnits="userSpaceOnUse" x1="2859.1145" y1="247.672" x2="2965.2783" y2="247.672" gradientTransform="translate(-1476.3994 1626.9626)"><stop offset="0" stop-color="#f6d8e9"/><stop offset=".00915" stop-color="#eecee3"/><stop offset=".0272" stop-color="#e4c3db"/><stop offset=".0526" stop-color="#dfbcd6"/><stop offset=".1231" stop-color="#ddbad5"/><stop offset=".1759" stop-color="#e2c2d9"/><stop offset=".2582" stop-color="#eed8e5"/><stop offset=".2795" stop-color="#f2dfe9"/><stop offset=".4494" stop-color="#fce6dc"/><stop offset=".693" stop-color="#fbdcce"/><stop offset="1" stop-color="#a59aca"/></linearGradient><path fill="url(#s)" d="M1458.3 1884.81l35.23-20.47c9.44-5.48 22.51-4.71 36.95 3.62l-35.23 20.47c-14.44-8.33-27.52-9.1-36.95-3.62z"/><defs><path id="t" d="M1458.3 1884.81l35.23-20.47c9.44-5.48 22.51-4.71 36.95 3.62l-35.23 20.47c-14.44-8.33-27.52-9.1-36.95-3.62z"/></defs><clipPath id="u"><use xlink:href="#t" overflow="visible"/></clipPath><g clip-path="url(#u)"><linearGradient id="v" gradientUnits="userSpaceOnUse" x1="2974.7961" y1="256.3735" x2="2966.6899" y2="242.3335" gradientTransform="translate(-1476.3994 1626.9626)"><stop offset="0" stop-color="#f6d8e9"/><stop offset=".065" stop-color="#f3dde9"/><stop offset=".2795" stop-color="#f2dfe9"/><stop offset=".4494" stop-color="#fce6dc"/><stop offset=".693" stop-color="#fbdcce"/><stop offset="1" stop-color="#a59aca"/></linearGradient><path fill="url(#v)" d="M1511.35 1861.1c-3.49-.46-7.03-.32-10.48.4-2.58.56-5.06 1.52-7.34 2.84l-35.23 20.47c2.29-1.32 4.76-2.28 7.34-2.84 3.44-.73 6.99-.86 10.48-.4 6.77.99 13.27 3.32 19.13 6.87l35.23-20.47c-5.86-3.55-12.36-5.89-19.13-6.87z"/></g><defs><path id="w" d="M1955.11 2332.8l-35.23 20.47c9.32-5.42 15.1-16.93 15.14-33.3l35.23-20.47c-.04 16.36-5.82 27.88-15.14 33.3z"/></defs><clipPath id="x"><use xlink:href="#w" overflow="visible"/></clipPath><g clip-path="url(#x)"><path fill="#6D6DAF" d="M1935.03 2319.97l35.23-20.47c-.05 16.36-5.82 27.88-15.14 33.3l-35.23 20.47c9.32-5.42 15.09-16.93 15.14-33.3"/></g><path fill="#A59ACA" d="M1935.37 2202.26l35.22-20.47-.33 117.71-35.23 20.47z"/><path fill="#F6D8E9" d="M1495.24 1888.44l35.23-20.48 388.38 224.23-35.23 20.48z"/><g><defs><path id="y" d="M1883.62 2112.66l35.23-20.47c28.68 16.56 51.84 56.67 51.74 89.6l-35.23 20.47c.1-32.93-23.06-73.04-51.74-89.6z"/></defs><clipPath id="z"><use xlink:href="#y" overflow="visible"/></clipPath><g clip-path="url(#z)"><linearGradient id="A" gradientUnits="userSpaceOnUse" x1="3382.0227" y1="470.1846" x2="3419.7886" y2="536.8295" gradientTransform="translate(-1476.3994 1626.9626)"><stop offset="0" stop-color="#f6d8e9"/><stop offset=".00915" stop-color="#eecee3"/><stop offset=".0272" stop-color="#e4c3db"/><stop offset=".0526" stop-color="#dfbcd6"/><stop offset=".1231" stop-color="#ddbad5"/><stop offset=".1759" stop-color="#e2c2d9"/><stop offset=".2582" stop-color="#eed8e5"/><stop offset=".2795" stop-color="#f2dfe9"/><stop offset=".4494" stop-color="#fce6dc"/><stop offset=".693" stop-color="#fbdcce"/><stop offset="1" stop-color="#a59aca"/></linearGradient><path fill="url(#A)" d="M1964.92 2151.15c-1.64-4.61-3.56-9.11-5.74-13.49-1.97-3.96-4.15-7.81-6.53-11.54-2.41-3.79-5.03-7.45-7.85-10.96-3.32-4.15-6.95-8.06-10.84-11.69-4.6-4.31-9.66-8.1-15.1-11.29l-35.23 20.47c5.44 3.19 10.5 6.97 15.1 11.29 3.89 3.63 7.52 7.53 10.84 11.69 2.81 3.51 5.43 7.16 7.85 10.96 2.38 3.73 4.56 7.58 6.53 11.54 2.19 4.38 4.1 8.88 5.74 13.49 3.62 9.82 5.54 20.18 5.68 30.64l35.23-20.47c-.15-10.46-2.07-20.82-5.68-30.64z"/></g></g><path fill="#EAE4DF" d="M1883.62 2112.66c28.68 16.56 51.84 56.67 51.74 89.6l-.33 117.71c-.09 32.93-23.4 46.24-52.08 29.68l-388.38-224.23c-28.68-16.56-51.84-56.69-51.74-89.62l.33-117.71c.09-32.93 23.4-46.21 52.08-29.66l388.38 224.23z"/></g><g><defs><path id="B" d="M2039.38 1759.44l-.02 5.43c-.05 16.12-10.64 32.22-31.81 44.53-42.61 24.76-111.91 24.76-154.78.01-21.58-12.46-32.36-28.82-32.32-45.15l.02-5.43c-.05 16.33 10.73 32.69 32.32 45.15 42.87 24.75 112.17 24.75 154.78-.01 21.17-12.31 31.76-28.41 31.81-44.53z"/></defs><clipPath id="C"><use xlink:href="#B" overflow="visible"/></clipPath><g clip-path="url(#C)"><path fill="#4F4C4A" d="M2039.38 1759.44l-.02 5.43c0 .43-.01.85-.03 1.28l.02-5.43c.02-.43.03-.85.03-1.28"/><path fill="#504D4B" d="M2039.35 1760.72l-.02 5.43c-.02.48-.04.95-.08 1.43l.02-5.43c.04-.48.06-.96.08-1.43"/><path fill="#504D4C" d="M2039.27 1762.14l-.02 5.43c-.04.48-.08.95-.14 1.43l.02-5.43c.06-.47.11-.95.14-1.43"/><path fill="#514E4C" d="M2039.14 1763.57l-.02 5.43c-.05.47-.12.94-.19 1.41l.02-5.43c.07-.47.13-.94.19-1.41"/><path fill="#514E4D" d="M2038.95 1764.98l-.02 5.43c-.07.47-.15.93-.24 1.4l.02-5.43c.08-.47.16-.94.24-1.4"/><path fill="#524F4D" d="M2038.71 1766.37l-.02 5.43c-.09.46-.19.93-.29 1.39l.02-5.43c.1-.46.2-.92.29-1.39"/><path fill="#53504E" d="M2038.41 1767.76l-.02 5.43c-.11.46-.22.93-.35 1.39l.02-5.43c.13-.46.24-.92.35-1.39M2038.06 1769.15l-.02 5.43c-.12.46-.26.93-.4 1.39l.02-5.43c.15-.46.28-.92.4-1.39"/><path fill="#54514F" d="M2037.66 1770.54l-.02 5.43c-.14.46-.29.92-.45 1.38l.02-5.43c.16-.46.31-.92.45-1.38"/><path fill="#555150" d="M2037.21 1771.92l-.02 5.43c-.16.46-.33.92-.51 1.38l.02-5.43c.18-.46.35-.92.51-1.38"/><path fill="#555250" d="M2036.7 1773.3l-.02 5.43c-.18.47-.37.93-.57 1.4l.02-5.43c.2-.47.39-.93.57-1.4"/><path fill="#565351" d="M2036.13 1774.7l-.02 5.43c-.2.47-.41.93-.63 1.4l.02-5.43c.22-.47.43-.93.63-1.4M2035.5 1776.1l-.02 5.43c-.22.47-.45.93-.69 1.39l.02-5.43c.24-.46.47-.92.69-1.39"/><path fill="#575452" d="M2034.81 1777.49l-.02 5.43c-.24.47-.5.94-.76 1.41l.02-5.43c.26-.46.52-.94.76-1.41"/><path fill="#585452" d="M2034.05 1778.91l-.02 5.43c-.27.48-.55.96-.84 1.45l.02-5.43c.29-.49.57-.97.84-1.45"/><path fill="#585553" d="M2033.21 1780.35l-.02 5.43c-.29.48-.59.96-.9 1.44l.02-5.43c.31-.48.61-.96.9-1.44"/><path fill="#595654" d="M2032.3 1781.79l-.02 5.43c-.32.48-.64.96-.98 1.44l.02-5.43c.34-.48.67-.96.98-1.44"/><path fill="#595654" d="M2031.32 1783.23l-.02 5.43c-.36.51-.73 1.02-1.12 1.53l.02-5.43c.39-.5.76-1.01 1.12-1.53"/><path fill="#5A5755" d="M2030.21 1784.76l-.02 5.43c-.38.51-.78 1.01-1.19 1.52l.02-5.43c.41-.5.8-1.01 1.19-1.52"/><path fill="#5B5755" d="M2029.02 1786.28l-.02 5.43c-.42.52-.85 1.03-1.29 1.54l.02-5.43c.44-.51.87-1.03 1.29-1.54"/><path fill="#5B5856" d="M2027.73 1787.81l-.02 5.43c-.49.56-.99 1.12-1.51 1.67l.02-5.43c.52-.55 1.02-1.11 1.51-1.67"/><path fill="#5C5856" d="M2026.22 1789.48l-.02 5.43c-.52.55-1.05 1.1-1.6 1.65l.02-5.43c.55-.55 1.08-1.09 1.6-1.65"/><path fill="#5C5957" d="M2024.62 1791.13l-.02 5.43c-.6.6-1.22 1.19-1.86 1.78l.02-5.43c.64-.59 1.26-1.18 1.86-1.78"/><path fill="#5D5A58" d="M2022.77 1792.91l-.02 5.43c-.69.63-1.39 1.26-2.12 1.88l.02-5.43c.72-.62 1.43-1.25 2.12-1.88"/><path fill="#5E5A58" d="M2020.64 1794.79l-.02 5.43c-.79.67-1.6 1.33-2.43 1.99l.02-5.43c.83-.65 1.65-1.32 2.43-1.99"/><path fill="#5E5B59" d="M2018.21 1796.79l-.02 5.43c-.98.77-2 1.54-3.05 2.29l.02-5.43c1.05-.76 2.06-1.52 3.05-2.29"/><path fill="#5F5B59" d="M2015.15 1799.08l-.02 5.43c-1.29.93-2.64 1.83-4.04 2.73l.02-5.43c1.4-.9 2.75-1.81 4.04-2.73"/><path fill="#605C5A" d="M2011.12 1801.8l-.02 5.43c-1.15.73-2.33 1.45-3.55 2.16-.96.56-1.93 1.1-2.92 1.64l.02-5.43c.99-.53 1.96-1.08 2.92-1.64 1.21-.7 2.4-1.42 3.55-2.16"/><path fill="#605D5A" d="M2004.64 1805.6l-.02 5.43c-4.68 2.51-9.51 4.71-14.47 6.59l.02-5.43c4.96-1.88 9.8-4.08 14.47-6.59"/><path fill="#615D5B" d="M1990.17 1812.19l-.02 5.43c-2.43.92-4.9 1.79-7.43 2.59l.02-5.43c2.52-.8 5-1.66 7.43-2.59"/><path fill="#605D5A" d="M1982.74 1814.78l-.02 5.43c-2.1.67-4.22 1.29-6.37 1.87l.02-5.43c2.15-.58 4.28-1.21 6.37-1.87"/><path fill="#605C5A" d="M1976.37 1816.65l-.02 5.43c-1.66.45-3.33.87-5.02 1.27l.02-5.43c1.69-.4 3.36-.83 5.02-1.27"/><path fill="#5F5B59" d="M1971.35 1817.91l-.02 5.43c-1.24.29-2.5.57-3.76.83l.02-5.43c1.26-.26 2.51-.53 3.76-.83"/><path fill="#5E5B59" d="M1967.59 1818.75l-.02 5.43c-1.26.26-2.52.51-3.8.75l.02-5.43c1.28-.24 2.54-.49 3.8-.75"/><path fill="#5E5A58" d="M1963.8 1819.5l-.02 5.43c-1.05.2-2.1.38-3.16.56l.02-5.43c1.06-.18 2.11-.37 3.16-.56"/><path fill="#5D5A58" d="M1960.64 1820.06l-.02 5.43c-1.03.17-2.07.34-3.11.49l.02-5.43c1.04-.16 2.08-.32 3.11-.49"/><path fill="#5C5957" d="M1957.53 1820.55l-.02 5.43c-1 .15-2.01.29-3.01.42l.02-5.43c1-.13 2.01-.27 3.01-.42"/><path fill="#5C5856" d="M1954.52 1820.97l-.02 5.43c-.91.12-1.82.23-2.73.34l.02-5.43c.91-.11 1.82-.22 2.73-.34"/><path fill="#5B5856" d="M1951.79 1821.31l-.02 5.43c-.91.11-1.82.2-2.74.3l.02-5.43c.91-.1 1.83-.2 2.74-.3"/><path fill="#5B5755" d="M1949.05 1821.6l-.02 5.43c-.89.09-1.79.17-2.68.25l.02-5.43c.89-.07 1.79-.16 2.68-.25"/><path fill="#5A5755" d="M1946.37 1821.85l-.02 5.43c-.83.07-1.67.14-2.5.2l.02-5.43c.83-.06 1.66-.13 2.5-.2"/><path fill="#595654" d="M1943.87 1822.05l-.02 5.43c-.83.06-1.67.12-2.51.16l.02-5.43c.84-.05 1.67-.1 2.51-.16"/><path fill="#595654" d="M1941.36 1822.21l-.02 5.43c-.84.05-1.67.09-2.51.13l.02-5.43c.84-.03 1.67-.08 2.51-.13"/><path fill="#585553" d="M1938.85 1822.34l-.02 5.43c-.66.03-1.32.06-1.98.08l.02-5.43c.66-.02 1.32-.05 1.98-.08"/><path fill="#585452" d="M1936.87 1822.42l-.02 5.43c-.64.02-1.29.04-1.93.06l.02-5.43c.64-.01 1.29-.03 1.93-.06"/><path fill="#575452" d="M1934.94 1822.48l-.02 5.43c-.65.02-1.29.03-1.94.04l.02-5.43c.65-.01 1.29-.02 1.94-.04"/><path fill="#565351" d="M1933 1822.52l-.02 5.43c-.65.01-1.29.01-1.94.02l.02-5.43c.65 0 1.3-.01 1.94-.02"/><path fill="#565351" d="M1931.07 1822.54l-.02 5.43h-2.25l.02-5.43h2.25"/><path fill="#555250" d="M1928.82 1822.53l-.02 5.43c-.82-.01-1.64-.02-2.47-.04l.02-5.43c.82.03 1.65.04 2.47.04"/><path fill="#555150" d="M1926.35 1822.5l-.02 5.43c-.82-.02-1.64-.04-2.46-.07l.02-5.43c.82.03 1.64.05 2.46.07"/><path fill="#54514F" d="M1923.89 1822.43l-.02 5.43c-.82-.03-1.63-.06-2.45-.1l.02-5.43c.81.04 1.63.08 2.45.1"/><path fill="#53504E" d="M1921.44 1822.33l-.02 5.43c-.8-.04-1.61-.08-2.41-.13l.02-5.43c.8.05 1.6.1 2.41.13"/><path fill="#53504E" d="M1919.03 1822.21l-.02 5.43c-.8-.05-1.61-.1-2.41-.16l.02-5.43c.8.06 1.6.11 2.41.16"/><path fill="#524F4D" d="M1916.62 1822.05l-.02 5.43c-.8-.06-1.6-.12-2.4-.19l.02-5.43c.8.07 1.6.13 2.4.19"/><path fill="#514E4D" d="M1914.22 1821.86l-.02 5.43c-.8-.07-1.6-.14-2.4-.22l.02-5.43c.8.08 1.6.15 2.4.22"/><path fill="#514E4C" d="M1911.82 1821.64l-.02 5.43c-.8-.08-1.6-.16-2.39-.25l.02-5.43c.79.09 1.59.17 2.39.25"/><path fill="#504D4C" d="M1909.42 1821.39l-.02 5.43c-.8-.09-1.59-.18-2.39-.28l.02-5.43c.8.09 1.6.19 2.39.28"/><path fill="#504D4B" d="M1907.04 1821.1l-.02 5.43c-.8-.1-1.6-.2-2.39-.31l.02-5.43c.8.11 1.59.22 2.39.31"/><path fill="#4F4C4A" d="M1904.65 1820.79l-.02 5.43c-.81-.11-1.62-.23-2.42-.35l.02-5.43c.8.12 1.61.24 2.42.35"/><path fill="#4E4C4A" d="M1902.23 1820.44l-.02 5.43c-.81-.12-1.61-.25-2.41-.39l.02-5.43c.8.14 1.6.26 2.41.39"/><path fill="#4E4B49" d="M1899.81 1820.05l-.02 5.43c-.8-.13-1.6-.27-2.4-.42l.02-5.43c.8.15 1.6.29 2.4.42"/><path fill="#4D4A49" d="M1897.41 1819.63l-.02 5.43c-.83-.15-1.66-.31-2.49-.47l.02-5.43c.83.17 1.66.32 2.49.47"/><path fill="#4D4A48" d="M1894.92 1819.16l-.02 5.43c-.83-.16-1.66-.33-2.49-.51l.02-5.43c.83.18 1.66.35 2.49.51"/><path fill="#4C4947" d="M1892.43 1818.65l-.02 5.43c-.83-.18-1.65-.36-2.47-.55l.02-5.43c.82.2 1.65.38 2.47.55"/><path fill="#4B4947" d="M1889.96 1818.11l-.02 5.43c-.86-.2-1.72-.4-2.58-.61l.02-5.43c.85.21 1.71.41 2.58.61"/><path fill="#4B4846" d="M1887.38 1817.5l-.02 5.43c-.88-.22-1.76-.44-2.63-.67l.02-5.43c.87.23 1.75.45 2.63.67"/><path fill="#4A4746" d="M1884.74 1816.82l-.02 5.43c-.87-.23-1.74-.47-2.61-.71l.02-5.43c.87.25 1.74.48 2.61.71"/><path fill="#4A4745" d="M1882.14 1816.11l-.02 5.43c-.93-.26-1.86-.54-2.79-.82l.02-5.43c.92.28 1.85.56 2.79.82"/><path fill="#494645" d="M1879.35 1815.29l-.02 5.43c-.96-.29-1.92-.59-2.86-.9l.02-5.43c.94.31 1.9.61 2.86.9"/><path fill="#484644" d="M1876.48 1814.39l-.02 5.43c-.95-.31-1.89-.63-2.83-.96l.02-5.43c.94.33 1.88.65 2.83.96"/><path fill="#484543" d="M1873.65 1813.44l-.02 5.43c-1.11-.39-2.2-.79-3.29-1.2l.02-5.43c1.09.41 2.18.81 3.29 1.2"/><path fill="#474443" d="M1870.36 1812.24l-.02 5.43c-1.09-.41-2.16-.83-3.23-1.27l.02-5.43c1.07.44 2.15.86 3.23 1.27"/><path fill="#464442" d="M1867.13 1810.97l-.02 5.43c-1.29-.52-2.56-1.07-3.81-1.63l.02-5.43c1.26.56 2.53 1.11 3.81 1.63"/><path fill="#464342" d="M1863.32 1809.34l-.02 5.43c-1.32-.59-2.62-1.2-3.91-1.83l.02-5.43c1.29.63 2.59 1.24 3.91 1.83"/><path fill="#454341" d="M1859.41 1807.51l-.02 5.43c-1.84-.9-3.64-1.85-5.4-2.83l.02-5.43c1.76.98 3.56 1.93 5.4 2.83"/><path fill="#454241" d="M1854.01 1804.68l-.02 5.43c-.41-.23-.82-.46-1.23-.7-21.58-12.46-32.36-28.82-32.32-45.15l.02-5.43c-.05 16.33 10.73 32.69 32.32 45.15.41.23.82.47 1.23.7"/></g><path fill="#75716E" d="M2007.08 1714.31c42.87 24.75 43.1 64.89.48 89.66s-111.91 24.76-154.78.01c-42.89-24.76-43.12-64.9-.5-89.67s111.91-24.76 154.8 0z"/><path fill="#888380" d="M1929.92 1151.77c-5.38 0-9.73 4.36-9.73 9.73v577.61c0 5.38 4.36 9.73 9.73 9.73s9.73-4.36 9.73-9.73V1161.5c0-5.37-4.36-9.73-9.73-9.73z"/><g><defs><path id="D" d="M2109.68 1345.47c-5.44-21.16-21.96-41.58-49.66-58.13-70.28-42.01-185.87-43.18-258.18-2.61-29.67 16.65-47.44 37.74-53.23 59.73 1.45-5.5 3.38-12.84 4.83-18.34.72-2.75 1.69-6.42 2.41-9.17 1.45-5.5 3.38-12.84 4.83-18.34 1.45-5.5 3.38-12.84 4.83-18.34.72-2.75 1.69-6.42 2.41-9.17 1.45-5.5 3.38-12.84 4.83-18.34 1.45-5.5 3.38-12.84 4.83-18.34l2.41-9.17c1.45-5.5 3.38-12.84 4.83-18.34 1.45-5.5 3.38-12.84 4.83-18.34.72-2.75 1.69-6.42 2.41-9.17 1.45-5.5 3.38-12.84 4.83-18.34 4.26-16.17 17.33-31.69 39.15-43.93 53.18-29.84 138.21-28.98 189.9 1.92 20.37 12.18 32.52 27.2 36.52 42.76 1.42 5.51 3.31 12.86 4.72 18.37.71 2.76 1.65 6.43 2.36 9.18 1.42 5.51 3.31 12.86 4.72 18.37 1.42 5.51 3.31 12.86 4.72 18.37.71 2.76 1.65 6.43 2.36 9.18 1.42 5.51 3.31 12.86 4.72 18.37s3.31 12.86 4.72 18.37l2.36 9.18c1.42 5.51 3.31 12.86 4.72 18.37 1.42 5.51 3.31 12.86 4.72 18.37.71 2.76 1.65 6.43 2.36 9.18 1.44 5.49 3.33 12.84 4.74 18.35z"/></defs><clipPath id="E"><use xlink:href="#D" overflow="visible"/></clipPath><g clip-path="url(#E)"><path fill="#ECBDB5" d="M2109.68 1345.47l-47.22-183.7c-.03-.14-.07-.27-.11-.41l47.18 183.55c.05.19.1.37.15.56"/><path fill="#ECBDB5" d="M2109.54 1344.91l-47.18-183.55c-.13-.49-.27-.98-.41-1.46l47.03 183.02c.19.67.38 1.33.56 1.99M2108.97 1342.92l-47.03-183.02c-.15-.49-.3-.97-.46-1.46l46.87 182.5c.21.66.42 1.32.62 1.98M2108.34 1340.94l-46.87-182.5c-.16-.49-.33-.97-.51-1.46l46.68 181.97c.25.66.48 1.32.7 1.99"/><path fill="#ECBEB5" d="M2107.65 1338.95l-46.68-181.97c-.18-.5-.38-.99-.57-1.49l46.48 181.44c.26.68.52 1.35.77 2.02"/><path fill="#ECBEB6" d="M2106.87 1336.93l-46.48-181.44c-.2-.5-.41-1-.63-1.49l46.25 180.9c.3.68.58 1.36.86 2.03M2106.01 1334.91l-46.25-180.9c-.22-.5-.45-.99-.68-1.49l46.01 180.37c.32.67.63 1.34.92 2.02"/><path fill="#ECBEB6" d="M2105.09 1332.88l-46.01-180.37c-.24-.49-.48-.99-.73-1.48l45.74 179.84c.34.67.68 1.34 1 2.01"/><path fill="#ECBFB6" d="M2104.09 1330.87l-45.74-179.84c-.27-.52-.54-1.04-.83-1.55l45.45 179.28c.38.7.76 1.41 1.12 2.11M2102.96 1328.76l-45.45-179.28c-.29-.52-.59-1.04-.9-1.56l45.12 178.72c.44.7.84 1.41 1.23 2.12"/><path fill="#ECBFB7" d="M2101.75 1326.64l-45.12-178.72c-.31-.52-.63-1.04-.95-1.55l44.78 178.16c.44.7.87 1.4 1.29 2.11M2100.45 1324.52l-44.78-178.16c-.33-.52-.68-1.05-1.03-1.57l44.41 177.59c.48.72.95 1.43 1.4 2.14"/><path fill="#ECC0B7" d="M2099.05 1322.39l-44.41-177.59c-.38-.57-.78-1.13-1.19-1.7l43.98 176.98c.56.77 1.1 1.54 1.62 2.31M2097.43 1320.08l-43.98-176.98c-.41-.56-.83-1.13-1.26-1.69l43.53 176.38c.58.76 1.16 1.53 1.71 2.29"/><path fill="#ECC0B7" d="M2095.72 1317.79l-43.53-176.38c-.43-.56-.88-1.12-1.33-1.67l43.05 175.78c.61.75 1.22 1.51 1.81 2.27"/><path fill="#ECC0B8" d="M2093.9 1315.52l-43.05-175.78c-.52-.63-1.05-1.26-1.6-1.88l42.47 175.1c.75.85 1.47 1.7 2.18 2.56M2091.72 1312.96l-42.47-175.1c-.56-.64-1.15-1.28-1.74-1.91l41.84 174.41c.81.86 1.6 1.73 2.37 2.6"/><path fill="#ECC1B8" d="M2089.35 1310.36l-41.84-174.41c-.6-.63-1.21-1.26-1.84-1.89l41.18 173.73c.85.86 1.69 1.71 2.5 2.57M2086.85 1307.8l-41.18-173.73c-.79-.78-1.6-1.56-2.44-2.33l40.31 172.9c1.13 1.04 2.24 2.09 3.31 3.16M2083.53 1304.63l-40.31-172.9c-.84-.77-1.71-1.54-2.6-2.29l39.37 172.07c1.22 1.04 2.4 2.08 3.54 3.12"/><path fill="#ECC1B9" d="M2080 1301.52l-39.37-172.07c-1.16-.98-2.36-1.95-3.6-2.91l38.08 171.03c1.69 1.29 3.32 2.61 4.89 3.95"/><path fill="#ECC2B9" d="M2075.11 1297.56l-38.08-171.03c-1.48-1.14-3.03-2.27-4.64-3.38l36.41 169.81c2.19 1.51 4.29 3.04 6.31 4.6"/><path fill="#ECC2B9" d="M2068.81 1292.97l-36.41-169.81c-2.05-1.41-4.2-2.79-6.46-4.14-5.67-3.37-11.57-6.34-17.65-8.89l27.74 165.13c8.27 3.46 16.29 7.5 24 12.08 3.06 1.83 5.99 3.7 8.78 5.63"/><path fill="#ECC2B9" d="M2036.03 1275.26l-27.74-165.13c-2.08-.88-4.19-1.71-6.34-2.51l25.47 164.23c2.91 1.08 5.78 2.22 8.61 3.41"/><path fill="#ECC1B9" d="M2027.41 1271.84l-25.47-164.23c-1.59-.59-3.2-1.16-4.82-1.71l23.73 163.61c2.21.75 4.4 1.52 6.56 2.33"/><path fill="#ECC1B8" d="M2020.86 1269.51l-23.73-163.61c-1.48-.5-2.97-.99-4.48-1.45l22.12 163.09c2.05.63 4.07 1.29 6.09 1.97"/><path fill="#ECC1B8" d="M2014.77 1267.54l-22.12-163.09c-1.26-.39-2.53-.77-3.81-1.13l20.75 162.68c1.74.49 3.47 1.01 5.18 1.54M2009.59 1266l-20.75-162.68c-1.19-.34-2.38-.67-3.58-.99l19.47 162.33c1.63.43 3.25.87 4.86 1.34"/><path fill="#ECC0B8" d="M2004.72 1264.65l-19.47-162.33c-1.19-.31-2.38-.62-3.57-.91l18.18 162c1.63.4 3.25.82 4.86 1.24M1999.86 1263.41l-18.18-162c-1.02-.25-2.05-.49-3.08-.73l17.07 161.73c1.41.33 2.8.66 4.19 1"/><path fill="#ECC0B7" d="M1995.67 1262.42l-17.07-161.73c-1.03-.24-2.07-.46-3.11-.68l15.96 161.49c1.41.29 2.82.6 4.22.92M1991.45 1261.49L1975.49 1100c-1.04-.22-2.08-.43-3.13-.64l14.83 161.26c1.43.29 2.85.57 4.26.87M1987.19 1260.63l-14.83-161.26c-.94-.18-1.88-.36-2.82-.53l13.81 161.07c1.29.23 2.57.47 3.84.72"/><path fill="#ECBFB7" d="M1983.35 1259.9l-13.81-161.07c-.94-.17-1.88-.33-2.82-.49l12.8 160.89c1.28.22 2.56.44 3.83.67"/><path fill="#ECBFB7" d="M1979.52 1259.23l-12.8-160.89c-.94-.16-1.89-.31-2.83-.46l11.78 160.73c1.29.2 2.57.41 3.85.62"/><path fill="#ECBFB6" d="M1975.67 1258.61l-11.78-160.73c-.92-.14-1.84-.28-2.76-.41l10.79 160.58c1.25.19 2.5.37 3.75.56M1971.92 1258.06l-10.79-160.58c-.88-.12-1.76-.24-2.65-.36l9.84 160.45c1.2.16 2.4.32 3.6.49"/><path fill="#ECBEB6" d="M1968.32 1257.58l-9.84-160.45c-.88-.11-1.77-.22-2.66-.33l8.88 160.34c1.21.13 2.41.28 3.62.44"/><path fill="#ECBEB6" d="M1964.7 1257.13l-8.88-160.34c-.89-.1-1.78-.2-2.67-.29l7.92 160.23c1.22.13 2.43.26 3.63.4"/><path fill="#ECBEB6" d="M1961.08 1256.73l-7.92-160.23c-.87-.09-1.74-.18-2.61-.26l6.99 160.14c1.18.11 2.36.23 3.54.35"/><path fill="#ECBEB5" d="M1957.54 1256.38l-6.99-160.14c-.85-.08-1.71-.15-2.57-.22l6.06 160.06c1.17.09 2.33.2 3.5.3"/><path fill="#ECBDB5" d="M1954.05 1256.08l-6.06-160.06c-.86-.07-1.71-.14-2.57-.19l5.14 159.99c1.16.08 2.32.16 3.49.26M1950.55 1255.81l-5.14-159.99c-.86-.06-1.72-.12-2.58-.17l4.21 159.93c1.18.08 2.34.15 3.51.23"/><path fill="#ECBDB5" d="M1947.05 1255.59l-4.21-159.93c-.85-.05-1.7-.09-2.56-.14l3.29 159.88c1.16.06 2.32.12 3.48.19"/><path fill="#ECBDB5" d="M1943.57 1255.4l-3.29-159.88c-.85-.04-1.7-.08-2.55-.11l2.38 159.84c1.15.05 2.31.1 3.46.15"/><path fill="#ECBCB4" d="M1940.11 1255.26l-2.38-159.84c-.85-.03-1.7-.06-2.55-.08l1.46 159.81c1.16.03 2.31.07 3.47.11"/><path fill="#ECBCB4" d="M1936.64 1255.15l-1.46-159.81c-.85-.02-1.7-.04-2.55-.05l.54 159.79c1.16.02 2.32.04 3.47.07"/><path fill="#ECBCB4" d="M1933.18 1255.08l-.54-159.79c-.86-.01-1.71-.02-2.57-.02l-.38 159.78c1.16 0 2.32.01 3.49.03M1929.68 1255.05l.38-159.78h-2.59l-1.31 159.79c1.18-.01 2.35-.02 3.52-.01M1926.16 1255.05l1.31-159.79c-.86.01-1.72.02-2.59.03l-2.24 159.8c1.18-.01 2.35-.03 3.52-.04"/><path fill="#ECBBB3" d="M1922.65 1255.1l2.24-159.8-2.58.06-3.17 159.82c1.17-.03 2.34-.06 3.51-.08"/><path fill="#ECBBB3" d="M1919.14 1255.18l3.17-159.82c-.88.03-1.77.06-2.65.09l-4.12 159.85 3.6-.12M1915.53 1255.31l4.12-159.85c-.9.04-1.8.08-2.69.13l-5.09 159.9c1.22-.07 2.44-.13 3.66-.18M1911.87 1255.48l5.09-159.9c-.9.05-1.79.1-2.69.16l-6.06 159.96c1.23-.08 2.44-.16 3.66-.22"/><path fill="#ECBAB3" d="M1908.22 1255.7l6.06-159.96c-.9.06-1.79.12-2.68.19l-7.02 160.02c1.2-.09 2.42-.18 3.64-.25"/><path fill="#ECBAB2" d="M1904.57 1255.95l7.02-160.02c-.95.07-1.9.15-2.84.23l-8.04 160.11c1.28-.11 2.57-.22 3.86-.32M1900.7 1256.27l8.04-160.11c-.96.09-1.93.18-2.89.27l-9.08 160.21c1.31-.13 2.62-.25 3.93-.37"/><path fill="#ECBAB2" d="M1896.78 1256.65l9.08-160.21c-.96.1-1.92.2-2.88.31l-10.12 160.32c1.3-.15 2.61-.29 3.92-.42"/><path fill="#ECB9B2" d="M1892.86 1257.07l10.12-160.32c-.99.11-1.97.23-2.96.36l-11.18 160.45c1.34-.17 2.68-.34 4.02-.49"/><path fill="#ECB9B1" d="M1888.84 1257.56l11.18-160.45c-1.08.14-2.15.28-3.23.44l-12.34 160.61c1.47-.22 2.93-.41 4.39-.6"/><path fill="#ECB9B1" d="M1884.46 1258.15l12.34-160.61c-1.07.15-2.14.31-3.21.49l-13.49 160.78c1.44-.23 2.9-.45 4.36-.66M1880.09 1258.81l13.49-160.78c-1.09.17-2.18.35-3.26.54l-14.67 160.98c1.48-.25 2.96-.5 4.44-.74"/><path fill="#ECB9B1" d="M1875.66 1259.55l14.67-160.98c-1.28.22-2.55.46-3.81.7l-16.04 161.23c1.72-.32 3.45-.64 5.18-.95"/><path fill="#ECB8B1" d="M1870.48 1260.51l16.04-161.23c-1.27.25-2.53.5-3.78.77l-17.4 161.51c1.7-.37 3.41-.72 5.14-1.05"/><path fill="#ECB8B0" d="M1865.33 1261.56l17.4-161.51c-1.47.31-2.92.64-4.37.98l-18.97 161.86c1.97-.46 3.95-.91 5.94-1.33"/><path fill="#ECB8B0" d="M1859.39 1262.9l18.97-161.86c-1.65.39-3.29.8-4.92 1.23l-20.74 162.3c2.22-.58 4.45-1.14 6.69-1.67"/><path fill="#ECB8B0" d="M1852.7 1264.57l20.74-162.3c-2.19.58-4.36 1.2-6.51 1.85l-23.08 162.97c2.92-.89 5.87-1.73 8.85-2.52"/><path fill="#ECB7B0" d="M1843.85 1267.09l23.08-162.97c-10.73 3.2-21.09 7.55-30.89 12.97-21.82 12.25-34.9 27.76-39.15 43.93l-48.26 183.43c5.79-21.99 23.56-43.08 53.23-59.73 13.31-7.36 27.39-13.27 41.99-17.63"/></g><ellipse transform="matrix(.00283 -1 1 .00283 562.8397 3286.0393)" fill="#EDD1C6" cx="1929.1" cy="1360.8" rx="105.76" ry="182.58"/><defs><path id="F" d="M1977.37 1177.37c-16.09 61.15-32.18 122.29-48.26 183.43-15.74-61.24-31.48-122.47-47.22-183.7-2.21-8.61 2.51-17.67 14.1-24.17 19.12-10.73 49.69-10.42 68.28.69 10.95 6.55 15.3 15.4 13.1 23.75z"/></defs><clipPath id="G"><use xlink:href="#F" overflow="visible"/></clipPath><g clip-path="url(#G)"><path fill="#ECC2B9" d="M1977.37 1177.37l-48.26 183.43 48.31-183.59-.05.16"/><path fill="#ECC2BA" d="M1977.41 1177.21l-48.31 183.59 48.37-183.88-.06.29"/><path fill="#ECC3BA" d="M1977.48 1176.93l-48.37 183.88 48.44-184.16c-.03.09-.05.18-.07.28M1977.54 1176.64l-48.44 184.16 48.5-184.44-.06.28"/><path fill="#EDC3BA" d="M1977.6 1176.36l-48.5 184.44 48.55-184.72c-.01.09-.03.19-.05.28"/><path fill="#EDC3BA" d="M1977.66 1176.08l-48.55 184.72 48.6-185.01c-.02.1-.04.19-.05.29"/><path fill="#EDC3BB" d="M1977.7 1175.79l-48.6 185.01 48.64-185.29c-.01.1-.02.19-.04.28"/><path fill="#EDC4BB" d="M1977.75 1175.51l-48.64 185.29 48.68-185.57c-.02.1-.03.19-.04.28"/><path fill="#EDC4BB" d="M1977.79 1175.23l-48.68 185.57 48.72-185.85c-.02.1-.03.19-.04.28M1977.82 1174.95l-48.72 185.85 48.74-186.13c0 .1-.01.19-.02.28"/><path fill="#EDC4BB" d="M1977.85 1174.67l-48.74 186.13 48.77-186.41c-.01.09-.02.19-.03.28"/><path fill="#EDC5BC" d="M1977.87 1174.39l-48.77 186.41 48.79-186.69c0 .09-.01.19-.02.28"/><path fill="#EDC5BC" d="M1977.89 1174.11l-48.79 186.69 48.8-186.97c0 .09 0 .19-.01.28"/><path fill="#EDC5BC" d="M1977.91 1173.83l-48.8 186.97 48.81-187.25c-.01.09-.01.18-.01.28"/><path fill="#EDC5BC" d="M1977.92 1173.55l-48.81 187.25 48.82-187.54c-.01.1-.01.19-.01.29"/><path fill="#EDC6BC" d="M1977.92 1173.26l-48.82 187.54 48.82-187.82v.28"/><path fill="#EDC6BD" d="M1977.92 1172.98l-48.82 187.82 48.81-188.1c.01.09.01.19.01.28"/><path fill="#EDC6BD" d="M1977.91 1172.7l-48.81 188.1 48.8-188.39c.01.1.01.19.01.29"/><path fill="#EDC6BD" d="M1977.91 1172.42l-48.8 188.39 48.79-188.67c0 .09 0 .18.01.28"/><path fill="#EDC7BD" d="M1977.89 1172.13l-48.79 188.67 48.77-188.95.02.28M1977.87 1171.85l-48.77 188.95 48.74-189.23c.01.09.02.19.03.28"/><path fill="#EDC7BE" d="M1977.84 1171.57l-48.74 189.23 48.71-189.52.03.29M1977.81 1171.28l-48.71 189.52 48.68-189.81.03.29"/><path fill="#EDC7BE" d="M1977.78 1170.99l-48.68 189.81 48.63-190.1c.02.1.04.2.05.29"/><path fill="#EDC8BE" d="M1977.74 1170.71l-48.63 190.1 48.59-190.38c.01.08.02.18.04.28M1977.69 1170.42l-48.59 190.38 48.54-190.67c.02.09.04.19.05.29"/><path fill="#EDC8BF" d="M1977.64 1170.13l-48.54 190.67 48.48-190.96c.03.1.04.19.06.29"/><path fill="#EDC8BF" d="M1977.59 1169.84l-48.48 190.96 48.42-191.25.06.29"/><path fill="#EDC9BF" d="M1977.53 1169.55l-48.42 191.25 48.35-191.53c.02.09.04.19.07.28"/><path fill="#EDC9BF" d="M1977.46 1169.27l-48.35 191.53 48.28-191.83.07.3"/><path fill="#EDC9C0" d="M1977.38 1168.97l-48.28 191.83 48.2-192.13c.03.1.06.2.08.3M1977.3 1168.67l-48.2 192.13 48.11-192.43c.04.1.07.2.09.3"/><path fill="#EDCAC0" d="M1977.22 1168.37l-48.11 192.43 48.02-192.73.09.3"/><path fill="#EDCAC0" d="M1977.13 1168.07l-48.02 192.73 47.93-193.02c.02.1.06.19.09.29M1977.03 1167.78l-47.93 193.02 47.82-193.32c.04.1.08.2.11.3"/><path fill="#EDCAC1" d="M1976.93 1167.48l-47.82 193.32 47.72-193.62c.03.1.06.2.1.3M1976.82 1167.18l-47.72 193.62 47.6-193.93c.04.11.08.21.12.31"/><path fill="#EDCBC1" d="M1976.7 1166.87l-47.6 193.93 47.47-194.24c.05.1.09.21.13.31M1976.57 1166.56l-47.47 194.24 47.34-194.56c.05.11.09.22.13.32"/><path fill="#EDCBC1" d="M1976.44 1166.25l-47.34 194.56 47.2-194.87c.05.1.1.2.14.31"/><path fill="#EDCBC2" d="M1976.3 1165.93l-47.2 194.87 47.05-195.18c.05.11.1.21.15.31"/><path fill="#EDCCC2" d="M1976.15 1165.62l-47.05 195.18 46.9-195.49c.05.1.1.21.15.31M1976 1165.31l-46.9 195.49 46.74-195.8c.06.1.11.21.16.31"/><path fill="#EDCCC2" d="M1975.84 1165l-46.74 195.8 46.56-196.14c.06.11.12.22.18.34"/><path fill="#EDCCC2" d="M1975.66 1164.66l-46.56 196.14 46.37-196.48c.07.12.13.23.19.34"/><path fill="#EDCDC3" d="M1975.47 1164.32l-46.37 196.48 46.17-196.81c.07.11.14.22.2.33"/><path fill="#EDCDC3" d="M1975.28 1163.99l-46.17 196.81 45.97-197.15c.06.11.13.22.2.34M1975.07 1163.65l-45.97 197.15 45.76-197.48.21.33M1974.86 1163.32l-45.76 197.48 45.54-197.82c.08.12.15.23.22.34"/><path fill="#EDCEC3" d="M1974.64 1162.99l-45.54 197.82 45.28-198.19c.09.12.18.24.26.37"/><path fill="#EDCEC4" d="M1974.39 1162.61l-45.28 198.19 45.02-198.56c.08.12.17.25.26.37M1974.12 1162.24l-45.02 198.56 44.74-198.93c.1.12.19.25.28.37"/><path fill="#EDCEC4" d="M1973.85 1161.87l-44.74 198.93 44.46-199.3c.09.12.18.25.28.37M1973.56 1161.5l-44.46 199.3 44.16-199.67c.11.13.2.25.3.37"/><path fill="#EDCFC4" d="M1973.27 1161.13l-44.16 199.67 43.83-200.07c.1.14.22.27.33.4"/><path fill="#EDCFC5" d="M1972.93 1160.73l-43.83 200.07 43.45-200.5c.13.14.26.29.38.43"/><path fill="#EDCFC5" d="M1972.56 1160.3l-43.45 200.5 43.06-200.93c.13.15.26.29.39.43"/><path fill="#EDCFC5" d="M1972.17 1159.88l-43.06 200.93 42.66-201.35c.13.13.27.27.4.42"/><path fill="#EDD0C5" d="M1971.77 1159.45l-42.66 201.35 42.25-201.77c.13.14.27.28.41.42M1971.35 1159.03l-42.25 201.77 41.7-202.3c.19.18.37.35.55.53"/><path fill="#EDD0C6" d="M1970.81 1158.5l-41.7 202.3 41.13-202.82c.19.17.38.35.57.52"/><path fill="#EDD0C6" d="M1970.24 1157.98l-41.13 202.82 40.54-203.34c.2.17.39.35.59.52"/><path fill="#EDD1C6" d="M1969.65 1157.46l-40.54 203.34 39.83-203.93c.24.19.48.39.71.59"/><path fill="#EDD1C6" d="M1968.94 1156.87l-39.83 203.93 38.91-204.65c.31.24.62.48.92.72"/><path fill="#EDD1C7" d="M1968.02 1156.15l-38.91 204.65 37.95-205.36c.32.23.64.47.96.71"/><path fill="#EDD1C7" d="M1967.06 1155.44l-37.95 205.36 36.19-206.54c.6.39 1.19.78 1.76 1.18M1965.29 1154.26l-36.19 206.54 30.31-209.72c1.66.76 3.28 1.6 4.85 2.54.35.21.7.42 1.03.64"/><path fill="#EDD1C7" d="M1959.41 1151.09l-30.31 209.72 28.33-210.57c.67.26 1.33.55 1.98.85M1957.43 1150.23l-28.33 210.57 26.88-211.15c.49.19.97.38 1.45.58"/><path fill="#EDD1C6" d="M1955.98 1149.65l-26.88 211.15 25.62-211.61c.42.15.84.31 1.26.46"/><path fill="#EDD1C6" d="M1954.72 1149.19l-25.62 211.61 24.61-211.96c.35.12.68.23 1.01.35"/><path fill="#EDD0C6" d="M1953.72 1148.85l-24.61 211.96 23.6-212.29c.34.1.67.21 1.01.33"/><path fill="#EDD0C6" d="M1952.71 1148.52l-23.6 212.29 22.62-212.59c.32.09.65.19.98.3"/><path fill="#EDD0C5" d="M1951.72 1148.21l-22.62 212.59 21.82-212.82c.27.08.54.15.8.23"/><path fill="#EDD0C5" d="M1950.93 1147.98l-21.82 212.82 21.02-213.05c.26.08.53.15.8.23"/><path fill="#EDCFC5" d="M1950.13 1147.76l-21.02 213.05 20.22-213.26c.26.06.53.13.8.21M1949.32 1147.54l-20.22 213.26 19.4-213.47c.28.07.55.14.82.21"/><path fill="#EDCFC5" d="M1948.51 1147.33l-19.4 213.47 18.71-213.63c.23.05.46.11.69.16"/><path fill="#EDCFC4" d="M1947.82 1147.17l-18.71 213.63 18.03-213.79c.22.05.45.1.68.16"/><path fill="#EDCEC4" d="M1947.14 1147.01l-18.03 213.79 17.35-213.94c.22.05.45.1.68.15M1946.45 1146.86l-17.35 213.94 16.66-214.09.69.15M1945.76 1146.71l-16.66 214.09 15.97-214.23c.23.05.46.09.69.14"/><path fill="#EDCEC4" d="M1945.07 1146.57l-15.97 214.23 15.34-214.35c.22.04.42.08.63.12"/><path fill="#EDCEC3" d="M1944.45 1146.45l-15.34 214.35 14.73-214.46c.2.04.4.07.61.11"/><path fill="#EDCDC3" d="M1943.84 1146.34l-14.73 214.46 14.12-214.57c.2.04.41.07.61.11"/><path fill="#EDCDC3" d="M1943.23 1146.23l-14.12 214.57 13.51-214.67c.2.03.4.07.61.1M1942.61 1146.13l-13.51 214.67 12.9-214.77c.21.04.41.07.61.1M1942 1146.03l-12.9 214.77 12.28-214.86c.21.03.42.06.62.09"/><path fill="#EDCCC2" d="M1941.38 1145.94l-12.28 214.86 11.72-214.94c.19.03.38.05.56.08M1940.82 1145.86l-11.72 214.94 11.16-215.02.56.08"/><path fill="#EDCCC2" d="M1940.26 1145.78l-11.16 215.02 10.59-215.09c.2.03.38.05.57.07"/><path fill="#EDCCC2" d="M1939.7 1145.71l-10.59 215.09 10.03-215.16.56.07"/><path fill="#EDCBC2" d="M1939.14 1145.64l-10.03 215.16 9.47-215.22c.18.02.37.04.56.06"/><path fill="#EDCBC1" d="M1938.57 1145.58l-9.47 215.22 8.9-215.28.57.06"/><path fill="#EDCBC1" d="M1938.01 1145.52l-8.9 215.28 8.35-215.34.55.06"/><path fill="#EDCBC1" d="M1937.46 1145.46l-8.35 215.34 7.83-215.39c.17.02.34.04.52.05"/><path fill="#EDCAC1" d="M1936.93 1145.41l-7.83 215.39 7.3-215.43c.18.01.35.03.53.04M1936.4 1145.37l-7.3 215.43 6.77-215.47c.18.01.36.02.53.04"/><path fill="#EDCAC0" d="M1935.87 1145.33l-6.77 215.47 6.24-215.51c.18.01.36.02.53.04M1935.34 1145.29l-6.24 215.51 5.71-215.55c.18.01.36.02.53.04"/><path fill="#EDCAC0" d="M1934.81 1145.25l-5.71 215.55 5.18-215.58c.18.01.36.02.53.03"/><path fill="#EDC9C0" d="M1934.28 1145.22l-5.18 215.58 4.66-215.61c.18.01.35.02.52.03"/><path fill="#EDC9C0" d="M1933.77 1145.19l-4.66 215.61 4.15-215.63c.17.01.34.01.51.02"/><path fill="#EDC9BF" d="M1933.26 1145.17l-4.15 215.63 3.65-215.66c.16.01.33.02.5.03M1932.75 1145.15l-3.65 215.66 3.14-215.67c.18-.01.34 0 .51.01"/><path fill="#EDC8BF" d="M1932.25 1145.13l-3.14 215.67 2.64-215.69c.16.01.33.01.5.02M1931.74 1145.11l-2.64 215.69 2.13-215.7.51.01"/><path fill="#EDC8BE" d="M1931.23 1145.1l-2.13 215.7 1.62-215.71c.18 0 .35.01.51.01"/><path fill="#EDC8BE" d="M1930.73 1145.09l-1.62 215.71 1.12-215.72c.16.01.33.01.5.01"/><path fill="#EDC7BE" d="M1930.22 1145.09l-1.12 215.72.63-215.72c.17-.01.33-.01.49 0M1929.73 1145.08l-.63 215.72.14-215.72h.49"/><path fill="#EDC7BE" d="M1929.24 1145.08l-.14 215.72-.35-215.72h.49"/><path fill="#EDC7BD" d="M1928.75 1145.09l.35 215.72-.85-215.71c.17-.01.34-.01.5-.01"/><path fill="#EDC7BD" d="M1928.26 1145.09l.85 215.71-1.34-215.7c.16 0 .32-.01.49-.01"/><path fill="#EDC6BD" d="M1927.77 1145.1l1.34 215.7-1.83-215.69c.16 0 .32-.01.49-.01"/><path fill="#EDC6BD" d="M1927.28 1145.11l1.83 215.69-2.32-215.68c.16 0 .32-.01.49-.01"/><path fill="#EDC6BD" d="M1926.79 1145.12l2.32 215.68-2.81-215.66.49-.02"/><path fill="#EDC6BC" d="M1926.3 1145.14l2.81 215.66-3.29-215.64c.16-.01.32-.01.48-.02"/><path fill="#EDC5BC" d="M1925.82 1145.16l3.29 215.64-3.77-215.62c.15 0 .31-.01.48-.02M1925.33 1145.18l3.77 215.62-4.25-215.59.48-.03"/><path fill="#EDC5BC" d="M1924.85 1145.21l4.25 215.59-4.74-215.56c.17-.01.33-.02.49-.03"/><path fill="#EDC5BC" d="M1924.37 1145.24l4.74 215.56-5.22-215.53.48-.03"/><path fill="#EDC4BB" d="M1923.89 1145.27l5.22 215.53-5.7-215.5c.15-.01.32-.02.48-.03M1923.4 1145.3l5.7 215.5-6.18-215.46c.16-.01.32-.03.48-.04M1922.92 1145.34l6.18 215.46-6.66-215.42c.16-.02.32-.03.48-.04M1922.44 1145.38l6.66 215.42-7.14-215.38c.16-.01.32-.03.48-.04"/><path fill="#EDC3BB" d="M1921.96 1145.42l7.14 215.38-7.62-215.34c.16-.01.32-.03.48-.04"/><path fill="#EDC3BA" d="M1921.48 1145.47l7.62 215.34-8.1-215.29c.16-.02.32-.04.48-.05"/><path fill="#EDC3BA" d="M1921 1145.51l8.1 215.29-8.58-215.24c.16-.01.32-.03.48-.05"/><path fill="#ECC3BA" d="M1920.52 1145.56l8.58 215.24-9.06-215.18.48-.06"/><path fill="#ECC3BA" d="M1920.04 1145.62l9.06 215.18-9.54-215.13c.16-.02.32-.03.48-.05"/><path fill="#ECC2BA" d="M1919.57 1145.67l9.54 215.13-10.02-215.07.48-.06"/><path fill="#ECC2B9" d="M1919.09 1145.73l10.02 215.07-10.5-215c.15-.03.31-.05.48-.07M1918.6 1145.8l10.5 215-10.99-214.94c.17-.02.33-.04.49-.06"/><path fill="#ECC2B9" d="M1918.12 1145.86l10.99 214.94-11.47-214.87c.15-.02.31-.04.48-.07"/><path fill="#ECC1B9" d="M1917.63 1145.93l11.47 214.87-11.95-214.8.48-.07"/><path fill="#ECC1B8" d="M1917.15 1146l11.95 214.8-12.44-214.72c.17-.03.33-.05.49-.08"/><path fill="#ECC1B8" d="M1916.67 1146.08l12.44 214.72-12.92-214.64c.16-.03.32-.06.48-.08M1916.19 1146.16l12.92 214.64-13.4-214.56c.16-.03.32-.06.48-.08"/><path fill="#ECC0B8" d="M1915.71 1146.24l13.4 214.56-13.89-214.48c.16-.02.32-.05.49-.08M1915.21 1146.32l13.89 214.48-14.38-214.39c.17-.03.33-.06.49-.09"/><path fill="#ECC0B7" d="M1914.72 1146.42l14.39 214.39-14.88-214.29c.16-.04.32-.07.49-.1M1914.22 1146.51l14.88 214.29-15.37-214.2c.17-.03.33-.06.49-.09M1913.73 1146.61l15.37 214.2-15.86-214.1c.17-.04.33-.07.49-.1"/><path fill="#ECBFB7" d="M1913.24 1146.71l15.86 214.1-16.35-213.99c.17-.05.33-.08.49-.11"/><path fill="#ECBFB7" d="M1912.75 1146.81l16.35 213.99-16.84-213.89c.17-.03.33-.07.49-.1"/><path fill="#ECBFB6" d="M1912.26 1146.91l16.84 213.89-17.35-213.77.51-.12"/><path fill="#ECBFB6" d="M1911.76 1147.03l17.35 213.77-17.86-213.65c.16-.04.33-.08.51-.12"/><path fill="#ECBEB6" d="M1911.24 1147.15l17.86 213.65-18.38-213.53c.18-.04.35-.08.52-.12"/><path fill="#ECBEB6" d="M1910.73 1147.27l18.38 213.53-18.89-213.4c.17-.04.34-.09.51-.13M1910.22 1147.4l18.89 213.4-19.4-213.27c.17-.05.34-.09.51-.13"/><path fill="#ECBEB5" d="M1909.71 1147.53l19.4 213.27-19.9-213.14c.16-.04.33-.09.5-.13"/><path fill="#ECBDB5" d="M1909.2 1147.66l19.9 213.14-20.41-213c.17-.05.34-.09.51-.14"/><path fill="#ECBDB5" d="M1908.7 1147.8l20.41 213-20.95-212.85c.17-.05.36-.1.54-.15M1908.15 1147.95l20.95 212.85-21.5-212.69c.19-.05.37-.1.55-.16"/><path fill="#ECBDB5" d="M1907.61 1148.11l21.5 212.69-22.04-212.53c.18-.05.36-.1.54-.16"/><path fill="#ECBCB4" d="M1907.07 1148.28l22.04 212.53-22.58-212.36c.18-.06.36-.12.54-.17"/><path fill="#ECBCB4" d="M1906.53 1148.44l22.58 212.36-23.11-212.19c.17-.06.35-.11.53-.17M1905.99 1148.61l23.11 212.19-23.65-212.01.54-.18"/><path fill="#ECBCB4" d="M1905.46 1148.79l23.65 212.01-24.22-211.82.57-.19M1904.88 1148.98l24.22 211.82-24.82-211.61c.21-.07.4-.14.6-.21"/><path fill="#ECBBB3" d="M1904.29 1149.19l24.82 211.61-25.4-211.4c.19-.07.38-.14.58-.21M1903.7 1149.4l25.4 211.4-25.99-211.18c.2-.07.39-.15.59-.22"/><path fill="#ECBBB3" d="M1903.12 1149.62l25.99 211.18-26.57-210.96c.19-.07.38-.14.58-.22M1902.54 1149.85l26.57 210.96-27.16-210.72c.19-.09.39-.17.59-.24"/><path fill="#ECBAB3" d="M1901.95 1150.08l27.16 210.72-27.83-210.45c.22-.09.44-.18.67-.27"/><path fill="#ECBAB2" d="M1901.28 1150.36l27.83 210.45-28.49-210.16c.22-.11.44-.2.66-.29"/><path fill="#ECBAB2" d="M1900.62 1150.64l28.49 210.16-29.15-209.87c.22-.1.43-.2.66-.29"/><path fill="#ECBAB2" d="M1899.96 1150.93l29.15 209.87-29.79-209.57c.21-.1.42-.2.64-.3"/><path fill="#ECB9B2" d="M1899.31 1151.23l29.79 209.57-30.5-209.24c.24-.11.47-.22.71-.33"/><path fill="#ECB9B1" d="M1898.6 1151.56l30.5 209.24-31.29-208.85c.27-.13.53-.26.79-.39"/><path fill="#ECB9B1" d="M1897.82 1151.95l31.29 208.85-32.06-208.45c.25-.13.51-.27.77-.4M1897.04 1152.35l32.06 208.45-32.82-208.04c.25-.13.51-.27.76-.41"/><path fill="#ECB9B1" d="M1896.28 1152.76l32.82 208.04-33.73-207.52c.2-.12.4-.23.6-.34l.31-.18"/><path fill="#ECB8B1" d="M1895.38 1153.28l33.73 207.52-34.7-206.94c.31-.2.64-.39.97-.58"/><path fill="#ECB8B0" d="M1894.41 1153.86l34.7 206.94-35.64-206.35c.31-.2.62-.4.94-.59"/><path fill="#ECB8B0" d="M1893.47 1154.45l35.64 206.35-36.9-205.49c.4-.29.82-.58 1.26-.86M1892.2 1155.31l36.9 205.49-38.21-204.53c.43-.32.86-.64 1.31-.96"/><path fill="#ECB7B0" d="M1890.9 1156.28l38.21 204.53-47.22-183.7c-1.86-7.22 1.16-14.76 9.01-20.83"/></g><defs><path id="H" d="M1929.1 1360.8l34.19-167.63c7.85-4.4 12.55-9.98 14.08-15.8-16.09 61.15-32.18 122.29-48.27 183.43z"/></defs><clipPath id="I"><use xlink:href="#H" overflow="visible"/></clipPath><g clip-path="url(#I)"><path fill="#ECB7B0" d="M1963.29 1193.17l-34.19 167.63 48.26-183.43c-1.52 5.82-6.22 11.39-14.07 15.8"/></g><g><defs><path id="J" d="M1881.88 1177.1c2.18 6.65 6.9 12.18 13.13 15.37 18.59 11.11 49.16 11.42 68.28.69l-34.19 167.63c-15.74-61.22-31.48-122.46-47.22-183.69z"/></defs><clipPath id="K"><use xlink:href="#J" overflow="visible"/></clipPath><g clip-path="url(#K)"><path fill="#ECBDB5" d="M1881.88 1177.1l47.22 183.7-47.18-183.55-.04-.15"/><path fill="#ECBDB5" d="M1881.92 1177.25l47.18 183.55-47.03-183.02c-.05-.18-.1-.35-.15-.53"/><path fill="#ECBDB5" d="M1882.07 1177.78l47.03 183.02-46.87-182.5c-.05-.17-.11-.35-.16-.52M1882.24 1178.3l46.87 182.5-46.68-181.97c-.07-.18-.13-.35-.19-.53"/><path fill="#ECBEB5" d="M1882.42 1178.83l46.68 181.97-46.48-181.44c-.07-.18-.13-.36-.2-.53"/><path fill="#ECBEB6" d="M1882.63 1179.36l46.48 181.44-46.25-180.9c-.09-.18-.16-.36-.23-.54"/><path fill="#ECBEB6" d="M1882.85 1179.9l46.25 180.9-46.01-180.37c-.08-.17-.16-.35-.24-.53M1883.1 1180.43l46.01 180.37-45.74-179.84c-.1-.17-.19-.35-.27-.53"/><path fill="#ECBFB6" d="M1883.36 1180.96l45.74 179.84-45.45-179.28c-.09-.18-.19-.37-.29-.56M1883.66 1181.52l45.45 179.28-45.12-178.72c-.12-.18-.23-.37-.33-.56"/><path fill="#ECBFB7" d="M1883.98 1182.08l45.12 178.72-44.78-178.16c-.11-.18-.23-.37-.34-.56"/><path fill="#ECBFB7" d="M1884.32 1182.64l44.78 178.16-44.41-177.59c-.12-.19-.25-.38-.37-.57"/><path fill="#ECC0B7" d="M1884.69 1183.21l44.41 177.59-43.98-176.98c-.15-.21-.29-.41-.43-.61"/><path fill="#ECC0B7" d="M1885.12 1183.82l43.98 176.98-43.53-176.38-.45-.6M1885.58 1184.42l43.53 176.38-43.05-175.78c-.17-.19-.33-.39-.48-.6"/><path fill="#ECC0B8" d="M1886.06 1185.02l43.05 175.78-42.47-175.1c-.2-.22-.4-.45-.58-.68"/><path fill="#ECC0B8" d="M1886.63 1185.7l42.47 175.1-41.85-174.41c-.21-.23-.41-.46-.62-.69"/><path fill="#ECC1B8" d="M1887.26 1186.39l41.85 174.41-41.18-173.73c-.24-.23-.46-.45-.67-.68M1887.92 1187.07l41.18 173.73-40.31-172.9c-.29-.27-.59-.55-.87-.83M1888.8 1187.9l40.31 172.9-39.37-172.07c-.33-.27-.64-.55-.94-.83"/><path fill="#ECC1B9" d="M1889.73 1188.73l39.37 172.07-38.08-171.03c-.44-.34-.87-.69-1.29-1.04"/><path fill="#ECC2B9" d="M1891.03 1189.77l38.08 171.03-36.41-169.81c-.59-.4-1.14-.8-1.67-1.22M1892.69 1190.99l36.41 169.81-27.74-165.13c-2.19-.92-4.31-1.98-6.35-3.19-.81-.49-1.58-.98-2.32-1.49"/><path fill="#ECC2B9" d="M1901.36 1195.67l27.74 165.13-25.47-164.23c-.76-.28-1.52-.58-2.27-.9"/><path fill="#ECC1B9" d="M1903.64 1196.58l25.47 164.23-23.73-163.61c-.59-.21-1.17-.41-1.74-.62"/><path fill="#ECC1B8" d="M1905.37 1197.19l23.73 163.61-22.12-163.09c-.54-.16-1.07-.34-1.61-.52M1906.98 1197.71l22.12 163.09-20.75-162.68c-.46-.13-.91-.27-1.37-.41"/><path fill="#ECC1B8" d="M1908.35 1198.12l20.75 162.68-19.47-162.33c-.42-.11-.85-.23-1.28-.35"/><path fill="#ECC0B8" d="M1909.64 1198.48l19.47 162.33-18.18-162c-.44-.11-.86-.22-1.29-.33"/><path fill="#ECC0B8" d="M1910.92 1198.8l18.18 162-17.07-161.73-1.11-.27"/><path fill="#ECC0B7" d="M1912.03 1199.07l17.07 161.73-15.96-161.49c-.36-.08-.74-.16-1.11-.24M1913.15 1199.31l15.96 161.49-14.83-161.26c-.38-.07-.76-.15-1.13-.23"/><path fill="#ECC0B7" d="M1914.27 1199.54l14.83 161.26-13.81-161.07c-.34-.06-.68-.12-1.02-.19"/><path fill="#ECBFB7" d="M1915.29 1199.73l13.81 161.07-12.8-160.89c-.33-.06-.67-.12-1.01-.18"/><path fill="#ECBFB7" d="M1916.3 1199.91l12.8 160.89-11.78-160.73c-.34-.05-.68-.1-1.02-.16"/><path fill="#ECBFB6" d="M1917.32 1200.07l11.78 160.73-10.79-160.58-.99-.15M1918.32 1200.22l10.79 160.58-9.84-160.45c-.32-.04-.64-.09-.95-.13"/><path fill="#ECBEB6" d="M1919.27 1200.35l9.84 160.45-8.88-160.34c-.33-.03-.64-.07-.96-.11"/><path fill="#ECBEB6" d="M1920.22 1200.46l8.88 160.34-7.92-160.23c-.32-.03-.64-.07-.96-.11"/><path fill="#ECBEB6" d="M1921.18 1200.57l7.92 160.23-6.99-160.14-.93-.09"/><path fill="#ECBEB5" d="M1922.12 1200.66l6.99 160.14-6.06-160.06c-.32-.02-.62-.05-.93-.08"/><path fill="#ECBDB5" d="M1923.04 1200.74l6.06 160.06-5.14-159.99c-.3-.02-.61-.04-.92-.07M1923.97 1200.81l5.14 159.99-4.21-159.93c-.32-.01-.63-.03-.93-.06"/><path fill="#ECBDB5" d="M1924.89 1200.87l4.21 159.93-3.29-159.88c-.31-.01-.61-.03-.92-.05"/><path fill="#ECBDB5" d="M1925.81 1200.92l3.29 159.88-2.38-159.84c-.3-.01-.6-.02-.91-.04"/><path fill="#ECBCB4" d="M1926.73 1200.96l2.38 159.84-1.46-159.81c-.31-.01-.62-.02-.92-.03"/><path fill="#ECBCB4" d="M1927.64 1200.99l1.46 159.81-.54-159.79c-.31-.01-.61-.01-.92-.02"/><path fill="#ECBCB4" d="M1928.56 1201.01l.54 159.79.38-159.78c-.3-.01-.61-.01-.92-.01"/><path fill="#ECBCB4" d="M1929.48 1201.02l-.38 159.78 1.31-159.79c-.31.01-.62.01-.93.01M1930.41 1201.01l-1.31 159.79 2.24-159.8c-.31.01-.62.01-.93.01"/><path fill="#ECBBB3" d="M1931.34 1201l-2.24 159.8 3.17-159.82c-.31.01-.62.02-.93.02"/><path fill="#ECBBB3" d="M1932.27 1200.98l-3.17 159.82 4.12-159.85c-.31.01-.63.02-.95.03M1933.23 1200.95l-4.12 159.85 5.09-159.9c-.33.02-.65.03-.97.05"/><path fill="#ECBBB3" d="M1934.19 1200.9l-5.09 159.9 6.06-159.96c-.32.03-.64.04-.97.06"/><path fill="#ECBAB3" d="M1935.16 1200.84l-6.06 159.96 7.02-160.02-.96.06"/><path fill="#ECBAB2" d="M1936.13 1200.78l-7.02 160.02 8.04-160.11-1.02.09M1937.15 1200.69l-8.04 160.11 9.08-160.21c-.35.04-.7.07-1.04.1"/><path fill="#ECBAB2" d="M1938.19 1200.59l-9.08 160.21 10.12-160.32c-.35.04-.7.08-1.04.11"/><path fill="#ECB9B2" d="M1939.22 1200.48l-10.12 160.32 11.18-160.45c-.35.05-.7.09-1.06.13"/><path fill="#ECB9B1" d="M1940.28 1200.35l-11.18 160.45 12.34-160.61c-.38.06-.77.11-1.16.16M1941.44 1200.19l-12.34 160.61 13.49-160.78c-.37.06-.76.12-1.15.17M1942.6 1200.02l-13.49 160.78 14.67-160.98c-.4.07-.79.14-1.18.2"/><path fill="#ECB9B1" d="M1943.77 1199.82l-14.67 160.98 16.04-161.23c-.45.09-.91.17-1.37.25"/><path fill="#ECB8B1" d="M1945.14 1199.57l-16.04 161.23 17.4-161.51c-.45.1-.9.19-1.36.28"/><path fill="#ECB8B0" d="M1946.5 1199.3l-17.4 161.51 18.97-161.86c-.52.11-1.04.23-1.57.35"/><path fill="#ECB8B0" d="M1948.07 1198.94l-18.97 161.86 20.74-162.3c-.58.15-1.17.3-1.77.44"/><path fill="#ECB8B0" d="M1949.84 1198.5l-20.74 162.3 23.08-162.97c-.77.24-1.55.46-2.34.67"/><path fill="#ECB7B0" d="M1952.18 1197.83l-23.08 162.97 34.19-167.63c-3.52 1.95-7.25 3.51-11.11 4.66"/></g></g><g><defs><path id="L" d="M2062.46 1161.77c1.42 5.51 3.31 12.86 4.72 18.37.71 2.76 1.65 6.43 2.36 9.18 1.42 5.51 3.31 12.86 4.72 18.37 1.42 5.51 3.31 12.86 4.72 18.37.71 2.76 1.65 6.43 2.36 9.18 1.42 5.51 3.31 12.86 4.72 18.37 1.42 5.51 3.31 12.86 4.72 18.37l2.36 9.18c1.42 5.51 3.31 12.86 4.72 18.37 1.42 5.51 3.31 12.86 4.72 18.37.71 2.76 1.65 6.43 2.36 9.18 1.42 5.51 3.31 12.86 4.72 18.37 8.37 32.54-9.5 66.82-53.32 91.41l-33.1-207.86c32.23-18.08 45.37-43.29 39.22-67.23z"/></defs><clipPath id="M"><use xlink:href="#L" overflow="visible"/></clipPath><g clip-path="url(#M)"><path fill="#ECB9B1" d="M2056.36 1436.88l-33.12-207.87c.57-.32 1.13-.64 1.68-.96l33.73 207.52c-.76.44-1.52.87-2.29 1.31"/><path fill="#ECB8B1" d="M2058.65 1435.57l-33.73-207.52c.92-.53 1.82-1.07 2.7-1.62l34.7 206.94c-1.2.74-2.43 1.48-3.67 2.2"/><path fill="#ECB8B0" d="M2062.32 1433.37l-34.7-206.94c.89-.54 1.75-1.09 2.61-1.65l35.64 206.35c-1.16.76-2.34 1.5-3.55 2.24"/><path fill="#ECB8B0" d="M2065.87 1431.13l-35.64-206.35c1.21-.79 2.38-1.59 3.53-2.4l36.9 205.49c-1.55 1.1-3.15 2.19-4.79 3.26M2070.67 1427.87l-36.9-205.49c1.25-.88 2.45-1.78 3.62-2.68l38.21 204.53c-1.6 1.23-3.24 2.44-4.93 3.64"/><path fill="#ECB7B0" d="M2075.59 1424.23l-38.21-204.53c21.83-16.91 30.23-37.87 25.07-57.93l47.22 183.7c7.02 27.28-4.39 55.77-34.08 78.76"/></g></g><g><defs><path id="N" d="M1748.62 1344.46c1.45-5.5 3.38-12.84 4.83-18.34.72-2.75 1.69-6.42 2.41-9.17 1.45-5.5 3.38-12.84 4.83-18.34 1.45-5.5 3.38-12.84 4.83-18.34.72-2.75 1.69-6.42 2.41-9.17 1.45-5.5 3.38-12.84 4.83-18.34 1.45-5.5 3.38-12.84 4.83-18.34l2.41-9.17c1.45-5.5 3.38-12.84 4.83-18.34 1.45-5.5 3.38-12.84 4.83-18.34.72-2.75 1.69-6.42 2.41-9.17 1.45-5.5 3.38-12.84 4.83-18.34-6.11 23.24 5.97 47.84 36.46 66.06 51.7 30.9 136.72 31.76 189.9 1.92l33.12 207.87c-72.31 40.57-187.9 39.41-258.18-2.61-41.46-24.81-57.89-58.25-49.58-89.84z"/></defs><clipPath id="O"><use xlink:href="#N" overflow="visible"/></clipPath><g clip-path="url(#O)"><path fill="#ECC2B9" d="M1748.62 1344.46l48.26-183.43c-.04.15-.08.31-.12.46l-48.31 183.59c.06-.21.11-.42.17-.62"/><path fill="#ECC2BA" d="M1748.46 1345.08l48.31-183.59c-.07.26-.13.52-.19.78l-48.37 183.88c.07-.36.16-.72.25-1.07"/><path fill="#ECC3BA" d="M1748.2 1346.15l48.37-183.88c-.06.26-.12.52-.18.79l-48.44 184.16c.08-.36.16-.72.25-1.07M1747.96 1347.21l48.44-184.16c-.06.26-.11.52-.16.79l-48.5 184.44c.06-.35.14-.71.22-1.07"/><path fill="#EDC3BA" d="M1747.73 1348.28l48.5-184.44c-.05.26-.1.52-.15.79l-48.55 184.72c.06-.35.13-.71.2-1.07"/><path fill="#EDC3BA" d="M1747.53 1349.35l48.55-184.72c-.05.26-.09.52-.14.79l-48.6 185.01c.06-.36.12-.72.19-1.08"/><path fill="#EDC3BB" d="M1747.34 1350.42l48.6-185.01-.12.78-48.64 185.29c.05-.35.11-.7.16-1.06"/><path fill="#EDC4BB" d="M1747.18 1351.49l48.64-185.29c-.04.26-.07.52-.11.78l-48.68 185.57c.05-.36.1-.71.15-1.06"/><path fill="#EDC4BB" d="M1747.03 1352.55l48.68-185.57c-.03.26-.07.52-.09.78l-48.72 185.85c.05-.35.09-.71.13-1.06M1746.91 1353.61l48.72-185.85c-.03.26-.06.52-.08.78l-48.74 186.13c.02-.35.06-.71.1-1.06"/><path fill="#EDC4BB" d="M1746.8 1354.67l48.74-186.13c-.02.26-.05.52-.07.78l-48.77 186.41c.03-.35.06-.7.1-1.06"/><path fill="#EDC5BC" d="M1746.71 1355.73l48.77-186.41c-.02.26-.04.52-.05.78l-48.79 186.69c.01-.35.04-.7.07-1.06"/><path fill="#EDC5BC" d="M1746.63 1356.8l48.79-186.69c-.02.26-.03.52-.04.78l-48.8 186.97c.02-.35.03-.71.05-1.06"/><path fill="#EDC5BC" d="M1746.58 1357.86l48.8-186.97-.03.78-48.81 187.25c.01-.35.02-.71.04-1.06M1746.54 1358.92l48.81-187.25c-.01.26-.01.52-.01.79L1746.52 1360c.01-.36.01-.72.02-1.08"/><path fill="#EDC6BC" d="M1746.53 1359.99l48.82-187.54v.79l-48.82 187.82c0-.36-.01-.71 0-1.07"/><path fill="#EDC6BD" d="M1746.53 1361.06l48.82-187.82c0 .26.01.52.01.79l-48.81 188.1c-.01-.36-.02-.71-.02-1.07M1746.55 1362.13l48.81-188.1c.01.26.02.52.03.79l-48.8 188.39c-.02-.37-.03-.72-.04-1.08"/><path fill="#EDC6BD" d="M1746.59 1363.2l48.8-188.39c.01.26.03.52.04.79l-48.79 188.67c-.02-.36-.04-.71-.05-1.07"/><path fill="#EDC7BD" d="M1746.64 1364.27l48.79-188.67c.02.26.04.52.06.79l-48.77 188.95c-.03-.36-.06-.72-.08-1.07M1746.72 1365.34l48.77-188.95c.02.26.04.52.07.79l-48.74 189.23c-.04-.36-.07-.72-.1-1.07"/><path fill="#EDC7BE" d="M1746.81 1366.41l48.74-189.23c.03.26.05.53.08.79l-48.71 189.52c-.04-.37-.07-.72-.11-1.08"/><path fill="#EDC7BE" d="M1746.92 1367.48l48.71-189.52c.03.27.06.54.1.8l-48.68 189.81c-.04-.36-.08-.72-.13-1.09M1747.06 1368.57l48.68-189.81c.03.27.07.54.11.8l-48.63 190.1c-.06-.36-.11-.72-.16-1.09"/><path fill="#EDC8BE" d="M1747.21 1369.66l48.63-190.1c.04.27.08.53.13.8l-48.59 190.38c-.06-.35-.11-.71-.17-1.08M1747.38 1370.75l48.59-190.38c.04.27.09.53.14.8l-48.54 190.67c-.06-.36-.12-.72-.19-1.09"/><path fill="#EDC8BF" d="M1747.58 1371.84l48.54-190.67c.05.27.1.53.16.8l-48.48 190.96c-.08-.36-.15-.72-.22-1.09"/><path fill="#EDC8BF" d="M1747.79 1372.93l48.48-190.96c.05.27.11.53.17.8l-48.42 191.25c-.08-.36-.16-.73-.23-1.09"/><path fill="#EDC9BF" d="M1748.02 1374.02l48.42-191.25c.06.27.12.53.18.8l-48.35 191.53c-.08-.36-.17-.72-.25-1.08"/><path fill="#EDC9BF" d="M1748.27 1375.1l48.35-191.53c.07.28.14.55.21.83l-48.28 191.83c-.09-.37-.19-.75-.28-1.13"/><path fill="#EDC9C0" d="M1748.55 1376.23l48.28-191.83c.07.28.15.55.22.83l-48.2 192.13c-.1-.37-.2-.75-.3-1.13"/><path fill="#EDC9C0" d="M1748.85 1377.36l48.2-192.13c.08.28.16.55.24.83l-48.11 192.43c-.11-.38-.22-.75-.33-1.13"/><path fill="#EDCAC0" d="M1749.18 1378.49l48.11-192.43c.08.28.17.55.25.83l-48.02 192.73c-.11-.38-.23-.76-.34-1.13"/><path fill="#EDCAC0" d="M1749.52 1379.61l48.02-192.73c.09.28.18.55.27.83l-47.93 193.02c-.12-.37-.24-.74-.36-1.12M1749.89 1380.74l47.93-193.02c.09.28.19.55.28.82l-47.82 193.32c-.14-.38-.26-.75-.39-1.12"/><path fill="#EDCAC1" d="M1750.28 1381.86l47.82-193.32c.1.28.2.55.3.82l-47.72 193.62c-.13-.37-.27-.75-.4-1.12M1750.68 1382.98l47.72-193.62c.11.29.22.58.33.86l-47.6 193.93-.45-1.17"/><path fill="#EDCBC1" d="M1751.14 1384.16l47.6-193.93c.12.29.23.58.35.87l-47.47 194.24c-.17-.39-.33-.79-.48-1.18"/><path fill="#EDCBC1" d="M1751.62 1385.34l47.47-194.24c.12.29.24.58.37.87l-47.34 194.56c-.17-.4-.34-.79-.5-1.19M1752.12 1386.53l47.34-194.56.39.87-47.2 194.87c-.18-.39-.35-.79-.53-1.18"/><path fill="#EDCBC2" d="M1752.65 1387.71l47.2-194.87c.13.29.27.58.41.87l-47.05 195.18c-.19-.4-.38-.79-.56-1.18"/><path fill="#EDCCC2" d="M1753.2 1388.89l47.05-195.18c.14.29.28.58.42.86l-46.9 195.49-.57-1.17M1753.78 1390.06l46.9-195.49c.15.29.29.58.45.87l-46.74 195.8c-.21-.38-.41-.78-.61-1.18M1754.39 1391.25l46.74-195.8c.16.31.33.63.5.94l-46.56 196.14c-.23-.43-.46-.85-.68-1.28"/><path fill="#EDCCC2" d="M1755.07 1392.53l46.56-196.14c.17.31.35.63.52.94l-46.37 196.48c-.24-.43-.48-.86-.71-1.28"/><path fill="#EDCDC3" d="M1755.78 1393.8l46.37-196.48c.18.31.36.62.55.93l-46.17 196.81c-.26-.41-.51-.83-.75-1.26"/><path fill="#EDCDC3" d="M1756.52 1395.07l46.17-196.81c.18.31.37.62.57.93l-45.97 197.15c-.26-.42-.52-.85-.77-1.27"/><path fill="#EDCDC3" d="M1757.29 1396.34l45.97-197.15c.19.31.39.62.59.93l-45.76 197.48c-.27-.42-.54-.84-.8-1.26M1758.09 1397.6l45.76-197.48c.2.31.4.62.61.92l-45.54 197.82c-.28-.42-.56-.84-.83-1.26"/><path fill="#EDCEC3" d="M1758.92 1398.85l45.54-197.82c.23.35.47.69.71 1.04l-45.28 198.19c-.33-.46-.66-.93-.97-1.41"/><path fill="#EDCEC4" d="M1759.88 1400.27l45.28-198.19c.24.35.49.69.74 1.04l-45.02 198.56c-.33-.47-.67-.94-1-1.41M1760.89 1401.67l45.02-198.56c.25.34.51.69.77 1.03l-44.74 198.93c-.36-.46-.71-.93-1.05-1.4"/><path fill="#EDCEC4" d="M1761.93 1403.08l44.74-198.93c.26.34.52.68.79 1.03l-44.46 199.3c-.36-.47-.72-.94-1.07-1.4M1763.01 1404.47l44.46-199.3c.27.34.54.68.82 1.02l-44.16 199.67c-.38-.46-.75-.92-1.12-1.39"/><path fill="#EDCFC4" d="M1764.12 1405.86l44.16-199.67c.31.37.62.75.93 1.12l-43.83 200.07c-.42-.5-.84-1.01-1.26-1.52"/><path fill="#EDCFC5" d="M1765.4 1407.38l43.83-200.07c.34.4.69.8 1.04 1.2l-43.45 200.5c-.49-.54-.96-1.09-1.42-1.63"/><path fill="#EDCFC5" d="M1766.81 1409.01l43.45-200.5c.35.4.71.79 1.08 1.19l-43.06 200.93c-.5-.55-.99-1.08-1.47-1.62"/><path fill="#EDCFC5" d="M1768.28 1410.62l43.06-200.93c.37.39.74.79 1.12 1.18l-42.66 201.35c-.52-.53-1.02-1.06-1.52-1.6"/><path fill="#EDD0C5" d="M1769.8 1412.22l42.66-201.35c.38.39.76.78 1.15 1.17l-42.25 201.77c-.53-.53-1.05-1.06-1.56-1.59M1771.37 1413.81l42.25-201.77c.49.49 1 .98 1.51 1.47l-41.7 202.3c-.7-.67-1.39-1.33-2.06-2"/><path fill="#EDD0C6" d="M1773.42 1415.8l41.7-202.3c.52.49 1.04.97 1.58 1.46l-41.13 202.82c-.73-.65-1.44-1.31-2.15-1.98M1775.57 1417.78l41.13-202.82c.54.48 1.09.96 1.64 1.44l-40.54 203.34c-.75-.65-1.5-1.3-2.23-1.96"/><path fill="#EDD1C6" d="M1777.81 1419.74l40.54-203.34c.65.55 1.31 1.1 1.98 1.65l-39.83 203.93c-.92-.74-1.81-1.48-2.69-2.24M1780.5 1421.99l39.83-203.93c.83.67 1.68 1.34 2.55 2l-38.91 204.65c-1.19-.9-2.34-1.81-3.47-2.72"/><path fill="#EDD1C7" d="M1783.97 1424.71l38.91-204.65c.87.66 1.76 1.32 2.68 1.97l-37.95 205.36c-1.24-.89-2.46-1.78-3.64-2.68"/><path fill="#EDD1C7" d="M1787.61 1427.38l37.95-205.36c1.57 1.12 3.2 2.21 4.9 3.29l-36.19 206.54c-2.3-1.46-4.52-2.95-6.66-4.47M1794.27 1431.86l36.19-206.54c.94.6 1.9 1.19 2.88 1.77 4.36 2.6 8.86 4.95 13.48 7.05l-30.31 209.72c-6.28-2.86-12.4-6.06-18.32-9.59-1.34-.8-2.64-1.6-3.92-2.41"/><path fill="#EDD1C7" d="M1816.51 1443.86l30.31-209.72c1.81.83 3.65 1.62 5.51 2.39L1824 1447.1c-2.53-1.04-5.03-2.12-7.49-3.24"/><path fill="#EDD1C7" d="M1824 1447.1l28.33-210.57c1.33.55 2.68 1.08 4.04 1.59l-26.88 211.15c-1.85-.7-3.68-1.42-5.49-2.17"/><path fill="#EDD1C6" d="M1829.49 1449.27l26.88-211.15c1.16.44 2.33.87 3.5 1.28l-25.62 211.61c-1.6-.56-3.18-1.14-4.76-1.74M1834.25 1451.02l25.62-211.61c.92.33 1.85.65 2.79.96l-24.61 211.96c-1.28-.43-2.54-.87-3.8-1.31"/><path fill="#EDD0C6" d="M1838.04 1452.32l24.61-211.96c.93.31 1.87.62 2.82.92l-23.6 212.29c-1.28-.4-2.56-.82-3.83-1.25"/><path fill="#EDD0C6" d="M1841.87 1453.57l23.6-212.29c.91.29 1.82.57 2.74.84l-22.62 212.59c-1.24-.36-2.48-.75-3.72-1.14"/><path fill="#EDD0C5" d="M1845.59 1454.72l22.62-212.59c.73.22 1.47.44 2.21.65l-21.82 212.82c-1.01-.29-2.01-.58-3.01-.88"/><path fill="#EDD0C5" d="M1848.6 1455.6l21.82-212.82c.74.21 1.48.42 2.23.62l-21.02 213.05c-1.02-.28-2.03-.56-3.03-.85"/><path fill="#EDCFC5" d="M1851.63 1456.45l21.02-213.05c.74.2 1.49.4 2.24.6l-20.22 213.26c-1.02-.26-2.03-.54-3.04-.81M1854.67 1457.26l20.22-213.26c.75.2 1.5.39 2.26.57l-19.4 213.47c-1.03-.25-2.06-.51-3.08-.78"/><path fill="#EDCFC5" d="M1857.74 1458.04l19.4-213.47c.64.16 1.28.31 1.92.47l-18.71 213.63c-.87-.2-1.74-.41-2.61-.63"/><path fill="#EDCFC4" d="M1860.35 1458.67l18.71-213.63c.63.15 1.26.3 1.9.44l-18.03 213.79-2.58-.6"/><path fill="#EDCEC4" d="M1862.93 1459.27l18.03-213.79c.63.14 1.27.28 1.91.42l-17.35 213.94c-.86-.18-1.73-.38-2.59-.57"/><path fill="#EDCEC4" d="M1865.52 1459.84l17.35-213.94c.64.14 1.27.27 1.91.41l-16.66 214.09c-.86-.18-1.73-.37-2.6-.56M1868.13 1460.39l16.66-214.09 1.92.39-15.97 214.23c-.87-.17-1.74-.35-2.61-.53"/><path fill="#EDCEC4" d="M1870.74 1460.92l15.97-214.23c.58.11 1.16.23 1.74.33l-15.34 214.35c-.8-.14-1.58-.29-2.37-.45"/><path fill="#EDCEC3" d="M1873.1 1461.38l15.34-214.35c.56.11 1.13.21 1.69.31l-14.73 214.46c-.77-.14-1.53-.28-2.3-.42"/><path fill="#EDCDC3" d="M1875.4 1461.8l14.73-214.46c.57.1 1.13.2 1.7.3l-14.12 214.57c-.77-.14-1.54-.27-2.31-.41"/><path fill="#EDCDC3" d="M1877.71 1462.2l14.12-214.57c.57.1 1.13.19 1.7.28l-13.51 214.67c-.76-.12-1.54-.24-2.31-.38M1880.03 1462.59l13.51-214.67 1.71.27-12.9 214.77c-.77-.12-1.55-.24-2.32-.37M1882.35 1462.96l12.9-214.77c.57.09 1.14.17 1.71.26l-12.28 214.86c-.78-.11-1.55-.23-2.33-.35"/><path fill="#EDCCC2" d="M1884.68 1463.31l12.28-214.86c.52.08 1.04.15 1.57.22l-11.72 214.94c-.71-.09-1.42-.19-2.13-.3M1886.81 1463.62l11.72-214.94 1.56.21-11.16 215.02c-.71-.1-1.41-.2-2.12-.29"/><path fill="#EDCCC2" d="M1888.93 1463.9l11.16-215.02c.52.07 1.04.14 1.56.2l-10.59 215.09c-.71-.08-1.42-.17-2.13-.27"/><path fill="#EDCCC2" d="M1891.06 1464.17l10.59-215.09c.52.07 1.04.13 1.57.19l-10.03 215.16c-.71-.08-1.42-.17-2.13-.26"/><path fill="#EDCBC2" d="M1893.19 1464.43l10.03-215.16c.52.06 1.05.12 1.57.18l-9.47 215.22c-.71-.07-1.42-.15-2.13-.24"/><path fill="#EDCBC1" d="M1895.32 1464.68l9.47-215.22c.52.06 1.05.11 1.57.17l-8.9 215.28c-.72-.08-1.43-.15-2.14-.23"/><path fill="#EDCBC1" d="M1897.46 1464.9l8.9-215.28c.51.05 1.02.1 1.52.15l-8.35 215.34c-.69-.07-1.38-.13-2.07-.21"/><path fill="#EDCBC1" d="M1899.53 1465.11l8.35-215.34c.49.05.98.09 1.47.14l-7.83 215.39c-.66-.06-1.33-.12-1.99-.19"/><path fill="#EDCAC1" d="M1901.52 1465.3l7.83-215.39c.49.04.98.09 1.47.13l-7.3 215.43c-.66-.05-1.33-.11-2-.17"/><path fill="#EDCAC1" d="M1903.52 1465.47l7.3-215.43 1.47.12-6.77 215.47c-.66-.05-1.33-.1-2-.16"/><path fill="#EDCAC0" d="M1905.52 1465.63l6.77-215.47c.49.04.98.07 1.47.11l-6.24 215.51c-.66-.05-1.33-.1-2-.15"/><path fill="#EDCAC0" d="M1907.52 1465.78l6.24-215.51c.49.03.98.07 1.47.1l-5.71 215.55c-.66-.05-1.33-.09-2-.14M1909.53 1465.91l5.71-215.55c.49.03.98.06 1.48.09l-5.18 215.58c-.67-.03-1.34-.07-2.01-.12"/><path fill="#EDC9C0" d="M1911.54 1466.04l5.18-215.58c.48.03.96.05 1.44.08l-4.66 215.61c-.66-.04-1.31-.08-1.96-.11"/><path fill="#EDC9C0" d="M1913.49 1466.14l4.66-215.61c.47.02.94.05 1.41.07l-4.15 215.63-1.92-.09"/><path fill="#EDC9BF" d="M1915.41 1466.23l4.15-215.63 1.41.06-3.65 215.66c-.64-.03-1.28-.06-1.91-.09"/><path fill="#EDC9BF" d="M1917.32 1466.32l3.65-215.66c.47.02.94.04 1.41.05l-3.14 215.67-1.92-.06"/><path fill="#EDC8BF" d="M1919.23 1466.38l3.14-215.67c.47.02.94.03 1.41.04l-2.64 215.69c-.63-.01-1.27-.03-1.91-.06M1921.15 1466.44l2.64-215.69 1.41.03-2.13 215.7c-.64-.01-1.28-.02-1.92-.04"/><path fill="#EDC8BE" d="M1923.06 1466.49l2.13-215.7 1.41.03-1.62 215.71c-.64-.02-1.28-.03-1.92-.04"/><path fill="#EDC8BE" d="M1924.98 1466.52l1.62-215.71c.47.01.93.01 1.4.02l-1.12 215.72c-.63-.01-1.26-.02-1.9-.03"/><path fill="#EDC7BE" d="M1926.89 1466.55l1.12-215.72c.46 0 .91.01 1.37.01l-.63 215.72c-.63-.01-1.25-.01-1.86-.01"/><path fill="#EDC7BE" d="M1928.74 1466.56l.63-215.72h1.37l-.14 215.72h-1.86"/><path fill="#EDC7BE" d="M1930.6 1466.56l.14-215.72c.46 0 .91 0 1.37-.01l.35 215.72c-.62 0-1.24 0-1.86.01"/><path fill="#EDC7BD" d="M1932.46 1466.55l-.35-215.72c.46 0 .91-.01 1.37-.02l.85 215.71c-.63.02-1.25.02-1.87.03"/><path fill="#EDC7BD" d="M1934.32 1466.52l-.85-215.71c.46-.01.91-.01 1.37-.02l1.34 215.7c-.62.02-1.24.03-1.86.03"/><path fill="#EDC6BD" d="M1936.17 1466.49l-1.34-215.7c.46-.01.91-.02 1.37-.03l1.83 215.69c-.62.02-1.24.03-1.86.04"/><path fill="#EDC6BD" d="M1938.03 1466.45l-1.83-215.69c.45-.01.91-.02 1.37-.04l2.32 215.68c-.62.01-1.24.03-1.86.05M1939.89 1466.4l-2.32-215.68c.45-.01.9-.03 1.35-.05l2.81 215.66c-.62.02-1.23.05-1.84.07"/><path fill="#EDC6BC" d="M1941.72 1466.33l-2.81-215.66c.45-.02.9-.04 1.34-.06l3.29 215.64c-.6.03-1.21.06-1.82.08"/><path fill="#EDC5BC" d="M1943.55 1466.26l-3.29-215.64c.45-.02.9-.04 1.34-.06l3.77 215.62c-.6.02-1.21.05-1.82.08M1945.38 1466.17l-3.77-215.62c.45-.02.89-.05 1.34-.07l4.25 215.59c-.6.04-1.21.07-1.82.1M1947.2 1466.07l-4.25-215.59c.45-.03.89-.05 1.34-.08l4.74 215.56c-.61.05-1.22.08-1.83.11"/><path fill="#EDC5BC" d="M1949.03 1465.97l-4.74-215.56c.45-.03.89-.06 1.34-.09l5.22 215.53c-.61.04-1.21.08-1.82.12"/><path fill="#EDC4BB" d="M1950.85 1465.85l-5.22-215.53c.45-.03.89-.06 1.34-.09l5.7 215.5c-.61.04-1.21.08-1.82.12M1952.67 1465.72l-5.7-215.5c.45-.03.89-.07 1.34-.1l6.18 215.46c-.61.05-1.21.1-1.82.14M1954.49 1465.58l-6.18-215.46c.45-.03.89-.07 1.34-.11l6.66 215.42c-.61.06-1.21.11-1.82.15"/><path fill="#EDC4BB" d="M1956.31 1465.44l-6.66-215.42c.45-.04.89-.08 1.34-.12l7.14 215.38c-.61.05-1.21.1-1.82.16"/><path fill="#EDC3BB" d="M1958.13 1465.28l-7.14-215.38c.45-.04.89-.08 1.34-.13l7.62 215.34c-.61.05-1.22.11-1.82.17"/><path fill="#EDC3BA" d="M1959.95 1465.11l-7.62-215.34c.45-.04.89-.09 1.33-.13l8.1 215.29c-.6.06-1.21.12-1.81.18M1961.76 1464.92l-8.1-215.29c.44-.05.89-.09 1.33-.14l8.58 215.24c-.6.07-1.21.13-1.81.19"/><path fill="#ECC3BA" d="M1963.57 1464.73l-8.58-215.24c.44-.05.89-.1 1.33-.15l9.06 215.18c-.6.08-1.2.15-1.81.21"/><path fill="#ECC3BA" d="M1965.38 1464.53l-9.06-215.18c.44-.05.89-.1 1.33-.16l9.54 215.13c-.6.07-1.21.14-1.81.21"/><path fill="#ECC2BA" d="M1967.19 1464.32l-9.54-215.13c.45-.05.89-.11 1.34-.17l10.02 215.07c-.61.08-1.22.15-1.82.23"/><path fill="#ECC2B9" d="M1969 1464.09l-10.02-215.07 1.35-.18 10.5 215c-.6.09-1.21.17-1.83.25M1970.84 1463.85l-10.5-215 1.35-.18 10.99 214.94c-.62.08-1.23.16-1.84.24"/><path fill="#ECC2B9" d="M1972.67 1463.6l-10.99-214.94c.45-.06.9-.13 1.34-.19l11.47 214.87c-.6.09-1.21.18-1.82.26"/><path fill="#ECC1B9" d="M1974.5 1463.34l-11.47-214.87c.45-.07.89-.13 1.34-.2l11.95 214.8c-.61.09-1.21.18-1.82.27"/><path fill="#ECC1B8" d="M1976.32 1463.07l-11.95-214.8c.45-.07.89-.14 1.34-.21l12.44 214.72c-.61.1-1.22.2-1.83.29"/><path fill="#ECC1B8" d="M1978.14 1462.78l-12.44-214.72c.45-.07.89-.14 1.34-.22l12.92 214.64c-.61.11-1.21.21-1.82.3"/><path fill="#ECC1B8" d="M1979.96 1462.49l-12.92-214.64c.44-.07.89-.15 1.33-.22l13.4 214.56c-.6.1-1.21.2-1.81.3"/><path fill="#ECC0B8" d="M1981.77 1462.18l-13.4-214.56 1.38-.24 13.89 214.48c-.62.11-1.24.22-1.87.32M1983.64 1461.86l-13.89-214.48c.46-.08.92-.17 1.38-.25l14.39 214.39c-.63.11-1.25.22-1.88.34"/><path fill="#ECC0B7" d="M1985.51 1461.51l-14.38-214.39c.46-.09.92-.17 1.37-.26l14.88 214.29c-.62.13-1.24.25-1.87.36"/><path fill="#ECC0B7" d="M1987.38 1461.16l-14.88-214.29c.46-.09.91-.18 1.37-.27l15.37 214.2-1.86.36M1989.24 1460.8l-15.37-214.2c.46-.09.91-.18 1.37-.28l15.86 214.1c-.62.13-1.24.25-1.86.38"/><path fill="#ECBFB7" d="M1991.1 1460.42l-15.86-214.1c.45-.09.91-.19 1.36-.29l16.35 213.99c-.61.14-1.23.27-1.85.4"/><path fill="#ECBFB7" d="M1992.95 1460.03l-16.35-213.99c.45-.1.91-.2 1.36-.3l16.84 213.89c-.61.13-1.23.26-1.85.4"/><path fill="#ECBFB6" d="M1994.8 1459.63l-16.84-213.89c.47-.1.94-.21 1.41-.32l17.35 213.77c-.64.15-1.28.29-1.92.44"/><path fill="#ECBFB6" d="M1996.72 1459.2l-17.35-213.77c.48-.11.96-.22 1.43-.33l17.86 213.65c-.64.15-1.29.3-1.94.45"/><path fill="#ECBEB6" d="M1998.66 1458.74l-17.86-213.65c.48-.11.95-.23 1.43-.34l18.38 213.53c-.65.15-1.3.31-1.95.46"/><path fill="#ECBEB6" d="M2000.61 1458.28l-18.38-213.53c.47-.12.95-.23 1.42-.35l18.89 213.4c-.65.16-1.29.32-1.93.48M2002.54 1457.8l-18.89-213.4c.47-.12.95-.24 1.42-.36l19.4 213.27c-.65.16-1.29.32-1.93.49"/><path fill="#ECBEB5" d="M2004.46 1457.3l-19.4-213.27c.47-.12.94-.25 1.41-.37l19.9 213.14c-.63.17-1.27.34-1.91.5"/><path fill="#ECBDB5" d="M2006.38 1456.8l-19.9-213.14c.47-.13.94-.25 1.4-.38l20.41 213c-.64.17-1.27.34-1.91.52M2008.29 1456.27l-20.41-213c.5-.14 1.01-.28 1.51-.42l20.95 212.85c-.68.19-1.37.39-2.05.57"/><path fill="#ECBDB5" d="M2010.34 1455.7l-20.95-212.85c.51-.14 1.01-.29 1.52-.44l21.5 212.69-2.07.6"/><path fill="#ECBDB5" d="M2012.4 1455.1l-21.5-212.69c.5-.15 1.01-.3 1.51-.45l22.04 212.53c-.68.2-1.36.41-2.05.61"/><path fill="#ECBCB4" d="M2014.45 1454.48l-22.04-212.53c.5-.15 1-.31 1.5-.46l22.58 212.36c-.68.22-1.36.43-2.04.63M2016.49 1453.85l-22.58-212.36c.5-.16 1-.32 1.49-.48l23.11 212.19c-.66.22-1.34.44-2.02.65M2018.52 1453.21l-23.11-212.19c.5-.16.99-.32 1.48-.49l23.65 212.01c-.67.23-1.35.45-2.02.67"/><path fill="#ECBCB4" d="M2020.54 1452.54l-23.65-212.01c.53-.18 1.07-.36 1.6-.54l24.22 211.82c-.72.24-1.45.49-2.17.73M2022.71 1451.81l-24.22-211.82c.55-.19 1.1-.38 1.65-.58l24.82 211.61c-.75.26-1.5.53-2.25.79"/><path fill="#ECBBB3" d="M2024.95 1451.02l-24.82-211.61c.55-.19 1.09-.39 1.64-.59l25.4 211.4c-.73.27-1.47.54-2.22.8M2027.18 1450.21l-25.4-211.4c.54-.2 1.09-.4 1.63-.61l25.99 211.18c-.75.29-1.48.56-2.22.83"/><path fill="#ECBBB3" d="M2029.39 1449.39l-25.99-211.18c.54-.2 1.08-.41 1.61-.62l26.57 210.96-2.19.84M2031.58 1448.54l-26.57-210.96c.55-.21 1.09-.43 1.64-.65l27.16 210.72c-.74.3-1.48.6-2.23.89"/><path fill="#ECBAB3" d="M2033.81 1447.66l-27.16-210.72c.62-.25 1.24-.51 1.86-.77l27.83 210.45c-.84.35-1.68.69-2.53 1.04"/><path fill="#ECBAB2" d="M2036.34 1446.61l-27.83-210.45c.62-.26 1.23-.52 1.84-.79l28.49 210.16c-.83.37-1.66.73-2.5 1.08M2038.85 1445.54l-28.49-210.16c.61-.27 1.22-.54 1.82-.81l29.15 209.87c-.82.37-1.65.74-2.48 1.1"/><path fill="#ECBAB2" d="M2041.33 1444.44l-29.15-209.87c.61-.27 1.21-.55 1.81-.83l29.79 209.57c-.81.39-1.63.76-2.45 1.13"/><path fill="#ECB9B2" d="M2043.78 1443.32l-29.8-209.57c.66-.31 1.31-.62 1.96-.93l30.5 209.24c-.87.42-1.76.84-2.66 1.26"/><path fill="#ECB9B1" d="M2046.45 1442.05l-30.5-209.24c.73-.35 1.46-.72 2.18-1.08l31.29 208.85c-.98.49-1.97.98-2.97 1.47"/><path fill="#ECB9B1" d="M2049.42 1440.58l-31.29-208.85c.72-.37 1.44-.74 2.15-1.11l32.06 208.45c-.96.5-1.94 1.01-2.92 1.51M2052.35 1439.06l-32.06-208.45c.71-.38 1.42-.76 2.12-1.15l32.82 208.04c-.95.53-1.91 1.05-2.88 1.56"/><path fill="#ECB9B1" d="M2055.23 1437.5l-32.82-208.04c.28-.15.55-.31.83-.46l33.12 207.87c-.37.22-.75.43-1.13.63"/></g></g><path fill="#EDD1C6" d="M2023.24 1229.01c-53.18 29.84-138.21 28.98-189.9-1.92-51.7-30.9-50.49-80.15 2.7-109.99s138.21-28.98 189.9 1.92 50.49 80.14-2.7 109.99zm-59.95-35.84c19.12-10.73 19.56-28.44.97-39.55-18.59-11.11-49.16-11.42-68.28-.69s-19.56 28.44-.97 39.55c18.59 11.11 49.16 11.42 68.28.69"/></g></g><g><defs><path id="P" d="M2027.37 1821.89c.23-.14.51-.13.73.01 3.69-1.87 8.05-1.87 11.74 0 .22-.14.5-.15.72-.01-2.03-1.08-4.3-1.64-6.6-1.61-1.15 0-2.31.13-3.43.39-1.1.25-2.17.67-3.16 1.22z"/></defs><clipPath id="Q"><use xlink:href="#P" overflow="visible"/></clipPath><g clip-path="url(#Q)"><path fill="#232222" d="M2027.37 1821.89c4.12-2.14 9.03-2.15 13.16-.02-.22-.12-.48-.1-.69.03-3.69-1.87-8.05-1.87-11.74 0-.21-.14-.5-.14-.73-.01"/><path fill="#232222" d="M2040 1821.83c-3.76-1.87-8.19-1.85-11.94.05-.22-.12-.48-.12-.69.01l.58-.31c.19-.09.45-.21.64-.29l.62-.24c.2-.06.46-.15.66-.21l.66-.17c.2-.04.47-.1.68-.14l.68-.11c.21-.02.48-.06.69-.08l.69-.05c.21 0 .49-.02.7-.02l.7.02c.21.01.49.03.69.05l.69.08c.2.03.48.07.68.11l.67.14c.2.05.47.12.66.17l.64.21c.19.07.45.17.64.24l.61.27c.19.1.44.22.62.33-.17-.1-.38-.12-.57-.06"/><path fill="#1D1C1C" d="M2040.26 1821.79c-3.88-1.9-8.43-1.89-12.3.04-.19-.07-.41-.05-.58.06.39-.23.8-.43 1.22-.61l.62-.24c.2-.06.46-.15.66-.21l.66-.17c.2-.04.47-.1.68-.14l.68-.11c.21-.02.48-.06.69-.08l.69-.05c.21 0 .49-.02.7-.02l.7.02c.21.01.49.03.69.05l.69.08c.2.03.48.07.68.11l.67.14c.2.05.47.12.66.17l.64.21c.19.07.45.17.64.24l.61.27c.19.1.44.22.62.33-.11-.05-.21-.08-.32-.09"/><path fill="#161616" d="M2040.5 1821.85c-3.97-2.05-8.68-2.07-12.66-.05-.16-.03-.32.01-.46.09l.58-.31c.19-.09.45-.21.64-.29l.62-.24c.2-.06.46-.15.66-.21l.66-.17c.2-.04.47-.1.68-.14l.68-.11c.21-.02.48-.06.69-.08l.69-.05c.21 0 .49-.02.7-.02l.7.02c.21.01.49.03.69.05l.69.08c.2.03.48.07.68.11l.67.14c.2.05.47.12.66.17l.64.21c.19.07.45.17.64.24l.61.27c.19.1.44.22.62.33l-.08-.04"/><path fill="#101010" d="M2034.3 1820.28c-2.3-.08-4.58.44-6.62 1.51-.11.01-.21.04-.31.1.39-.23.8-.43 1.22-.61l.62-.24c.2-.06.46-.15.66-.21l.66-.17c.2-.04.47-.1.68-.14l.68-.11c.21-.02.48-.06.69-.08l.69-.05c.21 0 .49-.02.7-.02l.7.02.15.01-.52-.01"/></g><defs><path id="R" d="M2040.57 1821.89l6.03 3.48 6.03 3.48 6.03 3.48 6.03 3.48 6.03 3.48 6.03 3.48 6.03 3.48 6.03 3.48 6.03 3.48 6.03 3.48c-.22-.13-.5-.13-.72.01l-60.32-34.82c.24-.12.52-.12.74.01z"/></defs><clipPath id="S"><use xlink:href="#R" overflow="visible"/></clipPath><g clip-path="url(#S)"><path fill="#292828" d="M2100.16 1856.73l-60.32-34.82c.05-.03.1-.05.15-.07l60.32 34.82c-.05.02-.1.04-.15.07"/><path fill="#232222" d="M2100.31 1856.66l-60.32-34.82c.08-.03.17-.04.26-.04l60.32 34.82c-.09-.01-.17.01-.26.04"/><path fill="#1D1C1C" d="M2100.57 1856.62l-60.32-34.82c.08 0 .17.03.24.06l60.32 34.82c-.07-.04-.16-.06-.24-.06"/><path fill="#161616" d="M2100.81 1856.68l-60.32-34.82.07.04 6.03 3.48 6.03 3.48 6.03 3.48 6.03 3.48 6.03 3.48 6.03 3.48 6.03 3.48 6.03 3.48 6.03 3.48 6.03 3.48-.05-.02"/></g><defs><path id="T" d="M2105.92 1870.72c-.16 8.87-3.58 10.94-5.04 11.83.95-.55 1.65-3.34 1.66-7.1 1.89-.85 3.19-2.65 3.38-4.73z"/></defs><clipPath id="U"><use xlink:href="#T" overflow="visible"/></clipPath><g clip-path="url(#U)"><path fill="#161616" d="M2105.92 1870.72c-.16 8.87-3.58 10.94-5.04 11.83.95-.55 1.65-3.34 1.66-7.1 1.89-.85 3.19-2.65 3.38-4.73"/><path fill="#161616" d="M2102.33 1878.75c.12-.22.43-.4.62-.57.62-.67 1.13-1.43 1.5-2.26.47-1.04.8-2.15.98-3.28.31-.59.48-1.25.49-1.92l-.01.8c-.01.25-.03.58-.04.83l-.06.76c-.03.24-.06.55-.09.79l-.11.73c-.04.23-.1.53-.14.75l-.16.68c-.06.22-.13.5-.2.72l-.2.64c-.08.21-.18.49-.26.69l-.26.59c-.11.21-.25.49-.36.7l-.33.53c-.18.25-.42.57-.61.81l-.42.45c-.54.53-1.14.99-1.79 1.37.64-.38 1.17-1.78 1.45-3.81"/><path fill="#101010" d="M2101.82 1881.04c.18-.17.38-.32.59-.44.93-.76 1.67-1.71 2.16-2.8.74-1.66 1.17-3.45 1.27-5.27l-.07.76-.07.61-.11.73c-.04.23-.1.53-.14.75l-.16.68c-.06.22-.13.5-.2.72l-.2.64c-.08.21-.18.49-.26.69l-.26.59c-.11.21-.25.49-.36.7l-.33.53c-.18.25-.42.57-.61.81l-.42.45c-.54.53-1.14.99-1.79 1.37.49-.39.83-.92.96-1.52"/></g><defs><path id="V" d="M2105.93 1868.61l-.01 2.11c-.19 2.07-1.49 3.88-3.39 4.73l.01-2.11c1.9-.85 3.19-2.66 3.39-4.73z"/></defs><clipPath id="W"><use xlink:href="#V" overflow="visible"/></clipPath><g clip-path="url(#W)"><path fill="#161616" d="M2105.93 1868.61l-.01 2.11c-.01.67-.17 1.33-.49 1.92l.01-2.11c.31-.59.48-1.25.49-1.92"/><path fill="#1D1C1C" d="M2105.44 1870.53l-.01 2.11c-.68 1.19-1.68 2.17-2.9 2.81l.01-2.11c1.22-.64 2.22-1.61 2.9-2.81"/></g><defs><path id="X" d="M2100.88 1856.71c1.68.95 2.98 2.45 3.7 4.24.94 2.44 1.4 5.04 1.35 7.66-.19 2.07-1.49 3.88-3.39 4.73.01-4.67-1.03-9.06-2.34-9.82 1.87-.65 2.87-2.7 2.22-4.57-.37-1.05-1.2-1.88-2.26-2.23.22-.14.5-.14.72-.01z"/></defs><clipPath id="Y"><use xlink:href="#X" overflow="visible"/></clipPath><g clip-path="url(#Y)"><path fill="#353535" d="M2100.88 1856.71c1.38.86 5.04 3.15 5.04 11.9-.19 2.07-1.49 3.88-3.39 4.73.01-4.67-1.03-9.06-2.34-9.82 1.87-.65 2.87-2.7 2.22-4.57-.37-1.05-1.2-1.88-2.26-2.23.23-.14.51-.14.73-.01"/><path fill="#353535" d="M2101.1 1864.69c.1-.51.79-.54.86-1.08.01-.1 0-.29-.1-.33-.08-.03-.17.09-.25.13-.32.2-.66.36-1.02.47-.11-.14-.24-.25-.4-.35 1.87-.65 2.87-2.7 2.22-4.57-.37-1.05-1.2-1.88-2.26-2.23.22-.14.5-.15.72-.01l.55.34c.6.41 1.15.89 1.63 1.44l.37.46c.18.26.42.61.58.89l.29.53c.1.23.24.53.34.75l.23.59c.07.22.17.51.24.73l.18.65c.05.23.13.52.17.75l.13.7c.04.23.09.55.12.78l.09.74c.02.24.05.57.07.81l.04.78c.01.28.01.66.01.95-.19 2.07-1.49 3.88-3.39 4.73.12-2.95-.37-5.89-1.42-8.65"/><path fill="#2F2F2F" d="M2101.53 1865.78c.05-.2.35-.32.49-.46 1.01-1.04 1.46-2.51 1.18-3.93-.1-.04-.2-.03-.29.02-.04.02-.06.08-.09.11-.61.91-1.45 1.65-2.43 2.16-.06-.05-.13-.1-.2-.14 1.87-.65 2.87-2.7 2.22-4.57-.37-1.05-1.2-1.88-2.26-2.23.22-.14.5-.15.72-.01l.55.34c.6.41 1.15.89 1.63 1.44l.37.46c.18.26.42.61.58.89l.29.53c.1.23.24.53.34.75l.23.59c.07.22.17.51.24.73l.18.65c.05.23.13.52.17.75l.13.7c.04.23.09.55.12.78l.09.74c.02.24.05.57.07.81l.04.78c.01.28.01.66.01.95-.19 2.07-1.49 3.88-3.39 4.73.07-2.56-.27-5.12-.99-7.57"/><path fill="#292828" d="M2101.96 1867.37c.04-.16.27-.28.38-.4.88-1.01 1.42-2.28 1.54-3.62.27-1.35-.03-2.75-.84-3.87 0 0-.17.08-.18.49-.19 1.56-1.16 2.91-2.58 3.6l-.07-.05c1.87-.65 2.87-2.7 2.22-4.57-.37-1.05-1.2-1.88-2.26-2.23.22-.14.5-.15.72-.01l.55.34c.6.41 1.15.89 1.63 1.44l.37.46c.18.26.42.61.58.89l.29.53c.1.23.24.53.34.75l.23.59c.07.22.17.51.24.73l.18.65c.05.23.13.52.17.75l.13.7c.04.23.09.55.12.78l.09.74c.02.24.05.57.07.81l.04.78c.01.28.01.66.01.95-.19 2.07-1.49 3.88-3.39 4.73.02-1.99-.18-4-.58-5.96"/><path fill="#232222" d="M2102.36 1869.85c.07-.24.38-.44.54-.63.55-.77.96-1.64 1.21-2.56.39-1.46.49-2.99.28-4.49-.32-2.42-1.86-4.51-4.08-5.52.19-.07.4-.05.57.06l.55.34c.6.41 1.15.89 1.63 1.44l.37.46c.18.26.42.61.58.89l.29.53c.1.23.24.53.34.75l.23.59c.07.22.17.51.24.73l.18.65c.05.23.13.52.17.75l.13.7c.04.23.09.55.12.78l.09.74c.02.24.05.57.07.81l.04.78c.01.28.01.66.01.95-.19 2.07-1.49 3.88-3.39 4.73.02-1.15-.05-2.32-.17-3.48"/><path fill="#1D1C1C" d="M2102.54 1873.26c.09-.25.41-.46.59-.66.82-1.1 1.38-2.37 1.64-3.72.39-1.71.48-3.47.28-5.21-.11-2.99-1.82-5.69-4.48-7.06.11.01.22.04.31.1l.55.34c.6.41 1.15.89 1.63 1.44l.37.46c.18.26.42.62.58.89l.29.53c.1.23.24.53.34.75l.23.59c.07.22.17.51.24.73l.18.65c.05.23.13.52.17.75l.13.7c.04.23.09.55.12.78l.09.74c.02.24.05.57.07.81l.04.78c.01.28.01.66.01.95-.19 2.07-1.49 3.88-3.39 4.73l.01-.07"/><path fill="#161616" d="M2105.55 1869.8c.44-3.58.41-10.04-4.74-13.12l.07.04.55.34c.6.41 1.15.89 1.63 1.44l.37.46c.18.26.42.62.58.89l.29.53c.1.23.24.53.34.75l.23.59c.07.22.17.51.24.73l.18.65c.05.23.13.52.17.75l.13.7c.04.23.09.55.12.78l.09.74c.02.24.05.57.07.81l.04.78c.01.28.01.66.01.95-.01.67-.17 1.33-.49 1.92.04-.22.09-.51.12-.73"/></g><defs><path id="Z" d="M1895.1 1898.76l13.23-7.69 13.23-7.69 13.23-7.69 13.23-7.69 13.23-7.69 13.23-7.69 13.23-7.69 13.23-7.69 13.23-7.69 13.23-7.69c.23-.14.51-.13.73.01l-132.27 76.87c-.25-.11-.54-.11-.76.02z"/></defs><clipPath id="aa"><use xlink:href="#Z" overflow="visible"/></clipPath><g clip-path="url(#aa)"><path fill="#292828" d="M2028.11 1821.91l-132.28 76.87-.04-.02 6.61-3.84 6.61-3.84 6.61-3.84 6.61-3.84 6.61-3.84 6.61-3.84 6.61-3.84 6.61-3.84 6.61-3.84 6.61-3.84 6.61-3.84 6.61-3.84 6.61-3.84 6.61-3.84 6.61-3.84 6.61-3.84 6.61-3.84 6.61-3.84 6.61-3.84 6.61-3.84.12-.05"/><path fill="#232222" d="M2028.07 1821.88l-6.61 3.84-6.61 3.84-6.61 3.84-6.61 3.84-6.61 3.84-6.61 3.84-6.61 3.84-6.61 3.84-6.61 3.84-6.61 3.84-6.61 3.84-6.61 3.84-6.61 3.84-6.61 3.84-6.61 3.84-6.61 3.84-6.61 3.84-6.61 3.84-6.61 3.84-6.61 3.84c-.04-.02-.07-.03-.11-.05l132.28-76.87c-.05.08-.02.1.03.12"/><path fill="#1D1C1C" d="M2027.96 1821.84l-132.28 76.87c-.04-.01-.08-.03-.12-.03l132.28-76.87c.04 0 .08.01.12.03"/><path fill="#161616" d="M2027.83 1821.8l-132.28 76.87c-.05-.01-.1-.01-.15-.01l132.28-76.87c.05 0 .1.01.15.01"/><path fill="#101010" d="M2027.68 1821.8l-132.28 76.87c-.11.01-.21.04-.31.1l13.23-7.69 13.23-7.69 13.23-7.69 13.23-7.69 13.23-7.69 13.23-7.69 13.23-7.69 13.23-7.69 13.23-7.69 13.23-7.69c.08-.03.18-.07.29-.07"/></g><defs><path id="ab" d="M1895.1 1924.61c-1.38-.86-5.05-3.15-5.04-11.9.19 2.1 1.5 3.94 3.43 4.8-.01 3.76.66 6.55 1.61 7.1z"/></defs><clipPath id="ac"><use xlink:href="#ab" overflow="visible"/></clipPath><g clip-path="url(#ac)"><path fill="#0A0A0A" d="M1895.1 1924.61c-1.59-.99-4.91-3.07-5.04-11.85.2 2.09 1.51 3.9 3.43 4.75-.01 3.76.67 6.55 1.61 7.1"/></g><g><defs><path id="ad" d="M1890.06 1912.71l.01-2.11c.19 2.1 1.5 3.94 3.43 4.8l-.01 2.11c-1.93-.86-3.24-2.7-3.43-4.8z"/></defs><clipPath id="ae"><use xlink:href="#ad" overflow="visible"/></clipPath><g clip-path="url(#ae)"><path fill="#101010" d="M1893.5 1915.39l-.01 2.11c-1.93-.86-3.24-2.7-3.43-4.8l.01-2.11c.18 2.11 1.5 3.94 3.43 4.8"/></g></g><g><defs><path id="af" d="M1890.07 1910.59c.16-8.91 3.7-11.03 5.03-11.83.23-.14.51-.13.73.01-1.87.66-2.86 2.71-2.21 4.58.37 1.05 1.19 1.86 2.24 2.22-1.3.75-2.36 5.15-2.37 9.82-1.92-.86-3.24-2.69-3.42-4.8z"/></defs><clipPath id="ag"><use xlink:href="#af" overflow="visible"/></clipPath><g clip-path="url(#ag)"><path fill="#232222" d="M1890.07 1910.59c.16-8.91 3.7-11.03 5.03-11.83.23-.14.51-.13.73.01-1.87.66-2.86 2.71-2.21 4.58.37 1.05 1.19 1.86 2.24 2.22-1.3.75-2.36 5.15-2.37 9.82-1.92-.86-3.24-2.69-3.42-4.8"/><path fill="#232222" d="M1895.79 1898.75c-4.64 2.89-1.45 5.95-.25 7.1-1.55 2.93-2.26 6.23-2.04 9.54-1.93-.86-3.24-2.7-3.43-4.8l.01-.8c.01-.27.03-.63.05-.9l.07-.76c.03-.24.06-.55.1-.79l.11-.73c.04-.23.1-.53.14-.75l.16-.68c.06-.21.13-.5.2-.72l.21-.63c.08-.21.18-.49.26-.69l.26-.58c.11-.21.25-.49.37-.7l.33-.53c.18-.25.43-.58.63-.82l.42-.45c.52-.5 1.09-.93 1.72-1.3.2-.13.47-.13.68-.01"/><path fill="#1D1C1C" d="M1895.68 1898.71c-3.26 2-3.42 4.68-.44 7.55-1.28 2.87-1.88 6-1.74 9.14-1.93-.86-3.24-2.7-3.43-4.8l.01-.8c.01-.27.03-.63.05-.9l.07-.76c.03-.24.06-.55.1-.79l.11-.73c.04-.23.1-.53.14-.75l.16-.68c.06-.21.13-.5.2-.72l.21-.63c.08-.21.18-.49.26-.69l.26-.58c.11-.21.25-.49.37-.7l.33-.53c.18-.25.43-.58.63-.82l.42-.45c.52-.5 1.09-.93 1.72-1.3.17-.12.38-.14.57-.06"/><path fill="#161616" d="M1895.56 1898.67c-4.71 2.85-2.06 6.32-.64 8.18-1.01 2.73-1.49 5.63-1.42 8.54-1.93-.86-3.24-2.7-3.43-4.8l.01-.8c.01-.27.03-.63.05-.9l.07-.76c.03-.24.06-.55.1-.79l.11-.73c.04-.23.1-.53.14-.75l.16-.68c.06-.21.13-.5.2-.72l.21-.63c.08-.21.18-.49.26-.69l.26-.58c.11-.21.25-.49.37-.7l.33-.53c.18-.25.43-.58.63-.82l.42-.45c.52-.5 1.09-.93 1.72-1.3.13-.08.29-.11.45-.09"/><path fill="#101010" d="M1895.4 1898.67c-4.45 2.67-2.77 6.02-.99 9.57-.62 2.33-.93 4.74-.91 7.16-1.93-.86-3.24-2.7-3.43-4.8l.01-.8c.01-.27.03-.63.05-.9l.07-.76c.03-.24.06-.55.1-.79l.11-.73c.04-.23.1-.53.14-.75l.16-.68c.06-.21.13-.5.2-.72l.21-.63c.08-.21.18-.49.26-.69l.26-.58c.11-.21.25-.49.37-.7l.33-.53c.18-.25.43-.58.63-.82l.42-.45c.52-.5 1.09-.93 1.72-1.3.08-.06.19-.1.29-.1"/></g></g><g><defs><path id="ah" d="M2100.88 1882.55l-13.23 7.69-13.23 7.69-13.23 7.69-13.23 7.69-13.23 7.69-13.23 7.69-13.23 7.69-13.23 7.69-13.23 7.69-13.23 7.69c.95-.55 1.65-3.34 1.66-7.1l132.28-76.87c.01 3.73-.69 6.52-1.64 7.07z"/></defs><clipPath id="ai"><use xlink:href="#ah" overflow="visible"/></clipPath><g clip-path="url(#ai)"><path fill="#1D1C1C" d="M1970.26 1952.33l132.28-76.87c0 1.1-.07 2.2-.21 3.3l-132.28 76.87c.14-1.1.21-2.2.21-3.3"/><path fill="#161616" d="M1970.05 1955.62l132.28-76.87c-.1.78-.26 1.54-.5 2.29l-132.28 76.87c.24-.74.41-1.51.5-2.29"/><path fill="#101010" d="M1969.55 1957.91l132.28-76.87c-.14.59-.47 1.13-.94 1.51l-13.23 7.69-13.23 7.69-13.23 7.69-13.23 7.69-13.23 7.69-13.23 7.69-13.23 7.69-13.23 7.69-13.23 7.69-13.23 7.69c.49-.41.82-.94.96-1.54"/></g></g><g><defs><path id="aj" d="M1955.41 1959.43l-6.03-3.48-6.03-3.48-6.03-3.48-6.03-3.48-6.03-3.48-6.03-3.48-6.03-3.48-6.03-3.48-6.03-3.48-6.03-3.48c-.94-.54-1.62-3.34-1.61-7.1l60.32 34.82c-.02 3.74.65 6.53 1.59 7.08z"/></defs><clipPath id="ak"><use xlink:href="#aj" overflow="visible"/></clipPath><g clip-path="url(#ak)"><path fill="#101010" d="M1893.49 1917.51l60.32 34.82c-.01 3.76.66 6.56 1.61 7.1l-6.03-3.48-6.03-3.48-6.03-3.48-6.03-3.48-6.03-3.48-6.03-3.48-6.03-3.48-6.03-3.48-6.03-3.48-6.03-3.48c-.96-.56-1.64-3.36-1.63-7.12"/></g></g><path fill="#232222" d="M2102.54 1873.35l-.01 2.11-132.27 76.87.01-2.11z"/><path fill="#0D0D0D" d="M1953.81 1950.22l-.01 2.11-60.31-34.82.01-2.12z"/><g><defs><path id="al" d="M1968.61 1959.42c-2.02 1.1-4.29 1.66-6.59 1.62-1.15 0-2.3-.13-3.43-.39-1.11-.25-2.19-.67-3.18-1.23-.94-.54-1.62-3.34-1.61-7.1 5.17 2.64 11.29 2.64 16.46 0-.01 3.76-.7 6.55-1.65 7.1z"/></defs><clipPath id="am"><use xlink:href="#al" overflow="visible"/></clipPath><g clip-path="url(#am)"><path fill="#1D1C1C" d="M1968.61 1959.42c-4.12 2.14-9.03 2.15-13.16.02-.97-.56-1.65-3.35-1.64-7.12 5.17 2.64 11.29 2.64 16.46 0-.02 3.76-.71 6.55-1.66 7.1"/><path fill="#1D1C1C" d="M1953.81 1952.33c4.47 2.26 9.67 2.61 14.41.95l.69-.17c.35-.17.69-.36 1.01-.58.12-.06.24-.13.35-.2-.01 3.76-.71 6.54-1.66 7.1l-.58.31c-.19.09-.45.21-.64.29l-.62.24c-.2.06-.46.15-.66.21l-.66.17c-.2.04-.47.1-.67.14l-.68.11c-.21.02-.48.06-.69.08l-.69.05c-.21 0-.49.02-.69.02l-.69-.01c-.21-.01-.48-.03-.69-.05l-.69-.08c-.2-.03-.48-.07-.68-.11l-.67-.14c-.2-.05-.47-.12-.66-.17l-.65-.21c-.19-.07-.45-.17-.64-.24l-.61-.28c-.19-.1-.44-.23-.62-.33-.96-.55-1.64-3.34-1.62-7.1"/><path fill="#161616" d="M1953.81 1952.33c2.65 1.41 5.63 2.09 8.63 1.97l.05.05c2.69 2.65 4.89 3.02 7.57 1.27-.28 2.03-.8 3.43-1.45 3.8l-.58.31c-.19.09-.45.21-.64.29l-.62.24c-.2.06-.46.15-.66.21l-.66.17c-.2.04-.47.1-.67.14l-.68.11c-.21.02-.48.06-.69.08l-.69.05c-.21 0-.49.02-.69.02l-.69-.01c-.21-.01-.48-.03-.69-.05l-.69-.08c-.2-.03-.48-.07-.68-.11l-.67-.14c-.2-.05-.47-.12-.66-.17l-.65-.21c-.19-.07-.45-.17-.64-.24l-.61-.28c-.19-.1-.44-.23-.62-.33-.96-.53-1.63-3.33-1.62-7.09"/><path fill="#101010" d="M1953.81 1952.33c1.48.82 3.08 1.39 4.75 1.67l.38.68c3.7 6.02 8.24 4.61 10.61 3.23-.14.59-.47 1.13-.94 1.51l-.58.31c-.19.09-.45.21-.64.29l-.62.24c-.2.06-.46.15-.66.21l-.66.17c-.2.04-.47.1-.67.14l-.68.11c-.21.02-.48.06-.69.08l-.69.05c-.21 0-.49.02-.69.02l-.69-.01c-.21-.01-.48-.03-.69-.05l-.69-.08c-.2-.03-.48-.07-.68-.11l-.67-.14c-.2-.05-.47-.12-.66-.17l-.65-.21c-.19-.07-.45-.17-.64-.24l-.61-.28c-.19-.1-.44-.23-.62-.33-.96-.53-1.63-3.33-1.62-7.09"/></g></g><g><defs><path id="an" d="M1970.27 1950.22l-.01 2.11c-5.17 2.64-11.29 2.64-16.46 0l.01-2.11c5.17 2.63 11.29 2.63 16.46 0z"/></defs><clipPath id="ao"><use xlink:href="#an" overflow="visible"/></clipPath><g clip-path="url(#ao)"><path fill="#1D1C1C" d="M1970.27 1950.22l-.01 2.11c-.12.07-.24.14-.36.2l.01-2.11c.12-.07.24-.14.36-.2"/><path fill="#232222" d="M1969.91 1950.42l-.01 2.11c-.53.28-1.08.53-1.65.73l.01-2.11c.57-.21 1.12-.45 1.65-.73"/><path fill="#1D1C1C" d="M1968.26 1951.15l-.01 2.11c-1.87.66-3.84 1.02-5.82 1.04l.01-2.11c1.99-.03 3.95-.38 5.82-1.04"/><path fill="#161616" d="M1962.44 1952.19l-.01 2.11c-1.3.03-2.6-.07-3.88-.3l.01-2.11c1.29.22 2.58.33 3.88.3"/><path fill="#101010" d="M1958.57 1951.88l-.01 2.11c-1.67-.28-3.28-.85-4.76-1.67l.01-2.11c1.48.83 3.09 1.39 4.76 1.67"/></g></g><g><defs><path id="ap" d="M2100.2 1863.53c1.3.75 2.35 5.15 2.34 9.82l-132.28 76.87c.01-4.67-1.03-9.06-2.34-9.82l132.28-76.87z"/></defs><clipPath id="aq"><use xlink:href="#ap" overflow="visible"/></clipPath><g clip-path="url(#aq)"><path fill="#292828" d="M1967.93 1940.4l132.28-76.87.07.05-132.28 76.87-.07-.05"/><path fill="#2F2F2F" d="M1968 1940.45l132.28-76.87.12.09-132.28 76.87-.12-.09"/><path fill="#353535" d="M1968.12 1940.54l132.28-76.87c.07.06.13.12.19.19l-132.28 76.87c-.06-.07-.12-.13-.19-.19"/><path fill="#3C3B3B" d="M1968.31 1940.73l132.28-76.87c.2.25.38.52.51.82l-132.28 76.87c-.13-.29-.3-.57-.51-.82"/><path fill="#353535" d="M1968.82 1941.55l132.28-76.87c.17.36.32.72.44 1.1l-132.28 76.87c-.12-.37-.27-.74-.44-1.1"/><path fill="#2F2F2F" d="M1969.26 1942.65l132.28-76.87c.17.52.31 1.05.42 1.59l-132.28 76.87c-.11-.53-.25-1.06-.42-1.59"/><path fill="#292828" d="M1969.68 1944.24l132.28-76.87c.17.82.31 1.64.4 2.48l-132.28 76.87c-.09-.83-.22-1.66-.4-2.48"/><path fill="#232222" d="M1970.08 1946.72l132.28-76.87c.13 1.13.19 2.27.19 3.41l-132.28 76.87c0-1.14-.06-2.28-.19-3.41"/><path fill="#1D1C1C" d="M1970.27 1950.13l132.28-76.87v.08l-132.28 76.87v-.08"/></g></g><g><defs><path id="ar" d="M1956.18 1940.4c-1.3.75-2.36 5.15-2.37 9.82l-60.32-34.82c.01-4.67 1.08-9.06 2.37-9.82l60.32 34.82z"/></defs><clipPath id="as"><use xlink:href="#ar" overflow="visible"/></clipPath><g clip-path="url(#as)"><path fill="#292828" d="M1895.87 1905.58l60.32 34.82c-.12.07-.23.17-.33.27l-60.32-34.82c.1-.11.21-.2.33-.27"/><path fill="#232222" d="M1895.54 1905.85l60.32 34.82c-.11.12-.21.26-.3.4l-60.32-34.82c.09-.14.19-.28.3-.4"/><path fill="#1D1C1C" d="M1895.24 1906.25l60.32 34.82c-.12.19-.23.39-.32.6l-60.32-34.82c.09-.21.2-.41.32-.6"/><path fill="#161616" d="M1894.92 1906.85l60.32 34.82c-.2.45-.37.91-.51 1.39l-60.32-34.82c.14-.48.31-.94.51-1.39"/><path fill="#101010" d="M1894.41 1908.24l60.32 34.82c-.62 2.33-.93 4.74-.91 7.16l-60.32-34.82c-.02-2.42.29-4.83.91-7.16"/></g></g><path fill="#2B2B2B" d="M2100.16 1856.73c1.88.63 2.9 2.67 2.27 4.55-.35 1.06-1.18 1.89-2.23 2.26l-132.28 76.87c-3.69 1.88-8.05 1.88-11.74 0l-60.32-34.82c-1.88-.64-2.89-2.68-2.26-4.56.35-1.05 1.17-1.88 2.22-2.24l132.28-76.87c3.69-1.87 8.05-1.87 11.74 0l60.32 34.81z"/><g><defs><path id="at" d="M1967.93 1940.4c1.3.75 2.35 5.15 2.34 9.82-5.17 2.64-11.29 2.64-16.46 0 .01-4.67 1.08-9.06 2.37-9.82 3.69 1.88 8.06 1.88 11.75 0z"/></defs><clipPath id="au"><use xlink:href="#at" overflow="visible"/></clipPath><g clip-path="url(#au)"><path fill="#353535" d="M1967.93 1940.4c1.3.75 2.35 5.15 2.34 9.82-5.17 2.64-11.29 2.64-16.46 0 .01-4.67 1.08-9.06 2.37-9.82 3.69 1.88 8.06 1.88 11.75 0"/><path fill="#353535" d="M1956.18 1940.4c3.69 1.88 8.05 1.88 11.74 0 .15.09.28.21.4.35l-.48.31c-.93.42-1.87.8-2.84 1.13.01.01 1.13.99 3.82-.64 1.05 2.76 1.54 5.71 1.44 8.66-5.17 2.64-11.29 2.64-16.46 0 .02-4.66 1.09-9.06 2.38-9.81"/><path fill="#2F2F2F" d="M1956.18 1940.4c3.69 1.88 8.05 1.88 11.74 0 .07.04.14.09.2.14l-.47.28c-1.65.77-3.44 1.22-5.26 1.33-.32.02-.63.13-.9.31 2.36 1.46 5.33 1.53 7.76.18.71 2.46 1.05 5.01 1.01 7.57-5.17 2.64-11.29 2.64-16.46 0 .02-4.66 1.09-9.06 2.38-9.81"/><path fill="#292828" d="M1956.18 1940.4c3.69 1.88 8.05 1.88 11.74 0l.07.05-.48.26c-1.23.59-2.56.96-3.92 1.1-1.67.2-3.33-.18-5-.02.06.06 6.86 5.49 11.08 2.45.4 1.97.6 3.97.58 5.98-5.17 2.64-11.29 2.64-16.46 0 .04-4.67 1.1-9.07 2.39-9.82"/><path fill="#232222" d="M1955.85 1940.68c.5-.03.58.46.86.7.46.38 1.52 1.16 1.53 1.17 4.07 2.95 4.1 2.97 5.5 3.86 3.66 2.31 5.27 1.11 6.33.31.13 1.16.19 2.33.19 3.5-5.17 2.64-11.29 2.64-16.46 0-.21-3.31.5-6.62 2.05-9.54"/><path fill="#1D1C1C" d="M1955.55 1941.07c2.05 1.87 3.99 3.86 5.8 5.97 1.04 1.14 4.21 4.62 6.86 4.12-4.73 1.66-9.93 1.31-14.41-.95-.12-3.13.47-6.26 1.75-9.14"/><path fill="#161616" d="M1955.23 1941.67c2.54 3.41 4.41 7.28 7.21 10.51-3 .12-5.98-.56-8.63-1.97-.07-2.91.41-5.8 1.42-8.54"/><path fill="#101010" d="M1954.73 1943.05c1.3 2.93 2.31 6 3.84 8.83-1.67-.28-3.27-.85-4.75-1.67-.02-2.41.28-4.82.91-7.16"/><path fill="#1D1C1C" d="M1970.27 1950.13v.08c-.12.07-.23.13-.35.2l.35-.28"/></g></g></g><linearGradient id="av" gradientUnits="userSpaceOnUse" x1="3474.3977" y1="242.1424" x2="3474.3977" y2="14.4988" gradientTransform="translate(-1476.3994 1626.9626)"><stop offset=".4496" stop-color="#0ff"/><stop offset=".9997" stop-color="#0ff" stop-opacity="0"/></linearGradient><path opacity=".5" fill="url(#av)" d="M2086.32 1643.58l-53.31-30.62c-2.25-1.14-4.91-1.14-7.17 0l-115.57 66.81c-.83.37-1.39 1.16-1.47 2.06v-.01l-.62 217.05c.08.91.66 1.71 1.49 2.08l53.31 30.62c.23.13.48.25.73.35.2.08.4.15.62.21.1.03.2.05.3.07l.07.02c.05.01.1.03.16.04.17.03.33.06.5.09.16.02.33.04.49.06.17.01.33.02.5.03h.52c.19-.01.38-.02.56-.04.22-.02.43-.05.65-.09.09-.02.18-.05.27-.07l.24-.06c.15-.04.3-.06.44-.11.39-.12.76-.28 1.11-.48l115.57-66.81.06-.04c.1-.06.17-.12.25-.19.12-.08.24-.17.36-.26l.03-.02c.11-.1.22-.22.31-.34.02-.03.03-.05.05-.08l.06-.08c.03-.05.07-.09.09-.14.05-.09.1-.19.14-.29l.01-.04.02-.06c.02-.06.04-.12.05-.18.02-.1.03-.19.03-.29v-.04l.62-217.05c-.01.1-.03.21-.05.31.12-1.06-.47-2.02-1.42-2.41zm1.09 3.2c-.09.12-.19.23-.3.33.11-.11.21-.22.3-.33zm.13-.22c.07-.11.12-.22.17-.34v.01c-.05.11-.11.22-.17.33zm-178.68 35.59c.01.08.02.16.04.24-.02-.08-.03-.16-.04-.24zm.62 1.1c.06.06.1.13.17.18-.07-.05-.11-.12-.17-.18zm-.41-.53c.03.07.07.14.11.21-.04-.07-.08-.14-.11-.21zm177.59-35.24l-.01.01c-.1.07-.19.15-.31.22.11-.08.22-.15.32-.23z"/><g><path fill="#2BEAEF" d="M2085.04 1861.32c2.26.77 3.46 3.23 2.69 5.48-.42 1.24-1.39 2.22-2.63 2.67l-109.2 62.65c-4.39 2.25-9.59 2.25-13.98 0l-51.22-29.81c-2.26-.77-3.46-3.23-2.69-5.49.43-1.25 1.4-2.23 2.64-2.67l109.2-62.65c4.38-2.25 9.58-2.25 13.96.01l51.23 29.81z"/></g><g><path fill="#2BEAEF" d="M2085.04 1861.32c2.26.77 3.46 3.23 2.69 5.48-.42 1.24-1.39 2.22-2.63 2.67l-109.2 62.65c-4.39 2.25-9.59 2.25-13.98 0l-51.22-29.81c-2.26-.77-3.46-3.23-2.69-5.49.43-1.25 1.4-2.23 2.64-2.67l109.2-62.65c4.38-2.25 9.58-2.25 13.96.01l51.23 29.81z"/></g></svg>